%TF.GenerationSoftware,KiCad,Pcbnew,7.0.6*%
%TF.CreationDate,2023-08-04T15:36:23+02:00*%
%TF.ProjectId,Debug_BreakBoard,44656275-675f-4427-9265-616b426f6172,rev?*%
%TF.SameCoordinates,Original*%
%TF.FileFunction,Copper,L4,Bot*%
%TF.FilePolarity,Positive*%
%FSLAX46Y46*%
G04 Gerber Fmt 4.6, Leading zero omitted, Abs format (unit mm)*
G04 Created by KiCad (PCBNEW 7.0.6) date 2023-08-04 15:36:23*
%MOMM*%
%LPD*%
G01*
G04 APERTURE LIST*
%TA.AperFunction,ComponentPad*%
%ADD10R,1.700000X1.700000*%
%TD*%
%TA.AperFunction,ComponentPad*%
%ADD11O,1.700000X1.700000*%
%TD*%
%TA.AperFunction,ComponentPad*%
%ADD12C,4.500000*%
%TD*%
%TA.AperFunction,ComponentPad*%
%ADD13C,2.000000*%
%TD*%
%TA.AperFunction,ComponentPad*%
%ADD14C,2.010000*%
%TD*%
%TA.AperFunction,ViaPad*%
%ADD15C,0.450000*%
%TD*%
%TA.AperFunction,Conductor*%
%ADD16C,0.254000*%
%TD*%
G04 APERTURE END LIST*
D10*
%TO.P,J16,1,Pin_1*%
%TO.N,VDD*%
X177975000Y-58500000D03*
D11*
%TO.P,J16,2,Pin_2*%
%TO.N,Net-(J16-Pin_2)*%
X180515000Y-58500000D03*
%TO.P,J16,3,Pin_3*%
%TO.N,GND*%
X183055000Y-58500000D03*
%TD*%
D10*
%TO.P,J15,1,Pin_1*%
%TO.N,VDD*%
X170280000Y-58500000D03*
D11*
%TO.P,J15,2,Pin_2*%
%TO.N,Net-(J15-Pin_2)*%
X172820000Y-58500000D03*
%TO.P,J15,3,Pin_3*%
%TO.N,GND*%
X175360000Y-58500000D03*
%TD*%
D10*
%TO.P,J14,1,Pin_1*%
%TO.N,VDD*%
X162585000Y-58500000D03*
D11*
%TO.P,J14,2,Pin_2*%
%TO.N,Net-(J14-Pin_2)*%
X165125000Y-58500000D03*
%TO.P,J14,3,Pin_3*%
%TO.N,GND*%
X167665000Y-58500000D03*
%TD*%
D10*
%TO.P,J13,1,Pin_1*%
%TO.N,VDD*%
X154890000Y-58500000D03*
D11*
%TO.P,J13,2,Pin_2*%
%TO.N,Net-(J13-Pin_2)*%
X157430000Y-58500000D03*
%TO.P,J13,3,Pin_3*%
%TO.N,GND*%
X159970000Y-58500000D03*
%TD*%
D10*
%TO.P,J12,1,Pin_1*%
%TO.N,VDD*%
X147195000Y-58500000D03*
D11*
%TO.P,J12,2,Pin_2*%
%TO.N,Net-(J12-Pin_2)*%
X149735000Y-58500000D03*
%TO.P,J12,3,Pin_3*%
%TO.N,GND*%
X152275000Y-58500000D03*
%TD*%
%TO.P,J11,3,Pin_3*%
%TO.N,GND*%
X144580000Y-58500000D03*
%TO.P,J11,2,Pin_2*%
%TO.N,Net-(J11-Pin_2)*%
X142040000Y-58500000D03*
D10*
%TO.P,J11,1,Pin_1*%
%TO.N,VDD*%
X139500000Y-58500000D03*
%TD*%
%TO.P,J10,1,Pin_1*%
%TO.N,VDD*%
X177975000Y-67500000D03*
D11*
%TO.P,J10,2,Pin_2*%
%TO.N,Net-(J10-Pin_2)*%
X180515000Y-67500000D03*
%TO.P,J10,3,Pin_3*%
%TO.N,GND*%
X183055000Y-67500000D03*
%TD*%
D10*
%TO.P,J9,1,Pin_1*%
%TO.N,VDD*%
X170280000Y-67500000D03*
D11*
%TO.P,J9,2,Pin_2*%
%TO.N,Net-(J9-Pin_2)*%
X172820000Y-67500000D03*
%TO.P,J9,3,Pin_3*%
%TO.N,GND*%
X175360000Y-67500000D03*
%TD*%
D10*
%TO.P,J8,1,Pin_1*%
%TO.N,GND*%
X134000000Y-49000000D03*
D11*
%TO.P,J8,2,Pin_2*%
%TO.N,/1*%
X136540000Y-49000000D03*
%TO.P,J8,3,Pin_3*%
%TO.N,GND*%
X134000000Y-51540000D03*
%TO.P,J8,4,Pin_4*%
%TO.N,/2*%
X136540000Y-51540000D03*
%TO.P,J8,5,Pin_5*%
%TO.N,GND*%
X134000000Y-54080000D03*
%TO.P,J8,6,Pin_6*%
%TO.N,/3*%
X136540000Y-54080000D03*
%TO.P,J8,7,Pin_7*%
%TO.N,GND*%
X134000000Y-56620000D03*
%TO.P,J8,8,Pin_8*%
%TO.N,/4*%
X136540000Y-56620000D03*
%TO.P,J8,9,Pin_9*%
%TO.N,GND*%
X134000000Y-59160000D03*
%TO.P,J8,10,Pin_10*%
%TO.N,/5*%
X136540000Y-59160000D03*
%TO.P,J8,11,Pin_11*%
%TO.N,GND*%
X134000000Y-61700000D03*
%TO.P,J8,12,Pin_12*%
%TO.N,/6*%
X136540000Y-61700000D03*
%TO.P,J8,13,Pin_13*%
%TO.N,GND*%
X134000000Y-64240000D03*
%TO.P,J8,14,Pin_14*%
%TO.N,/7*%
X136540000Y-64240000D03*
%TO.P,J8,15,Pin_15*%
%TO.N,GND*%
X134000000Y-66780000D03*
%TO.P,J8,16,Pin_16*%
%TO.N,/8*%
X136540000Y-66780000D03*
%TO.P,J8,17,Pin_17*%
%TO.N,GND*%
X134000000Y-69320000D03*
%TO.P,J8,18,Pin_18*%
%TO.N,/9*%
X136540000Y-69320000D03*
%TO.P,J8,19,Pin_19*%
%TO.N,GND*%
X134000000Y-71860000D03*
%TO.P,J8,20,Pin_20*%
%TO.N,/10*%
X136540000Y-71860000D03*
%TO.P,J8,21,Pin_21*%
%TO.N,GND*%
X134000000Y-74400000D03*
%TO.P,J8,22,Pin_22*%
%TO.N,/11*%
X136540000Y-74400000D03*
%TO.P,J8,23,Pin_23*%
%TO.N,GND*%
X134000000Y-76940000D03*
%TO.P,J8,24,Pin_24*%
%TO.N,/12*%
X136540000Y-76940000D03*
%TD*%
D10*
%TO.P,J7,1,Pin_1*%
%TO.N,VDD*%
X162585000Y-67500000D03*
D11*
%TO.P,J7,2,Pin_2*%
%TO.N,Net-(J7-Pin_2)*%
X165125000Y-67500000D03*
%TO.P,J7,3,Pin_3*%
%TO.N,GND*%
X167665000Y-67500000D03*
%TD*%
D10*
%TO.P,J6,1,Pin_1*%
%TO.N,VDD*%
X154890000Y-67500000D03*
D11*
%TO.P,J6,2,Pin_2*%
%TO.N,Net-(J6-Pin_2)*%
X157430000Y-67500000D03*
%TO.P,J6,3,Pin_3*%
%TO.N,GND*%
X159970000Y-67500000D03*
%TD*%
D10*
%TO.P,J5,1,Pin_1*%
%TO.N,VDD*%
X147195000Y-67500000D03*
D11*
%TO.P,J5,2,Pin_2*%
%TO.N,Net-(J5-Pin_2)*%
X149735000Y-67500000D03*
%TO.P,J5,3,Pin_3*%
%TO.N,GND*%
X152275000Y-67500000D03*
%TD*%
D10*
%TO.P,J4,1,Pin_1*%
%TO.N,VDD*%
X127470000Y-49000000D03*
D11*
%TO.P,J4,2,Pin_2*%
%TO.N,/1*%
X130010000Y-49000000D03*
%TO.P,J4,3,Pin_3*%
%TO.N,VDD*%
X127470000Y-51540000D03*
%TO.P,J4,4,Pin_4*%
%TO.N,/2*%
X130010000Y-51540000D03*
%TO.P,J4,5,Pin_5*%
%TO.N,VDD*%
X127470000Y-54080000D03*
%TO.P,J4,6,Pin_6*%
%TO.N,/3*%
X130010000Y-54080000D03*
%TO.P,J4,7,Pin_7*%
%TO.N,VDD*%
X127470000Y-56620000D03*
%TO.P,J4,8,Pin_8*%
%TO.N,/4*%
X130010000Y-56620000D03*
%TO.P,J4,9,Pin_9*%
%TO.N,VDD*%
X127470000Y-59160000D03*
%TO.P,J4,10,Pin_10*%
%TO.N,/5*%
X130010000Y-59160000D03*
%TO.P,J4,11,Pin_11*%
%TO.N,VDD*%
X127470000Y-61700000D03*
%TO.P,J4,12,Pin_12*%
%TO.N,/6*%
X130010000Y-61700000D03*
%TO.P,J4,13,Pin_13*%
%TO.N,VDD*%
X127470000Y-64240000D03*
%TO.P,J4,14,Pin_14*%
%TO.N,/7*%
X130010000Y-64240000D03*
%TO.P,J4,15,Pin_15*%
%TO.N,VDD*%
X127470000Y-66780000D03*
%TO.P,J4,16,Pin_16*%
%TO.N,/8*%
X130010000Y-66780000D03*
%TO.P,J4,17,Pin_17*%
%TO.N,VDD*%
X127470000Y-69320000D03*
%TO.P,J4,18,Pin_18*%
%TO.N,/9*%
X130010000Y-69320000D03*
%TO.P,J4,19,Pin_19*%
%TO.N,VDD*%
X127470000Y-71860000D03*
%TO.P,J4,20,Pin_20*%
%TO.N,/10*%
X130010000Y-71860000D03*
%TO.P,J4,21,Pin_21*%
%TO.N,VDD*%
X127470000Y-74400000D03*
%TO.P,J4,22,Pin_22*%
%TO.N,/11*%
X130010000Y-74400000D03*
%TO.P,J4,23,Pin_23*%
%TO.N,VDD*%
X127470000Y-76940000D03*
%TO.P,J4,24,Pin_24*%
%TO.N,/12*%
X130010000Y-76940000D03*
%TD*%
%TO.P,J3,3,Pin_3*%
%TO.N,GND*%
X144580000Y-67500000D03*
%TO.P,J3,2,Pin_2*%
%TO.N,Net-(J3-Pin_2)*%
X142040000Y-67500000D03*
D10*
%TO.P,J3,1,Pin_1*%
%TO.N,VDD*%
X139500000Y-67500000D03*
%TD*%
%TO.P,J2,1,Pin_1*%
%TO.N,/1*%
X186000000Y-49000000D03*
D11*
%TO.P,J2,2,Pin_2*%
X188540000Y-49000000D03*
%TO.P,J2,3,Pin_3*%
%TO.N,/2*%
X186000000Y-51540000D03*
%TO.P,J2,4,Pin_4*%
X188540000Y-51540000D03*
%TO.P,J2,5,Pin_5*%
%TO.N,/3*%
X186000000Y-54080000D03*
%TO.P,J2,6,Pin_6*%
X188540000Y-54080000D03*
%TO.P,J2,7,Pin_7*%
%TO.N,/4*%
X186000000Y-56620000D03*
%TO.P,J2,8,Pin_8*%
X188540000Y-56620000D03*
%TO.P,J2,9,Pin_9*%
%TO.N,/5*%
X186000000Y-59160000D03*
%TO.P,J2,10,Pin_10*%
X188540000Y-59160000D03*
%TO.P,J2,11,Pin_11*%
%TO.N,/6*%
X186000000Y-61700000D03*
%TO.P,J2,12,Pin_12*%
X188540000Y-61700000D03*
%TO.P,J2,13,Pin_13*%
%TO.N,/7*%
X186000000Y-64240000D03*
%TO.P,J2,14,Pin_14*%
X188540000Y-64240000D03*
%TO.P,J2,15,Pin_15*%
%TO.N,/8*%
X186000000Y-66780000D03*
%TO.P,J2,16,Pin_16*%
X188540000Y-66780000D03*
%TO.P,J2,17,Pin_17*%
%TO.N,/9*%
X186000000Y-69320000D03*
%TO.P,J2,18,Pin_18*%
X188540000Y-69320000D03*
%TO.P,J2,19,Pin_19*%
%TO.N,/10*%
X186000000Y-71860000D03*
%TO.P,J2,20,Pin_20*%
X188540000Y-71860000D03*
%TO.P,J2,21,Pin_21*%
%TO.N,/11*%
X186000000Y-74400000D03*
%TO.P,J2,22,Pin_22*%
X188540000Y-74400000D03*
%TO.P,J2,23,Pin_23*%
%TO.N,/12*%
X186000000Y-76940000D03*
%TO.P,J2,24,Pin_24*%
X188540000Y-76940000D03*
%TD*%
D12*
%TO.P,H2,1,1*%
%TO.N,unconnected-(H2-Pad1)*%
X100000000Y-76000000D03*
%TD*%
D13*
%TO.P,SW8,1,1*%
%TO.N,Net-(J12-Pin_2)*%
X147726000Y-55500000D03*
X147726000Y-49000000D03*
%TO.P,SW8,2,2*%
%TO.N,/2*%
X152226000Y-55500000D03*
X152226000Y-49000000D03*
%TD*%
D12*
%TO.P,H1,1,1*%
%TO.N,unconnected-(H1-Pad1)*%
X100000000Y-50000000D03*
%TD*%
D13*
%TO.P,SW4,1,1*%
%TO.N,Net-(J7-Pin_2)*%
X162730000Y-77000000D03*
X162730000Y-70500000D03*
%TO.P,SW4,2,2*%
%TO.N,/10*%
X167230000Y-77000000D03*
X167230000Y-70500000D03*
%TD*%
%TO.P,SW5,1,1*%
%TO.N,Net-(J9-Pin_2)*%
X170240000Y-77000000D03*
X170240000Y-70500000D03*
%TO.P,SW5,2,2*%
%TO.N,/11*%
X174740000Y-77000000D03*
X174740000Y-70500000D03*
%TD*%
%TO.P,SW7,1,1*%
%TO.N,Net-(J11-Pin_2)*%
X140220000Y-55500000D03*
X140220000Y-49000000D03*
%TO.P,SW7,2,2*%
%TO.N,/1*%
X144720000Y-55500000D03*
X144720000Y-49000000D03*
%TD*%
%TO.P,SW6,1,1*%
%TO.N,Net-(J10-Pin_2)*%
X177750000Y-77000000D03*
X177750000Y-70500000D03*
%TO.P,SW6,2,2*%
%TO.N,/12*%
X182250000Y-77000000D03*
X182250000Y-70500000D03*
%TD*%
D10*
%TO.P,J17,1,Pin_1*%
%TO.N,P5V0*%
X105900000Y-61460000D03*
D11*
%TO.P,J17,2,Pin_2*%
%TO.N,GND*%
X105900000Y-64000000D03*
%TD*%
D13*
%TO.P,SW3,1,1*%
%TO.N,Net-(J6-Pin_2)*%
X155220000Y-77000000D03*
X155220000Y-70500000D03*
%TO.P,SW3,2,2*%
%TO.N,/9*%
X159720000Y-77000000D03*
X159720000Y-70500000D03*
%TD*%
%TO.P,SW10,1,1*%
%TO.N,Net-(J14-Pin_2)*%
X162738000Y-55500000D03*
X162738000Y-49000000D03*
%TO.P,SW10,2,2*%
%TO.N,/4*%
X167238000Y-55500000D03*
X167238000Y-49000000D03*
%TD*%
D12*
%TO.P,H4,1,1*%
%TO.N,unconnected-(H4-Pad1)*%
X194000000Y-76000000D03*
%TD*%
D13*
%TO.P,SW12,1,1*%
%TO.N,Net-(J16-Pin_2)*%
X177750000Y-55500000D03*
X177750000Y-49000000D03*
%TO.P,SW12,2,2*%
%TO.N,/6*%
X182250000Y-55500000D03*
X182250000Y-49000000D03*
%TD*%
D12*
%TO.P,H3,1,1*%
%TO.N,unconnected-(H3-Pad1)*%
X194000000Y-50000000D03*
%TD*%
D13*
%TO.P,SW1,1,1*%
%TO.N,Net-(J3-Pin_2)*%
X140200000Y-77000000D03*
X140200000Y-70500000D03*
%TO.P,SW1,2,2*%
%TO.N,/7*%
X144700000Y-77000000D03*
X144700000Y-70500000D03*
%TD*%
%TO.P,SW2,1,1*%
%TO.N,Net-(J5-Pin_2)*%
X147710000Y-77000000D03*
X147710000Y-70500000D03*
%TO.P,SW2,2,2*%
%TO.N,/8*%
X152210000Y-77000000D03*
X152210000Y-70500000D03*
%TD*%
D14*
%TO.P,P1,SH,SHIELD*%
%TO.N,GND*%
X102000000Y-58680000D03*
X98200000Y-58680000D03*
X102000000Y-67320000D03*
X98200000Y-67320000D03*
%TD*%
D13*
%TO.P,SW11,1,1*%
%TO.N,Net-(J15-Pin_2)*%
X170244000Y-55500000D03*
X170244000Y-49000000D03*
%TO.P,SW11,2,2*%
%TO.N,/5*%
X174744000Y-55500000D03*
X174744000Y-49000000D03*
%TD*%
%TO.P,SW9,1,1*%
%TO.N,Net-(J13-Pin_2)*%
X155232000Y-55500000D03*
X155232000Y-49000000D03*
%TO.P,SW9,2,2*%
%TO.N,/3*%
X159732000Y-55500000D03*
X159732000Y-49000000D03*
%TD*%
D15*
%TO.N,GND*%
X112537955Y-50000824D03*
X112537955Y-55200824D03*
X112537955Y-60400824D03*
X112537955Y-65600824D03*
X112537955Y-70800824D03*
X112537955Y-76000824D03*
X107400455Y-76000824D03*
X107400455Y-70800824D03*
X107400455Y-65600824D03*
X107400455Y-60400824D03*
X107400455Y-55200824D03*
X107400455Y-50000824D03*
X100917039Y-65729545D03*
X103242961Y-65770455D03*
X100917039Y-60229545D03*
X103242961Y-60270455D03*
%TO.N,P5V0*%
X100917039Y-64499545D03*
X103242961Y-64540455D03*
X117137500Y-49000000D03*
%TO.N,GND*%
X103214214Y-58500455D03*
%TO.N,P5V0*%
X112000000Y-64600000D03*
X112000000Y-75000000D03*
X117137500Y-59400000D03*
X112000000Y-54200000D03*
X112000000Y-69800000D03*
X117137500Y-64600000D03*
X103214214Y-61540455D03*
X117137500Y-54200000D03*
X112000000Y-59400000D03*
X117137500Y-69800000D03*
%TO.N,GND*%
X100880306Y-58476932D03*
%TO.N,P5V0*%
X117137500Y-75000000D03*
X112000000Y-49000000D03*
X100888292Y-61499545D03*
%TO.N,GND*%
X126000455Y-69364232D03*
X126000455Y-49000000D03*
X126000455Y-51545529D03*
X126000455Y-64273174D03*
X126000455Y-71909761D03*
X126000455Y-74455290D03*
X126000455Y-66818703D03*
X126000455Y-77000824D03*
X126000455Y-59182116D03*
X126000455Y-54091058D03*
X126000455Y-56636587D03*
X126000455Y-61727645D03*
%TO.N,/2*%
X194000000Y-60750000D03*
%TO.N,/4*%
X194000000Y-61750000D03*
%TO.N,/6*%
X194000000Y-62750000D03*
%TO.N,/8*%
X194000000Y-63750000D03*
%TO.N,/10*%
X194000000Y-64750000D03*
%TO.N,/12*%
X194000000Y-65750000D03*
%TD*%
D16*
%TO.N,/10*%
X186000000Y-71860000D02*
X182769400Y-68629400D01*
X182769400Y-68629400D02*
X169100599Y-68629400D01*
X169100599Y-68629400D02*
X167230000Y-70500000D01*
%TO.N,/9*%
X186000000Y-69320000D02*
X186000000Y-68847787D01*
X186000000Y-68847787D02*
X183159437Y-66007224D01*
X183159437Y-66007224D02*
X161818976Y-66007224D01*
X161818976Y-66007224D02*
X161200455Y-66625745D01*
X161200455Y-66625745D02*
X161200455Y-69019545D01*
X161200455Y-69019545D02*
X159720000Y-70500000D01*
%TO.N,/8*%
X186000000Y-66780000D02*
X184820824Y-65600824D01*
X184820824Y-65600824D02*
X152400455Y-65600824D01*
X152400455Y-65600824D02*
X151000455Y-67000824D01*
X151000455Y-67000824D02*
X151000455Y-69290455D01*
X151000455Y-69290455D02*
X152210000Y-70500000D01*
%TO.N,/7*%
X140200455Y-64240000D02*
X143439631Y-64240000D01*
X143450600Y-69250600D02*
X144700000Y-70500000D01*
X143439631Y-64240000D02*
X143450600Y-64250969D01*
X143450600Y-64250969D02*
X143450600Y-69250600D01*
X136540000Y-64240000D02*
X140200455Y-64240000D01*
X186000000Y-64240000D02*
X140200455Y-64240000D01*
%TO.N,/11*%
X186000000Y-74400000D02*
X178640000Y-74400000D01*
X178640000Y-74400000D02*
X174740000Y-70500000D01*
%TO.N,/4*%
X167238000Y-55500000D02*
X168517400Y-54220600D01*
X168517400Y-54220600D02*
X183600600Y-54220600D01*
X183600600Y-54220600D02*
X186000000Y-56620000D01*
%TO.N,/3*%
X159732000Y-55500000D02*
X161611976Y-53620024D01*
X161611976Y-53620024D02*
X185540024Y-53620024D01*
X185540024Y-53620024D02*
X186000000Y-54080000D01*
%TO.N,/2*%
X152226000Y-55500000D02*
X154512376Y-53213624D01*
X154512376Y-53213624D02*
X173987655Y-53213624D01*
X175661279Y-51540000D02*
X186000000Y-51540000D01*
X173987655Y-53213624D02*
X175661279Y-51540000D01*
%TO.N,/1*%
X186000000Y-49000000D02*
X184600824Y-47600824D01*
X184600824Y-47600824D02*
X146119176Y-47600824D01*
X146119176Y-47600824D02*
X144720000Y-49000000D01*
%TO.N,/12*%
X186000000Y-76940000D02*
X182310000Y-76940000D01*
X182310000Y-76940000D02*
X182250000Y-77000000D01*
X188540000Y-76940000D02*
X186000000Y-76940000D01*
X194000000Y-71001279D02*
X191000455Y-74000824D01*
X194000000Y-65750000D02*
X194000000Y-71001279D01*
X191000455Y-74000824D02*
X191000455Y-74479545D01*
X191000455Y-74479545D02*
X188540000Y-76940000D01*
%TO.N,/10*%
X194000000Y-64750000D02*
X193851279Y-64750000D01*
X193851279Y-64750000D02*
X191000455Y-67600824D01*
X191000455Y-67600824D02*
X191000455Y-71000824D01*
X191000455Y-71000824D02*
X190141279Y-71860000D01*
X190141279Y-71860000D02*
X186000000Y-71860000D01*
%TO.N,/8*%
X194000000Y-63750000D02*
X193851279Y-63750000D01*
X193851279Y-63750000D02*
X190821279Y-66780000D01*
X190821279Y-66780000D02*
X186000000Y-66780000D01*
%TO.N,/6*%
X194000000Y-62750000D02*
X192950000Y-61700000D01*
X192950000Y-61700000D02*
X186000000Y-61700000D01*
%TO.N,/4*%
X191800455Y-59550455D02*
X191800455Y-57800824D01*
X190619631Y-56620000D02*
X186000000Y-56620000D01*
X194000000Y-61750000D02*
X191800455Y-59550455D01*
X191800455Y-57800824D02*
X190619631Y-56620000D01*
%TO.N,/2*%
X194000000Y-60750000D02*
X194000000Y-55800369D01*
X194000000Y-55800369D02*
X189739631Y-51540000D01*
X189739631Y-51540000D02*
X186000000Y-51540000D01*
%TO.N,/6*%
X179701279Y-61700000D02*
X181800455Y-59600824D01*
X136540000Y-61700000D02*
X179701279Y-61700000D01*
X181800455Y-59600824D02*
X181800455Y-55949545D01*
X181800455Y-55949545D02*
X182250000Y-55500000D01*
%TO.N,/5*%
X136540000Y-59160000D02*
X138699176Y-57000824D01*
X173243176Y-57000824D02*
X174744000Y-55500000D01*
X138699176Y-57000824D02*
X173243176Y-57000824D01*
%TO.N,/4*%
X136540000Y-56620000D02*
X140352776Y-52807224D01*
X140352776Y-52807224D02*
X163430776Y-52807224D01*
X163430776Y-52807224D02*
X167238000Y-49000000D01*
%TO.N,/3*%
X136540000Y-54080000D02*
X138219176Y-52400824D01*
X138219176Y-52400824D02*
X156331176Y-52400824D01*
X156331176Y-52400824D02*
X159732000Y-49000000D01*
%TO.N,/2*%
X136540000Y-51540000D02*
X149686000Y-51540000D01*
X149686000Y-51540000D02*
X152226000Y-49000000D01*
%TO.N,/1*%
X136540000Y-49000000D02*
X137819400Y-50279400D01*
X137819400Y-50279400D02*
X143440600Y-50279400D01*
X143440600Y-50279400D02*
X144720000Y-49000000D01*
%TO.N,/12*%
X136540000Y-76940000D02*
X137759400Y-75720600D01*
X137759400Y-75720600D02*
X180970600Y-75720600D01*
X180970600Y-75720600D02*
X182250000Y-77000000D01*
%TO.N,/11*%
X136540000Y-74400000D02*
X170840000Y-74400000D01*
X170840000Y-74400000D02*
X174740000Y-70500000D01*
%TO.N,/10*%
X136540000Y-71860000D02*
X137390000Y-72710000D01*
X137390000Y-72710000D02*
X165020000Y-72710000D01*
X165020000Y-72710000D02*
X167230000Y-70500000D01*
%TO.N,/9*%
X136540000Y-69320000D02*
X139405800Y-72185800D01*
X139405800Y-72185800D02*
X158034200Y-72185800D01*
X158034200Y-72185800D02*
X159720000Y-70500000D01*
%TO.N,/8*%
X136540000Y-66780000D02*
X138980600Y-69220600D01*
X138980600Y-69220600D02*
X141611255Y-69220600D01*
X141611255Y-69220600D02*
X144170055Y-71779400D01*
X144170055Y-71779400D02*
X150930600Y-71779400D01*
X150930600Y-71779400D02*
X152210000Y-70500000D01*
%TD*%
%TA.AperFunction,Conductor*%
%TO.N,P5V0*%
G36*
X119876458Y-47000434D02*
G01*
X119943493Y-47020118D01*
X119989247Y-47072922D01*
X120000453Y-47124433D01*
X120000453Y-78876320D01*
X119980768Y-78943359D01*
X119927964Y-78989114D01*
X119876453Y-79000320D01*
X100002079Y-79000322D01*
X99998834Y-79000237D01*
X99862087Y-78993069D01*
X99683761Y-78983075D01*
X99677526Y-78982409D01*
X99520868Y-78957595D01*
X99362532Y-78930689D01*
X99356875Y-78929453D01*
X99258233Y-78903021D01*
X99201390Y-78887789D01*
X99111531Y-78861899D01*
X99048883Y-78843849D01*
X99043830Y-78842155D01*
X98892597Y-78784099D01*
X98746491Y-78723576D01*
X98742070Y-78721538D01*
X98680235Y-78690031D01*
X98597239Y-78647742D01*
X98458887Y-78571273D01*
X98455123Y-78569014D01*
X98318533Y-78480310D01*
X98189471Y-78388730D01*
X98186331Y-78386349D01*
X98060790Y-78284686D01*
X98058493Y-78282731D01*
X97941361Y-78178050D01*
X97938851Y-78175676D01*
X97824759Y-78061583D01*
X97822390Y-78059079D01*
X97717486Y-77941684D01*
X97715533Y-77939389D01*
X97614219Y-77814273D01*
X97611837Y-77811132D01*
X97519720Y-77681299D01*
X97431626Y-77545644D01*
X97429379Y-77541901D01*
X97352077Y-77402024D01*
X97279118Y-77258831D01*
X97277098Y-77254449D01*
X97215511Y-77105750D01*
X97158496Y-76957217D01*
X97156800Y-76952159D01*
X97137831Y-76886308D01*
X97111633Y-76795363D01*
X97071145Y-76644260D01*
X97069912Y-76638615D01*
X97041646Y-76472222D01*
X97018114Y-76323641D01*
X97017455Y-76317486D01*
X97006345Y-76119546D01*
X97000215Y-76002575D01*
X97000148Y-76000005D01*
X97592349Y-76000005D01*
X97611332Y-76301751D01*
X97627494Y-76386470D01*
X97667990Y-76598758D01*
X97682778Y-76644270D01*
X97761420Y-76886308D01*
X97761421Y-76886309D01*
X97761423Y-76886315D01*
X97890159Y-77159895D01*
X97890163Y-77159902D01*
X97890164Y-77159903D01*
X98052165Y-77415177D01*
X98244903Y-77648157D01*
X98465303Y-77855125D01*
X98465313Y-77855133D01*
X98709904Y-78032839D01*
X98709922Y-78032851D01*
X98974872Y-78178508D01*
X98974880Y-78178512D01*
X99238110Y-78282731D01*
X99255995Y-78289812D01*
X99548851Y-78365005D01*
X99611780Y-78372954D01*
X99848810Y-78402899D01*
X99848819Y-78402899D01*
X99848822Y-78402900D01*
X99848824Y-78402900D01*
X100151176Y-78402900D01*
X100151178Y-78402900D01*
X100151181Y-78402899D01*
X100151189Y-78402899D01*
X100330182Y-78380286D01*
X100451149Y-78365005D01*
X100744005Y-78289812D01*
X100896008Y-78229630D01*
X101025119Y-78178512D01*
X101025123Y-78178509D01*
X101025128Y-78178508D01*
X101232774Y-78064353D01*
X101290077Y-78032851D01*
X101290078Y-78032850D01*
X101290084Y-78032847D01*
X101534695Y-77855127D01*
X101755102Y-77648151D01*
X101947831Y-77415182D01*
X102109841Y-77159895D01*
X102238577Y-76886315D01*
X102332010Y-76598758D01*
X102388666Y-76301759D01*
X102407600Y-76000827D01*
X106994963Y-76000827D01*
X107014807Y-76126124D01*
X107014807Y-76126125D01*
X107014809Y-76126128D01*
X107072405Y-76239166D01*
X107072407Y-76239168D01*
X107072409Y-76239171D01*
X107162107Y-76328869D01*
X107162109Y-76328870D01*
X107162113Y-76328874D01*
X107275151Y-76386470D01*
X107275152Y-76386470D01*
X107275154Y-76386471D01*
X107400452Y-76406316D01*
X107400455Y-76406316D01*
X107400458Y-76406316D01*
X107525755Y-76386471D01*
X107525756Y-76386471D01*
X107525757Y-76386470D01*
X107525759Y-76386470D01*
X107638797Y-76328874D01*
X107728505Y-76239166D01*
X107786101Y-76126128D01*
X107786101Y-76126126D01*
X107786102Y-76126125D01*
X107786102Y-76126124D01*
X107805947Y-76000827D01*
X112132463Y-76000827D01*
X112152307Y-76126124D01*
X112152307Y-76126125D01*
X112152309Y-76126128D01*
X112209905Y-76239166D01*
X112209907Y-76239168D01*
X112209909Y-76239171D01*
X112299607Y-76328869D01*
X112299609Y-76328870D01*
X112299613Y-76328874D01*
X112412651Y-76386470D01*
X112412652Y-76386470D01*
X112412654Y-76386471D01*
X112537952Y-76406316D01*
X112537955Y-76406316D01*
X112537958Y-76406316D01*
X112663255Y-76386471D01*
X112663256Y-76386471D01*
X112663257Y-76386470D01*
X112663259Y-76386470D01*
X112776297Y-76328874D01*
X112866005Y-76239166D01*
X112923601Y-76126128D01*
X112923601Y-76126126D01*
X112923602Y-76126125D01*
X112923602Y-76126124D01*
X112943447Y-76000827D01*
X112943447Y-76000820D01*
X112923602Y-75875523D01*
X112923602Y-75875522D01*
X112923601Y-75875520D01*
X112866005Y-75762482D01*
X112866001Y-75762478D01*
X112866000Y-75762476D01*
X112776302Y-75672778D01*
X112776299Y-75672776D01*
X112776297Y-75672774D01*
X112663259Y-75615178D01*
X112663258Y-75615177D01*
X112663255Y-75615176D01*
X112537958Y-75595332D01*
X112537952Y-75595332D01*
X112412654Y-75615176D01*
X112412653Y-75615176D01*
X112337292Y-75653575D01*
X112299613Y-75672774D01*
X112299612Y-75672774D01*
X112299612Y-75672775D01*
X112299607Y-75672778D01*
X112209909Y-75762476D01*
X112209906Y-75762481D01*
X112152307Y-75875522D01*
X112152307Y-75875523D01*
X112132463Y-76000820D01*
X112132463Y-76000827D01*
X107805947Y-76000827D01*
X107805947Y-76000820D01*
X107786102Y-75875523D01*
X107786102Y-75875522D01*
X107786101Y-75875520D01*
X107728505Y-75762482D01*
X107728501Y-75762478D01*
X107728500Y-75762476D01*
X107638802Y-75672778D01*
X107638799Y-75672776D01*
X107638797Y-75672774D01*
X107525759Y-75615178D01*
X107525758Y-75615177D01*
X107525755Y-75615176D01*
X107400458Y-75595332D01*
X107400452Y-75595332D01*
X107275154Y-75615176D01*
X107275153Y-75615176D01*
X107199792Y-75653575D01*
X107162113Y-75672774D01*
X107162112Y-75672774D01*
X107162112Y-75672775D01*
X107162107Y-75672778D01*
X107072409Y-75762476D01*
X107072406Y-75762481D01*
X107014807Y-75875522D01*
X107014807Y-75875523D01*
X106994963Y-76000820D01*
X106994963Y-76000827D01*
X102407600Y-76000827D01*
X102407600Y-76000820D01*
X102407651Y-76000005D01*
X102407651Y-75999994D01*
X102388667Y-75698248D01*
X102388666Y-75698241D01*
X102332010Y-75401242D01*
X102238577Y-75113685D01*
X102109841Y-74840105D01*
X101947831Y-74584818D01*
X101755102Y-74351849D01*
X101755101Y-74351848D01*
X101755096Y-74351842D01*
X101534696Y-74144874D01*
X101534686Y-74144866D01*
X101290095Y-73967160D01*
X101290077Y-73967148D01*
X101025127Y-73821491D01*
X101025119Y-73821487D01*
X100744009Y-73710189D01*
X100716114Y-73703026D01*
X100451149Y-73634995D01*
X100451146Y-73634994D01*
X100451139Y-73634993D01*
X100151189Y-73597100D01*
X100151178Y-73597100D01*
X99848822Y-73597100D01*
X99848810Y-73597100D01*
X99548860Y-73634993D01*
X99548851Y-73634995D01*
X99255990Y-73710189D01*
X98974880Y-73821487D01*
X98974872Y-73821491D01*
X98709922Y-73967148D01*
X98709904Y-73967160D01*
X98465313Y-74144866D01*
X98465303Y-74144874D01*
X98244903Y-74351842D01*
X98052165Y-74584822D01*
X97890164Y-74840096D01*
X97890161Y-74840100D01*
X97890159Y-74840105D01*
X97761423Y-75113685D01*
X97761421Y-75113690D01*
X97761420Y-75113691D01*
X97672275Y-75388051D01*
X97667990Y-75401242D01*
X97636106Y-75568378D01*
X97611332Y-75698248D01*
X97592349Y-75999994D01*
X97592349Y-76000005D01*
X97000148Y-76000005D01*
X97000131Y-75999331D01*
X97000131Y-70800827D01*
X106994963Y-70800827D01*
X107014807Y-70926124D01*
X107014807Y-70926125D01*
X107014809Y-70926128D01*
X107072405Y-71039166D01*
X107072407Y-71039168D01*
X107072409Y-71039171D01*
X107162107Y-71128869D01*
X107162109Y-71128870D01*
X107162113Y-71128874D01*
X107275151Y-71186470D01*
X107275152Y-71186470D01*
X107275154Y-71186471D01*
X107400452Y-71206316D01*
X107400455Y-71206316D01*
X107400458Y-71206316D01*
X107525755Y-71186471D01*
X107525756Y-71186471D01*
X107525757Y-71186470D01*
X107525759Y-71186470D01*
X107638797Y-71128874D01*
X107728505Y-71039166D01*
X107786101Y-70926128D01*
X107786101Y-70926126D01*
X107786102Y-70926125D01*
X107786102Y-70926124D01*
X107805947Y-70800827D01*
X112132463Y-70800827D01*
X112152307Y-70926124D01*
X112152307Y-70926125D01*
X112152309Y-70926128D01*
X112209905Y-71039166D01*
X112209907Y-71039168D01*
X112209909Y-71039171D01*
X112299607Y-71128869D01*
X112299609Y-71128870D01*
X112299613Y-71128874D01*
X112412651Y-71186470D01*
X112412652Y-71186470D01*
X112412654Y-71186471D01*
X112537952Y-71206316D01*
X112537955Y-71206316D01*
X112537958Y-71206316D01*
X112663255Y-71186471D01*
X112663256Y-71186471D01*
X112663257Y-71186470D01*
X112663259Y-71186470D01*
X112776297Y-71128874D01*
X112866005Y-71039166D01*
X112923601Y-70926128D01*
X112923601Y-70926126D01*
X112923602Y-70926125D01*
X112923602Y-70926124D01*
X112943447Y-70800827D01*
X112943447Y-70800820D01*
X112923602Y-70675523D01*
X112923602Y-70675522D01*
X112923601Y-70675520D01*
X112866005Y-70562482D01*
X112866001Y-70562478D01*
X112866000Y-70562476D01*
X112776302Y-70472778D01*
X112776299Y-70472776D01*
X112776297Y-70472774D01*
X112663259Y-70415178D01*
X112663258Y-70415177D01*
X112663255Y-70415176D01*
X112537958Y-70395332D01*
X112537952Y-70395332D01*
X112412654Y-70415176D01*
X112412653Y-70415176D01*
X112337292Y-70453575D01*
X112299613Y-70472774D01*
X112299612Y-70472774D01*
X112299612Y-70472775D01*
X112299607Y-70472778D01*
X112209909Y-70562476D01*
X112209906Y-70562481D01*
X112152307Y-70675522D01*
X112152307Y-70675523D01*
X112132463Y-70800820D01*
X112132463Y-70800827D01*
X107805947Y-70800827D01*
X107805947Y-70800820D01*
X107786102Y-70675523D01*
X107786102Y-70675522D01*
X107786101Y-70675520D01*
X107728505Y-70562482D01*
X107728501Y-70562478D01*
X107728500Y-70562476D01*
X107638802Y-70472778D01*
X107638799Y-70472776D01*
X107638797Y-70472774D01*
X107525759Y-70415178D01*
X107525758Y-70415177D01*
X107525755Y-70415176D01*
X107400458Y-70395332D01*
X107400452Y-70395332D01*
X107275154Y-70415176D01*
X107275153Y-70415176D01*
X107199792Y-70453575D01*
X107162113Y-70472774D01*
X107162112Y-70472774D01*
X107162112Y-70472775D01*
X107162107Y-70472778D01*
X107072409Y-70562476D01*
X107072406Y-70562481D01*
X107014807Y-70675522D01*
X107014807Y-70675523D01*
X106994963Y-70800820D01*
X106994963Y-70800827D01*
X97000131Y-70800827D01*
X97000131Y-68022478D01*
X97019816Y-67955439D01*
X97072620Y-67909684D01*
X97141778Y-67899740D01*
X97205334Y-67928765D01*
X97223082Y-67947747D01*
X97340635Y-68103414D01*
X97340637Y-68103416D01*
X97340640Y-68103419D01*
X97499219Y-68247982D01*
X97499221Y-68247984D01*
X97681664Y-68360948D01*
X97681670Y-68360951D01*
X97721688Y-68376454D01*
X97881768Y-68438470D01*
X98092705Y-68477900D01*
X98092707Y-68477900D01*
X98307293Y-68477900D01*
X98307295Y-68477900D01*
X98518232Y-68438470D01*
X98718332Y-68360950D01*
X98900780Y-68247983D01*
X99059365Y-68103414D01*
X99188684Y-67932167D01*
X99284336Y-67740074D01*
X99343061Y-67533675D01*
X99362861Y-67320000D01*
X100837139Y-67320000D01*
X100856938Y-67533670D01*
X100915663Y-67740072D01*
X101011312Y-67932161D01*
X101011317Y-67932169D01*
X101140637Y-68103416D01*
X101140640Y-68103419D01*
X101299219Y-68247982D01*
X101299221Y-68247984D01*
X101481664Y-68360948D01*
X101481670Y-68360951D01*
X101521688Y-68376454D01*
X101681768Y-68438470D01*
X101892705Y-68477900D01*
X101892707Y-68477900D01*
X102107293Y-68477900D01*
X102107295Y-68477900D01*
X102318232Y-68438470D01*
X102518332Y-68360950D01*
X102700780Y-68247983D01*
X102859365Y-68103414D01*
X102988684Y-67932167D01*
X103084336Y-67740074D01*
X103143061Y-67533675D01*
X103162861Y-67320000D01*
X103143061Y-67106325D01*
X103084336Y-66899926D01*
X103001656Y-66733884D01*
X102988687Y-66707838D01*
X102988682Y-66707830D01*
X102920484Y-66617521D01*
X102859365Y-66536586D01*
X102859362Y-66536583D01*
X102859359Y-66536580D01*
X102700780Y-66392017D01*
X102700778Y-66392015D01*
X102518335Y-66279051D01*
X102518329Y-66279048D01*
X102369447Y-66221371D01*
X102318232Y-66201530D01*
X102318229Y-66201529D01*
X102318228Y-66201529D01*
X102233237Y-66185642D01*
X102107295Y-66162100D01*
X101892705Y-66162100D01*
X101795717Y-66180229D01*
X101681771Y-66201529D01*
X101681760Y-66201533D01*
X101481670Y-66279048D01*
X101481664Y-66279051D01*
X101299221Y-66392015D01*
X101299219Y-66392017D01*
X101140640Y-66536580D01*
X101140637Y-66536583D01*
X101011317Y-66707830D01*
X101011312Y-66707838D01*
X100915663Y-66899927D01*
X100856938Y-67106329D01*
X100837139Y-67319999D01*
X100837139Y-67320000D01*
X99362861Y-67320000D01*
X99343061Y-67106325D01*
X99284336Y-66899926D01*
X99201656Y-66733884D01*
X99188687Y-66707838D01*
X99188682Y-66707830D01*
X99120484Y-66617521D01*
X99059365Y-66536586D01*
X99059362Y-66536583D01*
X99059359Y-66536580D01*
X98900780Y-66392017D01*
X98900778Y-66392015D01*
X98718335Y-66279051D01*
X98718329Y-66279048D01*
X98569447Y-66221371D01*
X98518232Y-66201530D01*
X98518229Y-66201529D01*
X98518228Y-66201529D01*
X98433237Y-66185642D01*
X98307295Y-66162100D01*
X98092705Y-66162100D01*
X97995717Y-66180229D01*
X97881771Y-66201529D01*
X97881760Y-66201533D01*
X97681670Y-66279048D01*
X97681664Y-66279051D01*
X97499221Y-66392015D01*
X97499219Y-66392017D01*
X97340640Y-66536580D01*
X97340637Y-66536583D01*
X97223085Y-66692248D01*
X97166976Y-66733884D01*
X97097264Y-66738575D01*
X97036082Y-66704833D01*
X97002855Y-66643370D01*
X97000131Y-66617521D01*
X97000131Y-65729548D01*
X100511547Y-65729548D01*
X100531391Y-65854845D01*
X100531391Y-65854846D01*
X100531393Y-65854849D01*
X100588989Y-65967887D01*
X100588991Y-65967889D01*
X100588993Y-65967892D01*
X100678691Y-66057590D01*
X100678693Y-66057591D01*
X100678697Y-66057595D01*
X100791735Y-66115191D01*
X100791736Y-66115191D01*
X100791738Y-66115192D01*
X100917036Y-66135037D01*
X100917039Y-66135037D01*
X100917042Y-66135037D01*
X101042339Y-66115192D01*
X101042340Y-66115192D01*
X101042341Y-66115191D01*
X101042343Y-66115191D01*
X101155381Y-66057595D01*
X101245089Y-65967887D01*
X101302685Y-65854849D01*
X101302685Y-65854847D01*
X101302686Y-65854846D01*
X101302686Y-65854845D01*
X101316052Y-65770458D01*
X102837469Y-65770458D01*
X102857313Y-65895755D01*
X102857313Y-65895756D01*
X102857315Y-65895759D01*
X102914911Y-66008797D01*
X102914913Y-66008799D01*
X102914915Y-66008802D01*
X103004613Y-66098500D01*
X103004615Y-66098501D01*
X103004619Y-66098505D01*
X103117657Y-66156101D01*
X103117658Y-66156101D01*
X103117660Y-66156102D01*
X103242958Y-66175947D01*
X103242961Y-66175947D01*
X103242964Y-66175947D01*
X103368261Y-66156102D01*
X103368262Y-66156102D01*
X103368263Y-66156101D01*
X103368265Y-66156101D01*
X103481303Y-66098505D01*
X103571011Y-66008797D01*
X103628607Y-65895759D01*
X103628607Y-65895757D01*
X103628608Y-65895756D01*
X103628608Y-65895755D01*
X103648453Y-65770458D01*
X103648453Y-65770451D01*
X103628608Y-65645154D01*
X103628608Y-65645153D01*
X103628607Y-65645151D01*
X103606023Y-65600827D01*
X106994963Y-65600827D01*
X107014807Y-65726124D01*
X107014807Y-65726125D01*
X107033260Y-65762341D01*
X107072405Y-65839166D01*
X107072407Y-65839168D01*
X107072409Y-65839171D01*
X107162107Y-65928869D01*
X107162109Y-65928870D01*
X107162113Y-65928874D01*
X107275151Y-65986470D01*
X107275152Y-65986470D01*
X107275154Y-65986471D01*
X107400452Y-66006316D01*
X107400455Y-66006316D01*
X107400458Y-66006316D01*
X107525755Y-65986471D01*
X107525756Y-65986471D01*
X107525757Y-65986470D01*
X107525759Y-65986470D01*
X107638797Y-65928874D01*
X107728505Y-65839166D01*
X107786101Y-65726128D01*
X107786101Y-65726126D01*
X107786102Y-65726125D01*
X107786102Y-65726124D01*
X107805947Y-65600827D01*
X112132463Y-65600827D01*
X112152307Y-65726124D01*
X112152307Y-65726125D01*
X112170760Y-65762341D01*
X112209905Y-65839166D01*
X112209907Y-65839168D01*
X112209909Y-65839171D01*
X112299607Y-65928869D01*
X112299609Y-65928870D01*
X112299613Y-65928874D01*
X112412651Y-65986470D01*
X112412652Y-65986470D01*
X112412654Y-65986471D01*
X112537952Y-66006316D01*
X112537955Y-66006316D01*
X112537958Y-66006316D01*
X112663255Y-65986471D01*
X112663256Y-65986471D01*
X112663257Y-65986470D01*
X112663259Y-65986470D01*
X112776297Y-65928874D01*
X112866005Y-65839166D01*
X112923601Y-65726128D01*
X112923601Y-65726126D01*
X112923602Y-65726125D01*
X112923602Y-65726124D01*
X112943447Y-65600827D01*
X112943447Y-65600820D01*
X112923602Y-65475523D01*
X112923602Y-65475522D01*
X112906728Y-65442405D01*
X112866005Y-65362482D01*
X112866001Y-65362478D01*
X112866000Y-65362476D01*
X112776302Y-65272778D01*
X112776299Y-65272776D01*
X112776297Y-65272774D01*
X112663259Y-65215178D01*
X112663258Y-65215177D01*
X112663255Y-65215176D01*
X112537958Y-65195332D01*
X112537952Y-65195332D01*
X112412654Y-65215176D01*
X112412653Y-65215176D01*
X112337292Y-65253575D01*
X112299613Y-65272774D01*
X112299612Y-65272774D01*
X112299612Y-65272775D01*
X112299607Y-65272778D01*
X112209909Y-65362476D01*
X112209906Y-65362481D01*
X112152307Y-65475522D01*
X112152307Y-65475523D01*
X112132463Y-65600820D01*
X112132463Y-65600827D01*
X107805947Y-65600827D01*
X107805947Y-65600820D01*
X107786102Y-65475523D01*
X107786102Y-65475522D01*
X107769228Y-65442405D01*
X107728505Y-65362482D01*
X107728501Y-65362478D01*
X107728500Y-65362476D01*
X107638802Y-65272778D01*
X107638799Y-65272776D01*
X107638797Y-65272774D01*
X107525759Y-65215178D01*
X107525758Y-65215177D01*
X107525755Y-65215176D01*
X107400458Y-65195332D01*
X107400452Y-65195332D01*
X107275154Y-65215176D01*
X107275153Y-65215176D01*
X107199792Y-65253575D01*
X107162113Y-65272774D01*
X107162112Y-65272774D01*
X107162112Y-65272775D01*
X107162107Y-65272778D01*
X107072409Y-65362476D01*
X107072406Y-65362481D01*
X107014807Y-65475522D01*
X107014807Y-65475523D01*
X106994963Y-65600820D01*
X106994963Y-65600827D01*
X103606023Y-65600827D01*
X103571011Y-65532113D01*
X103571007Y-65532109D01*
X103571006Y-65532107D01*
X103481308Y-65442409D01*
X103481305Y-65442407D01*
X103481303Y-65442405D01*
X103368265Y-65384809D01*
X103368264Y-65384808D01*
X103368261Y-65384807D01*
X103242964Y-65364963D01*
X103242958Y-65364963D01*
X103117660Y-65384807D01*
X103117659Y-65384807D01*
X103042298Y-65423206D01*
X103004619Y-65442405D01*
X103004618Y-65442405D01*
X103004618Y-65442406D01*
X103004613Y-65442409D01*
X102914915Y-65532107D01*
X102914912Y-65532112D01*
X102857313Y-65645153D01*
X102857313Y-65645154D01*
X102837469Y-65770451D01*
X102837469Y-65770458D01*
X101316052Y-65770458D01*
X101322531Y-65729548D01*
X101322531Y-65729541D01*
X101302686Y-65604244D01*
X101302686Y-65604243D01*
X101300942Y-65600820D01*
X101245089Y-65491203D01*
X101245085Y-65491199D01*
X101245084Y-65491197D01*
X101155386Y-65401499D01*
X101155383Y-65401497D01*
X101155381Y-65401495D01*
X101042343Y-65343899D01*
X101042342Y-65343898D01*
X101042339Y-65343897D01*
X100917042Y-65324053D01*
X100917036Y-65324053D01*
X100791738Y-65343897D01*
X100791737Y-65343897D01*
X100716376Y-65382296D01*
X100678697Y-65401495D01*
X100678696Y-65401495D01*
X100678696Y-65401496D01*
X100678691Y-65401499D01*
X100588993Y-65491197D01*
X100588990Y-65491202D01*
X100531391Y-65604243D01*
X100531391Y-65604244D01*
X100511547Y-65729541D01*
X100511547Y-65729548D01*
X97000131Y-65729548D01*
X97000131Y-62357844D01*
X104550000Y-62357844D01*
X104556401Y-62417372D01*
X104556403Y-62417379D01*
X104606645Y-62552086D01*
X104606649Y-62552093D01*
X104692809Y-62667187D01*
X104692812Y-62667190D01*
X104807906Y-62753350D01*
X104807913Y-62753354D01*
X104942620Y-62803596D01*
X104942627Y-62803598D01*
X105002155Y-62809999D01*
X105002172Y-62810000D01*
X105532080Y-62810000D01*
X105599119Y-62829685D01*
X105644874Y-62882489D01*
X105654818Y-62951647D01*
X105625793Y-63015203D01*
X105568076Y-63052660D01*
X105514354Y-63068956D01*
X105340118Y-63162086D01*
X105187410Y-63287410D01*
X105062086Y-63440118D01*
X104968958Y-63614350D01*
X104911610Y-63803400D01*
X104892247Y-63999999D01*
X104911610Y-64196599D01*
X104911610Y-64196601D01*
X104911611Y-64196603D01*
X104968958Y-64385650D01*
X105062084Y-64559878D01*
X105062086Y-64559881D01*
X105187410Y-64712589D01*
X105340118Y-64837913D01*
X105340122Y-64837916D01*
X105514350Y-64931042D01*
X105703397Y-64988389D01*
X105900000Y-65007753D01*
X106096603Y-64988389D01*
X106285650Y-64931042D01*
X106459878Y-64837916D01*
X106612589Y-64712589D01*
X106737916Y-64559878D01*
X106831042Y-64385650D01*
X106888389Y-64196603D01*
X106907753Y-64000000D01*
X106888389Y-63803397D01*
X106831042Y-63614350D01*
X106737916Y-63440122D01*
X106737913Y-63440118D01*
X106612589Y-63287410D01*
X106459881Y-63162086D01*
X106459879Y-63162085D01*
X106459878Y-63162084D01*
X106285650Y-63068958D01*
X106285647Y-63068957D01*
X106285645Y-63068956D01*
X106231924Y-63052660D01*
X106173486Y-63014363D01*
X106145029Y-62950551D01*
X106155590Y-62881484D01*
X106201815Y-62829090D01*
X106267920Y-62810000D01*
X106797828Y-62810000D01*
X106797844Y-62809999D01*
X106857372Y-62803598D01*
X106857379Y-62803596D01*
X106992086Y-62753354D01*
X106992093Y-62753350D01*
X107107187Y-62667190D01*
X107107190Y-62667187D01*
X107193350Y-62552093D01*
X107193354Y-62552086D01*
X107243596Y-62417379D01*
X107243598Y-62417372D01*
X107249999Y-62357844D01*
X107250000Y-62357827D01*
X107250000Y-61710000D01*
X106333686Y-61710000D01*
X106359493Y-61669844D01*
X106400000Y-61531889D01*
X106400000Y-61388111D01*
X106359493Y-61250156D01*
X106333686Y-61210000D01*
X107250000Y-61210000D01*
X107250000Y-60927671D01*
X107269685Y-60860632D01*
X107322489Y-60814877D01*
X107391647Y-60804933D01*
X107393276Y-60805179D01*
X107400455Y-60806316D01*
X107474238Y-60794629D01*
X107525755Y-60786471D01*
X107525756Y-60786471D01*
X107525757Y-60786470D01*
X107525759Y-60786470D01*
X107638797Y-60728874D01*
X107728505Y-60639166D01*
X107786101Y-60526128D01*
X107786101Y-60526126D01*
X107786102Y-60526125D01*
X107786102Y-60526124D01*
X107805947Y-60400827D01*
X112132463Y-60400827D01*
X112152307Y-60526124D01*
X112152307Y-60526125D01*
X112152309Y-60526128D01*
X112209905Y-60639166D01*
X112209907Y-60639168D01*
X112209909Y-60639171D01*
X112299607Y-60728869D01*
X112299609Y-60728870D01*
X112299613Y-60728874D01*
X112412651Y-60786470D01*
X112412652Y-60786470D01*
X112412654Y-60786471D01*
X112537952Y-60806316D01*
X112537955Y-60806316D01*
X112537958Y-60806316D01*
X112663255Y-60786471D01*
X112663256Y-60786471D01*
X112663257Y-60786470D01*
X112663259Y-60786470D01*
X112776297Y-60728874D01*
X112866005Y-60639166D01*
X112923601Y-60526128D01*
X112923601Y-60526126D01*
X112923602Y-60526125D01*
X112923602Y-60526124D01*
X112943447Y-60400827D01*
X112943447Y-60400820D01*
X112923602Y-60275523D01*
X112923602Y-60275522D01*
X112921018Y-60270451D01*
X112866005Y-60162482D01*
X112866001Y-60162478D01*
X112866000Y-60162476D01*
X112776302Y-60072778D01*
X112776299Y-60072776D01*
X112776297Y-60072774D01*
X112663259Y-60015178D01*
X112663258Y-60015177D01*
X112663255Y-60015176D01*
X112537958Y-59995332D01*
X112537952Y-59995332D01*
X112412654Y-60015176D01*
X112412653Y-60015176D01*
X112337292Y-60053575D01*
X112299613Y-60072774D01*
X112299612Y-60072774D01*
X112299612Y-60072775D01*
X112299607Y-60072778D01*
X112209909Y-60162476D01*
X112209906Y-60162481D01*
X112152307Y-60275522D01*
X112152307Y-60275523D01*
X112132463Y-60400820D01*
X112132463Y-60400827D01*
X107805947Y-60400827D01*
X107805947Y-60400820D01*
X107786102Y-60275523D01*
X107786102Y-60275522D01*
X107783518Y-60270451D01*
X107728505Y-60162482D01*
X107728501Y-60162478D01*
X107728500Y-60162476D01*
X107638802Y-60072778D01*
X107638799Y-60072776D01*
X107638797Y-60072774D01*
X107525759Y-60015178D01*
X107525758Y-60015177D01*
X107525755Y-60015176D01*
X107400458Y-59995332D01*
X107400452Y-59995332D01*
X107275154Y-60015176D01*
X107275153Y-60015176D01*
X107199792Y-60053575D01*
X107162113Y-60072774D01*
X107162112Y-60072775D01*
X107162110Y-60072775D01*
X107103901Y-60130985D01*
X107042577Y-60164469D01*
X106972887Y-60159485D01*
X106857379Y-60116403D01*
X106857372Y-60116401D01*
X106797844Y-60110000D01*
X106150000Y-60110000D01*
X106150000Y-61024498D01*
X106042315Y-60975320D01*
X105935763Y-60960000D01*
X105864237Y-60960000D01*
X105757685Y-60975320D01*
X105650000Y-61024498D01*
X105650000Y-60110000D01*
X105002155Y-60110000D01*
X104942627Y-60116401D01*
X104942620Y-60116403D01*
X104807913Y-60166645D01*
X104807906Y-60166649D01*
X104692812Y-60252809D01*
X104692809Y-60252812D01*
X104606649Y-60367906D01*
X104606645Y-60367913D01*
X104556403Y-60502620D01*
X104556401Y-60502627D01*
X104550000Y-60562155D01*
X104550000Y-61210000D01*
X105466314Y-61210000D01*
X105440507Y-61250156D01*
X105400000Y-61388111D01*
X105400000Y-61531889D01*
X105440507Y-61669844D01*
X105466314Y-61710000D01*
X104550000Y-61710000D01*
X104550000Y-62357844D01*
X97000131Y-62357844D01*
X97000131Y-60229548D01*
X100511547Y-60229548D01*
X100531391Y-60354845D01*
X100531391Y-60354846D01*
X100531393Y-60354849D01*
X100588989Y-60467887D01*
X100588991Y-60467889D01*
X100588993Y-60467892D01*
X100678691Y-60557590D01*
X100678693Y-60557591D01*
X100678697Y-60557595D01*
X100791735Y-60615191D01*
X100791736Y-60615191D01*
X100791738Y-60615192D01*
X100917036Y-60635037D01*
X100917039Y-60635037D01*
X100917042Y-60635037D01*
X101042339Y-60615192D01*
X101042340Y-60615192D01*
X101042341Y-60615191D01*
X101042343Y-60615191D01*
X101155381Y-60557595D01*
X101245089Y-60467887D01*
X101302685Y-60354849D01*
X101302685Y-60354847D01*
X101302686Y-60354846D01*
X101302686Y-60354845D01*
X101316052Y-60270458D01*
X102837469Y-60270458D01*
X102857313Y-60395755D01*
X102857313Y-60395756D01*
X102859897Y-60400827D01*
X102914911Y-60508797D01*
X102914913Y-60508799D01*
X102914915Y-60508802D01*
X103004613Y-60598500D01*
X103004615Y-60598501D01*
X103004619Y-60598505D01*
X103117657Y-60656101D01*
X103117658Y-60656101D01*
X103117660Y-60656102D01*
X103242958Y-60675947D01*
X103242961Y-60675947D01*
X103242964Y-60675947D01*
X103368261Y-60656102D01*
X103368262Y-60656102D01*
X103368263Y-60656101D01*
X103368265Y-60656101D01*
X103481303Y-60598505D01*
X103571011Y-60508797D01*
X103628607Y-60395759D01*
X103628607Y-60395757D01*
X103628608Y-60395756D01*
X103628608Y-60395755D01*
X103648453Y-60270458D01*
X103648453Y-60270451D01*
X103628608Y-60145154D01*
X103628608Y-60145153D01*
X103613958Y-60116401D01*
X103571011Y-60032113D01*
X103571007Y-60032109D01*
X103571006Y-60032107D01*
X103481308Y-59942409D01*
X103481305Y-59942407D01*
X103481303Y-59942405D01*
X103368265Y-59884809D01*
X103368264Y-59884808D01*
X103368261Y-59884807D01*
X103242964Y-59864963D01*
X103242958Y-59864963D01*
X103117660Y-59884807D01*
X103117659Y-59884807D01*
X103042298Y-59923206D01*
X103004619Y-59942405D01*
X103004618Y-59942406D01*
X103004613Y-59942409D01*
X102914915Y-60032107D01*
X102914912Y-60032112D01*
X102857313Y-60145153D01*
X102857313Y-60145154D01*
X102837469Y-60270451D01*
X102837469Y-60270458D01*
X101316052Y-60270458D01*
X101322531Y-60229548D01*
X101322531Y-60229541D01*
X101302686Y-60104244D01*
X101302686Y-60104243D01*
X101302685Y-60104241D01*
X101245089Y-59991203D01*
X101245085Y-59991199D01*
X101245084Y-59991197D01*
X101155386Y-59901499D01*
X101155383Y-59901497D01*
X101155381Y-59901495D01*
X101042343Y-59843899D01*
X101042342Y-59843898D01*
X101042339Y-59843897D01*
X100917042Y-59824053D01*
X100917036Y-59824053D01*
X100791738Y-59843897D01*
X100791737Y-59843897D01*
X100716376Y-59882296D01*
X100678697Y-59901495D01*
X100678695Y-59901496D01*
X100678696Y-59901496D01*
X100678691Y-59901499D01*
X100588993Y-59991197D01*
X100588990Y-59991202D01*
X100588989Y-59991203D01*
X100576774Y-60015176D01*
X100531391Y-60104243D01*
X100531391Y-60104244D01*
X100511547Y-60229541D01*
X100511547Y-60229548D01*
X97000131Y-60229548D01*
X97000131Y-59382478D01*
X97019816Y-59315439D01*
X97072620Y-59269684D01*
X97141778Y-59259740D01*
X97205334Y-59288765D01*
X97223082Y-59307747D01*
X97340635Y-59463414D01*
X97340637Y-59463416D01*
X97340640Y-59463419D01*
X97499219Y-59607982D01*
X97499221Y-59607984D01*
X97681664Y-59720948D01*
X97681670Y-59720951D01*
X97721688Y-59736454D01*
X97881768Y-59798470D01*
X98092705Y-59837900D01*
X98092707Y-59837900D01*
X98307293Y-59837900D01*
X98307295Y-59837900D01*
X98518232Y-59798470D01*
X98718332Y-59720950D01*
X98900780Y-59607983D01*
X99059365Y-59463414D01*
X99188684Y-59292167D01*
X99284336Y-59100074D01*
X99343061Y-58893675D01*
X99362861Y-58680000D01*
X99344044Y-58476935D01*
X100474814Y-58476935D01*
X100494658Y-58602232D01*
X100494658Y-58602233D01*
X100513111Y-58638449D01*
X100552256Y-58715274D01*
X100552258Y-58715276D01*
X100552260Y-58715279D01*
X100641958Y-58804977D01*
X100641960Y-58804978D01*
X100641964Y-58804982D01*
X100755002Y-58862578D01*
X100774279Y-58865631D01*
X100837413Y-58895557D01*
X100874150Y-58954170D01*
X100915661Y-59100067D01*
X101011312Y-59292161D01*
X101011317Y-59292169D01*
X101140637Y-59463416D01*
X101140640Y-59463419D01*
X101299219Y-59607982D01*
X101299221Y-59607984D01*
X101481664Y-59720948D01*
X101481670Y-59720951D01*
X101521688Y-59736454D01*
X101681768Y-59798470D01*
X101892705Y-59837900D01*
X101892707Y-59837900D01*
X102107293Y-59837900D01*
X102107295Y-59837900D01*
X102318232Y-59798470D01*
X102518332Y-59720950D01*
X102700780Y-59607983D01*
X102859365Y-59463414D01*
X102988684Y-59292167D01*
X103084336Y-59100074D01*
X103114380Y-58994478D01*
X103151657Y-58935389D01*
X103214248Y-58905942D01*
X103339514Y-58886102D01*
X103339515Y-58886102D01*
X103339516Y-58886101D01*
X103339518Y-58886101D01*
X103452556Y-58828505D01*
X103542264Y-58738797D01*
X103599860Y-58625759D01*
X103599860Y-58625757D01*
X103599861Y-58625756D01*
X103599861Y-58625755D01*
X103608019Y-58574238D01*
X103619706Y-58500455D01*
X103611546Y-58448934D01*
X103599861Y-58375154D01*
X103599861Y-58375153D01*
X103587874Y-58351628D01*
X103542264Y-58262113D01*
X103542260Y-58262109D01*
X103542259Y-58262107D01*
X103452561Y-58172409D01*
X103452558Y-58172407D01*
X103452556Y-58172405D01*
X103339518Y-58114809D01*
X103339517Y-58114808D01*
X103339514Y-58114807D01*
X103214217Y-58094963D01*
X103214215Y-58094963D01*
X103214214Y-58094963D01*
X103146985Y-58105610D01*
X103104579Y-58112327D01*
X103035286Y-58103371D01*
X102986228Y-58064580D01*
X102920473Y-57977507D01*
X102859365Y-57896586D01*
X102859362Y-57896583D01*
X102859359Y-57896580D01*
X102700780Y-57752017D01*
X102700778Y-57752015D01*
X102518335Y-57639051D01*
X102518329Y-57639048D01*
X102369447Y-57581371D01*
X102318232Y-57561530D01*
X102318229Y-57561529D01*
X102318228Y-57561529D01*
X102233237Y-57545642D01*
X102107295Y-57522100D01*
X101892705Y-57522100D01*
X101795717Y-57540229D01*
X101681771Y-57561529D01*
X101681760Y-57561533D01*
X101481670Y-57639048D01*
X101481664Y-57639051D01*
X101299221Y-57752015D01*
X101299219Y-57752017D01*
X101140640Y-57896580D01*
X101140637Y-57896584D01*
X101039735Y-58030199D01*
X100983626Y-58071835D01*
X100921385Y-58077946D01*
X100902003Y-58074876D01*
X100880306Y-58071440D01*
X100880305Y-58071440D01*
X100880303Y-58071440D01*
X100755005Y-58091284D01*
X100755004Y-58091284D01*
X100679643Y-58129683D01*
X100641964Y-58148882D01*
X100641963Y-58148882D01*
X100641963Y-58148883D01*
X100641958Y-58148886D01*
X100552260Y-58238584D01*
X100552257Y-58238589D01*
X100552256Y-58238590D01*
X100533057Y-58276269D01*
X100494658Y-58351630D01*
X100494658Y-58351631D01*
X100474814Y-58476928D01*
X100474814Y-58476935D01*
X99344044Y-58476935D01*
X99343061Y-58466325D01*
X99284336Y-58259926D01*
X99206380Y-58103371D01*
X99188687Y-58067838D01*
X99188682Y-58067830D01*
X99120473Y-57977507D01*
X99059365Y-57896586D01*
X99059362Y-57896583D01*
X99059359Y-57896580D01*
X98900780Y-57752017D01*
X98900778Y-57752015D01*
X98718335Y-57639051D01*
X98718329Y-57639048D01*
X98569447Y-57581371D01*
X98518232Y-57561530D01*
X98518229Y-57561529D01*
X98518228Y-57561529D01*
X98433237Y-57545642D01*
X98307295Y-57522100D01*
X98092705Y-57522100D01*
X97995717Y-57540229D01*
X97881771Y-57561529D01*
X97881760Y-57561533D01*
X97681670Y-57639048D01*
X97681664Y-57639051D01*
X97499221Y-57752015D01*
X97499219Y-57752017D01*
X97340640Y-57896580D01*
X97340637Y-57896583D01*
X97223096Y-58052233D01*
X97166987Y-58093869D01*
X97097275Y-58098560D01*
X97036093Y-58064818D01*
X97002866Y-58003355D01*
X97000142Y-57977507D01*
X97000221Y-55200827D01*
X106994963Y-55200827D01*
X107014807Y-55326124D01*
X107014807Y-55326125D01*
X107014809Y-55326128D01*
X107072405Y-55439166D01*
X107072407Y-55439168D01*
X107072409Y-55439171D01*
X107162107Y-55528869D01*
X107162109Y-55528870D01*
X107162113Y-55528874D01*
X107275151Y-55586470D01*
X107275152Y-55586470D01*
X107275154Y-55586471D01*
X107400452Y-55606316D01*
X107400455Y-55606316D01*
X107400458Y-55606316D01*
X107525755Y-55586471D01*
X107525756Y-55586471D01*
X107525757Y-55586470D01*
X107525759Y-55586470D01*
X107638797Y-55528874D01*
X107728505Y-55439166D01*
X107786101Y-55326128D01*
X107786101Y-55326126D01*
X107786102Y-55326125D01*
X107786102Y-55326124D01*
X107805947Y-55200827D01*
X112132463Y-55200827D01*
X112152307Y-55326124D01*
X112152307Y-55326125D01*
X112152309Y-55326128D01*
X112209905Y-55439166D01*
X112209907Y-55439168D01*
X112209909Y-55439171D01*
X112299607Y-55528869D01*
X112299609Y-55528870D01*
X112299613Y-55528874D01*
X112412651Y-55586470D01*
X112412652Y-55586470D01*
X112412654Y-55586471D01*
X112537952Y-55606316D01*
X112537955Y-55606316D01*
X112537958Y-55606316D01*
X112663255Y-55586471D01*
X112663256Y-55586471D01*
X112663257Y-55586470D01*
X112663259Y-55586470D01*
X112776297Y-55528874D01*
X112866005Y-55439166D01*
X112923601Y-55326128D01*
X112923601Y-55326126D01*
X112923602Y-55326125D01*
X112923602Y-55326124D01*
X112943447Y-55200827D01*
X112943447Y-55200820D01*
X112923602Y-55075523D01*
X112923602Y-55075522D01*
X112923601Y-55075520D01*
X112866005Y-54962482D01*
X112866001Y-54962478D01*
X112866000Y-54962476D01*
X112776302Y-54872778D01*
X112776299Y-54872776D01*
X112776297Y-54872774D01*
X112663259Y-54815178D01*
X112663258Y-54815177D01*
X112663255Y-54815176D01*
X112537958Y-54795332D01*
X112537952Y-54795332D01*
X112412654Y-54815176D01*
X112412653Y-54815176D01*
X112337292Y-54853575D01*
X112299613Y-54872774D01*
X112299612Y-54872775D01*
X112299607Y-54872778D01*
X112209909Y-54962476D01*
X112209906Y-54962481D01*
X112152307Y-55075522D01*
X112152307Y-55075523D01*
X112132463Y-55200820D01*
X112132463Y-55200827D01*
X107805947Y-55200827D01*
X107805947Y-55200820D01*
X107786102Y-55075523D01*
X107786102Y-55075522D01*
X107786101Y-55075520D01*
X107728505Y-54962482D01*
X107728501Y-54962478D01*
X107728500Y-54962476D01*
X107638802Y-54872778D01*
X107638799Y-54872776D01*
X107638797Y-54872774D01*
X107525759Y-54815178D01*
X107525758Y-54815177D01*
X107525755Y-54815176D01*
X107400458Y-54795332D01*
X107400452Y-54795332D01*
X107275154Y-54815176D01*
X107275153Y-54815176D01*
X107199792Y-54853575D01*
X107162113Y-54872774D01*
X107162112Y-54872774D01*
X107162112Y-54872775D01*
X107162107Y-54872778D01*
X107072409Y-54962476D01*
X107072406Y-54962481D01*
X107014807Y-55075522D01*
X107014807Y-55075523D01*
X106994963Y-55200820D01*
X106994963Y-55200827D01*
X97000221Y-55200827D01*
X97000367Y-50052246D01*
X97000869Y-50050538D01*
X97000869Y-50001517D01*
X97000909Y-50000005D01*
X97592349Y-50000005D01*
X97611332Y-50301751D01*
X97627494Y-50386470D01*
X97667990Y-50598758D01*
X97667992Y-50598763D01*
X97761420Y-50886308D01*
X97761421Y-50886309D01*
X97761423Y-50886315D01*
X97890159Y-51159895D01*
X97890163Y-51159902D01*
X97890164Y-51159903D01*
X98052165Y-51415177D01*
X98244903Y-51648157D01*
X98465303Y-51855125D01*
X98465313Y-51855133D01*
X98709904Y-52032839D01*
X98709922Y-52032851D01*
X98974872Y-52178508D01*
X98974880Y-52178512D01*
X99249277Y-52287152D01*
X99255995Y-52289812D01*
X99548851Y-52365005D01*
X99611780Y-52372954D01*
X99848810Y-52402899D01*
X99848819Y-52402899D01*
X99848822Y-52402900D01*
X99848824Y-52402900D01*
X100151176Y-52402900D01*
X100151178Y-52402900D01*
X100151181Y-52402899D01*
X100151189Y-52402899D01*
X100330182Y-52380286D01*
X100451149Y-52365005D01*
X100744005Y-52289812D01*
X100881207Y-52235489D01*
X101025119Y-52178512D01*
X101025123Y-52178509D01*
X101025128Y-52178508D01*
X101290084Y-52032847D01*
X101534695Y-51855127D01*
X101755102Y-51648151D01*
X101947831Y-51415182D01*
X102109841Y-51159895D01*
X102238577Y-50886315D01*
X102332010Y-50598758D01*
X102388666Y-50301759D01*
X102404472Y-50050538D01*
X102407599Y-50000827D01*
X106994963Y-50000827D01*
X107014807Y-50126124D01*
X107014807Y-50126125D01*
X107014809Y-50126128D01*
X107072405Y-50239166D01*
X107072407Y-50239168D01*
X107072409Y-50239171D01*
X107162107Y-50328869D01*
X107162109Y-50328870D01*
X107162113Y-50328874D01*
X107275151Y-50386470D01*
X107275152Y-50386470D01*
X107275154Y-50386471D01*
X107400452Y-50406316D01*
X107400455Y-50406316D01*
X107400458Y-50406316D01*
X107525755Y-50386471D01*
X107525756Y-50386471D01*
X107525757Y-50386470D01*
X107525759Y-50386470D01*
X107638797Y-50328874D01*
X107728505Y-50239166D01*
X107786101Y-50126128D01*
X107786101Y-50126126D01*
X107786102Y-50126125D01*
X107786102Y-50126124D01*
X107805947Y-50000827D01*
X112132463Y-50000827D01*
X112152307Y-50126124D01*
X112152307Y-50126125D01*
X112152309Y-50126128D01*
X112209905Y-50239166D01*
X112209907Y-50239168D01*
X112209909Y-50239171D01*
X112299607Y-50328869D01*
X112299609Y-50328870D01*
X112299613Y-50328874D01*
X112412651Y-50386470D01*
X112412652Y-50386470D01*
X112412654Y-50386471D01*
X112537952Y-50406316D01*
X112537955Y-50406316D01*
X112537958Y-50406316D01*
X112663255Y-50386471D01*
X112663256Y-50386471D01*
X112663257Y-50386470D01*
X112663259Y-50386470D01*
X112776297Y-50328874D01*
X112866005Y-50239166D01*
X112923601Y-50126128D01*
X112923601Y-50126126D01*
X112923602Y-50126125D01*
X112923602Y-50126124D01*
X112943447Y-50000827D01*
X112943447Y-50000820D01*
X112923602Y-49875523D01*
X112923602Y-49875522D01*
X112921378Y-49871157D01*
X112866005Y-49762482D01*
X112866001Y-49762478D01*
X112866000Y-49762476D01*
X112776302Y-49672778D01*
X112776299Y-49672776D01*
X112776297Y-49672774D01*
X112663259Y-49615178D01*
X112663258Y-49615177D01*
X112663255Y-49615176D01*
X112537958Y-49595332D01*
X112537952Y-49595332D01*
X112412654Y-49615176D01*
X112412653Y-49615176D01*
X112337292Y-49653575D01*
X112299613Y-49672774D01*
X112299612Y-49672775D01*
X112299607Y-49672778D01*
X112209909Y-49762476D01*
X112209906Y-49762481D01*
X112152307Y-49875522D01*
X112152307Y-49875523D01*
X112132463Y-50000820D01*
X112132463Y-50000827D01*
X107805947Y-50000827D01*
X107805947Y-50000820D01*
X107786102Y-49875523D01*
X107786102Y-49875522D01*
X107783878Y-49871157D01*
X107728505Y-49762482D01*
X107728501Y-49762478D01*
X107728500Y-49762476D01*
X107638802Y-49672778D01*
X107638799Y-49672776D01*
X107638797Y-49672774D01*
X107525759Y-49615178D01*
X107525758Y-49615177D01*
X107525755Y-49615176D01*
X107400458Y-49595332D01*
X107400452Y-49595332D01*
X107275154Y-49615176D01*
X107275153Y-49615176D01*
X107199792Y-49653575D01*
X107162113Y-49672774D01*
X107162112Y-49672774D01*
X107162112Y-49672775D01*
X107162107Y-49672778D01*
X107072409Y-49762476D01*
X107072406Y-49762481D01*
X107014807Y-49875522D01*
X107014807Y-49875523D01*
X106994963Y-50000820D01*
X106994963Y-50000827D01*
X102407599Y-50000827D01*
X102407651Y-50000005D01*
X102407651Y-49999994D01*
X102388667Y-49698248D01*
X102384467Y-49676230D01*
X102332010Y-49401242D01*
X102238577Y-49113685D01*
X102109841Y-48840105D01*
X101947831Y-48584818D01*
X101755102Y-48351849D01*
X101755101Y-48351848D01*
X101755096Y-48351842D01*
X101534696Y-48144874D01*
X101534686Y-48144866D01*
X101290095Y-47967160D01*
X101290077Y-47967148D01*
X101025127Y-47821491D01*
X101025119Y-47821487D01*
X100744009Y-47710189D01*
X100567449Y-47664856D01*
X100451149Y-47634995D01*
X100451146Y-47634994D01*
X100451139Y-47634993D01*
X100151189Y-47597100D01*
X100151178Y-47597100D01*
X99848822Y-47597100D01*
X99848810Y-47597100D01*
X99548860Y-47634993D01*
X99548851Y-47634995D01*
X99255990Y-47710189D01*
X98974880Y-47821487D01*
X98974872Y-47821491D01*
X98709922Y-47967148D01*
X98709904Y-47967160D01*
X98465313Y-48144866D01*
X98465303Y-48144874D01*
X98244903Y-48351842D01*
X98052165Y-48584822D01*
X97890164Y-48840096D01*
X97890161Y-48840100D01*
X97890159Y-48840105D01*
X97792504Y-49047634D01*
X97761421Y-49113690D01*
X97761420Y-49113691D01*
X97726154Y-49222231D01*
X97667990Y-49401242D01*
X97643758Y-49528271D01*
X97611332Y-49698248D01*
X97592349Y-49999994D01*
X97592349Y-50000005D01*
X97000909Y-50000005D01*
X97000954Y-49998269D01*
X97007620Y-49871157D01*
X97018250Y-49682433D01*
X97018913Y-49676242D01*
X97042366Y-49528199D01*
X97070743Y-49361214D01*
X97071966Y-49355620D01*
X97112192Y-49205509D01*
X97157680Y-49047634D01*
X97159353Y-49042647D01*
X97215909Y-48895323D01*
X97278045Y-48745324D01*
X97280038Y-48740999D01*
X97352323Y-48599140D01*
X97430412Y-48457857D01*
X97432661Y-48454111D01*
X97519803Y-48319931D01*
X97545478Y-48283745D01*
X97613033Y-48188539D01*
X97615349Y-48185484D01*
X97715516Y-48061792D01*
X97717364Y-48059620D01*
X97823755Y-47940570D01*
X97826082Y-47938110D01*
X97938685Y-47825510D01*
X97941110Y-47823217D01*
X98060149Y-47716840D01*
X98062371Y-47714950D01*
X98186003Y-47614836D01*
X98189123Y-47612470D01*
X98320475Y-47519271D01*
X98454672Y-47432124D01*
X98458425Y-47429872D01*
X98599701Y-47351791D01*
X98741541Y-47279520D01*
X98745880Y-47277519D01*
X98895842Y-47215401D01*
X99043216Y-47158829D01*
X99048219Y-47157153D01*
X99206061Y-47111678D01*
X99356188Y-47071451D01*
X99361803Y-47070225D01*
X99528737Y-47041860D01*
X99676798Y-47018408D01*
X99682993Y-47017745D01*
X99878924Y-47006739D01*
X99997966Y-47000498D01*
X100001208Y-47000414D01*
X119876458Y-47000434D01*
G37*
%TD.AperFunction*%
%TD*%
M02*
