%TF.GenerationSoftware,KiCad,Pcbnew,7.0.6*%
%TF.CreationDate,2023-08-04T15:36:23+02:00*%
%TF.ProjectId,Debug_BreakBoard,44656275-675f-4427-9265-616b426f6172,rev?*%
%TF.SameCoordinates,Original*%
%TF.FileFunction,Copper,L1,Top*%
%TF.FilePolarity,Positive*%
%FSLAX46Y46*%
G04 Gerber Fmt 4.6, Leading zero omitted, Abs format (unit mm)*
G04 Created by KiCad (PCBNEW 7.0.6) date 2023-08-04 15:36:23*
%MOMM*%
%LPD*%
G01*
G04 APERTURE LIST*
G04 Aperture macros list*
%AMRoundRect*
0 Rectangle with rounded corners*
0 $1 Rounding radius*
0 $2 $3 $4 $5 $6 $7 $8 $9 X,Y pos of 4 corners*
0 Add a 4 corners polygon primitive as box body*
4,1,4,$2,$3,$4,$5,$6,$7,$8,$9,$2,$3,0*
0 Add four circle primitives for the rounded corners*
1,1,$1+$1,$2,$3*
1,1,$1+$1,$4,$5*
1,1,$1+$1,$6,$7*
1,1,$1+$1,$8,$9*
0 Add four rect primitives between the rounded corners*
20,1,$1+$1,$2,$3,$4,$5,0*
20,1,$1+$1,$4,$5,$6,$7,0*
20,1,$1+$1,$6,$7,$8,$9,0*
20,1,$1+$1,$8,$9,$2,$3,0*%
G04 Aperture macros list end*
%TA.AperFunction,ComponentPad*%
%ADD10R,1.700000X1.700000*%
%TD*%
%TA.AperFunction,ComponentPad*%
%ADD11O,1.700000X1.700000*%
%TD*%
%TA.AperFunction,SMDPad,CuDef*%
%ADD12RoundRect,0.237500X-0.250000X-0.237500X0.250000X-0.237500X0.250000X0.237500X-0.250000X0.237500X0*%
%TD*%
%TA.AperFunction,ComponentPad*%
%ADD13C,4.500000*%
%TD*%
%TA.AperFunction,ComponentPad*%
%ADD14C,2.000000*%
%TD*%
%TA.AperFunction,SMDPad,CuDef*%
%ADD15RoundRect,0.150000X-0.512500X-0.150000X0.512500X-0.150000X0.512500X0.150000X-0.512500X0.150000X0*%
%TD*%
%TA.AperFunction,SMDPad,CuDef*%
%ADD16RoundRect,0.237500X0.287500X0.237500X-0.287500X0.237500X-0.287500X-0.237500X0.287500X-0.237500X0*%
%TD*%
%TA.AperFunction,SMDPad,CuDef*%
%ADD17R,1.500000X0.600000*%
%TD*%
%TA.AperFunction,SMDPad,CuDef*%
%ADD18R,1.500000X0.800000*%
%TD*%
%TA.AperFunction,SMDPad,CuDef*%
%ADD19R,1.200000X0.700000*%
%TD*%
%TA.AperFunction,SMDPad,CuDef*%
%ADD20R,1.200000X0.760000*%
%TD*%
%TA.AperFunction,SMDPad,CuDef*%
%ADD21R,1.200000X0.800000*%
%TD*%
%TA.AperFunction,ComponentPad*%
%ADD22C,2.010000*%
%TD*%
%TA.AperFunction,ViaPad*%
%ADD23C,0.450000*%
%TD*%
%TA.AperFunction,Conductor*%
%ADD24C,0.254000*%
%TD*%
G04 APERTURE END LIST*
D10*
%TO.P,J16,1,Pin_1*%
%TO.N,VDD*%
X177975000Y-58500000D03*
D11*
%TO.P,J16,2,Pin_2*%
%TO.N,Net-(J16-Pin_2)*%
X180515000Y-58500000D03*
%TO.P,J16,3,Pin_3*%
%TO.N,GND*%
X183055000Y-58500000D03*
%TD*%
D10*
%TO.P,J15,1,Pin_1*%
%TO.N,VDD*%
X170280000Y-58500000D03*
D11*
%TO.P,J15,2,Pin_2*%
%TO.N,Net-(J15-Pin_2)*%
X172820000Y-58500000D03*
%TO.P,J15,3,Pin_3*%
%TO.N,GND*%
X175360000Y-58500000D03*
%TD*%
D10*
%TO.P,J14,1,Pin_1*%
%TO.N,VDD*%
X162585000Y-58500000D03*
D11*
%TO.P,J14,2,Pin_2*%
%TO.N,Net-(J14-Pin_2)*%
X165125000Y-58500000D03*
%TO.P,J14,3,Pin_3*%
%TO.N,GND*%
X167665000Y-58500000D03*
%TD*%
D10*
%TO.P,J13,1,Pin_1*%
%TO.N,VDD*%
X154890000Y-58500000D03*
D11*
%TO.P,J13,2,Pin_2*%
%TO.N,Net-(J13-Pin_2)*%
X157430000Y-58500000D03*
%TO.P,J13,3,Pin_3*%
%TO.N,GND*%
X159970000Y-58500000D03*
%TD*%
D10*
%TO.P,J12,1,Pin_1*%
%TO.N,VDD*%
X147195000Y-58500000D03*
D11*
%TO.P,J12,2,Pin_2*%
%TO.N,Net-(J12-Pin_2)*%
X149735000Y-58500000D03*
%TO.P,J12,3,Pin_3*%
%TO.N,GND*%
X152275000Y-58500000D03*
%TD*%
%TO.P,J11,3,Pin_3*%
%TO.N,GND*%
X144580000Y-58500000D03*
%TO.P,J11,2,Pin_2*%
%TO.N,Net-(J11-Pin_2)*%
X142040000Y-58500000D03*
D10*
%TO.P,J11,1,Pin_1*%
%TO.N,VDD*%
X139500000Y-58500000D03*
%TD*%
%TO.P,J10,1,Pin_1*%
%TO.N,VDD*%
X177975000Y-67500000D03*
D11*
%TO.P,J10,2,Pin_2*%
%TO.N,Net-(J10-Pin_2)*%
X180515000Y-67500000D03*
%TO.P,J10,3,Pin_3*%
%TO.N,GND*%
X183055000Y-67500000D03*
%TD*%
D10*
%TO.P,J9,1,Pin_1*%
%TO.N,VDD*%
X170280000Y-67500000D03*
D11*
%TO.P,J9,2,Pin_2*%
%TO.N,Net-(J9-Pin_2)*%
X172820000Y-67500000D03*
%TO.P,J9,3,Pin_3*%
%TO.N,GND*%
X175360000Y-67500000D03*
%TD*%
D10*
%TO.P,J8,1,Pin_1*%
%TO.N,GND*%
X134000000Y-49000000D03*
D11*
%TO.P,J8,2,Pin_2*%
%TO.N,/1*%
X136540000Y-49000000D03*
%TO.P,J8,3,Pin_3*%
%TO.N,GND*%
X134000000Y-51540000D03*
%TO.P,J8,4,Pin_4*%
%TO.N,/2*%
X136540000Y-51540000D03*
%TO.P,J8,5,Pin_5*%
%TO.N,GND*%
X134000000Y-54080000D03*
%TO.P,J8,6,Pin_6*%
%TO.N,/3*%
X136540000Y-54080000D03*
%TO.P,J8,7,Pin_7*%
%TO.N,GND*%
X134000000Y-56620000D03*
%TO.P,J8,8,Pin_8*%
%TO.N,/4*%
X136540000Y-56620000D03*
%TO.P,J8,9,Pin_9*%
%TO.N,GND*%
X134000000Y-59160000D03*
%TO.P,J8,10,Pin_10*%
%TO.N,/5*%
X136540000Y-59160000D03*
%TO.P,J8,11,Pin_11*%
%TO.N,GND*%
X134000000Y-61700000D03*
%TO.P,J8,12,Pin_12*%
%TO.N,/6*%
X136540000Y-61700000D03*
%TO.P,J8,13,Pin_13*%
%TO.N,GND*%
X134000000Y-64240000D03*
%TO.P,J8,14,Pin_14*%
%TO.N,/7*%
X136540000Y-64240000D03*
%TO.P,J8,15,Pin_15*%
%TO.N,GND*%
X134000000Y-66780000D03*
%TO.P,J8,16,Pin_16*%
%TO.N,/8*%
X136540000Y-66780000D03*
%TO.P,J8,17,Pin_17*%
%TO.N,GND*%
X134000000Y-69320000D03*
%TO.P,J8,18,Pin_18*%
%TO.N,/9*%
X136540000Y-69320000D03*
%TO.P,J8,19,Pin_19*%
%TO.N,GND*%
X134000000Y-71860000D03*
%TO.P,J8,20,Pin_20*%
%TO.N,/10*%
X136540000Y-71860000D03*
%TO.P,J8,21,Pin_21*%
%TO.N,GND*%
X134000000Y-74400000D03*
%TO.P,J8,22,Pin_22*%
%TO.N,/11*%
X136540000Y-74400000D03*
%TO.P,J8,23,Pin_23*%
%TO.N,GND*%
X134000000Y-76940000D03*
%TO.P,J8,24,Pin_24*%
%TO.N,/12*%
X136540000Y-76940000D03*
%TD*%
D10*
%TO.P,J7,1,Pin_1*%
%TO.N,VDD*%
X162585000Y-67500000D03*
D11*
%TO.P,J7,2,Pin_2*%
%TO.N,Net-(J7-Pin_2)*%
X165125000Y-67500000D03*
%TO.P,J7,3,Pin_3*%
%TO.N,GND*%
X167665000Y-67500000D03*
%TD*%
D10*
%TO.P,J6,1,Pin_1*%
%TO.N,VDD*%
X154890000Y-67500000D03*
D11*
%TO.P,J6,2,Pin_2*%
%TO.N,Net-(J6-Pin_2)*%
X157430000Y-67500000D03*
%TO.P,J6,3,Pin_3*%
%TO.N,GND*%
X159970000Y-67500000D03*
%TD*%
D10*
%TO.P,J5,1,Pin_1*%
%TO.N,VDD*%
X147195000Y-67500000D03*
D11*
%TO.P,J5,2,Pin_2*%
%TO.N,Net-(J5-Pin_2)*%
X149735000Y-67500000D03*
%TO.P,J5,3,Pin_3*%
%TO.N,GND*%
X152275000Y-67500000D03*
%TD*%
D10*
%TO.P,J4,1,Pin_1*%
%TO.N,VDD*%
X127470000Y-49000000D03*
D11*
%TO.P,J4,2,Pin_2*%
%TO.N,/1*%
X130010000Y-49000000D03*
%TO.P,J4,3,Pin_3*%
%TO.N,VDD*%
X127470000Y-51540000D03*
%TO.P,J4,4,Pin_4*%
%TO.N,/2*%
X130010000Y-51540000D03*
%TO.P,J4,5,Pin_5*%
%TO.N,VDD*%
X127470000Y-54080000D03*
%TO.P,J4,6,Pin_6*%
%TO.N,/3*%
X130010000Y-54080000D03*
%TO.P,J4,7,Pin_7*%
%TO.N,VDD*%
X127470000Y-56620000D03*
%TO.P,J4,8,Pin_8*%
%TO.N,/4*%
X130010000Y-56620000D03*
%TO.P,J4,9,Pin_9*%
%TO.N,VDD*%
X127470000Y-59160000D03*
%TO.P,J4,10,Pin_10*%
%TO.N,/5*%
X130010000Y-59160000D03*
%TO.P,J4,11,Pin_11*%
%TO.N,VDD*%
X127470000Y-61700000D03*
%TO.P,J4,12,Pin_12*%
%TO.N,/6*%
X130010000Y-61700000D03*
%TO.P,J4,13,Pin_13*%
%TO.N,VDD*%
X127470000Y-64240000D03*
%TO.P,J4,14,Pin_14*%
%TO.N,/7*%
X130010000Y-64240000D03*
%TO.P,J4,15,Pin_15*%
%TO.N,VDD*%
X127470000Y-66780000D03*
%TO.P,J4,16,Pin_16*%
%TO.N,/8*%
X130010000Y-66780000D03*
%TO.P,J4,17,Pin_17*%
%TO.N,VDD*%
X127470000Y-69320000D03*
%TO.P,J4,18,Pin_18*%
%TO.N,/9*%
X130010000Y-69320000D03*
%TO.P,J4,19,Pin_19*%
%TO.N,VDD*%
X127470000Y-71860000D03*
%TO.P,J4,20,Pin_20*%
%TO.N,/10*%
X130010000Y-71860000D03*
%TO.P,J4,21,Pin_21*%
%TO.N,VDD*%
X127470000Y-74400000D03*
%TO.P,J4,22,Pin_22*%
%TO.N,/11*%
X130010000Y-74400000D03*
%TO.P,J4,23,Pin_23*%
%TO.N,VDD*%
X127470000Y-76940000D03*
%TO.P,J4,24,Pin_24*%
%TO.N,/12*%
X130010000Y-76940000D03*
%TD*%
%TO.P,J3,3,Pin_3*%
%TO.N,GND*%
X144580000Y-67500000D03*
%TO.P,J3,2,Pin_2*%
%TO.N,Net-(J3-Pin_2)*%
X142040000Y-67500000D03*
D10*
%TO.P,J3,1,Pin_1*%
%TO.N,VDD*%
X139500000Y-67500000D03*
%TD*%
%TO.P,J2,1,Pin_1*%
%TO.N,/1*%
X186000000Y-49000000D03*
D11*
%TO.P,J2,2,Pin_2*%
X188540000Y-49000000D03*
%TO.P,J2,3,Pin_3*%
%TO.N,/2*%
X186000000Y-51540000D03*
%TO.P,J2,4,Pin_4*%
X188540000Y-51540000D03*
%TO.P,J2,5,Pin_5*%
%TO.N,/3*%
X186000000Y-54080000D03*
%TO.P,J2,6,Pin_6*%
X188540000Y-54080000D03*
%TO.P,J2,7,Pin_7*%
%TO.N,/4*%
X186000000Y-56620000D03*
%TO.P,J2,8,Pin_8*%
X188540000Y-56620000D03*
%TO.P,J2,9,Pin_9*%
%TO.N,/5*%
X186000000Y-59160000D03*
%TO.P,J2,10,Pin_10*%
X188540000Y-59160000D03*
%TO.P,J2,11,Pin_11*%
%TO.N,/6*%
X186000000Y-61700000D03*
%TO.P,J2,12,Pin_12*%
X188540000Y-61700000D03*
%TO.P,J2,13,Pin_13*%
%TO.N,/7*%
X186000000Y-64240000D03*
%TO.P,J2,14,Pin_14*%
X188540000Y-64240000D03*
%TO.P,J2,15,Pin_15*%
%TO.N,/8*%
X186000000Y-66780000D03*
%TO.P,J2,16,Pin_16*%
X188540000Y-66780000D03*
%TO.P,J2,17,Pin_17*%
%TO.N,/9*%
X186000000Y-69320000D03*
%TO.P,J2,18,Pin_18*%
X188540000Y-69320000D03*
%TO.P,J2,19,Pin_19*%
%TO.N,/10*%
X186000000Y-71860000D03*
%TO.P,J2,20,Pin_20*%
X188540000Y-71860000D03*
%TO.P,J2,21,Pin_21*%
%TO.N,/11*%
X186000000Y-74400000D03*
%TO.P,J2,22,Pin_22*%
X188540000Y-74400000D03*
%TO.P,J2,23,Pin_23*%
%TO.N,/12*%
X186000000Y-76940000D03*
%TO.P,J2,24,Pin_24*%
X188540000Y-76940000D03*
%TD*%
D12*
%TO.P,R11,1*%
%TO.N,Net-(U6--)*%
X118250455Y-74400000D03*
%TO.P,R11,2*%
%TO.N,Net-(D11-A)*%
X120075455Y-74400000D03*
%TD*%
D13*
%TO.P,H2,1,1*%
%TO.N,unconnected-(H2-Pad1)*%
X100000000Y-76000000D03*
%TD*%
D14*
%TO.P,SW8,1,1*%
%TO.N,Net-(J12-Pin_2)*%
X147726000Y-55500000D03*
X147726000Y-49000000D03*
%TO.P,SW8,2,2*%
%TO.N,/2*%
X152226000Y-55500000D03*
X152226000Y-49000000D03*
%TD*%
D15*
%TO.P,U3,1*%
%TO.N,Net-(U3--)*%
X113750000Y-59450000D03*
%TO.P,U3,2,V-*%
%TO.N,GND*%
X113750000Y-60400000D03*
%TO.P,U3,3,+*%
%TO.N,/5*%
X113750000Y-61350000D03*
%TO.P,U3,4,-*%
%TO.N,Net-(U3--)*%
X116025000Y-61350000D03*
%TO.P,U3,5,V+*%
%TO.N,P5V0*%
X116025000Y-59450000D03*
%TD*%
D16*
%TO.P,D10,1,K*%
%TO.N,GND*%
X125083572Y-71860000D03*
%TO.P,D10,2,A*%
%TO.N,Net-(D10-A)*%
X123333572Y-71860000D03*
%TD*%
D12*
%TO.P,R5,1*%
%TO.N,Net-(U3--)*%
X118250455Y-59160000D03*
%TO.P,R5,2*%
%TO.N,Net-(D5-A)*%
X120075455Y-59160000D03*
%TD*%
D13*
%TO.P,H1,1,1*%
%TO.N,unconnected-(H1-Pad1)*%
X100000000Y-50000000D03*
%TD*%
D15*
%TO.P,U8,1*%
%TO.N,Net-(U8--)*%
X108612500Y-54250000D03*
%TO.P,U8,2,V-*%
%TO.N,GND*%
X108612500Y-55200000D03*
%TO.P,U8,3,+*%
%TO.N,/4*%
X108612500Y-56150000D03*
%TO.P,U8,4,-*%
%TO.N,Net-(U8--)*%
X110887500Y-56150000D03*
%TO.P,U8,5,V+*%
%TO.N,P5V0*%
X110887500Y-54250000D03*
%TD*%
D16*
%TO.P,D5,1,K*%
%TO.N,GND*%
X125083572Y-59160000D03*
%TO.P,D5,2,A*%
%TO.N,Net-(D5-A)*%
X123333572Y-59160000D03*
%TD*%
D15*
%TO.P,U9,1*%
%TO.N,Net-(U9--)*%
X108612500Y-59450000D03*
%TO.P,U9,2,V-*%
%TO.N,GND*%
X108612500Y-60400000D03*
%TO.P,U9,3,+*%
%TO.N,/6*%
X108612500Y-61350000D03*
%TO.P,U9,4,-*%
%TO.N,Net-(U9--)*%
X110887500Y-61350000D03*
%TO.P,U9,5,V+*%
%TO.N,P5V0*%
X110887500Y-59450000D03*
%TD*%
D12*
%TO.P,R2,1*%
%TO.N,Net-(U7--)*%
X118250455Y-51540000D03*
%TO.P,R2,2*%
%TO.N,Net-(D2-A)*%
X120075455Y-51540000D03*
%TD*%
%TO.P,R6,1*%
%TO.N,Net-(U9--)*%
X118250455Y-61700000D03*
%TO.P,R6,2*%
%TO.N,Net-(D6-A)*%
X120075455Y-61700000D03*
%TD*%
D14*
%TO.P,SW4,1,1*%
%TO.N,Net-(J7-Pin_2)*%
X162730000Y-77000000D03*
X162730000Y-70500000D03*
%TO.P,SW4,2,2*%
%TO.N,/10*%
X167230000Y-77000000D03*
X167230000Y-70500000D03*
%TD*%
D16*
%TO.P,D9,1,K*%
%TO.N,GND*%
X125083572Y-69320000D03*
%TO.P,D9,2,A*%
%TO.N,Net-(D9-A)*%
X123333572Y-69320000D03*
%TD*%
D15*
%TO.P,U2,1*%
%TO.N,Net-(U2--)*%
X113750000Y-54250000D03*
%TO.P,U2,2,V-*%
%TO.N,GND*%
X113750000Y-55200000D03*
%TO.P,U2,3,+*%
%TO.N,/3*%
X113750000Y-56150000D03*
%TO.P,U2,4,-*%
%TO.N,Net-(U2--)*%
X116025000Y-56150000D03*
%TO.P,U2,5,V+*%
%TO.N,P5V0*%
X116025000Y-54250000D03*
%TD*%
%TO.P,U1,1*%
%TO.N,Net-(U1--)*%
X113750000Y-49050000D03*
%TO.P,U1,2,V-*%
%TO.N,GND*%
X113750000Y-50000000D03*
%TO.P,U1,3,+*%
%TO.N,/1*%
X113750000Y-50950000D03*
%TO.P,U1,4,-*%
%TO.N,Net-(U1--)*%
X116025000Y-50950000D03*
%TO.P,U1,5,V+*%
%TO.N,P5V0*%
X116025000Y-49050000D03*
%TD*%
D16*
%TO.P,D12,1,K*%
%TO.N,GND*%
X125083572Y-76940000D03*
%TO.P,D12,2,A*%
%TO.N,Net-(D12-A)*%
X123333572Y-76940000D03*
%TD*%
D15*
%TO.P,U6,1*%
%TO.N,Net-(U6--)*%
X113750000Y-75050000D03*
%TO.P,U6,2,V-*%
%TO.N,GND*%
X113750000Y-76000000D03*
%TO.P,U6,3,+*%
%TO.N,/11*%
X113750000Y-76950000D03*
%TO.P,U6,4,-*%
%TO.N,Net-(U6--)*%
X116025000Y-76950000D03*
%TO.P,U6,5,V+*%
%TO.N,P5V0*%
X116025000Y-75050000D03*
%TD*%
D16*
%TO.P,D4,1,K*%
%TO.N,GND*%
X125083572Y-56620000D03*
%TO.P,D4,2,A*%
%TO.N,Net-(D4-A)*%
X123333572Y-56620000D03*
%TD*%
D12*
%TO.P,R10,1*%
%TO.N,Net-(U11--)*%
X118250455Y-71860000D03*
%TO.P,R10,2*%
%TO.N,Net-(D10-A)*%
X120075455Y-71860000D03*
%TD*%
D16*
%TO.P,D6,1,K*%
%TO.N,GND*%
X125083572Y-61700000D03*
%TO.P,D6,2,A*%
%TO.N,Net-(D6-A)*%
X123333572Y-61700000D03*
%TD*%
D15*
%TO.P,U4,1*%
%TO.N,Net-(U4--)*%
X113750000Y-64650000D03*
%TO.P,U4,2,V-*%
%TO.N,GND*%
X113750000Y-65600000D03*
%TO.P,U4,3,+*%
%TO.N,/7*%
X113750000Y-66550000D03*
%TO.P,U4,4,-*%
%TO.N,Net-(U4--)*%
X116025000Y-66550000D03*
%TO.P,U4,5,V+*%
%TO.N,P5V0*%
X116025000Y-64650000D03*
%TD*%
D14*
%TO.P,SW5,1,1*%
%TO.N,Net-(J9-Pin_2)*%
X170240000Y-77000000D03*
X170240000Y-70500000D03*
%TO.P,SW5,2,2*%
%TO.N,/11*%
X174740000Y-77000000D03*
X174740000Y-70500000D03*
%TD*%
%TO.P,SW7,1,1*%
%TO.N,Net-(J11-Pin_2)*%
X140220000Y-55500000D03*
X140220000Y-49000000D03*
%TO.P,SW7,2,2*%
%TO.N,/1*%
X144720000Y-55500000D03*
X144720000Y-49000000D03*
%TD*%
D12*
%TO.P,R4,1*%
%TO.N,Net-(U8--)*%
X118250455Y-56620000D03*
%TO.P,R4,2*%
%TO.N,Net-(D4-A)*%
X120075455Y-56620000D03*
%TD*%
D16*
%TO.P,D3,1,K*%
%TO.N,GND*%
X125083572Y-54080000D03*
%TO.P,D3,2,A*%
%TO.N,Net-(D3-A)*%
X123333572Y-54080000D03*
%TD*%
D14*
%TO.P,SW6,1,1*%
%TO.N,Net-(J10-Pin_2)*%
X177750000Y-77000000D03*
X177750000Y-70500000D03*
%TO.P,SW6,2,2*%
%TO.N,/12*%
X182250000Y-77000000D03*
X182250000Y-70500000D03*
%TD*%
D10*
%TO.P,J17,1,Pin_1*%
%TO.N,P5V0*%
X105900000Y-61460000D03*
D11*
%TO.P,J17,2,Pin_2*%
%TO.N,GND*%
X105900000Y-64000000D03*
%TD*%
D16*
%TO.P,D2,1,K*%
%TO.N,GND*%
X125083572Y-51540000D03*
%TO.P,D2,2,A*%
%TO.N,Net-(D2-A)*%
X123333572Y-51540000D03*
%TD*%
D15*
%TO.P,U10,1*%
%TO.N,Net-(U10--)*%
X108612500Y-64650000D03*
%TO.P,U10,2,V-*%
%TO.N,GND*%
X108612500Y-65600000D03*
%TO.P,U10,3,+*%
%TO.N,/8*%
X108612500Y-66550000D03*
%TO.P,U10,4,-*%
%TO.N,Net-(U10--)*%
X110887500Y-66550000D03*
%TO.P,U10,5,V+*%
%TO.N,P5V0*%
X110887500Y-64650000D03*
%TD*%
D14*
%TO.P,SW3,1,1*%
%TO.N,Net-(J6-Pin_2)*%
X155220000Y-77000000D03*
X155220000Y-70500000D03*
%TO.P,SW3,2,2*%
%TO.N,/9*%
X159720000Y-77000000D03*
X159720000Y-70500000D03*
%TD*%
D16*
%TO.P,D1,1,K*%
%TO.N,GND*%
X125083572Y-49000000D03*
%TO.P,D1,2,A*%
%TO.N,Net-(D1-A)*%
X123333572Y-49000000D03*
%TD*%
D14*
%TO.P,SW10,1,1*%
%TO.N,Net-(J14-Pin_2)*%
X162738000Y-55500000D03*
X162738000Y-49000000D03*
%TO.P,SW10,2,2*%
%TO.N,/4*%
X167238000Y-55500000D03*
X167238000Y-49000000D03*
%TD*%
D13*
%TO.P,H4,1,1*%
%TO.N,unconnected-(H4-Pad1)*%
X194000000Y-76000000D03*
%TD*%
D16*
%TO.P,D8,1,K*%
%TO.N,GND*%
X125083572Y-66780000D03*
%TO.P,D8,2,A*%
%TO.N,Net-(D8-A)*%
X123333572Y-66780000D03*
%TD*%
D15*
%TO.P,U12,1*%
%TO.N,Net-(U12--)*%
X108612500Y-75050000D03*
%TO.P,U12,2,V-*%
%TO.N,GND*%
X108612500Y-76000000D03*
%TO.P,U12,3,+*%
%TO.N,/12*%
X108612500Y-76950000D03*
%TO.P,U12,4,-*%
%TO.N,Net-(U12--)*%
X110887500Y-76950000D03*
%TO.P,U12,5,V+*%
%TO.N,P5V0*%
X110887500Y-75050000D03*
%TD*%
D14*
%TO.P,SW12,1,1*%
%TO.N,Net-(J16-Pin_2)*%
X177750000Y-55500000D03*
X177750000Y-49000000D03*
%TO.P,SW12,2,2*%
%TO.N,/6*%
X182250000Y-55500000D03*
X182250000Y-49000000D03*
%TD*%
D13*
%TO.P,H3,1,1*%
%TO.N,unconnected-(H3-Pad1)*%
X194000000Y-50000000D03*
%TD*%
D15*
%TO.P,U11,1*%
%TO.N,Net-(U11--)*%
X108612500Y-69850000D03*
%TO.P,U11,2,V-*%
%TO.N,GND*%
X108612500Y-70800000D03*
%TO.P,U11,3,+*%
%TO.N,/10*%
X108612500Y-71750000D03*
%TO.P,U11,4,-*%
%TO.N,Net-(U11--)*%
X110887500Y-71750000D03*
%TO.P,U11,5,V+*%
%TO.N,P5V0*%
X110887500Y-69850000D03*
%TD*%
D16*
%TO.P,D7,1,K*%
%TO.N,GND*%
X125083572Y-64240000D03*
%TO.P,D7,2,A*%
%TO.N,Net-(D7-A)*%
X123333572Y-64240000D03*
%TD*%
D12*
%TO.P,R7,1*%
%TO.N,Net-(U4--)*%
X118250455Y-64240000D03*
%TO.P,R7,2*%
%TO.N,Net-(D7-A)*%
X120075455Y-64240000D03*
%TD*%
%TO.P,R9,1*%
%TO.N,Net-(U5--)*%
X118250455Y-69320000D03*
%TO.P,R9,2*%
%TO.N,Net-(D9-A)*%
X120075455Y-69320000D03*
%TD*%
D17*
%TO.P,J1,1,1*%
%TO.N,/1*%
X192600000Y-60250000D03*
%TO.P,J1,2,2*%
%TO.N,/2*%
X195400000Y-60750000D03*
%TO.P,J1,3,3*%
%TO.N,/3*%
X192600000Y-61250000D03*
%TO.P,J1,4,4*%
%TO.N,/4*%
X195400000Y-61750000D03*
%TO.P,J1,5,5*%
%TO.N,/5*%
X192600000Y-62250000D03*
%TO.P,J1,6,6*%
%TO.N,/6*%
X195400000Y-62750000D03*
%TO.P,J1,7,7*%
%TO.N,/7*%
X192600000Y-63250000D03*
%TO.P,J1,8,8*%
%TO.N,/8*%
X195400000Y-63750000D03*
%TO.P,J1,9,9*%
%TO.N,/9*%
X192600000Y-64250000D03*
%TO.P,J1,10,10*%
%TO.N,/10*%
X195400000Y-64750000D03*
%TO.P,J1,11,11*%
%TO.N,/11*%
X192600000Y-65250000D03*
%TO.P,J1,12,12*%
%TO.N,/12*%
X195400000Y-65750000D03*
D18*
%TO.P,J1,S1,SHIELD*%
%TO.N,unconnected-(J1-SHIELD-PadS1)*%
X195400000Y-59250000D03*
%TO.P,J1,S2,SHIELD*%
X192600000Y-59250000D03*
%TO.P,J1,S3,SHIELD*%
X195400000Y-66750000D03*
%TO.P,J1,S4,SHIELD*%
X192600000Y-66750000D03*
%TD*%
D14*
%TO.P,SW1,1,1*%
%TO.N,Net-(J3-Pin_2)*%
X140200000Y-77000000D03*
X140200000Y-70500000D03*
%TO.P,SW1,2,2*%
%TO.N,/7*%
X144700000Y-77000000D03*
X144700000Y-70500000D03*
%TD*%
D12*
%TO.P,R1,1*%
%TO.N,Net-(U1--)*%
X118250455Y-49000000D03*
%TO.P,R1,2*%
%TO.N,Net-(D1-A)*%
X120075455Y-49000000D03*
%TD*%
D16*
%TO.P,D11,1,K*%
%TO.N,GND*%
X125083572Y-74400000D03*
%TO.P,D11,2,A*%
%TO.N,Net-(D11-A)*%
X123333572Y-74400000D03*
%TD*%
D12*
%TO.P,R12,1*%
%TO.N,Net-(U12--)*%
X118250455Y-76940000D03*
%TO.P,R12,2*%
%TO.N,Net-(D12-A)*%
X120075455Y-76940000D03*
%TD*%
D15*
%TO.P,U7,1*%
%TO.N,Net-(U7--)*%
X108612500Y-49050000D03*
%TO.P,U7,2,V-*%
%TO.N,GND*%
X108612500Y-50000000D03*
%TO.P,U7,3,+*%
%TO.N,/2*%
X108612500Y-50950000D03*
%TO.P,U7,4,-*%
%TO.N,Net-(U7--)*%
X110887500Y-50950000D03*
%TO.P,U7,5,V+*%
%TO.N,P5V0*%
X110887500Y-49050000D03*
%TD*%
D14*
%TO.P,SW2,1,1*%
%TO.N,Net-(J5-Pin_2)*%
X147710000Y-77000000D03*
X147710000Y-70500000D03*
%TO.P,SW2,2,2*%
%TO.N,/8*%
X152210000Y-77000000D03*
X152210000Y-70500000D03*
%TD*%
D12*
%TO.P,R8,1*%
%TO.N,Net-(U10--)*%
X118250455Y-66780000D03*
%TO.P,R8,2*%
%TO.N,Net-(D8-A)*%
X120075455Y-66780000D03*
%TD*%
%TO.P,R3,1*%
%TO.N,Net-(U2--)*%
X118250455Y-54080000D03*
%TO.P,R3,2*%
%TO.N,Net-(D3-A)*%
X120075455Y-54080000D03*
%TD*%
D15*
%TO.P,U5,1*%
%TO.N,Net-(U5--)*%
X113750000Y-69850000D03*
%TO.P,U5,2,V-*%
%TO.N,GND*%
X113750000Y-70800000D03*
%TO.P,U5,3,+*%
%TO.N,/9*%
X113750000Y-71750000D03*
%TO.P,U5,4,-*%
%TO.N,Net-(U5--)*%
X116025000Y-71750000D03*
%TO.P,U5,5,V+*%
%TO.N,P5V0*%
X116025000Y-69850000D03*
%TD*%
D19*
%TO.P,P1,A5,CC1*%
%TO.N,unconnected-(P1-CC1-PadA5)*%
X102080000Y-62500000D03*
D20*
%TO.P,P1,A9,VBUS*%
%TO.N,P5V0*%
X102080000Y-64520000D03*
D21*
%TO.P,P1,A12,GND*%
%TO.N,GND*%
X102080000Y-65750000D03*
D19*
%TO.P,P1,B5,CC2*%
%TO.N,unconnected-(P1-CC2-PadB5)*%
X102080000Y-63500000D03*
D20*
%TO.P,P1,B9,VBUS*%
%TO.N,P5V0*%
X102080000Y-61480000D03*
D21*
%TO.P,P1,B12,GND*%
%TO.N,GND*%
X102080000Y-60250000D03*
D22*
%TO.P,P1,SH,SHIELD*%
X102000000Y-58680000D03*
X98200000Y-58680000D03*
X102000000Y-67320000D03*
X98200000Y-67320000D03*
%TD*%
D14*
%TO.P,SW11,1,1*%
%TO.N,Net-(J15-Pin_2)*%
X170244000Y-55500000D03*
X170244000Y-49000000D03*
%TO.P,SW11,2,2*%
%TO.N,/5*%
X174744000Y-55500000D03*
X174744000Y-49000000D03*
%TD*%
%TO.P,SW9,1,1*%
%TO.N,Net-(J13-Pin_2)*%
X155232000Y-55500000D03*
X155232000Y-49000000D03*
%TO.P,SW9,2,2*%
%TO.N,/3*%
X159732000Y-55500000D03*
X159732000Y-49000000D03*
%TD*%
D23*
%TO.N,GND*%
X112537955Y-50000824D03*
X112537955Y-55200824D03*
X112537955Y-60400824D03*
X112537955Y-65600824D03*
X112537955Y-70800824D03*
X112537955Y-76000824D03*
X107400455Y-76000824D03*
X107400455Y-70800824D03*
X107400455Y-65600824D03*
X107400455Y-60400824D03*
X107400455Y-55200824D03*
X107400455Y-50000824D03*
X100917039Y-65729545D03*
X103242961Y-65770455D03*
X100917039Y-60229545D03*
X103242961Y-60270455D03*
%TO.N,P5V0*%
X100917039Y-64499545D03*
X103242961Y-64540455D03*
X117137500Y-49000000D03*
%TO.N,GND*%
X103214214Y-58500455D03*
%TO.N,P5V0*%
X112000000Y-64600000D03*
X112000000Y-75000000D03*
X117137500Y-59400000D03*
X112000000Y-54200000D03*
X112000000Y-69800000D03*
X117137500Y-64600000D03*
X103214214Y-61540455D03*
X117137500Y-54200000D03*
X112000000Y-59400000D03*
X117137500Y-69800000D03*
%TO.N,GND*%
X100880306Y-58476932D03*
%TO.N,P5V0*%
X117137500Y-75000000D03*
X112000000Y-49000000D03*
X100888292Y-61499545D03*
%TO.N,GND*%
X126000455Y-69364232D03*
X126000455Y-49000000D03*
X126000455Y-51545529D03*
X126000455Y-64273174D03*
X126000455Y-71909761D03*
X126000455Y-74455290D03*
X126000455Y-66818703D03*
X126000455Y-77000824D03*
X126000455Y-59182116D03*
X126000455Y-54091058D03*
X126000455Y-56636587D03*
X126000455Y-61727645D03*
%TO.N,/2*%
X194000000Y-60750000D03*
%TO.N,/4*%
X194000000Y-61750000D03*
%TO.N,/6*%
X194000000Y-62750000D03*
%TO.N,/8*%
X194000000Y-63750000D03*
%TO.N,/10*%
X194000000Y-64750000D03*
%TO.N,/12*%
X194000000Y-65750000D03*
%TD*%
D24*
%TO.N,/5*%
X186000000Y-59160000D02*
X184000455Y-57160455D01*
X184000455Y-57160455D02*
X184000455Y-48400824D01*
X184000455Y-48400824D02*
X183000455Y-47400824D01*
X183000455Y-47400824D02*
X176343176Y-47400824D01*
X176343176Y-47400824D02*
X174744000Y-49000000D01*
%TO.N,/6*%
X182250000Y-55500000D02*
X181925600Y-55824400D01*
X181925600Y-55824400D02*
X181925600Y-58967813D01*
X181925600Y-58967813D02*
X184657787Y-61700000D01*
X184657787Y-61700000D02*
X186000000Y-61700000D01*
%TO.N,/1*%
X192600000Y-60250000D02*
X191596000Y-60250000D01*
X191596000Y-60250000D02*
X191200455Y-59854455D01*
X191200455Y-59854455D02*
X191200455Y-50200824D01*
X191200455Y-50200824D02*
X189999631Y-49000000D01*
X189999631Y-49000000D02*
X186000000Y-49000000D01*
%TO.N,/3*%
X192600000Y-61250000D02*
X191249631Y-61250000D01*
X189679631Y-54080000D02*
X186000000Y-54080000D01*
X191249631Y-61250000D02*
X190600455Y-60600824D01*
X190600455Y-60600824D02*
X190600455Y-55000824D01*
X190600455Y-55000824D02*
X189679631Y-54080000D01*
%TO.N,/5*%
X192600000Y-62250000D02*
X190849631Y-62250000D01*
X190849631Y-62250000D02*
X190000455Y-61400824D01*
X190000455Y-61400824D02*
X190000455Y-59400824D01*
X189759631Y-59160000D02*
X186000000Y-59160000D01*
X190000455Y-59400824D02*
X189759631Y-59160000D01*
%TO.N,/7*%
X192600000Y-63250000D02*
X190951279Y-63250000D01*
X190951279Y-63250000D02*
X189961279Y-64240000D01*
X189961279Y-64240000D02*
X186000000Y-64240000D01*
%TO.N,/9*%
X192600000Y-64250000D02*
X191751279Y-64250000D01*
X191751279Y-64250000D02*
X190200455Y-65800824D01*
X190200455Y-65800824D02*
X190200455Y-68600824D01*
X190200455Y-68600824D02*
X189481279Y-69320000D01*
X189481279Y-69320000D02*
X186000000Y-69320000D01*
%TO.N,/11*%
X192600000Y-65250000D02*
X191551279Y-65250000D01*
X191551279Y-65250000D02*
X191000455Y-65800824D01*
X191000455Y-65800824D02*
X191000455Y-73800824D01*
X191000455Y-73800824D02*
X190401279Y-74400000D01*
X190401279Y-74400000D02*
X186000000Y-74400000D01*
%TO.N,/12*%
X194000000Y-65750000D02*
X195400000Y-65750000D01*
%TO.N,/10*%
X195400000Y-64750000D02*
X194000000Y-64750000D01*
%TO.N,/8*%
X194000000Y-63750000D02*
X195400000Y-63750000D01*
%TO.N,/6*%
X194000000Y-62750000D02*
X195400000Y-62750000D01*
%TO.N,/4*%
X194000000Y-61750000D02*
X195400000Y-61750000D01*
%TO.N,/2*%
X194000000Y-60750000D02*
X195400000Y-60750000D01*
%TO.N,/1*%
X113750000Y-50950000D02*
X114594424Y-51794424D01*
X114594424Y-51794424D02*
X116606855Y-51794424D01*
X116606855Y-51794424D02*
X118200455Y-50200824D01*
X118200455Y-50200824D02*
X128809176Y-50200824D01*
X128809176Y-50200824D02*
X130010000Y-49000000D01*
%TO.N,/4*%
X108612500Y-56150000D02*
X110463324Y-58000824D01*
X110463324Y-58000824D02*
X128629176Y-58000824D01*
X128629176Y-58000824D02*
X130010000Y-56620000D01*
%TO.N,/3*%
X130010000Y-54080000D02*
X128689177Y-55400824D01*
X114400824Y-56800824D02*
X113750000Y-56150000D01*
X128689177Y-55400824D02*
X118043939Y-55400824D01*
X118043939Y-55400824D02*
X117200455Y-56244308D01*
X117200455Y-56244308D02*
X117200455Y-56600824D01*
X117200455Y-56600824D02*
X117000455Y-56800824D01*
X117000455Y-56800824D02*
X114400824Y-56800824D01*
%TO.N,/5*%
X113750000Y-61350000D02*
X114394424Y-61994424D01*
X117400455Y-61331492D02*
X117400455Y-60800824D01*
X114394424Y-61994424D02*
X116737524Y-61994424D01*
X116737524Y-61994424D02*
X117400455Y-61331492D01*
X117400455Y-60800824D02*
X117911879Y-60289400D01*
X117911879Y-60289400D02*
X128880600Y-60289400D01*
X128880600Y-60289400D02*
X130010000Y-59160000D01*
%TO.N,/7*%
X113750000Y-66550000D02*
X114394424Y-67194424D01*
X114394424Y-67194424D02*
X116732719Y-67194424D01*
X117326319Y-66600824D02*
X117326319Y-66274960D01*
X116732719Y-67194424D02*
X117326319Y-66600824D01*
X118231879Y-65369400D02*
X128880600Y-65369400D01*
X117326319Y-66274960D02*
X118231879Y-65369400D01*
X128880600Y-65369400D02*
X130010000Y-64240000D01*
%TO.N,/9*%
X113750000Y-71750000D02*
X114394424Y-72394424D01*
X114394424Y-72394424D02*
X116889955Y-72394424D01*
X117200455Y-72083924D02*
X117200455Y-71346158D01*
X116889955Y-72394424D02*
X117200455Y-72083924D01*
X117200455Y-71346158D02*
X118097213Y-70449400D01*
X118097213Y-70449400D02*
X128880600Y-70449400D01*
X128880600Y-70449400D02*
X130010000Y-69320000D01*
%TO.N,/11*%
X113750000Y-76950000D02*
X114329400Y-77529400D01*
X114329400Y-77529400D02*
X116715363Y-77529400D01*
X116715363Y-77529400D02*
X117200455Y-77044308D01*
X117200455Y-77044308D02*
X117200455Y-76600824D01*
X128809176Y-75600824D02*
X130010000Y-74400000D01*
X117200455Y-76600824D02*
X118200455Y-75600824D01*
X118200455Y-75600824D02*
X128809176Y-75600824D01*
%TO.N,/12*%
X130010000Y-76940000D02*
X131139400Y-78069400D01*
X131139400Y-78069400D02*
X135410600Y-78069400D01*
X135410600Y-78069400D02*
X136540000Y-76940000D01*
%TO.N,/11*%
X130010000Y-74400000D02*
X131139400Y-75529400D01*
X131139400Y-75529400D02*
X135410600Y-75529400D01*
X135410600Y-75529400D02*
X136540000Y-74400000D01*
%TO.N,/10*%
X130010000Y-71860000D02*
X131139400Y-72989400D01*
X131139400Y-72989400D02*
X135410600Y-72989400D01*
X135410600Y-72989400D02*
X136540000Y-71860000D01*
%TO.N,/9*%
X130010000Y-69320000D02*
X131139400Y-70449400D01*
X131139400Y-70449400D02*
X135410600Y-70449400D01*
X135410600Y-70449400D02*
X136540000Y-69320000D01*
%TO.N,/8*%
X130010000Y-66780000D02*
X131139400Y-67909400D01*
X131139400Y-67909400D02*
X135410600Y-67909400D01*
X135410600Y-67909400D02*
X136540000Y-66780000D01*
%TO.N,/7*%
X130010000Y-64240000D02*
X131139400Y-65369400D01*
X131139400Y-65369400D02*
X135410600Y-65369400D01*
X135410600Y-65369400D02*
X136540000Y-64240000D01*
%TO.N,/6*%
X130010000Y-61700000D02*
X131139400Y-62829400D01*
X131139400Y-62829400D02*
X135410600Y-62829400D01*
X135410600Y-62829400D02*
X136540000Y-61700000D01*
%TO.N,/5*%
X130010000Y-59160000D02*
X131139400Y-60289400D01*
X131139400Y-60289400D02*
X135410600Y-60289400D01*
X135410600Y-60289400D02*
X136540000Y-59160000D01*
%TO.N,/4*%
X130010000Y-56620000D02*
X131139400Y-57749400D01*
X131139400Y-57749400D02*
X135410600Y-57749400D01*
X135410600Y-57749400D02*
X136540000Y-56620000D01*
%TO.N,/3*%
X130010000Y-54080000D02*
X131139400Y-55209400D01*
X131139400Y-55209400D02*
X135410600Y-55209400D01*
X135410600Y-55209400D02*
X136540000Y-54080000D01*
%TO.N,/2*%
X130010000Y-51540000D02*
X131139400Y-52669400D01*
X131139400Y-52669400D02*
X135410600Y-52669400D01*
X135410600Y-52669400D02*
X136540000Y-51540000D01*
%TO.N,/1*%
X130010000Y-49000000D02*
X131139400Y-50129400D01*
X131139400Y-50129400D02*
X135410600Y-50129400D01*
X135410600Y-50129400D02*
X136540000Y-49000000D01*
%TO.N,/2*%
X108612500Y-50950000D02*
X110463324Y-52800824D01*
X110463324Y-52800824D02*
X128749176Y-52800824D01*
X128749176Y-52800824D02*
X130010000Y-51540000D01*
%TO.N,Net-(U9--)*%
X110887500Y-61350000D02*
X111749631Y-61350000D01*
X111749631Y-61350000D02*
X112800455Y-62400824D01*
X112800455Y-62400824D02*
X117549631Y-62400824D01*
X117549631Y-62400824D02*
X118250455Y-61700000D01*
%TO.N,/6*%
X108612500Y-61350000D02*
X110091900Y-62829400D01*
X110091900Y-62829400D02*
X128880600Y-62829400D01*
X128880600Y-62829400D02*
X130010000Y-61700000D01*
%TO.N,/8*%
X108612500Y-66550000D02*
X110069724Y-68007224D01*
X110069724Y-68007224D02*
X128782776Y-68007224D01*
X128782776Y-68007224D02*
X130010000Y-66780000D01*
%TO.N,/10*%
X108612500Y-71750000D02*
X110069724Y-73207224D01*
X110069724Y-73207224D02*
X128662776Y-73207224D01*
X128662776Y-73207224D02*
X130010000Y-71860000D01*
%TO.N,/12*%
X108612500Y-76950000D02*
X110069724Y-78407224D01*
X110069724Y-78407224D02*
X128542776Y-78407224D01*
X128542776Y-78407224D02*
X130010000Y-76940000D01*
%TO.N,/6*%
X182250000Y-49000000D02*
X182250000Y-55500000D01*
%TO.N,Net-(J16-Pin_2)*%
X177750000Y-49000000D02*
X177750000Y-55735000D01*
X177750000Y-55735000D02*
X180515000Y-58500000D01*
%TO.N,/5*%
X174744000Y-49000000D02*
X174744000Y-55500000D01*
%TO.N,Net-(J15-Pin_2)*%
X170244000Y-49000000D02*
X170244000Y-55924000D01*
X170244000Y-55924000D02*
X172820000Y-58500000D01*
%TO.N,/4*%
X167238000Y-49000000D02*
X167238000Y-55500000D01*
%TO.N,Net-(J14-Pin_2)*%
X162738000Y-49000000D02*
X162738000Y-56113000D01*
X162738000Y-56113000D02*
X165125000Y-58500000D01*
%TO.N,/3*%
X159732000Y-49000000D02*
X159732000Y-55500000D01*
%TO.N,Net-(J13-Pin_2)*%
X155232000Y-49000000D02*
X155232000Y-56302000D01*
X155232000Y-56302000D02*
X157430000Y-58500000D01*
%TO.N,/2*%
X152226000Y-49000000D02*
X152226000Y-55500000D01*
%TO.N,Net-(J12-Pin_2)*%
X147726000Y-49000000D02*
X147726000Y-56491000D01*
X147726000Y-56491000D02*
X149735000Y-58500000D01*
%TO.N,/1*%
X144720000Y-49000000D02*
X144720000Y-55500000D01*
%TO.N,Net-(J11-Pin_2)*%
X140220000Y-49000000D02*
X140220000Y-56680000D01*
X140220000Y-56680000D02*
X142040000Y-58500000D01*
%TO.N,/12*%
X182250000Y-77000000D02*
X182250000Y-70500000D01*
%TO.N,Net-(J10-Pin_2)*%
X177750000Y-77000000D02*
X177750000Y-70265000D01*
X177750000Y-70265000D02*
X180515000Y-67500000D01*
%TO.N,/11*%
X174740000Y-77000000D02*
X174740000Y-70500000D01*
%TO.N,Net-(J9-Pin_2)*%
X170240000Y-77000000D02*
X170240000Y-70080000D01*
X170240000Y-70080000D02*
X172820000Y-67500000D01*
%TO.N,/10*%
X167230000Y-77000000D02*
X167230000Y-70500000D01*
%TO.N,Net-(J7-Pin_2)*%
X162730000Y-77000000D02*
X162730000Y-69895000D01*
X162730000Y-69895000D02*
X165125000Y-67500000D01*
%TO.N,/9*%
X159720000Y-77000000D02*
X159720000Y-70500000D01*
%TO.N,Net-(J6-Pin_2)*%
X155220000Y-70500000D02*
X155220000Y-69710000D01*
X155220000Y-69710000D02*
X157430000Y-67500000D01*
X155220000Y-77000000D02*
X155220000Y-70500000D01*
%TO.N,/8*%
X152210000Y-77000000D02*
X152210000Y-70500000D01*
%TO.N,Net-(J5-Pin_2)*%
X147710000Y-77000000D02*
X147710000Y-69525000D01*
X147710000Y-69525000D02*
X149735000Y-67500000D01*
%TO.N,/7*%
X144700000Y-77000000D02*
X144700000Y-70500000D01*
%TO.N,Net-(J3-Pin_2)*%
X140200000Y-77000000D02*
X140200000Y-69340000D01*
X140200000Y-69340000D02*
X142040000Y-67500000D01*
%TO.N,Net-(D12-A)*%
X120075455Y-76940000D02*
X123333572Y-76940000D01*
%TO.N,Net-(D11-A)*%
X120075455Y-74400000D02*
X123333572Y-74400000D01*
%TO.N,Net-(D10-A)*%
X120075455Y-71860000D02*
X123333572Y-71860000D01*
%TO.N,Net-(D9-A)*%
X120075455Y-69320000D02*
X123333572Y-69320000D01*
%TO.N,Net-(D8-A)*%
X120075455Y-66780000D02*
X123333572Y-66780000D01*
%TO.N,Net-(D7-A)*%
X123333572Y-64240000D02*
X120075455Y-64240000D01*
%TO.N,Net-(D6-A)*%
X120075455Y-61700000D02*
X123333572Y-61700000D01*
%TO.N,Net-(D5-A)*%
X120075455Y-59160000D02*
X123333572Y-59160000D01*
%TO.N,Net-(D4-A)*%
X120075455Y-56620000D02*
X123333572Y-56620000D01*
%TO.N,Net-(D3-A)*%
X120075455Y-54080000D02*
X123333572Y-54080000D01*
%TO.N,Net-(D2-A)*%
X123333572Y-51540000D02*
X120075455Y-51540000D01*
%TO.N,Net-(D1-A)*%
X120075455Y-49000000D02*
X123333572Y-49000000D01*
%TO.N,Net-(U7--)*%
X111949631Y-50950000D02*
X113200455Y-52200824D01*
X113200455Y-52200824D02*
X117589631Y-52200824D01*
X110887500Y-50950000D02*
X111949631Y-50950000D01*
X117589631Y-52200824D02*
X118250455Y-51540000D01*
%TO.N,Net-(U8--)*%
X110887500Y-56150000D02*
X112138324Y-57400824D01*
X112138324Y-57400824D02*
X117469631Y-57400824D01*
X117469631Y-57400824D02*
X118250455Y-56620000D01*
%TO.N,Net-(U10--)*%
X111749631Y-66550000D02*
X112800455Y-67600824D01*
X110887500Y-66550000D02*
X111749631Y-66550000D01*
X112800455Y-67600824D02*
X117429631Y-67600824D01*
X117429631Y-67600824D02*
X118250455Y-66780000D01*
%TO.N,Net-(U11--)*%
X110887500Y-71750000D02*
X111938324Y-72800824D01*
X111938324Y-72800824D02*
X117309631Y-72800824D01*
X117309631Y-72800824D02*
X118250455Y-71860000D01*
%TO.N,Net-(U12--)*%
X110887500Y-76950000D02*
X111938324Y-78000824D01*
X111938324Y-78000824D02*
X117189631Y-78000824D01*
X117189631Y-78000824D02*
X118250455Y-76940000D01*
%TO.N,Net-(U6--)*%
X116025000Y-76950000D02*
X118250455Y-74724545D01*
X118250455Y-74724545D02*
X118250455Y-74400000D01*
%TO.N,Net-(U5--)*%
X116025000Y-71750000D02*
X118250455Y-69524545D01*
X118250455Y-69524545D02*
X118250455Y-69320000D01*
%TO.N,Net-(U4--)*%
X116025000Y-66550000D02*
X116025000Y-66465455D01*
X116025000Y-66465455D02*
X118250455Y-64240000D01*
%TO.N,Net-(U3--)*%
X116025000Y-61350000D02*
X116060455Y-61350000D01*
X116060455Y-61350000D02*
X118250455Y-59160000D01*
%TO.N,Net-(U2--)*%
X116025000Y-56150000D02*
X116180455Y-56150000D01*
X116180455Y-56150000D02*
X118250455Y-54080000D01*
%TO.N,Net-(U1--)*%
X116025000Y-50950000D02*
X116300455Y-50950000D01*
X116300455Y-50950000D02*
X118250455Y-49000000D01*
X113750000Y-49050000D02*
X114125000Y-49050000D01*
X114125000Y-49050000D02*
X116025000Y-50950000D01*
%TO.N,Net-(U2--)*%
X113750000Y-54250000D02*
X114069763Y-54250000D01*
X114069763Y-54250000D02*
X115969763Y-56150000D01*
X115969763Y-56150000D02*
X116025000Y-56150000D01*
%TO.N,Net-(U3--)*%
X113750000Y-59450000D02*
X114125000Y-59450000D01*
X114125000Y-59450000D02*
X116025000Y-61350000D01*
%TO.N,Net-(U4--)*%
X113750000Y-64650000D02*
X114125000Y-64650000D01*
X114125000Y-64650000D02*
X116025000Y-66550000D01*
%TO.N,Net-(U5--)*%
X113750000Y-69850000D02*
X114125000Y-69850000D01*
X114125000Y-69850000D02*
X116025000Y-71750000D01*
%TO.N,Net-(U6--)*%
X113750000Y-75050000D02*
X114069763Y-75050000D01*
X114069763Y-75050000D02*
X115969763Y-76950000D01*
X115969763Y-76950000D02*
X116025000Y-76950000D01*
%TO.N,Net-(U12--)*%
X108612500Y-75050000D02*
X108932263Y-75050000D01*
X108932263Y-75050000D02*
X110832263Y-76950000D01*
X110832263Y-76950000D02*
X110887500Y-76950000D01*
%TO.N,Net-(U11--)*%
X108612500Y-69850000D02*
X108987500Y-69850000D01*
X108987500Y-69850000D02*
X110887500Y-71750000D01*
%TO.N,Net-(U10--)*%
X108612500Y-64650000D02*
X108987500Y-64650000D01*
X108987500Y-64650000D02*
X110887500Y-66550000D01*
%TO.N,Net-(U9--)*%
X108612500Y-59450000D02*
X108987500Y-59450000D01*
X108987500Y-59450000D02*
X110887500Y-61350000D01*
%TO.N,Net-(U8--)*%
X108612500Y-54250000D02*
X108987500Y-54250000D01*
X108987500Y-54250000D02*
X110887500Y-56150000D01*
%TO.N,Net-(U7--)*%
X108612500Y-49050000D02*
X108987500Y-49050000D01*
X108987500Y-49050000D02*
X110887500Y-50950000D01*
%TO.N,GND*%
X125083572Y-76940000D02*
X125939631Y-76940000D01*
X125939631Y-76940000D02*
X126000455Y-77000824D01*
X125083572Y-74400000D02*
X125945165Y-74400000D01*
X125945165Y-74400000D02*
X126000455Y-74455290D01*
X125083572Y-71860000D02*
X125950694Y-71860000D01*
X125950694Y-71860000D02*
X126000455Y-71909761D01*
X125083572Y-69320000D02*
X125956223Y-69320000D01*
X125956223Y-69320000D02*
X126000455Y-69364232D01*
X125083572Y-66780000D02*
X125961752Y-66780000D01*
X125961752Y-66780000D02*
X126000455Y-66818703D01*
X125083572Y-64240000D02*
X125967281Y-64240000D01*
X125967281Y-64240000D02*
X126000455Y-64273174D01*
X125083572Y-61700000D02*
X125972810Y-61700000D01*
X125972810Y-61700000D02*
X126000455Y-61727645D01*
X125083572Y-59160000D02*
X125978339Y-59160000D01*
X125978339Y-59160000D02*
X126000455Y-59182116D01*
X125083572Y-56620000D02*
X125983868Y-56620000D01*
X125983868Y-56620000D02*
X126000455Y-56636587D01*
X125083572Y-54080000D02*
X125989397Y-54080000D01*
X125989397Y-54080000D02*
X126000455Y-54091058D01*
X125083572Y-51540000D02*
X125994926Y-51540000D01*
X125994926Y-51540000D02*
X126000455Y-51545529D01*
X125083572Y-49000000D02*
X126000455Y-49000000D01*
X113750000Y-50000000D02*
X112538779Y-50000000D01*
X112538779Y-50000000D02*
X112537955Y-50000824D01*
X113750000Y-55200000D02*
X112538779Y-55200000D01*
X112538779Y-55200000D02*
X112537955Y-55200824D01*
X113750000Y-60400000D02*
X112538779Y-60400000D01*
X112538779Y-60400000D02*
X112537955Y-60400824D01*
X113750000Y-65600000D02*
X112538779Y-65600000D01*
X112538779Y-65600000D02*
X112537955Y-65600824D01*
X113750000Y-70800000D02*
X112538779Y-70800000D01*
X112538779Y-70800000D02*
X112537955Y-70800824D01*
X113750000Y-76000000D02*
X112538779Y-76000000D01*
X112538779Y-76000000D02*
X112537955Y-76000824D01*
X108612500Y-76000000D02*
X107401279Y-76000000D01*
X107401279Y-76000000D02*
X107400455Y-76000824D01*
X108612500Y-70800000D02*
X107401279Y-70800000D01*
X107401279Y-70800000D02*
X107400455Y-70800824D01*
X108612500Y-65600000D02*
X107401279Y-65600000D01*
X107401279Y-65600000D02*
X107400455Y-65600824D01*
X108612500Y-60400000D02*
X107401279Y-60400000D01*
X107401279Y-60400000D02*
X107400455Y-60400824D01*
X108612500Y-55200000D02*
X107401279Y-55200000D01*
X107401279Y-55200000D02*
X107400455Y-55200824D01*
X107401279Y-50000000D02*
X107400455Y-50000824D01*
X108612500Y-50000000D02*
X107401279Y-50000000D01*
X103222506Y-65750000D02*
X103242961Y-65770455D01*
X102080000Y-65750000D02*
X100937494Y-65750000D01*
X100937494Y-65750000D02*
X100917039Y-65729545D01*
X102080000Y-65750000D02*
X103222506Y-65750000D01*
X103222506Y-60250000D02*
X103242961Y-60270455D01*
X102080000Y-60250000D02*
X100937494Y-60250000D01*
X100937494Y-60250000D02*
X100917039Y-60229545D01*
X102080000Y-60250000D02*
X103222506Y-60250000D01*
%TO.N,P5V0*%
X103222506Y-64520000D02*
X103242961Y-64540455D01*
X102080000Y-64520000D02*
X100937494Y-64520000D01*
X100937494Y-64520000D02*
X100917039Y-64499545D01*
X102080000Y-64520000D02*
X103222506Y-64520000D01*
X102051253Y-61520000D02*
X103193759Y-61520000D01*
%TO.N,GND*%
X102051253Y-58480000D02*
X100883374Y-58480000D01*
X100883374Y-58480000D02*
X100880306Y-58476932D01*
%TO.N,P5V0*%
X100908747Y-61520000D02*
X100888292Y-61499545D01*
X102051253Y-61520000D02*
X100908747Y-61520000D01*
%TO.N,GND*%
X102051253Y-58480000D02*
X103193759Y-58480000D01*
X103193759Y-58480000D02*
X103214214Y-58500455D01*
%TO.N,P5V0*%
X103193759Y-61520000D02*
X103214214Y-61540455D01*
%TD*%
M02*
