%TF.GenerationSoftware,KiCad,Pcbnew,7.0.6*%
%TF.CreationDate,2023-08-04T15:36:24+02:00*%
%TF.ProjectId,Debug_BreakBoard,44656275-675f-4427-9265-616b426f6172,rev?*%
%TF.SameCoordinates,Original*%
%TF.FileFunction,Legend,Top*%
%TF.FilePolarity,Positive*%
%FSLAX46Y46*%
G04 Gerber Fmt 4.6, Leading zero omitted, Abs format (unit mm)*
G04 Created by KiCad (PCBNEW 7.0.6) date 2023-08-04 15:36:24*
%MOMM*%
%LPD*%
G01*
G04 APERTURE LIST*
%ADD10C,0.250000*%
%ADD11C,0.120000*%
%ADD12C,0.200000*%
%ADD13C,0.100000*%
G04 APERTURE END LIST*
D10*
X121267122Y-53486211D02*
X121886169Y-53486211D01*
X121886169Y-53486211D02*
X121552836Y-53867163D01*
X121552836Y-53867163D02*
X121695693Y-53867163D01*
X121695693Y-53867163D02*
X121790931Y-53914782D01*
X121790931Y-53914782D02*
X121838550Y-53962401D01*
X121838550Y-53962401D02*
X121886169Y-54057639D01*
X121886169Y-54057639D02*
X121886169Y-54295734D01*
X121886169Y-54295734D02*
X121838550Y-54390972D01*
X121838550Y-54390972D02*
X121790931Y-54438592D01*
X121790931Y-54438592D02*
X121695693Y-54486211D01*
X121695693Y-54486211D02*
X121409979Y-54486211D01*
X121409979Y-54486211D02*
X121314741Y-54438592D01*
X121314741Y-54438592D02*
X121267122Y-54390972D01*
X190679213Y-58631735D02*
X190203023Y-58631735D01*
X190203023Y-58631735D02*
X190155404Y-59107925D01*
X190155404Y-59107925D02*
X190203023Y-59060306D01*
X190203023Y-59060306D02*
X190298261Y-59012687D01*
X190298261Y-59012687D02*
X190536356Y-59012687D01*
X190536356Y-59012687D02*
X190631594Y-59060306D01*
X190631594Y-59060306D02*
X190679213Y-59107925D01*
X190679213Y-59107925D02*
X190726832Y-59203163D01*
X190726832Y-59203163D02*
X190726832Y-59441258D01*
X190726832Y-59441258D02*
X190679213Y-59536496D01*
X190679213Y-59536496D02*
X190631594Y-59584116D01*
X190631594Y-59584116D02*
X190536356Y-59631735D01*
X190536356Y-59631735D02*
X190298261Y-59631735D01*
X190298261Y-59631735D02*
X190203023Y-59584116D01*
X190203023Y-59584116D02*
X190155404Y-59536496D01*
X121838550Y-58577269D02*
X121362360Y-58577269D01*
X121362360Y-58577269D02*
X121314741Y-59053459D01*
X121314741Y-59053459D02*
X121362360Y-59005840D01*
X121362360Y-59005840D02*
X121457598Y-58958221D01*
X121457598Y-58958221D02*
X121695693Y-58958221D01*
X121695693Y-58958221D02*
X121790931Y-59005840D01*
X121790931Y-59005840D02*
X121838550Y-59053459D01*
X121838550Y-59053459D02*
X121886169Y-59148697D01*
X121886169Y-59148697D02*
X121886169Y-59386792D01*
X121886169Y-59386792D02*
X121838550Y-59482030D01*
X121838550Y-59482030D02*
X121790931Y-59529650D01*
X121790931Y-59529650D02*
X121695693Y-59577269D01*
X121695693Y-59577269D02*
X121457598Y-59577269D01*
X121457598Y-59577269D02*
X121362360Y-59529650D01*
X121362360Y-59529650D02*
X121314741Y-59482030D01*
X121505217Y-66642427D02*
X121409979Y-66594808D01*
X121409979Y-66594808D02*
X121362360Y-66547189D01*
X121362360Y-66547189D02*
X121314741Y-66451951D01*
X121314741Y-66451951D02*
X121314741Y-66404332D01*
X121314741Y-66404332D02*
X121362360Y-66309094D01*
X121362360Y-66309094D02*
X121409979Y-66261475D01*
X121409979Y-66261475D02*
X121505217Y-66213856D01*
X121505217Y-66213856D02*
X121695693Y-66213856D01*
X121695693Y-66213856D02*
X121790931Y-66261475D01*
X121790931Y-66261475D02*
X121838550Y-66309094D01*
X121838550Y-66309094D02*
X121886169Y-66404332D01*
X121886169Y-66404332D02*
X121886169Y-66451951D01*
X121886169Y-66451951D02*
X121838550Y-66547189D01*
X121838550Y-66547189D02*
X121790931Y-66594808D01*
X121790931Y-66594808D02*
X121695693Y-66642427D01*
X121695693Y-66642427D02*
X121505217Y-66642427D01*
X121505217Y-66642427D02*
X121409979Y-66690046D01*
X121409979Y-66690046D02*
X121362360Y-66737665D01*
X121362360Y-66737665D02*
X121314741Y-66832903D01*
X121314741Y-66832903D02*
X121314741Y-67023379D01*
X121314741Y-67023379D02*
X121362360Y-67118617D01*
X121362360Y-67118617D02*
X121409979Y-67166237D01*
X121409979Y-67166237D02*
X121505217Y-67213856D01*
X121505217Y-67213856D02*
X121695693Y-67213856D01*
X121695693Y-67213856D02*
X121790931Y-67166237D01*
X121790931Y-67166237D02*
X121838550Y-67118617D01*
X121838550Y-67118617D02*
X121886169Y-67023379D01*
X121886169Y-67023379D02*
X121886169Y-66832903D01*
X121886169Y-66832903D02*
X121838550Y-66737665D01*
X121838550Y-66737665D02*
X121790931Y-66690046D01*
X121790931Y-66690046D02*
X121695693Y-66642427D01*
X121790931Y-61122798D02*
X121600455Y-61122798D01*
X121600455Y-61122798D02*
X121505217Y-61170417D01*
X121505217Y-61170417D02*
X121457598Y-61218036D01*
X121457598Y-61218036D02*
X121362360Y-61360893D01*
X121362360Y-61360893D02*
X121314741Y-61551369D01*
X121314741Y-61551369D02*
X121314741Y-61932321D01*
X121314741Y-61932321D02*
X121362360Y-62027559D01*
X121362360Y-62027559D02*
X121409979Y-62075179D01*
X121409979Y-62075179D02*
X121505217Y-62122798D01*
X121505217Y-62122798D02*
X121695693Y-62122798D01*
X121695693Y-62122798D02*
X121790931Y-62075179D01*
X121790931Y-62075179D02*
X121838550Y-62027559D01*
X121838550Y-62027559D02*
X121886169Y-61932321D01*
X121886169Y-61932321D02*
X121886169Y-61694226D01*
X121886169Y-61694226D02*
X121838550Y-61598988D01*
X121838550Y-61598988D02*
X121790931Y-61551369D01*
X121790931Y-61551369D02*
X121695693Y-61503750D01*
X121695693Y-61503750D02*
X121505217Y-61503750D01*
X121505217Y-61503750D02*
X121409979Y-61551369D01*
X121409979Y-61551369D02*
X121362360Y-61598988D01*
X121362360Y-61598988D02*
X121314741Y-61694226D01*
X121409978Y-74850443D02*
X120838550Y-74850443D01*
X121124264Y-74850443D02*
X121124264Y-73850443D01*
X121124264Y-73850443D02*
X121029026Y-73993300D01*
X121029026Y-73993300D02*
X120933788Y-74088538D01*
X120933788Y-74088538D02*
X120838550Y-74136157D01*
X122362359Y-74850443D02*
X121790931Y-74850443D01*
X122076645Y-74850443D02*
X122076645Y-73850443D01*
X122076645Y-73850443D02*
X121981407Y-73993300D01*
X121981407Y-73993300D02*
X121886169Y-74088538D01*
X121886169Y-74088538D02*
X121790931Y-74136157D01*
X190726832Y-77450443D02*
X190155404Y-77450443D01*
X190441118Y-77450443D02*
X190441118Y-76450443D01*
X190441118Y-76450443D02*
X190345880Y-76593300D01*
X190345880Y-76593300D02*
X190250642Y-76688538D01*
X190250642Y-76688538D02*
X190155404Y-76736157D01*
X191107785Y-76545681D02*
X191155404Y-76498062D01*
X191155404Y-76498062D02*
X191250642Y-76450443D01*
X191250642Y-76450443D02*
X191488737Y-76450443D01*
X191488737Y-76450443D02*
X191583975Y-76498062D01*
X191583975Y-76498062D02*
X191631594Y-76545681D01*
X191631594Y-76545681D02*
X191679213Y-76640919D01*
X191679213Y-76640919D02*
X191679213Y-76736157D01*
X191679213Y-76736157D02*
X191631594Y-76879014D01*
X191631594Y-76879014D02*
X191060166Y-77450443D01*
X191060166Y-77450443D02*
X191679213Y-77450443D01*
X190155404Y-51090386D02*
X190203023Y-51042767D01*
X190203023Y-51042767D02*
X190298261Y-50995148D01*
X190298261Y-50995148D02*
X190536356Y-50995148D01*
X190536356Y-50995148D02*
X190631594Y-51042767D01*
X190631594Y-51042767D02*
X190679213Y-51090386D01*
X190679213Y-51090386D02*
X190726832Y-51185624D01*
X190726832Y-51185624D02*
X190726832Y-51280862D01*
X190726832Y-51280862D02*
X190679213Y-51423719D01*
X190679213Y-51423719D02*
X190107785Y-51995148D01*
X190107785Y-51995148D02*
X190726832Y-51995148D01*
X121409978Y-72304914D02*
X120838550Y-72304914D01*
X121124264Y-72304914D02*
X121124264Y-71304914D01*
X121124264Y-71304914D02*
X121029026Y-71447771D01*
X121029026Y-71447771D02*
X120933788Y-71543009D01*
X120933788Y-71543009D02*
X120838550Y-71590628D01*
X122029026Y-71304914D02*
X122124264Y-71304914D01*
X122124264Y-71304914D02*
X122219502Y-71352533D01*
X122219502Y-71352533D02*
X122267121Y-71400152D01*
X122267121Y-71400152D02*
X122314740Y-71495390D01*
X122314740Y-71495390D02*
X122362359Y-71685866D01*
X122362359Y-71685866D02*
X122362359Y-71923961D01*
X122362359Y-71923961D02*
X122314740Y-72114437D01*
X122314740Y-72114437D02*
X122267121Y-72209675D01*
X122267121Y-72209675D02*
X122219502Y-72257295D01*
X122219502Y-72257295D02*
X122124264Y-72304914D01*
X122124264Y-72304914D02*
X122029026Y-72304914D01*
X122029026Y-72304914D02*
X121933788Y-72257295D01*
X121933788Y-72257295D02*
X121886169Y-72209675D01*
X121886169Y-72209675D02*
X121838550Y-72114437D01*
X121838550Y-72114437D02*
X121790931Y-71923961D01*
X121790931Y-71923961D02*
X121790931Y-71685866D01*
X121790931Y-71685866D02*
X121838550Y-71495390D01*
X121838550Y-71495390D02*
X121886169Y-71400152D01*
X121886169Y-71400152D02*
X121933788Y-71352533D01*
X121933788Y-71352533D02*
X122029026Y-71304914D01*
X121886169Y-49395153D02*
X121314741Y-49395153D01*
X121600455Y-49395153D02*
X121600455Y-48395153D01*
X121600455Y-48395153D02*
X121505217Y-48538010D01*
X121505217Y-48538010D02*
X121409979Y-48633248D01*
X121409979Y-48633248D02*
X121314741Y-48680867D01*
X190631594Y-56419539D02*
X190631594Y-57086206D01*
X190393499Y-56038587D02*
X190155404Y-56752872D01*
X190155404Y-56752872D02*
X190774451Y-56752872D01*
X190345880Y-66696893D02*
X190250642Y-66649274D01*
X190250642Y-66649274D02*
X190203023Y-66601655D01*
X190203023Y-66601655D02*
X190155404Y-66506417D01*
X190155404Y-66506417D02*
X190155404Y-66458798D01*
X190155404Y-66458798D02*
X190203023Y-66363560D01*
X190203023Y-66363560D02*
X190250642Y-66315941D01*
X190250642Y-66315941D02*
X190345880Y-66268322D01*
X190345880Y-66268322D02*
X190536356Y-66268322D01*
X190536356Y-66268322D02*
X190631594Y-66315941D01*
X190631594Y-66315941D02*
X190679213Y-66363560D01*
X190679213Y-66363560D02*
X190726832Y-66458798D01*
X190726832Y-66458798D02*
X190726832Y-66506417D01*
X190726832Y-66506417D02*
X190679213Y-66601655D01*
X190679213Y-66601655D02*
X190631594Y-66649274D01*
X190631594Y-66649274D02*
X190536356Y-66696893D01*
X190536356Y-66696893D02*
X190345880Y-66696893D01*
X190345880Y-66696893D02*
X190250642Y-66744512D01*
X190250642Y-66744512D02*
X190203023Y-66792131D01*
X190203023Y-66792131D02*
X190155404Y-66887369D01*
X190155404Y-66887369D02*
X190155404Y-67077845D01*
X190155404Y-67077845D02*
X190203023Y-67173083D01*
X190203023Y-67173083D02*
X190250642Y-67220703D01*
X190250642Y-67220703D02*
X190345880Y-67268322D01*
X190345880Y-67268322D02*
X190536356Y-67268322D01*
X190536356Y-67268322D02*
X190631594Y-67220703D01*
X190631594Y-67220703D02*
X190679213Y-67173083D01*
X190679213Y-67173083D02*
X190726832Y-67077845D01*
X190726832Y-67077845D02*
X190726832Y-66887369D01*
X190726832Y-66887369D02*
X190679213Y-66792131D01*
X190679213Y-66792131D02*
X190631594Y-66744512D01*
X190631594Y-66744512D02*
X190536356Y-66696893D01*
X190726832Y-74904909D02*
X190155404Y-74904909D01*
X190441118Y-74904909D02*
X190441118Y-73904909D01*
X190441118Y-73904909D02*
X190345880Y-74047766D01*
X190345880Y-74047766D02*
X190250642Y-74143004D01*
X190250642Y-74143004D02*
X190155404Y-74190623D01*
X191679213Y-74904909D02*
X191107785Y-74904909D01*
X191393499Y-74904909D02*
X191393499Y-73904909D01*
X191393499Y-73904909D02*
X191298261Y-74047766D01*
X191298261Y-74047766D02*
X191203023Y-74143004D01*
X191203023Y-74143004D02*
X191107785Y-74190623D01*
X190726832Y-49449619D02*
X190155404Y-49449619D01*
X190441118Y-49449619D02*
X190441118Y-48449619D01*
X190441118Y-48449619D02*
X190345880Y-48592476D01*
X190345880Y-48592476D02*
X190250642Y-48687714D01*
X190250642Y-48687714D02*
X190155404Y-48735333D01*
X121409979Y-69759385D02*
X121600455Y-69759385D01*
X121600455Y-69759385D02*
X121695693Y-69711766D01*
X121695693Y-69711766D02*
X121743312Y-69664146D01*
X121743312Y-69664146D02*
X121838550Y-69521289D01*
X121838550Y-69521289D02*
X121886169Y-69330813D01*
X121886169Y-69330813D02*
X121886169Y-68949861D01*
X121886169Y-68949861D02*
X121838550Y-68854623D01*
X121838550Y-68854623D02*
X121790931Y-68807004D01*
X121790931Y-68807004D02*
X121695693Y-68759385D01*
X121695693Y-68759385D02*
X121505217Y-68759385D01*
X121505217Y-68759385D02*
X121409979Y-68807004D01*
X121409979Y-68807004D02*
X121362360Y-68854623D01*
X121362360Y-68854623D02*
X121314741Y-68949861D01*
X121314741Y-68949861D02*
X121314741Y-69187956D01*
X121314741Y-69187956D02*
X121362360Y-69283194D01*
X121362360Y-69283194D02*
X121409979Y-69330813D01*
X121409979Y-69330813D02*
X121505217Y-69378432D01*
X121505217Y-69378432D02*
X121695693Y-69378432D01*
X121695693Y-69378432D02*
X121790931Y-69330813D01*
X121790931Y-69330813D02*
X121838550Y-69283194D01*
X121838550Y-69283194D02*
X121886169Y-69187956D01*
X190107785Y-63722793D02*
X190774451Y-63722793D01*
X190774451Y-63722793D02*
X190345880Y-64722793D01*
X190726832Y-72359380D02*
X190155404Y-72359380D01*
X190441118Y-72359380D02*
X190441118Y-71359380D01*
X190441118Y-71359380D02*
X190345880Y-71502237D01*
X190345880Y-71502237D02*
X190250642Y-71597475D01*
X190250642Y-71597475D02*
X190155404Y-71645094D01*
X191345880Y-71359380D02*
X191441118Y-71359380D01*
X191441118Y-71359380D02*
X191536356Y-71406999D01*
X191536356Y-71406999D02*
X191583975Y-71454618D01*
X191583975Y-71454618D02*
X191631594Y-71549856D01*
X191631594Y-71549856D02*
X191679213Y-71740332D01*
X191679213Y-71740332D02*
X191679213Y-71978427D01*
X191679213Y-71978427D02*
X191631594Y-72168903D01*
X191631594Y-72168903D02*
X191583975Y-72264141D01*
X191583975Y-72264141D02*
X191536356Y-72311761D01*
X191536356Y-72311761D02*
X191441118Y-72359380D01*
X191441118Y-72359380D02*
X191345880Y-72359380D01*
X191345880Y-72359380D02*
X191250642Y-72311761D01*
X191250642Y-72311761D02*
X191203023Y-72264141D01*
X191203023Y-72264141D02*
X191155404Y-72168903D01*
X191155404Y-72168903D02*
X191107785Y-71978427D01*
X191107785Y-71978427D02*
X191107785Y-71740332D01*
X191107785Y-71740332D02*
X191155404Y-71549856D01*
X191155404Y-71549856D02*
X191203023Y-71454618D01*
X191203023Y-71454618D02*
X191250642Y-71406999D01*
X191250642Y-71406999D02*
X191345880Y-71359380D01*
X121314741Y-51035920D02*
X121362360Y-50988301D01*
X121362360Y-50988301D02*
X121457598Y-50940682D01*
X121457598Y-50940682D02*
X121695693Y-50940682D01*
X121695693Y-50940682D02*
X121790931Y-50988301D01*
X121790931Y-50988301D02*
X121838550Y-51035920D01*
X121838550Y-51035920D02*
X121886169Y-51131158D01*
X121886169Y-51131158D02*
X121886169Y-51226396D01*
X121886169Y-51226396D02*
X121838550Y-51369253D01*
X121838550Y-51369253D02*
X121267122Y-51940682D01*
X121267122Y-51940682D02*
X121886169Y-51940682D01*
X121409978Y-77395977D02*
X120838550Y-77395977D01*
X121124264Y-77395977D02*
X121124264Y-76395977D01*
X121124264Y-76395977D02*
X121029026Y-76538834D01*
X121029026Y-76538834D02*
X120933788Y-76634072D01*
X120933788Y-76634072D02*
X120838550Y-76681691D01*
X121790931Y-76491215D02*
X121838550Y-76443596D01*
X121838550Y-76443596D02*
X121933788Y-76395977D01*
X121933788Y-76395977D02*
X122171883Y-76395977D01*
X122171883Y-76395977D02*
X122267121Y-76443596D01*
X122267121Y-76443596D02*
X122314740Y-76491215D01*
X122314740Y-76491215D02*
X122362359Y-76586453D01*
X122362359Y-76586453D02*
X122362359Y-76681691D01*
X122362359Y-76681691D02*
X122314740Y-76824548D01*
X122314740Y-76824548D02*
X121743312Y-77395977D01*
X121743312Y-77395977D02*
X122362359Y-77395977D01*
X121790931Y-56365073D02*
X121790931Y-57031740D01*
X121552836Y-55984121D02*
X121314741Y-56698406D01*
X121314741Y-56698406D02*
X121933788Y-56698406D01*
X105809523Y-58449619D02*
X105333333Y-58449619D01*
X105333333Y-58449619D02*
X105285714Y-58925809D01*
X105285714Y-58925809D02*
X105333333Y-58878190D01*
X105333333Y-58878190D02*
X105428571Y-58830571D01*
X105428571Y-58830571D02*
X105666666Y-58830571D01*
X105666666Y-58830571D02*
X105761904Y-58878190D01*
X105761904Y-58878190D02*
X105809523Y-58925809D01*
X105809523Y-58925809D02*
X105857142Y-59021047D01*
X105857142Y-59021047D02*
X105857142Y-59259142D01*
X105857142Y-59259142D02*
X105809523Y-59354380D01*
X105809523Y-59354380D02*
X105761904Y-59402000D01*
X105761904Y-59402000D02*
X105666666Y-59449619D01*
X105666666Y-59449619D02*
X105428571Y-59449619D01*
X105428571Y-59449619D02*
X105333333Y-59402000D01*
X105333333Y-59402000D02*
X105285714Y-59354380D01*
X106142857Y-58449619D02*
X106476190Y-59449619D01*
X106476190Y-59449619D02*
X106809523Y-58449619D01*
X190250642Y-69813851D02*
X190441118Y-69813851D01*
X190441118Y-69813851D02*
X190536356Y-69766232D01*
X190536356Y-69766232D02*
X190583975Y-69718612D01*
X190583975Y-69718612D02*
X190679213Y-69575755D01*
X190679213Y-69575755D02*
X190726832Y-69385279D01*
X190726832Y-69385279D02*
X190726832Y-69004327D01*
X190726832Y-69004327D02*
X190679213Y-68909089D01*
X190679213Y-68909089D02*
X190631594Y-68861470D01*
X190631594Y-68861470D02*
X190536356Y-68813851D01*
X190536356Y-68813851D02*
X190345880Y-68813851D01*
X190345880Y-68813851D02*
X190250642Y-68861470D01*
X190250642Y-68861470D02*
X190203023Y-68909089D01*
X190203023Y-68909089D02*
X190155404Y-69004327D01*
X190155404Y-69004327D02*
X190155404Y-69242422D01*
X190155404Y-69242422D02*
X190203023Y-69337660D01*
X190203023Y-69337660D02*
X190250642Y-69385279D01*
X190250642Y-69385279D02*
X190345880Y-69432898D01*
X190345880Y-69432898D02*
X190536356Y-69432898D01*
X190536356Y-69432898D02*
X190631594Y-69385279D01*
X190631594Y-69385279D02*
X190679213Y-69337660D01*
X190679213Y-69337660D02*
X190726832Y-69242422D01*
X190107785Y-53540677D02*
X190726832Y-53540677D01*
X190726832Y-53540677D02*
X190393499Y-53921629D01*
X190393499Y-53921629D02*
X190536356Y-53921629D01*
X190536356Y-53921629D02*
X190631594Y-53969248D01*
X190631594Y-53969248D02*
X190679213Y-54016867D01*
X190679213Y-54016867D02*
X190726832Y-54112105D01*
X190726832Y-54112105D02*
X190726832Y-54350200D01*
X190726832Y-54350200D02*
X190679213Y-54445438D01*
X190679213Y-54445438D02*
X190631594Y-54493058D01*
X190631594Y-54493058D02*
X190536356Y-54540677D01*
X190536356Y-54540677D02*
X190250642Y-54540677D01*
X190250642Y-54540677D02*
X190155404Y-54493058D01*
X190155404Y-54493058D02*
X190107785Y-54445438D01*
X105238095Y-65997238D02*
X105142857Y-65949619D01*
X105142857Y-65949619D02*
X105000000Y-65949619D01*
X105000000Y-65949619D02*
X104857143Y-65997238D01*
X104857143Y-65997238D02*
X104761905Y-66092476D01*
X104761905Y-66092476D02*
X104714286Y-66187714D01*
X104714286Y-66187714D02*
X104666667Y-66378190D01*
X104666667Y-66378190D02*
X104666667Y-66521047D01*
X104666667Y-66521047D02*
X104714286Y-66711523D01*
X104714286Y-66711523D02*
X104761905Y-66806761D01*
X104761905Y-66806761D02*
X104857143Y-66902000D01*
X104857143Y-66902000D02*
X105000000Y-66949619D01*
X105000000Y-66949619D02*
X105095238Y-66949619D01*
X105095238Y-66949619D02*
X105238095Y-66902000D01*
X105238095Y-66902000D02*
X105285714Y-66854380D01*
X105285714Y-66854380D02*
X105285714Y-66521047D01*
X105285714Y-66521047D02*
X105095238Y-66521047D01*
X105714286Y-66949619D02*
X105714286Y-65949619D01*
X105714286Y-65949619D02*
X106285714Y-66949619D01*
X106285714Y-66949619D02*
X106285714Y-65949619D01*
X106761905Y-66949619D02*
X106761905Y-65949619D01*
X106761905Y-65949619D02*
X107000000Y-65949619D01*
X107000000Y-65949619D02*
X107142857Y-65997238D01*
X107142857Y-65997238D02*
X107238095Y-66092476D01*
X107238095Y-66092476D02*
X107285714Y-66187714D01*
X107285714Y-66187714D02*
X107333333Y-66378190D01*
X107333333Y-66378190D02*
X107333333Y-66521047D01*
X107333333Y-66521047D02*
X107285714Y-66711523D01*
X107285714Y-66711523D02*
X107238095Y-66806761D01*
X107238095Y-66806761D02*
X107142857Y-66902000D01*
X107142857Y-66902000D02*
X107000000Y-66949619D01*
X107000000Y-66949619D02*
X106761905Y-66949619D01*
X121267122Y-63668327D02*
X121933788Y-63668327D01*
X121933788Y-63668327D02*
X121505217Y-64668327D01*
X190631594Y-61177264D02*
X190441118Y-61177264D01*
X190441118Y-61177264D02*
X190345880Y-61224883D01*
X190345880Y-61224883D02*
X190298261Y-61272502D01*
X190298261Y-61272502D02*
X190203023Y-61415359D01*
X190203023Y-61415359D02*
X190155404Y-61605835D01*
X190155404Y-61605835D02*
X190155404Y-61986787D01*
X190155404Y-61986787D02*
X190203023Y-62082025D01*
X190203023Y-62082025D02*
X190250642Y-62129645D01*
X190250642Y-62129645D02*
X190345880Y-62177264D01*
X190345880Y-62177264D02*
X190536356Y-62177264D01*
X190536356Y-62177264D02*
X190631594Y-62129645D01*
X190631594Y-62129645D02*
X190679213Y-62082025D01*
X190679213Y-62082025D02*
X190726832Y-61986787D01*
X190726832Y-61986787D02*
X190726832Y-61748692D01*
X190726832Y-61748692D02*
X190679213Y-61653454D01*
X190679213Y-61653454D02*
X190631594Y-61605835D01*
X190631594Y-61605835D02*
X190536356Y-61558216D01*
X190536356Y-61558216D02*
X190345880Y-61558216D01*
X190345880Y-61558216D02*
X190250642Y-61605835D01*
X190250642Y-61605835D02*
X190203023Y-61653454D01*
X190203023Y-61653454D02*
X190155404Y-61748692D01*
D11*
%TO.C,J16*%
X184385000Y-59830000D02*
X184385000Y-57170000D01*
X179245000Y-59830000D02*
X184385000Y-59830000D01*
X177975000Y-59830000D02*
X176645000Y-59830000D01*
X179245000Y-57170000D02*
X184385000Y-57170000D01*
X176645000Y-59830000D02*
X176645000Y-58500000D01*
X179245000Y-59830000D02*
X179245000Y-57170000D01*
%TO.C,J15*%
X176690000Y-59830000D02*
X176690000Y-57170000D01*
X171550000Y-59830000D02*
X176690000Y-59830000D01*
X170280000Y-59830000D02*
X168950000Y-59830000D01*
X171550000Y-57170000D02*
X176690000Y-57170000D01*
X168950000Y-59830000D02*
X168950000Y-58500000D01*
X171550000Y-59830000D02*
X171550000Y-57170000D01*
%TO.C,J14*%
X168995000Y-59830000D02*
X168995000Y-57170000D01*
X163855000Y-59830000D02*
X168995000Y-59830000D01*
X162585000Y-59830000D02*
X161255000Y-59830000D01*
X163855000Y-57170000D02*
X168995000Y-57170000D01*
X161255000Y-59830000D02*
X161255000Y-58500000D01*
X163855000Y-59830000D02*
X163855000Y-57170000D01*
%TO.C,J13*%
X161300000Y-59830000D02*
X161300000Y-57170000D01*
X156160000Y-59830000D02*
X161300000Y-59830000D01*
X154890000Y-59830000D02*
X153560000Y-59830000D01*
X156160000Y-57170000D02*
X161300000Y-57170000D01*
X153560000Y-59830000D02*
X153560000Y-58500000D01*
X156160000Y-59830000D02*
X156160000Y-57170000D01*
%TO.C,J12*%
X153605000Y-59830000D02*
X153605000Y-57170000D01*
X148465000Y-59830000D02*
X153605000Y-59830000D01*
X147195000Y-59830000D02*
X145865000Y-59830000D01*
X148465000Y-57170000D02*
X153605000Y-57170000D01*
X145865000Y-59830000D02*
X145865000Y-58500000D01*
X148465000Y-59830000D02*
X148465000Y-57170000D01*
%TO.C,J11*%
X140770000Y-59830000D02*
X140770000Y-57170000D01*
X138170000Y-59830000D02*
X138170000Y-58500000D01*
X140770000Y-57170000D02*
X145910000Y-57170000D01*
X139500000Y-59830000D02*
X138170000Y-59830000D01*
X140770000Y-59830000D02*
X145910000Y-59830000D01*
X145910000Y-59830000D02*
X145910000Y-57170000D01*
%TO.C,J10*%
X184385000Y-68830000D02*
X184385000Y-66170000D01*
X179245000Y-68830000D02*
X184385000Y-68830000D01*
X177975000Y-68830000D02*
X176645000Y-68830000D01*
X179245000Y-66170000D02*
X184385000Y-66170000D01*
X176645000Y-68830000D02*
X176645000Y-67500000D01*
X179245000Y-68830000D02*
X179245000Y-66170000D01*
%TO.C,J9*%
X176690000Y-68830000D02*
X176690000Y-66170000D01*
X171550000Y-68830000D02*
X176690000Y-68830000D01*
X170280000Y-68830000D02*
X168950000Y-68830000D01*
X171550000Y-66170000D02*
X176690000Y-66170000D01*
X168950000Y-68830000D02*
X168950000Y-67500000D01*
X171550000Y-68830000D02*
X171550000Y-66170000D01*
%TO.C,J8*%
X132670000Y-50270000D02*
X135270000Y-50270000D01*
X132670000Y-50270000D02*
X132670000Y-78270000D01*
X132670000Y-49000000D02*
X132670000Y-47670000D01*
X132670000Y-78270000D02*
X137870000Y-78270000D01*
X137870000Y-47670000D02*
X137870000Y-78270000D01*
X135270000Y-50270000D02*
X135270000Y-47670000D01*
X132670000Y-47670000D02*
X134000000Y-47670000D01*
X135270000Y-47670000D02*
X137870000Y-47670000D01*
%TO.C,J7*%
X168995000Y-68830000D02*
X168995000Y-66170000D01*
X163855000Y-68830000D02*
X168995000Y-68830000D01*
X162585000Y-68830000D02*
X161255000Y-68830000D01*
X163855000Y-66170000D02*
X168995000Y-66170000D01*
X161255000Y-68830000D02*
X161255000Y-67500000D01*
X163855000Y-68830000D02*
X163855000Y-66170000D01*
%TO.C,J6*%
X161300000Y-68830000D02*
X161300000Y-66170000D01*
X156160000Y-68830000D02*
X161300000Y-68830000D01*
X154890000Y-68830000D02*
X153560000Y-68830000D01*
X156160000Y-66170000D02*
X161300000Y-66170000D01*
X153560000Y-68830000D02*
X153560000Y-67500000D01*
X156160000Y-68830000D02*
X156160000Y-66170000D01*
%TO.C,J5*%
X153605000Y-68830000D02*
X153605000Y-66170000D01*
X148465000Y-68830000D02*
X153605000Y-68830000D01*
X147195000Y-68830000D02*
X145865000Y-68830000D01*
X148465000Y-66170000D02*
X153605000Y-66170000D01*
X145865000Y-68830000D02*
X145865000Y-67500000D01*
X148465000Y-68830000D02*
X148465000Y-66170000D01*
%TO.C,J4*%
X126140000Y-50270000D02*
X128740000Y-50270000D01*
X126140000Y-50270000D02*
X126140000Y-78270000D01*
X126140000Y-49000000D02*
X126140000Y-47670000D01*
X126140000Y-78270000D02*
X131340000Y-78270000D01*
X131340000Y-47670000D02*
X131340000Y-78270000D01*
X128740000Y-50270000D02*
X128740000Y-47670000D01*
X126140000Y-47670000D02*
X127470000Y-47670000D01*
X128740000Y-47670000D02*
X131340000Y-47670000D01*
%TO.C,J3*%
X140770000Y-68830000D02*
X140770000Y-66170000D01*
X138170000Y-68830000D02*
X138170000Y-67500000D01*
X140770000Y-66170000D02*
X145910000Y-66170000D01*
X139500000Y-68830000D02*
X138170000Y-68830000D01*
X140770000Y-68830000D02*
X145910000Y-68830000D01*
X145910000Y-68830000D02*
X145910000Y-66170000D01*
%TO.C,J2*%
X184670000Y-50270000D02*
X187270000Y-50270000D01*
X184670000Y-50270000D02*
X184670000Y-78270000D01*
X184670000Y-49000000D02*
X184670000Y-47670000D01*
X184670000Y-78270000D02*
X189870000Y-78270000D01*
X189870000Y-47670000D02*
X189870000Y-78270000D01*
X187270000Y-50270000D02*
X187270000Y-47670000D01*
X184670000Y-47670000D02*
X186000000Y-47670000D01*
X187270000Y-47670000D02*
X189870000Y-47670000D01*
%TO.C,R11*%
X118908231Y-73877500D02*
X119417679Y-73877500D01*
X118908231Y-74922500D02*
X119417679Y-74922500D01*
%TO.C,SW8*%
X149226000Y-55750000D02*
X150726000Y-55750000D01*
X153226000Y-54500000D02*
X153226000Y-50000000D01*
X146726000Y-50000000D02*
X146726000Y-54500000D01*
X150726000Y-48750000D02*
X149226000Y-48750000D01*
%TO.C,U3*%
X114887500Y-58840000D02*
X113087500Y-58840000D01*
X114887500Y-58840000D02*
X115687500Y-58840000D01*
X114887500Y-61960000D02*
X114087500Y-61960000D01*
X114887500Y-61960000D02*
X115687500Y-61960000D01*
%TO.C,D10*%
X125868572Y-72595000D02*
X125868572Y-71125000D01*
X125868572Y-71125000D02*
X123408572Y-71125000D01*
X123408572Y-72595000D02*
X125868572Y-72595000D01*
%TO.C,R5*%
X118908231Y-58637500D02*
X119417679Y-58637500D01*
X118908231Y-59682500D02*
X119417679Y-59682500D01*
%TO.C,U8*%
X109750000Y-53640000D02*
X107950000Y-53640000D01*
X109750000Y-53640000D02*
X110550000Y-53640000D01*
X109750000Y-56760000D02*
X108950000Y-56760000D01*
X109750000Y-56760000D02*
X110550000Y-56760000D01*
%TO.C,D5*%
X125868572Y-59895000D02*
X125868572Y-58425000D01*
X125868572Y-58425000D02*
X123408572Y-58425000D01*
X123408572Y-59895000D02*
X125868572Y-59895000D01*
%TO.C,U9*%
X109750000Y-58840000D02*
X107950000Y-58840000D01*
X109750000Y-58840000D02*
X110550000Y-58840000D01*
X109750000Y-61960000D02*
X108950000Y-61960000D01*
X109750000Y-61960000D02*
X110550000Y-61960000D01*
%TO.C,R2*%
X118908231Y-51017500D02*
X119417679Y-51017500D01*
X118908231Y-52062500D02*
X119417679Y-52062500D01*
%TO.C,R6*%
X118908231Y-61177500D02*
X119417679Y-61177500D01*
X118908231Y-62222500D02*
X119417679Y-62222500D01*
%TO.C,SW4*%
X164230000Y-77250000D02*
X165730000Y-77250000D01*
X168230000Y-76000000D02*
X168230000Y-71500000D01*
X161730000Y-71500000D02*
X161730000Y-76000000D01*
X165730000Y-70250000D02*
X164230000Y-70250000D01*
%TO.C,D9*%
X125868572Y-70055000D02*
X125868572Y-68585000D01*
X125868572Y-68585000D02*
X123408572Y-68585000D01*
X123408572Y-70055000D02*
X125868572Y-70055000D01*
%TO.C,U2*%
X114887500Y-53640000D02*
X113087500Y-53640000D01*
X114887500Y-53640000D02*
X115687500Y-53640000D01*
X114887500Y-56760000D02*
X114087500Y-56760000D01*
X114887500Y-56760000D02*
X115687500Y-56760000D01*
%TO.C,U1*%
X114887500Y-48440000D02*
X113087500Y-48440000D01*
X114887500Y-48440000D02*
X115687500Y-48440000D01*
X114887500Y-51560000D02*
X114087500Y-51560000D01*
X114887500Y-51560000D02*
X115687500Y-51560000D01*
%TO.C,D12*%
X125868572Y-77675000D02*
X125868572Y-76205000D01*
X125868572Y-76205000D02*
X123408572Y-76205000D01*
X123408572Y-77675000D02*
X125868572Y-77675000D01*
%TO.C,U6*%
X114887500Y-74440000D02*
X113087500Y-74440000D01*
X114887500Y-74440000D02*
X115687500Y-74440000D01*
X114887500Y-77560000D02*
X114087500Y-77560000D01*
X114887500Y-77560000D02*
X115687500Y-77560000D01*
%TO.C,D4*%
X125868572Y-57355000D02*
X125868572Y-55885000D01*
X125868572Y-55885000D02*
X123408572Y-55885000D01*
X123408572Y-57355000D02*
X125868572Y-57355000D01*
%TO.C,R10*%
X118908231Y-71337500D02*
X119417679Y-71337500D01*
X118908231Y-72382500D02*
X119417679Y-72382500D01*
%TO.C,D6*%
X125868572Y-62435000D02*
X125868572Y-60965000D01*
X125868572Y-60965000D02*
X123408572Y-60965000D01*
X123408572Y-62435000D02*
X125868572Y-62435000D01*
%TO.C,U4*%
X114887500Y-64040000D02*
X113087500Y-64040000D01*
X114887500Y-64040000D02*
X115687500Y-64040000D01*
X114887500Y-67160000D02*
X114087500Y-67160000D01*
X114887500Y-67160000D02*
X115687500Y-67160000D01*
%TO.C,SW5*%
X171740000Y-77250000D02*
X173240000Y-77250000D01*
X175740000Y-76000000D02*
X175740000Y-71500000D01*
X169240000Y-71500000D02*
X169240000Y-76000000D01*
X173240000Y-70250000D02*
X171740000Y-70250000D01*
%TO.C,SW7*%
X141720000Y-55750000D02*
X143220000Y-55750000D01*
X145720000Y-54500000D02*
X145720000Y-50000000D01*
X139220000Y-50000000D02*
X139220000Y-54500000D01*
X143220000Y-48750000D02*
X141720000Y-48750000D01*
%TO.C,R4*%
X118908231Y-56097500D02*
X119417679Y-56097500D01*
X118908231Y-57142500D02*
X119417679Y-57142500D01*
%TO.C,D3*%
X125868572Y-54815000D02*
X125868572Y-53345000D01*
X125868572Y-53345000D02*
X123408572Y-53345000D01*
X123408572Y-54815000D02*
X125868572Y-54815000D01*
%TO.C,SW6*%
X179250000Y-77250000D02*
X180750000Y-77250000D01*
X183250000Y-76000000D02*
X183250000Y-71500000D01*
X176750000Y-71500000D02*
X176750000Y-76000000D01*
X180750000Y-70250000D02*
X179250000Y-70250000D01*
%TO.C,J17*%
X104570000Y-60130000D02*
X105900000Y-60130000D01*
X104570000Y-61460000D02*
X104570000Y-60130000D01*
X104570000Y-62730000D02*
X104570000Y-65330000D01*
X104570000Y-62730000D02*
X107230000Y-62730000D01*
X104570000Y-65330000D02*
X107230000Y-65330000D01*
X107230000Y-62730000D02*
X107230000Y-65330000D01*
%TO.C,D2*%
X125868572Y-52275000D02*
X125868572Y-50805000D01*
X125868572Y-50805000D02*
X123408572Y-50805000D01*
X123408572Y-52275000D02*
X125868572Y-52275000D01*
%TO.C,U10*%
X109750000Y-64040000D02*
X107950000Y-64040000D01*
X109750000Y-64040000D02*
X110550000Y-64040000D01*
X109750000Y-67160000D02*
X108950000Y-67160000D01*
X109750000Y-67160000D02*
X110550000Y-67160000D01*
%TO.C,SW3*%
X156720000Y-77250000D02*
X158220000Y-77250000D01*
X160720000Y-76000000D02*
X160720000Y-71500000D01*
X154220000Y-71500000D02*
X154220000Y-76000000D01*
X158220000Y-70250000D02*
X156720000Y-70250000D01*
%TO.C,D1*%
X125868572Y-49735000D02*
X125868572Y-48265000D01*
X125868572Y-48265000D02*
X123408572Y-48265000D01*
X123408572Y-49735000D02*
X125868572Y-49735000D01*
%TO.C,SW10*%
X164238000Y-55750000D02*
X165738000Y-55750000D01*
X168238000Y-54500000D02*
X168238000Y-50000000D01*
X161738000Y-50000000D02*
X161738000Y-54500000D01*
X165738000Y-48750000D02*
X164238000Y-48750000D01*
%TO.C,D8*%
X125868572Y-67515000D02*
X125868572Y-66045000D01*
X125868572Y-66045000D02*
X123408572Y-66045000D01*
X123408572Y-67515000D02*
X125868572Y-67515000D01*
%TO.C,U12*%
X109750000Y-74440000D02*
X107950000Y-74440000D01*
X109750000Y-74440000D02*
X110550000Y-74440000D01*
X109750000Y-77560000D02*
X108950000Y-77560000D01*
X109750000Y-77560000D02*
X110550000Y-77560000D01*
%TO.C,SW12*%
X179250000Y-55750000D02*
X180750000Y-55750000D01*
X183250000Y-54500000D02*
X183250000Y-50000000D01*
X176750000Y-50000000D02*
X176750000Y-54500000D01*
X180750000Y-48750000D02*
X179250000Y-48750000D01*
%TO.C,U11*%
X109750000Y-69240000D02*
X107950000Y-69240000D01*
X109750000Y-69240000D02*
X110550000Y-69240000D01*
X109750000Y-72360000D02*
X108950000Y-72360000D01*
X109750000Y-72360000D02*
X110550000Y-72360000D01*
%TO.C,D7*%
X125868572Y-64975000D02*
X125868572Y-63505000D01*
X125868572Y-63505000D02*
X123408572Y-63505000D01*
X123408572Y-64975000D02*
X125868572Y-64975000D01*
%TO.C,R7*%
X118908231Y-63717500D02*
X119417679Y-63717500D01*
X118908231Y-64762500D02*
X119417679Y-64762500D01*
%TO.C,R9*%
X118908231Y-68797500D02*
X119417679Y-68797500D01*
X118908231Y-69842500D02*
X119417679Y-69842500D01*
D12*
%TO.C,J1*%
X192350000Y-69550000D02*
X192350000Y-67550000D01*
X195650000Y-69550000D02*
X192350000Y-69550000D01*
X195650000Y-67550000D02*
X195650000Y-69550000D01*
X195650000Y-58450000D02*
X195650000Y-56450000D01*
X192350000Y-56450000D02*
X192350000Y-58450000D01*
X195650000Y-56450000D02*
X192350000Y-56450000D01*
X191350000Y-60250000D02*
G75*
G03*
X191350000Y-60250000I-100000J0D01*
G01*
D11*
%TO.C,SW1*%
X141700000Y-77250000D02*
X143200000Y-77250000D01*
X145700000Y-76000000D02*
X145700000Y-71500000D01*
X139200000Y-71500000D02*
X139200000Y-76000000D01*
X143200000Y-70250000D02*
X141700000Y-70250000D01*
%TO.C,R1*%
X118908231Y-48477500D02*
X119417679Y-48477500D01*
X118908231Y-49522500D02*
X119417679Y-49522500D01*
%TO.C,D11*%
X125868572Y-75135000D02*
X125868572Y-73665000D01*
X125868572Y-73665000D02*
X123408572Y-73665000D01*
X123408572Y-75135000D02*
X125868572Y-75135000D01*
%TO.C,R12*%
X118908231Y-76417500D02*
X119417679Y-76417500D01*
X118908231Y-77462500D02*
X119417679Y-77462500D01*
%TO.C,U7*%
X109750000Y-48440000D02*
X107950000Y-48440000D01*
X109750000Y-48440000D02*
X110550000Y-48440000D01*
X109750000Y-51560000D02*
X108950000Y-51560000D01*
X109750000Y-51560000D02*
X110550000Y-51560000D01*
%TO.C,SW2*%
X149210000Y-77250000D02*
X150710000Y-77250000D01*
X153210000Y-76000000D02*
X153210000Y-71500000D01*
X146710000Y-71500000D02*
X146710000Y-76000000D01*
X150710000Y-70250000D02*
X149210000Y-70250000D01*
%TO.C,R8*%
X118908231Y-66257500D02*
X119417679Y-66257500D01*
X118908231Y-67302500D02*
X119417679Y-67302500D01*
%TO.C,R3*%
X118908231Y-53557500D02*
X119417679Y-53557500D01*
X118908231Y-54602500D02*
X119417679Y-54602500D01*
%TO.C,U5*%
X114887500Y-69240000D02*
X113087500Y-69240000D01*
X114887500Y-69240000D02*
X115687500Y-69240000D01*
X114887500Y-72360000D02*
X114087500Y-72360000D01*
X114887500Y-72360000D02*
X115687500Y-72360000D01*
D12*
%TO.C,P1*%
X96800000Y-58530000D02*
X95600000Y-58530000D01*
X95600000Y-58530000D02*
X95600000Y-67470000D01*
D13*
X103300000Y-62500000D02*
X103300000Y-62500000D01*
X103200000Y-62500000D02*
X103200000Y-62500000D01*
D12*
X95600000Y-67470000D02*
X96800000Y-67470000D01*
D13*
X103200000Y-62500000D02*
G75*
G03*
X103300000Y-62500000I50000J0D01*
G01*
X103300000Y-62500000D02*
G75*
G03*
X103200000Y-62500000I-50000J0D01*
G01*
D11*
%TO.C,SW11*%
X171744000Y-55750000D02*
X173244000Y-55750000D01*
X175744000Y-54500000D02*
X175744000Y-50000000D01*
X169244000Y-50000000D02*
X169244000Y-54500000D01*
X173244000Y-48750000D02*
X171744000Y-48750000D01*
%TO.C,SW9*%
X156732000Y-55750000D02*
X158232000Y-55750000D01*
X160732000Y-54500000D02*
X160732000Y-50000000D01*
X154232000Y-50000000D02*
X154232000Y-54500000D01*
X158232000Y-48750000D02*
X156732000Y-48750000D01*
%TD*%
M02*
