%TF.GenerationSoftware,KiCad,Pcbnew,7.0.6*%
%TF.CreationDate,2023-08-04T15:36:24+02:00*%
%TF.ProjectId,Debug_BreakBoard,44656275-675f-4427-9265-616b426f6172,rev?*%
%TF.SameCoordinates,Original*%
%TF.FileFunction,Soldermask,Bot*%
%TF.FilePolarity,Negative*%
%FSLAX46Y46*%
G04 Gerber Fmt 4.6, Leading zero omitted, Abs format (unit mm)*
G04 Created by KiCad (PCBNEW 7.0.6) date 2023-08-04 15:36:24*
%MOMM*%
%LPD*%
G01*
G04 APERTURE LIST*
%ADD10R,1.700000X1.700000*%
%ADD11O,1.700000X1.700000*%
%ADD12C,4.500000*%
%ADD13C,2.000000*%
%ADD14C,2.010000*%
G04 APERTURE END LIST*
D10*
%TO.C,J16*%
X177975000Y-58500000D03*
D11*
X180515000Y-58500000D03*
X183055000Y-58500000D03*
%TD*%
D10*
%TO.C,J15*%
X170280000Y-58500000D03*
D11*
X172820000Y-58500000D03*
X175360000Y-58500000D03*
%TD*%
D10*
%TO.C,J14*%
X162585000Y-58500000D03*
D11*
X165125000Y-58500000D03*
X167665000Y-58500000D03*
%TD*%
D10*
%TO.C,J13*%
X154890000Y-58500000D03*
D11*
X157430000Y-58500000D03*
X159970000Y-58500000D03*
%TD*%
D10*
%TO.C,J12*%
X147195000Y-58500000D03*
D11*
X149735000Y-58500000D03*
X152275000Y-58500000D03*
%TD*%
%TO.C,J11*%
X144580000Y-58500000D03*
X142040000Y-58500000D03*
D10*
X139500000Y-58500000D03*
%TD*%
%TO.C,J10*%
X177975000Y-67500000D03*
D11*
X180515000Y-67500000D03*
X183055000Y-67500000D03*
%TD*%
D10*
%TO.C,J9*%
X170280000Y-67500000D03*
D11*
X172820000Y-67500000D03*
X175360000Y-67500000D03*
%TD*%
D10*
%TO.C,J8*%
X134000000Y-49000000D03*
D11*
X136540000Y-49000000D03*
X134000000Y-51540000D03*
X136540000Y-51540000D03*
X134000000Y-54080000D03*
X136540000Y-54080000D03*
X134000000Y-56620000D03*
X136540000Y-56620000D03*
X134000000Y-59160000D03*
X136540000Y-59160000D03*
X134000000Y-61700000D03*
X136540000Y-61700000D03*
X134000000Y-64240000D03*
X136540000Y-64240000D03*
X134000000Y-66780000D03*
X136540000Y-66780000D03*
X134000000Y-69320000D03*
X136540000Y-69320000D03*
X134000000Y-71860000D03*
X136540000Y-71860000D03*
X134000000Y-74400000D03*
X136540000Y-74400000D03*
X134000000Y-76940000D03*
X136540000Y-76940000D03*
%TD*%
D10*
%TO.C,J7*%
X162585000Y-67500000D03*
D11*
X165125000Y-67500000D03*
X167665000Y-67500000D03*
%TD*%
D10*
%TO.C,J6*%
X154890000Y-67500000D03*
D11*
X157430000Y-67500000D03*
X159970000Y-67500000D03*
%TD*%
D10*
%TO.C,J5*%
X147195000Y-67500000D03*
D11*
X149735000Y-67500000D03*
X152275000Y-67500000D03*
%TD*%
D10*
%TO.C,J4*%
X127470000Y-49000000D03*
D11*
X130010000Y-49000000D03*
X127470000Y-51540000D03*
X130010000Y-51540000D03*
X127470000Y-54080000D03*
X130010000Y-54080000D03*
X127470000Y-56620000D03*
X130010000Y-56620000D03*
X127470000Y-59160000D03*
X130010000Y-59160000D03*
X127470000Y-61700000D03*
X130010000Y-61700000D03*
X127470000Y-64240000D03*
X130010000Y-64240000D03*
X127470000Y-66780000D03*
X130010000Y-66780000D03*
X127470000Y-69320000D03*
X130010000Y-69320000D03*
X127470000Y-71860000D03*
X130010000Y-71860000D03*
X127470000Y-74400000D03*
X130010000Y-74400000D03*
X127470000Y-76940000D03*
X130010000Y-76940000D03*
%TD*%
%TO.C,J3*%
X144580000Y-67500000D03*
X142040000Y-67500000D03*
D10*
X139500000Y-67500000D03*
%TD*%
%TO.C,J2*%
X186000000Y-49000000D03*
D11*
X188540000Y-49000000D03*
X186000000Y-51540000D03*
X188540000Y-51540000D03*
X186000000Y-54080000D03*
X188540000Y-54080000D03*
X186000000Y-56620000D03*
X188540000Y-56620000D03*
X186000000Y-59160000D03*
X188540000Y-59160000D03*
X186000000Y-61700000D03*
X188540000Y-61700000D03*
X186000000Y-64240000D03*
X188540000Y-64240000D03*
X186000000Y-66780000D03*
X188540000Y-66780000D03*
X186000000Y-69320000D03*
X188540000Y-69320000D03*
X186000000Y-71860000D03*
X188540000Y-71860000D03*
X186000000Y-74400000D03*
X188540000Y-74400000D03*
X186000000Y-76940000D03*
X188540000Y-76940000D03*
%TD*%
D12*
%TO.C,H2*%
X100000000Y-76000000D03*
%TD*%
D13*
%TO.C,SW8*%
X147726000Y-55500000D03*
X147726000Y-49000000D03*
X152226000Y-55500000D03*
X152226000Y-49000000D03*
%TD*%
D12*
%TO.C,H1*%
X100000000Y-50000000D03*
%TD*%
D13*
%TO.C,SW4*%
X162730000Y-77000000D03*
X162730000Y-70500000D03*
X167230000Y-77000000D03*
X167230000Y-70500000D03*
%TD*%
%TO.C,SW5*%
X170240000Y-77000000D03*
X170240000Y-70500000D03*
X174740000Y-77000000D03*
X174740000Y-70500000D03*
%TD*%
%TO.C,SW7*%
X140220000Y-55500000D03*
X140220000Y-49000000D03*
X144720000Y-55500000D03*
X144720000Y-49000000D03*
%TD*%
%TO.C,SW6*%
X177750000Y-77000000D03*
X177750000Y-70500000D03*
X182250000Y-77000000D03*
X182250000Y-70500000D03*
%TD*%
D10*
%TO.C,J17*%
X105900000Y-61460000D03*
D11*
X105900000Y-64000000D03*
%TD*%
D13*
%TO.C,SW3*%
X155220000Y-77000000D03*
X155220000Y-70500000D03*
X159720000Y-77000000D03*
X159720000Y-70500000D03*
%TD*%
%TO.C,SW10*%
X162738000Y-55500000D03*
X162738000Y-49000000D03*
X167238000Y-55500000D03*
X167238000Y-49000000D03*
%TD*%
D12*
%TO.C,H4*%
X194000000Y-76000000D03*
%TD*%
D13*
%TO.C,SW12*%
X177750000Y-55500000D03*
X177750000Y-49000000D03*
X182250000Y-55500000D03*
X182250000Y-49000000D03*
%TD*%
D12*
%TO.C,H3*%
X194000000Y-50000000D03*
%TD*%
D13*
%TO.C,SW1*%
X140200000Y-77000000D03*
X140200000Y-70500000D03*
X144700000Y-77000000D03*
X144700000Y-70500000D03*
%TD*%
%TO.C,SW2*%
X147710000Y-77000000D03*
X147710000Y-70500000D03*
X152210000Y-77000000D03*
X152210000Y-70500000D03*
%TD*%
D14*
%TO.C,P1*%
X102000000Y-58680000D03*
X98200000Y-58680000D03*
X102000000Y-67320000D03*
X98200000Y-67320000D03*
%TD*%
D13*
%TO.C,SW11*%
X170244000Y-55500000D03*
X170244000Y-49000000D03*
X174744000Y-55500000D03*
X174744000Y-49000000D03*
%TD*%
%TO.C,SW9*%
X155232000Y-55500000D03*
X155232000Y-49000000D03*
X159732000Y-55500000D03*
X159732000Y-49000000D03*
%TD*%
M02*
