%TF.GenerationSoftware,KiCad,Pcbnew,7.0.6*%
%TF.CreationDate,2023-08-04T15:36:23+02:00*%
%TF.ProjectId,Debug_BreakBoard,44656275-675f-4427-9265-616b426f6172,rev?*%
%TF.SameCoordinates,Original*%
%TF.FileFunction,Paste,Top*%
%TF.FilePolarity,Positive*%
%FSLAX46Y46*%
G04 Gerber Fmt 4.6, Leading zero omitted, Abs format (unit mm)*
G04 Created by KiCad (PCBNEW 7.0.6) date 2023-08-04 15:36:23*
%MOMM*%
%LPD*%
G01*
G04 APERTURE LIST*
G04 Aperture macros list*
%AMRoundRect*
0 Rectangle with rounded corners*
0 $1 Rounding radius*
0 $2 $3 $4 $5 $6 $7 $8 $9 X,Y pos of 4 corners*
0 Add a 4 corners polygon primitive as box body*
4,1,4,$2,$3,$4,$5,$6,$7,$8,$9,$2,$3,0*
0 Add four circle primitives for the rounded corners*
1,1,$1+$1,$2,$3*
1,1,$1+$1,$4,$5*
1,1,$1+$1,$6,$7*
1,1,$1+$1,$8,$9*
0 Add four rect primitives between the rounded corners*
20,1,$1+$1,$2,$3,$4,$5,0*
20,1,$1+$1,$4,$5,$6,$7,0*
20,1,$1+$1,$6,$7,$8,$9,0*
20,1,$1+$1,$8,$9,$2,$3,0*%
G04 Aperture macros list end*
%ADD10RoundRect,0.237500X-0.250000X-0.237500X0.250000X-0.237500X0.250000X0.237500X-0.250000X0.237500X0*%
%ADD11RoundRect,0.150000X-0.512500X-0.150000X0.512500X-0.150000X0.512500X0.150000X-0.512500X0.150000X0*%
%ADD12RoundRect,0.237500X0.287500X0.237500X-0.287500X0.237500X-0.287500X-0.237500X0.287500X-0.237500X0*%
%ADD13R,1.500000X0.600000*%
%ADD14R,1.500000X0.800000*%
%ADD15R,1.200000X0.700000*%
%ADD16R,1.200000X0.760000*%
%ADD17R,1.200000X0.800000*%
G04 APERTURE END LIST*
D10*
%TO.C,R11*%
X118250455Y-74400000D03*
X120075455Y-74400000D03*
%TD*%
D11*
%TO.C,U3*%
X113750000Y-59450000D03*
X113750000Y-60400000D03*
X113750000Y-61350000D03*
X116025000Y-61350000D03*
X116025000Y-59450000D03*
%TD*%
D12*
%TO.C,D10*%
X125083572Y-71860000D03*
X123333572Y-71860000D03*
%TD*%
D10*
%TO.C,R5*%
X118250455Y-59160000D03*
X120075455Y-59160000D03*
%TD*%
D11*
%TO.C,U8*%
X108612500Y-54250000D03*
X108612500Y-55200000D03*
X108612500Y-56150000D03*
X110887500Y-56150000D03*
X110887500Y-54250000D03*
%TD*%
D12*
%TO.C,D5*%
X125083572Y-59160000D03*
X123333572Y-59160000D03*
%TD*%
D11*
%TO.C,U9*%
X108612500Y-59450000D03*
X108612500Y-60400000D03*
X108612500Y-61350000D03*
X110887500Y-61350000D03*
X110887500Y-59450000D03*
%TD*%
D10*
%TO.C,R2*%
X118250455Y-51540000D03*
X120075455Y-51540000D03*
%TD*%
%TO.C,R6*%
X118250455Y-61700000D03*
X120075455Y-61700000D03*
%TD*%
D12*
%TO.C,D9*%
X125083572Y-69320000D03*
X123333572Y-69320000D03*
%TD*%
D11*
%TO.C,U2*%
X113750000Y-54250000D03*
X113750000Y-55200000D03*
X113750000Y-56150000D03*
X116025000Y-56150000D03*
X116025000Y-54250000D03*
%TD*%
%TO.C,U1*%
X113750000Y-49050000D03*
X113750000Y-50000000D03*
X113750000Y-50950000D03*
X116025000Y-50950000D03*
X116025000Y-49050000D03*
%TD*%
D12*
%TO.C,D12*%
X125083572Y-76940000D03*
X123333572Y-76940000D03*
%TD*%
D11*
%TO.C,U6*%
X113750000Y-75050000D03*
X113750000Y-76000000D03*
X113750000Y-76950000D03*
X116025000Y-76950000D03*
X116025000Y-75050000D03*
%TD*%
D12*
%TO.C,D4*%
X125083572Y-56620000D03*
X123333572Y-56620000D03*
%TD*%
D10*
%TO.C,R10*%
X118250455Y-71860000D03*
X120075455Y-71860000D03*
%TD*%
D12*
%TO.C,D6*%
X125083572Y-61700000D03*
X123333572Y-61700000D03*
%TD*%
D11*
%TO.C,U4*%
X113750000Y-64650000D03*
X113750000Y-65600000D03*
X113750000Y-66550000D03*
X116025000Y-66550000D03*
X116025000Y-64650000D03*
%TD*%
D10*
%TO.C,R4*%
X118250455Y-56620000D03*
X120075455Y-56620000D03*
%TD*%
D12*
%TO.C,D3*%
X125083572Y-54080000D03*
X123333572Y-54080000D03*
%TD*%
%TO.C,D2*%
X125083572Y-51540000D03*
X123333572Y-51540000D03*
%TD*%
D11*
%TO.C,U10*%
X108612500Y-64650000D03*
X108612500Y-65600000D03*
X108612500Y-66550000D03*
X110887500Y-66550000D03*
X110887500Y-64650000D03*
%TD*%
D12*
%TO.C,D1*%
X125083572Y-49000000D03*
X123333572Y-49000000D03*
%TD*%
%TO.C,D8*%
X125083572Y-66780000D03*
X123333572Y-66780000D03*
%TD*%
D11*
%TO.C,U12*%
X108612500Y-75050000D03*
X108612500Y-76000000D03*
X108612500Y-76950000D03*
X110887500Y-76950000D03*
X110887500Y-75050000D03*
%TD*%
%TO.C,U11*%
X108612500Y-69850000D03*
X108612500Y-70800000D03*
X108612500Y-71750000D03*
X110887500Y-71750000D03*
X110887500Y-69850000D03*
%TD*%
D12*
%TO.C,D7*%
X125083572Y-64240000D03*
X123333572Y-64240000D03*
%TD*%
D10*
%TO.C,R7*%
X118250455Y-64240000D03*
X120075455Y-64240000D03*
%TD*%
%TO.C,R9*%
X118250455Y-69320000D03*
X120075455Y-69320000D03*
%TD*%
D13*
%TO.C,J1*%
X192600000Y-60250000D03*
X195400000Y-60750000D03*
X192600000Y-61250000D03*
X195400000Y-61750000D03*
X192600000Y-62250000D03*
X195400000Y-62750000D03*
X192600000Y-63250000D03*
X195400000Y-63750000D03*
X192600000Y-64250000D03*
X195400000Y-64750000D03*
X192600000Y-65250000D03*
X195400000Y-65750000D03*
D14*
X195400000Y-59250000D03*
X192600000Y-59250000D03*
X195400000Y-66750000D03*
X192600000Y-66750000D03*
%TD*%
D10*
%TO.C,R1*%
X118250455Y-49000000D03*
X120075455Y-49000000D03*
%TD*%
D12*
%TO.C,D11*%
X125083572Y-74400000D03*
X123333572Y-74400000D03*
%TD*%
D10*
%TO.C,R12*%
X118250455Y-76940000D03*
X120075455Y-76940000D03*
%TD*%
D11*
%TO.C,U7*%
X108612500Y-49050000D03*
X108612500Y-50000000D03*
X108612500Y-50950000D03*
X110887500Y-50950000D03*
X110887500Y-49050000D03*
%TD*%
D10*
%TO.C,R8*%
X118250455Y-66780000D03*
X120075455Y-66780000D03*
%TD*%
%TO.C,R3*%
X118250455Y-54080000D03*
X120075455Y-54080000D03*
%TD*%
D11*
%TO.C,U5*%
X113750000Y-69850000D03*
X113750000Y-70800000D03*
X113750000Y-71750000D03*
X116025000Y-71750000D03*
X116025000Y-69850000D03*
%TD*%
D15*
%TO.C,P1*%
X102080000Y-62500000D03*
D16*
X102080000Y-64520000D03*
D17*
X102080000Y-65750000D03*
D15*
X102080000Y-63500000D03*
D16*
X102080000Y-61480000D03*
D17*
X102080000Y-60250000D03*
%TD*%
M02*
