M48
; DRILL file {KiCad 7.0.6} date Fri 04 Aug 2023 15:36:24 CEST
; FORMAT={-:-/ absolute / inch / decimal}
; #@! TF.CreationDate,2023-08-04T15:36:24+02:00
; #@! TF.GenerationSoftware,Kicad,Pcbnew,7.0.6
; #@! TF.FileFunction,Plated,1,4,PTH
FMAT,2
INCH
; #@! TA.AperFunction,Plated,PTH,ViaDrill
T1C0.0118
; #@! TA.AperFunction,Plated,PTH,ComponentDrill
T2C0.0394
; #@! TA.AperFunction,Plated,PTH,ComponentDrill
T3C0.0433
; #@! TA.AperFunction,Plated,PTH,ComponentDrill
T4C0.0528
; #@! TA.AperFunction,Plated,PTH,ComponentDrill
T5C0.1063
%
G90
G05
T1
X3.9717Y-2.3022
X3.972Y-2.4212
X3.9731Y-2.3712
X3.9731Y-2.5394
X3.9731Y-2.5878
X4.0636Y-2.3032
X4.0636Y-2.4229
X4.0647Y-2.3729
X4.0647Y-2.541
X4.0647Y-2.5894
X4.2284Y-1.9685
X4.2284Y-2.1733
X4.2284Y-2.378
X4.2284Y-2.5827
X4.2284Y-2.7874
X4.2284Y-2.9922
X4.4094Y-1.9291
X4.4094Y-2.1339
X4.4094Y-2.3386
X4.4094Y-2.5433
X4.4094Y-2.748
X4.4094Y-2.9528
X4.4306Y-1.9685
X4.4306Y-2.1733
X4.4306Y-2.378
X4.4306Y-2.5827
X4.4306Y-2.7874
X4.4306Y-2.9922
X4.6117Y-1.9291
X4.6117Y-2.1339
X4.6117Y-2.3386
X4.6117Y-2.5433
X4.6117Y-2.748
X4.6117Y-2.9528
X4.9606Y-1.9291
X4.9606Y-2.0294
X4.9606Y-2.1296
X4.9606Y-2.2298
X4.9606Y-2.33
X4.9606Y-2.4302
X4.9606Y-2.5304
X4.9606Y-2.6307
X4.9606Y-2.7309
X4.9606Y-2.8311
X4.9606Y-2.9313
X4.9606Y-3.0315
X7.6378Y-2.3917
X7.6378Y-2.4311
X7.6378Y-2.4705
X7.6378Y-2.5098
X7.6378Y-2.5492
X7.6378Y-2.5886
T2
X4.1693Y-2.4197
X4.1693Y-2.5197
X5.0185Y-1.9291
X5.0185Y-2.0291
X5.0185Y-2.1291
X5.0185Y-2.2291
X5.0185Y-2.3291
X5.0185Y-2.4291
X5.0185Y-2.5291
X5.0185Y-2.6291
X5.0185Y-2.7291
X5.0185Y-2.8291
X5.0185Y-2.9291
X5.0185Y-3.0291
X5.1185Y-1.9291
X5.1185Y-2.0291
X5.1185Y-2.1291
X5.1185Y-2.2291
X5.1185Y-2.3291
X5.1185Y-2.4291
X5.1185Y-2.5291
X5.1185Y-2.6291
X5.1185Y-2.7291
X5.1185Y-2.8291
X5.1185Y-2.9291
X5.1185Y-3.0291
X5.2756Y-1.9291
X5.2756Y-2.0291
X5.2756Y-2.1291
X5.2756Y-2.2291
X5.2756Y-2.3291
X5.2756Y-2.4291
X5.2756Y-2.5291
X5.2756Y-2.6291
X5.2756Y-2.7291
X5.2756Y-2.8291
X5.2756Y-2.9291
X5.2756Y-3.0291
X5.3756Y-1.9291
X5.3756Y-2.0291
X5.3756Y-2.1291
X5.3756Y-2.2291
X5.3756Y-2.3291
X5.3756Y-2.4291
X5.3756Y-2.5291
X5.3756Y-2.6291
X5.3756Y-2.7291
X5.3756Y-2.8291
X5.3756Y-2.9291
X5.3756Y-3.0291
X5.4921Y-2.3031
X5.4921Y-2.6575
X5.5921Y-2.3031
X5.5921Y-2.6575
X5.6921Y-2.3031
X5.6921Y-2.6575
X5.7951Y-2.3031
X5.7951Y-2.6575
X5.8951Y-2.3031
X5.8951Y-2.6575
X5.9951Y-2.3031
X5.9951Y-2.6575
X6.098Y-2.3031
X6.098Y-2.6575
X6.198Y-2.3031
X6.198Y-2.6575
X6.298Y-2.3031
X6.298Y-2.6575
X6.401Y-2.3031
X6.401Y-2.6575
X6.501Y-2.3031
X6.501Y-2.6575
X6.601Y-2.3031
X6.601Y-2.6575
X6.7039Y-2.3031
X6.7039Y-2.6575
X6.8039Y-2.3031
X6.8039Y-2.6575
X6.9039Y-2.3031
X6.9039Y-2.6575
X7.0069Y-2.3031
X7.0069Y-2.6575
X7.1069Y-2.3031
X7.1069Y-2.6575
X7.2069Y-2.3031
X7.2069Y-2.6575
X7.3228Y-1.9291
X7.3228Y-2.0291
X7.3228Y-2.1291
X7.3228Y-2.2291
X7.3228Y-2.3291
X7.3228Y-2.4291
X7.3228Y-2.5291
X7.3228Y-2.6291
X7.3228Y-2.7291
X7.3228Y-2.8291
X7.3228Y-2.9291
X7.3228Y-3.0291
X7.4228Y-1.9291
X7.4228Y-2.0291
X7.4228Y-2.1291
X7.4228Y-2.2291
X7.4228Y-2.3291
X7.4228Y-2.4291
X7.4228Y-2.5291
X7.4228Y-2.6291
X7.4228Y-2.7291
X7.4228Y-2.8291
X7.4228Y-2.9291
X7.4228Y-3.0291
T3
X5.5197Y-2.7756
X5.5197Y-3.0315
X5.5205Y-1.9291
X5.5205Y-2.185
X5.6969Y-2.7756
X5.6969Y-3.0315
X5.6976Y-1.9291
X5.6976Y-2.185
X5.8154Y-2.7756
X5.8154Y-3.0315
X5.816Y-1.9291
X5.816Y-2.185
X5.9925Y-2.7756
X5.9925Y-3.0315
X5.9931Y-1.9291
X5.9931Y-2.185
X6.111Y-2.7756
X6.111Y-3.0315
X6.1115Y-1.9291
X6.1115Y-2.185
X6.2882Y-2.7756
X6.2882Y-3.0315
X6.2887Y-1.9291
X6.2887Y-2.185
X6.4067Y-2.7756
X6.4067Y-3.0315
X6.407Y-1.9291
X6.407Y-2.185
X6.5839Y-2.7756
X6.5839Y-3.0315
X6.5842Y-1.9291
X6.5842Y-2.185
X6.7024Y-2.7756
X6.7024Y-3.0315
X6.7025Y-1.9291
X6.7025Y-2.185
X6.8795Y-2.7756
X6.8795Y-3.0315
X6.8797Y-1.9291
X6.8797Y-2.185
X6.998Y-1.9291
X6.998Y-2.185
X6.998Y-2.7756
X6.998Y-3.0315
X7.1752Y-1.9291
X7.1752Y-2.185
X7.1752Y-2.7756
X7.1752Y-3.0315
T4
X3.8661Y-2.3102
X3.8661Y-2.6504
X4.0157Y-2.3102
X4.0157Y-2.6504
T5
X3.937Y-1.9685
X3.937Y-2.9921
X7.6378Y-1.9685
X7.6378Y-2.9921
T0
M30
