%TF.GenerationSoftware,KiCad,Pcbnew,7.0.6*%
%TF.CreationDate,2023-08-04T15:36:24+02:00*%
%TF.ProjectId,Debug_BreakBoard,44656275-675f-4427-9265-616b426f6172,rev?*%
%TF.SameCoordinates,Original*%
%TF.FileFunction,Legend,Bot*%
%TF.FilePolarity,Positive*%
%FSLAX46Y46*%
G04 Gerber Fmt 4.6, Leading zero omitted, Abs format (unit mm)*
G04 Created by KiCad (PCBNEW 7.0.6) date 2023-08-04 15:36:24*
%MOMM*%
%LPD*%
G01*
G04 APERTURE LIST*
%ADD10C,0.150000*%
%ADD11C,0.125000*%
%ADD12C,0.300000*%
G04 APERTURE END LIST*
D10*
X138000000Y-63000000D02*
X184000000Y-63000000D01*
X168800455Y-48000000D02*
X168800455Y-78000000D01*
X146000455Y-48000000D02*
X146000455Y-78000000D01*
X176400455Y-48000824D02*
X176400455Y-78000824D01*
X153600455Y-48000000D02*
X153600455Y-78000000D01*
X161200455Y-48000000D02*
X161200455Y-78000000D01*
D11*
X142417121Y-60162904D02*
X142345693Y-60186714D01*
X142345693Y-60186714D02*
X142321883Y-60210523D01*
X142321883Y-60210523D02*
X142298074Y-60258142D01*
X142298074Y-60258142D02*
X142298074Y-60329571D01*
X142298074Y-60329571D02*
X142321883Y-60377190D01*
X142321883Y-60377190D02*
X142345693Y-60401000D01*
X142345693Y-60401000D02*
X142393312Y-60424809D01*
X142393312Y-60424809D02*
X142583788Y-60424809D01*
X142583788Y-60424809D02*
X142583788Y-59924809D01*
X142583788Y-59924809D02*
X142417121Y-59924809D01*
X142417121Y-59924809D02*
X142369502Y-59948619D01*
X142369502Y-59948619D02*
X142345693Y-59972428D01*
X142345693Y-59972428D02*
X142321883Y-60020047D01*
X142321883Y-60020047D02*
X142321883Y-60067666D01*
X142321883Y-60067666D02*
X142345693Y-60115285D01*
X142345693Y-60115285D02*
X142369502Y-60139095D01*
X142369502Y-60139095D02*
X142417121Y-60162904D01*
X142417121Y-60162904D02*
X142583788Y-60162904D01*
X142155216Y-59924809D02*
X141869502Y-59924809D01*
X142012359Y-60424809D02*
X142012359Y-59924809D01*
X141702836Y-60424809D02*
X141702836Y-59924809D01*
X141702836Y-59924809D02*
X141417122Y-60424809D01*
X141417122Y-60424809D02*
X141417122Y-59924809D01*
D10*
X113394300Y-72399997D02*
X113060966Y-72399997D01*
X113760966Y-72633330D02*
X113394300Y-72399997D01*
X113394300Y-72399997D02*
X113760966Y-72166663D01*
X113060966Y-71833330D02*
X113094300Y-71899997D01*
X113094300Y-71899997D02*
X113127633Y-71933330D01*
X113127633Y-71933330D02*
X113194300Y-71966663D01*
X113194300Y-71966663D02*
X113394300Y-71966663D01*
X113394300Y-71966663D02*
X113460966Y-71933330D01*
X113460966Y-71933330D02*
X113494300Y-71899997D01*
X113494300Y-71899997D02*
X113527633Y-71833330D01*
X113527633Y-71833330D02*
X113527633Y-71733330D01*
X113527633Y-71733330D02*
X113494300Y-71666663D01*
X113494300Y-71666663D02*
X113460966Y-71633330D01*
X113460966Y-71633330D02*
X113394300Y-71599997D01*
X113394300Y-71599997D02*
X113194300Y-71599997D01*
X113194300Y-71599997D02*
X113127633Y-71633330D01*
X113127633Y-71633330D02*
X113094300Y-71666663D01*
X113094300Y-71666663D02*
X113060966Y-71733330D01*
X113060966Y-71733330D02*
X113060966Y-71833330D01*
X113527633Y-70999997D02*
X113060966Y-70999997D01*
X113527633Y-71299997D02*
X113160966Y-71299997D01*
X113160966Y-71299997D02*
X113094300Y-71266664D01*
X113094300Y-71266664D02*
X113060966Y-71199997D01*
X113060966Y-71199997D02*
X113060966Y-71099997D01*
X113060966Y-71099997D02*
X113094300Y-71033330D01*
X113094300Y-71033330D02*
X113127633Y-70999997D01*
X113060966Y-70133331D02*
X113527633Y-70133331D01*
X113460966Y-70133331D02*
X113494300Y-70099998D01*
X113494300Y-70099998D02*
X113527633Y-70033331D01*
X113527633Y-70033331D02*
X113527633Y-69933331D01*
X113527633Y-69933331D02*
X113494300Y-69866664D01*
X113494300Y-69866664D02*
X113427633Y-69833331D01*
X113427633Y-69833331D02*
X113060966Y-69833331D01*
X113427633Y-69833331D02*
X113494300Y-69799998D01*
X113494300Y-69799998D02*
X113527633Y-69733331D01*
X113527633Y-69733331D02*
X113527633Y-69633331D01*
X113527633Y-69633331D02*
X113494300Y-69566664D01*
X113494300Y-69566664D02*
X113427633Y-69533331D01*
X113427633Y-69533331D02*
X113060966Y-69533331D01*
X113527633Y-68899998D02*
X113060966Y-68899998D01*
X113527633Y-69199998D02*
X113160966Y-69199998D01*
X113160966Y-69199998D02*
X113094300Y-69166665D01*
X113094300Y-69166665D02*
X113060966Y-69099998D01*
X113060966Y-69099998D02*
X113060966Y-68999998D01*
X113060966Y-68999998D02*
X113094300Y-68933331D01*
X113094300Y-68933331D02*
X113127633Y-68899998D01*
X113094300Y-68599998D02*
X113060966Y-68533332D01*
X113060966Y-68533332D02*
X113060966Y-68399998D01*
X113060966Y-68399998D02*
X113094300Y-68333332D01*
X113094300Y-68333332D02*
X113160966Y-68299998D01*
X113160966Y-68299998D02*
X113194300Y-68299998D01*
X113194300Y-68299998D02*
X113260966Y-68333332D01*
X113260966Y-68333332D02*
X113294300Y-68399998D01*
X113294300Y-68399998D02*
X113294300Y-68499998D01*
X113294300Y-68499998D02*
X113327633Y-68566665D01*
X113327633Y-68566665D02*
X113394300Y-68599998D01*
X113394300Y-68599998D02*
X113427633Y-68599998D01*
X113427633Y-68599998D02*
X113494300Y-68566665D01*
X113494300Y-68566665D02*
X113527633Y-68499998D01*
X113527633Y-68499998D02*
X113527633Y-68399998D01*
X113527633Y-68399998D02*
X113494300Y-68333332D01*
X113527633Y-68099998D02*
X113527633Y-67833331D01*
X113760966Y-67999998D02*
X113160966Y-67999998D01*
X113160966Y-67999998D02*
X113094300Y-67966665D01*
X113094300Y-67966665D02*
X113060966Y-67899998D01*
X113060966Y-67899998D02*
X113060966Y-67833331D01*
X113094300Y-66766665D02*
X113060966Y-66833332D01*
X113060966Y-66833332D02*
X113060966Y-66966665D01*
X113060966Y-66966665D02*
X113094300Y-67033332D01*
X113094300Y-67033332D02*
X113127633Y-67066665D01*
X113127633Y-67066665D02*
X113194300Y-67099998D01*
X113194300Y-67099998D02*
X113394300Y-67099998D01*
X113394300Y-67099998D02*
X113460966Y-67066665D01*
X113460966Y-67066665D02*
X113494300Y-67033332D01*
X113494300Y-67033332D02*
X113527633Y-66966665D01*
X113527633Y-66966665D02*
X113527633Y-66833332D01*
X113527633Y-66833332D02*
X113494300Y-66766665D01*
X113060966Y-66466665D02*
X113760966Y-66466665D01*
X113060966Y-66166665D02*
X113427633Y-66166665D01*
X113427633Y-66166665D02*
X113494300Y-66199998D01*
X113494300Y-66199998D02*
X113527633Y-66266665D01*
X113527633Y-66266665D02*
X113527633Y-66366665D01*
X113527633Y-66366665D02*
X113494300Y-66433332D01*
X113494300Y-66433332D02*
X113460966Y-66466665D01*
X113060966Y-65733332D02*
X113094300Y-65799999D01*
X113094300Y-65799999D02*
X113127633Y-65833332D01*
X113127633Y-65833332D02*
X113194300Y-65866665D01*
X113194300Y-65866665D02*
X113394300Y-65866665D01*
X113394300Y-65866665D02*
X113460966Y-65833332D01*
X113460966Y-65833332D02*
X113494300Y-65799999D01*
X113494300Y-65799999D02*
X113527633Y-65733332D01*
X113527633Y-65733332D02*
X113527633Y-65633332D01*
X113527633Y-65633332D02*
X113494300Y-65566665D01*
X113494300Y-65566665D02*
X113460966Y-65533332D01*
X113460966Y-65533332D02*
X113394300Y-65499999D01*
X113394300Y-65499999D02*
X113194300Y-65499999D01*
X113194300Y-65499999D02*
X113127633Y-65533332D01*
X113127633Y-65533332D02*
X113094300Y-65566665D01*
X113094300Y-65566665D02*
X113060966Y-65633332D01*
X113060966Y-65633332D02*
X113060966Y-65733332D01*
X113060966Y-65099999D02*
X113094300Y-65166666D01*
X113094300Y-65166666D02*
X113127633Y-65199999D01*
X113127633Y-65199999D02*
X113194300Y-65233332D01*
X113194300Y-65233332D02*
X113394300Y-65233332D01*
X113394300Y-65233332D02*
X113460966Y-65199999D01*
X113460966Y-65199999D02*
X113494300Y-65166666D01*
X113494300Y-65166666D02*
X113527633Y-65099999D01*
X113527633Y-65099999D02*
X113527633Y-64999999D01*
X113527633Y-64999999D02*
X113494300Y-64933332D01*
X113494300Y-64933332D02*
X113460966Y-64899999D01*
X113460966Y-64899999D02*
X113394300Y-64866666D01*
X113394300Y-64866666D02*
X113194300Y-64866666D01*
X113194300Y-64866666D02*
X113127633Y-64899999D01*
X113127633Y-64899999D02*
X113094300Y-64933332D01*
X113094300Y-64933332D02*
X113060966Y-64999999D01*
X113060966Y-64999999D02*
X113060966Y-65099999D01*
X113094300Y-64599999D02*
X113060966Y-64533333D01*
X113060966Y-64533333D02*
X113060966Y-64399999D01*
X113060966Y-64399999D02*
X113094300Y-64333333D01*
X113094300Y-64333333D02*
X113160966Y-64299999D01*
X113160966Y-64299999D02*
X113194300Y-64299999D01*
X113194300Y-64299999D02*
X113260966Y-64333333D01*
X113260966Y-64333333D02*
X113294300Y-64399999D01*
X113294300Y-64399999D02*
X113294300Y-64499999D01*
X113294300Y-64499999D02*
X113327633Y-64566666D01*
X113327633Y-64566666D02*
X113394300Y-64599999D01*
X113394300Y-64599999D02*
X113427633Y-64599999D01*
X113427633Y-64599999D02*
X113494300Y-64566666D01*
X113494300Y-64566666D02*
X113527633Y-64499999D01*
X113527633Y-64499999D02*
X113527633Y-64399999D01*
X113527633Y-64399999D02*
X113494300Y-64333333D01*
X113094300Y-63733332D02*
X113060966Y-63799999D01*
X113060966Y-63799999D02*
X113060966Y-63933332D01*
X113060966Y-63933332D02*
X113094300Y-63999999D01*
X113094300Y-63999999D02*
X113160966Y-64033332D01*
X113160966Y-64033332D02*
X113427633Y-64033332D01*
X113427633Y-64033332D02*
X113494300Y-63999999D01*
X113494300Y-63999999D02*
X113527633Y-63933332D01*
X113527633Y-63933332D02*
X113527633Y-63799999D01*
X113527633Y-63799999D02*
X113494300Y-63733332D01*
X113494300Y-63733332D02*
X113427633Y-63699999D01*
X113427633Y-63699999D02*
X113360966Y-63699999D01*
X113360966Y-63699999D02*
X113294300Y-64033332D01*
X113727633Y-62499999D02*
X113760966Y-62566666D01*
X113760966Y-62566666D02*
X113760966Y-62666666D01*
X113760966Y-62666666D02*
X113727633Y-62766666D01*
X113727633Y-62766666D02*
X113660966Y-62833333D01*
X113660966Y-62833333D02*
X113594300Y-62866666D01*
X113594300Y-62866666D02*
X113460966Y-62899999D01*
X113460966Y-62899999D02*
X113360966Y-62899999D01*
X113360966Y-62899999D02*
X113227633Y-62866666D01*
X113227633Y-62866666D02*
X113160966Y-62833333D01*
X113160966Y-62833333D02*
X113094300Y-62766666D01*
X113094300Y-62766666D02*
X113060966Y-62666666D01*
X113060966Y-62666666D02*
X113060966Y-62599999D01*
X113060966Y-62599999D02*
X113094300Y-62499999D01*
X113094300Y-62499999D02*
X113127633Y-62466666D01*
X113127633Y-62466666D02*
X113360966Y-62466666D01*
X113360966Y-62466666D02*
X113360966Y-62599999D01*
X113060966Y-62166666D02*
X113760966Y-62166666D01*
X113760966Y-62166666D02*
X113060966Y-61766666D01*
X113060966Y-61766666D02*
X113760966Y-61766666D01*
X113060966Y-61433333D02*
X113760966Y-61433333D01*
X113760966Y-61433333D02*
X113760966Y-61266666D01*
X113760966Y-61266666D02*
X113727633Y-61166666D01*
X113727633Y-61166666D02*
X113660966Y-61100000D01*
X113660966Y-61100000D02*
X113594300Y-61066666D01*
X113594300Y-61066666D02*
X113460966Y-61033333D01*
X113460966Y-61033333D02*
X113360966Y-61033333D01*
X113360966Y-61033333D02*
X113227633Y-61066666D01*
X113227633Y-61066666D02*
X113160966Y-61100000D01*
X113160966Y-61100000D02*
X113094300Y-61166666D01*
X113094300Y-61166666D02*
X113060966Y-61266666D01*
X113060966Y-61266666D02*
X113060966Y-61433333D01*
X113094300Y-60700000D02*
X113060966Y-60700000D01*
X113060966Y-60700000D02*
X112994300Y-60733333D01*
X112994300Y-60733333D02*
X112960966Y-60766666D01*
X113060966Y-59866667D02*
X113760966Y-59866667D01*
X113494300Y-59866667D02*
X113527633Y-59800000D01*
X113527633Y-59800000D02*
X113527633Y-59666667D01*
X113527633Y-59666667D02*
X113494300Y-59600000D01*
X113494300Y-59600000D02*
X113460966Y-59566667D01*
X113460966Y-59566667D02*
X113394300Y-59533334D01*
X113394300Y-59533334D02*
X113194300Y-59533334D01*
X113194300Y-59533334D02*
X113127633Y-59566667D01*
X113127633Y-59566667D02*
X113094300Y-59600000D01*
X113094300Y-59600000D02*
X113060966Y-59666667D01*
X113060966Y-59666667D02*
X113060966Y-59800000D01*
X113060966Y-59800000D02*
X113094300Y-59866667D01*
X113527633Y-58933334D02*
X113060966Y-58933334D01*
X113527633Y-59233334D02*
X113160966Y-59233334D01*
X113160966Y-59233334D02*
X113094300Y-59200001D01*
X113094300Y-59200001D02*
X113060966Y-59133334D01*
X113060966Y-59133334D02*
X113060966Y-59033334D01*
X113060966Y-59033334D02*
X113094300Y-58966667D01*
X113094300Y-58966667D02*
X113127633Y-58933334D01*
X113527633Y-58700001D02*
X113527633Y-58433334D01*
X113760966Y-58600001D02*
X113160966Y-58600001D01*
X113160966Y-58600001D02*
X113094300Y-58566668D01*
X113094300Y-58566668D02*
X113060966Y-58500001D01*
X113060966Y-58500001D02*
X113060966Y-58433334D01*
X113527633Y-57666668D02*
X113060966Y-57666668D01*
X113460966Y-57666668D02*
X113494300Y-57633335D01*
X113494300Y-57633335D02*
X113527633Y-57566668D01*
X113527633Y-57566668D02*
X113527633Y-57466668D01*
X113527633Y-57466668D02*
X113494300Y-57400001D01*
X113494300Y-57400001D02*
X113427633Y-57366668D01*
X113427633Y-57366668D02*
X113060966Y-57366668D01*
X113060966Y-56933335D02*
X113094300Y-57000002D01*
X113094300Y-57000002D02*
X113127633Y-57033335D01*
X113127633Y-57033335D02*
X113194300Y-57066668D01*
X113194300Y-57066668D02*
X113394300Y-57066668D01*
X113394300Y-57066668D02*
X113460966Y-57033335D01*
X113460966Y-57033335D02*
X113494300Y-57000002D01*
X113494300Y-57000002D02*
X113527633Y-56933335D01*
X113527633Y-56933335D02*
X113527633Y-56833335D01*
X113527633Y-56833335D02*
X113494300Y-56766668D01*
X113494300Y-56766668D02*
X113460966Y-56733335D01*
X113460966Y-56733335D02*
X113394300Y-56700002D01*
X113394300Y-56700002D02*
X113194300Y-56700002D01*
X113194300Y-56700002D02*
X113127633Y-56733335D01*
X113127633Y-56733335D02*
X113094300Y-56766668D01*
X113094300Y-56766668D02*
X113060966Y-56833335D01*
X113060966Y-56833335D02*
X113060966Y-56933335D01*
X113527633Y-56500002D02*
X113527633Y-56233335D01*
X113760966Y-56400002D02*
X113160966Y-56400002D01*
X113160966Y-56400002D02*
X113094300Y-56366669D01*
X113094300Y-56366669D02*
X113060966Y-56300002D01*
X113060966Y-56300002D02*
X113060966Y-56233335D01*
X113760966Y-55566669D02*
X113060966Y-55333336D01*
X113060966Y-55333336D02*
X113760966Y-55100002D01*
X113060966Y-54866669D02*
X113760966Y-54866669D01*
X113760966Y-54866669D02*
X113760966Y-54700002D01*
X113760966Y-54700002D02*
X113727633Y-54600002D01*
X113727633Y-54600002D02*
X113660966Y-54533336D01*
X113660966Y-54533336D02*
X113594300Y-54500002D01*
X113594300Y-54500002D02*
X113460966Y-54466669D01*
X113460966Y-54466669D02*
X113360966Y-54466669D01*
X113360966Y-54466669D02*
X113227633Y-54500002D01*
X113227633Y-54500002D02*
X113160966Y-54533336D01*
X113160966Y-54533336D02*
X113094300Y-54600002D01*
X113094300Y-54600002D02*
X113060966Y-54700002D01*
X113060966Y-54700002D02*
X113060966Y-54866669D01*
X113060966Y-54166669D02*
X113760966Y-54166669D01*
X113760966Y-54166669D02*
X113760966Y-54000002D01*
X113760966Y-54000002D02*
X113727633Y-53900002D01*
X113727633Y-53900002D02*
X113660966Y-53833336D01*
X113660966Y-53833336D02*
X113594300Y-53800002D01*
X113594300Y-53800002D02*
X113460966Y-53766669D01*
X113460966Y-53766669D02*
X113360966Y-53766669D01*
X113360966Y-53766669D02*
X113227633Y-53800002D01*
X113227633Y-53800002D02*
X113160966Y-53833336D01*
X113160966Y-53833336D02*
X113094300Y-53900002D01*
X113094300Y-53900002D02*
X113060966Y-54000002D01*
X113060966Y-54000002D02*
X113060966Y-54166669D01*
X113127633Y-53466669D02*
X113094300Y-53433336D01*
X113094300Y-53433336D02*
X113060966Y-53466669D01*
X113060966Y-53466669D02*
X113094300Y-53500002D01*
X113094300Y-53500002D02*
X113127633Y-53466669D01*
X113127633Y-53466669D02*
X113060966Y-53466669D01*
X112267300Y-74466662D02*
X111933966Y-74466662D01*
X112633966Y-74699995D02*
X112267300Y-74466662D01*
X112267300Y-74466662D02*
X112633966Y-74233328D01*
X111933966Y-73899995D02*
X111967300Y-73966662D01*
X111967300Y-73966662D02*
X112000633Y-73999995D01*
X112000633Y-73999995D02*
X112067300Y-74033328D01*
X112067300Y-74033328D02*
X112267300Y-74033328D01*
X112267300Y-74033328D02*
X112333966Y-73999995D01*
X112333966Y-73999995D02*
X112367300Y-73966662D01*
X112367300Y-73966662D02*
X112400633Y-73899995D01*
X112400633Y-73899995D02*
X112400633Y-73799995D01*
X112400633Y-73799995D02*
X112367300Y-73733328D01*
X112367300Y-73733328D02*
X112333966Y-73699995D01*
X112333966Y-73699995D02*
X112267300Y-73666662D01*
X112267300Y-73666662D02*
X112067300Y-73666662D01*
X112067300Y-73666662D02*
X112000633Y-73699995D01*
X112000633Y-73699995D02*
X111967300Y-73733328D01*
X111967300Y-73733328D02*
X111933966Y-73799995D01*
X111933966Y-73799995D02*
X111933966Y-73899995D01*
X112400633Y-73066662D02*
X111933966Y-73066662D01*
X112400633Y-73366662D02*
X112033966Y-73366662D01*
X112033966Y-73366662D02*
X111967300Y-73333329D01*
X111967300Y-73333329D02*
X111933966Y-73266662D01*
X111933966Y-73266662D02*
X111933966Y-73166662D01*
X111933966Y-73166662D02*
X111967300Y-73099995D01*
X111967300Y-73099995D02*
X112000633Y-73066662D01*
X111967300Y-71899996D02*
X111933966Y-71966663D01*
X111933966Y-71966663D02*
X111933966Y-72099996D01*
X111933966Y-72099996D02*
X111967300Y-72166663D01*
X111967300Y-72166663D02*
X112000633Y-72199996D01*
X112000633Y-72199996D02*
X112067300Y-72233329D01*
X112067300Y-72233329D02*
X112267300Y-72233329D01*
X112267300Y-72233329D02*
X112333966Y-72199996D01*
X112333966Y-72199996D02*
X112367300Y-72166663D01*
X112367300Y-72166663D02*
X112400633Y-72099996D01*
X112400633Y-72099996D02*
X112400633Y-71966663D01*
X112400633Y-71966663D02*
X112367300Y-71899996D01*
X111933966Y-71299996D02*
X112300633Y-71299996D01*
X112300633Y-71299996D02*
X112367300Y-71333329D01*
X112367300Y-71333329D02*
X112400633Y-71399996D01*
X112400633Y-71399996D02*
X112400633Y-71533329D01*
X112400633Y-71533329D02*
X112367300Y-71599996D01*
X111967300Y-71299996D02*
X111933966Y-71366663D01*
X111933966Y-71366663D02*
X111933966Y-71533329D01*
X111933966Y-71533329D02*
X111967300Y-71599996D01*
X111967300Y-71599996D02*
X112033966Y-71633329D01*
X112033966Y-71633329D02*
X112100633Y-71633329D01*
X112100633Y-71633329D02*
X112167300Y-71599996D01*
X112167300Y-71599996D02*
X112200633Y-71533329D01*
X112200633Y-71533329D02*
X112200633Y-71366663D01*
X112200633Y-71366663D02*
X112233966Y-71299996D01*
X112400633Y-70966663D02*
X111933966Y-70966663D01*
X112333966Y-70966663D02*
X112367300Y-70933330D01*
X112367300Y-70933330D02*
X112400633Y-70866663D01*
X112400633Y-70866663D02*
X112400633Y-70766663D01*
X112400633Y-70766663D02*
X112367300Y-70699996D01*
X112367300Y-70699996D02*
X112300633Y-70666663D01*
X112300633Y-70666663D02*
X111933966Y-70666663D01*
X112400633Y-69499997D02*
X111933966Y-69499997D01*
X112400633Y-69799997D02*
X112033966Y-69799997D01*
X112033966Y-69799997D02*
X111967300Y-69766664D01*
X111967300Y-69766664D02*
X111933966Y-69699997D01*
X111933966Y-69699997D02*
X111933966Y-69599997D01*
X111933966Y-69599997D02*
X111967300Y-69533330D01*
X111967300Y-69533330D02*
X112000633Y-69499997D01*
X111967300Y-69199997D02*
X111933966Y-69133331D01*
X111933966Y-69133331D02*
X111933966Y-68999997D01*
X111933966Y-68999997D02*
X111967300Y-68933331D01*
X111967300Y-68933331D02*
X112033966Y-68899997D01*
X112033966Y-68899997D02*
X112067300Y-68899997D01*
X112067300Y-68899997D02*
X112133966Y-68933331D01*
X112133966Y-68933331D02*
X112167300Y-68999997D01*
X112167300Y-68999997D02*
X112167300Y-69099997D01*
X112167300Y-69099997D02*
X112200633Y-69166664D01*
X112200633Y-69166664D02*
X112267300Y-69199997D01*
X112267300Y-69199997D02*
X112300633Y-69199997D01*
X112300633Y-69199997D02*
X112367300Y-69166664D01*
X112367300Y-69166664D02*
X112400633Y-69099997D01*
X112400633Y-69099997D02*
X112400633Y-68999997D01*
X112400633Y-68999997D02*
X112367300Y-68933331D01*
X111967300Y-68333330D02*
X111933966Y-68399997D01*
X111933966Y-68399997D02*
X111933966Y-68533330D01*
X111933966Y-68533330D02*
X111967300Y-68599997D01*
X111967300Y-68599997D02*
X112033966Y-68633330D01*
X112033966Y-68633330D02*
X112300633Y-68633330D01*
X112300633Y-68633330D02*
X112367300Y-68599997D01*
X112367300Y-68599997D02*
X112400633Y-68533330D01*
X112400633Y-68533330D02*
X112400633Y-68399997D01*
X112400633Y-68399997D02*
X112367300Y-68333330D01*
X112367300Y-68333330D02*
X112300633Y-68299997D01*
X112300633Y-68299997D02*
X112233966Y-68299997D01*
X112233966Y-68299997D02*
X112167300Y-68633330D01*
X112633966Y-67566664D02*
X111933966Y-67333331D01*
X111933966Y-67333331D02*
X112633966Y-67099997D01*
X111933966Y-66866664D02*
X112633966Y-66866664D01*
X112633966Y-66866664D02*
X112633966Y-66699997D01*
X112633966Y-66699997D02*
X112600633Y-66599997D01*
X112600633Y-66599997D02*
X112533966Y-66533331D01*
X112533966Y-66533331D02*
X112467300Y-66499997D01*
X112467300Y-66499997D02*
X112333966Y-66466664D01*
X112333966Y-66466664D02*
X112233966Y-66466664D01*
X112233966Y-66466664D02*
X112100633Y-66499997D01*
X112100633Y-66499997D02*
X112033966Y-66533331D01*
X112033966Y-66533331D02*
X111967300Y-66599997D01*
X111967300Y-66599997D02*
X111933966Y-66699997D01*
X111933966Y-66699997D02*
X111933966Y-66866664D01*
X111933966Y-66166664D02*
X112633966Y-66166664D01*
X112633966Y-66166664D02*
X112633966Y-65999997D01*
X112633966Y-65999997D02*
X112600633Y-65899997D01*
X112600633Y-65899997D02*
X112533966Y-65833331D01*
X112533966Y-65833331D02*
X112467300Y-65799997D01*
X112467300Y-65799997D02*
X112333966Y-65766664D01*
X112333966Y-65766664D02*
X112233966Y-65766664D01*
X112233966Y-65766664D02*
X112100633Y-65799997D01*
X112100633Y-65799997D02*
X112033966Y-65833331D01*
X112033966Y-65833331D02*
X111967300Y-65899997D01*
X111967300Y-65899997D02*
X111933966Y-65999997D01*
X111933966Y-65999997D02*
X111933966Y-66166664D01*
X112400633Y-65033331D02*
X112400633Y-64766664D01*
X112633966Y-64933331D02*
X112033966Y-64933331D01*
X112033966Y-64933331D02*
X111967300Y-64899998D01*
X111967300Y-64899998D02*
X111933966Y-64833331D01*
X111933966Y-64833331D02*
X111933966Y-64766664D01*
X111933966Y-64433331D02*
X111967300Y-64499998D01*
X111967300Y-64499998D02*
X112000633Y-64533331D01*
X112000633Y-64533331D02*
X112067300Y-64566664D01*
X112067300Y-64566664D02*
X112267300Y-64566664D01*
X112267300Y-64566664D02*
X112333966Y-64533331D01*
X112333966Y-64533331D02*
X112367300Y-64499998D01*
X112367300Y-64499998D02*
X112400633Y-64433331D01*
X112400633Y-64433331D02*
X112400633Y-64333331D01*
X112400633Y-64333331D02*
X112367300Y-64266664D01*
X112367300Y-64266664D02*
X112333966Y-64233331D01*
X112333966Y-64233331D02*
X112267300Y-64199998D01*
X112267300Y-64199998D02*
X112067300Y-64199998D01*
X112067300Y-64199998D02*
X112000633Y-64233331D01*
X112000633Y-64233331D02*
X111967300Y-64266664D01*
X111967300Y-64266664D02*
X111933966Y-64333331D01*
X111933966Y-64333331D02*
X111933966Y-64433331D01*
X111967300Y-63066665D02*
X111933966Y-63133332D01*
X111933966Y-63133332D02*
X111933966Y-63266665D01*
X111933966Y-63266665D02*
X111967300Y-63333332D01*
X111967300Y-63333332D02*
X112000633Y-63366665D01*
X112000633Y-63366665D02*
X112067300Y-63399998D01*
X112067300Y-63399998D02*
X112267300Y-63399998D01*
X112267300Y-63399998D02*
X112333966Y-63366665D01*
X112333966Y-63366665D02*
X112367300Y-63333332D01*
X112367300Y-63333332D02*
X112400633Y-63266665D01*
X112400633Y-63266665D02*
X112400633Y-63133332D01*
X112400633Y-63133332D02*
X112367300Y-63066665D01*
X111933966Y-62666665D02*
X111967300Y-62733332D01*
X111967300Y-62733332D02*
X112000633Y-62766665D01*
X112000633Y-62766665D02*
X112067300Y-62799998D01*
X112067300Y-62799998D02*
X112267300Y-62799998D01*
X112267300Y-62799998D02*
X112333966Y-62766665D01*
X112333966Y-62766665D02*
X112367300Y-62733332D01*
X112367300Y-62733332D02*
X112400633Y-62666665D01*
X112400633Y-62666665D02*
X112400633Y-62566665D01*
X112400633Y-62566665D02*
X112367300Y-62499998D01*
X112367300Y-62499998D02*
X112333966Y-62466665D01*
X112333966Y-62466665D02*
X112267300Y-62433332D01*
X112267300Y-62433332D02*
X112067300Y-62433332D01*
X112067300Y-62433332D02*
X112000633Y-62466665D01*
X112000633Y-62466665D02*
X111967300Y-62499998D01*
X111967300Y-62499998D02*
X111933966Y-62566665D01*
X111933966Y-62566665D02*
X111933966Y-62666665D01*
X112400633Y-62133332D02*
X111933966Y-62133332D01*
X112333966Y-62133332D02*
X112367300Y-62099999D01*
X112367300Y-62099999D02*
X112400633Y-62033332D01*
X112400633Y-62033332D02*
X112400633Y-61933332D01*
X112400633Y-61933332D02*
X112367300Y-61866665D01*
X112367300Y-61866665D02*
X112300633Y-61833332D01*
X112300633Y-61833332D02*
X111933966Y-61833332D01*
X112400633Y-61499999D02*
X111933966Y-61499999D01*
X112333966Y-61499999D02*
X112367300Y-61466666D01*
X112367300Y-61466666D02*
X112400633Y-61399999D01*
X112400633Y-61399999D02*
X112400633Y-61299999D01*
X112400633Y-61299999D02*
X112367300Y-61233332D01*
X112367300Y-61233332D02*
X112300633Y-61199999D01*
X112300633Y-61199999D02*
X111933966Y-61199999D01*
X111967300Y-60599999D02*
X111933966Y-60666666D01*
X111933966Y-60666666D02*
X111933966Y-60799999D01*
X111933966Y-60799999D02*
X111967300Y-60866666D01*
X111967300Y-60866666D02*
X112033966Y-60899999D01*
X112033966Y-60899999D02*
X112300633Y-60899999D01*
X112300633Y-60899999D02*
X112367300Y-60866666D01*
X112367300Y-60866666D02*
X112400633Y-60799999D01*
X112400633Y-60799999D02*
X112400633Y-60666666D01*
X112400633Y-60666666D02*
X112367300Y-60599999D01*
X112367300Y-60599999D02*
X112300633Y-60566666D01*
X112300633Y-60566666D02*
X112233966Y-60566666D01*
X112233966Y-60566666D02*
X112167300Y-60899999D01*
X111967300Y-59966666D02*
X111933966Y-60033333D01*
X111933966Y-60033333D02*
X111933966Y-60166666D01*
X111933966Y-60166666D02*
X111967300Y-60233333D01*
X111967300Y-60233333D02*
X112000633Y-60266666D01*
X112000633Y-60266666D02*
X112067300Y-60299999D01*
X112067300Y-60299999D02*
X112267300Y-60299999D01*
X112267300Y-60299999D02*
X112333966Y-60266666D01*
X112333966Y-60266666D02*
X112367300Y-60233333D01*
X112367300Y-60233333D02*
X112400633Y-60166666D01*
X112400633Y-60166666D02*
X112400633Y-60033333D01*
X112400633Y-60033333D02*
X112367300Y-59966666D01*
X112400633Y-59766666D02*
X112400633Y-59499999D01*
X112633966Y-59666666D02*
X112033966Y-59666666D01*
X112033966Y-59666666D02*
X111967300Y-59633333D01*
X111967300Y-59633333D02*
X111933966Y-59566666D01*
X111933966Y-59566666D02*
X111933966Y-59499999D01*
X112400633Y-58833333D02*
X112400633Y-58566666D01*
X112633966Y-58733333D02*
X112033966Y-58733333D01*
X112033966Y-58733333D02*
X111967300Y-58700000D01*
X111967300Y-58700000D02*
X111933966Y-58633333D01*
X111933966Y-58633333D02*
X111933966Y-58566666D01*
X111933966Y-58233333D02*
X111967300Y-58300000D01*
X111967300Y-58300000D02*
X112000633Y-58333333D01*
X112000633Y-58333333D02*
X112067300Y-58366666D01*
X112067300Y-58366666D02*
X112267300Y-58366666D01*
X112267300Y-58366666D02*
X112333966Y-58333333D01*
X112333966Y-58333333D02*
X112367300Y-58300000D01*
X112367300Y-58300000D02*
X112400633Y-58233333D01*
X112400633Y-58233333D02*
X112400633Y-58133333D01*
X112400633Y-58133333D02*
X112367300Y-58066666D01*
X112367300Y-58066666D02*
X112333966Y-58033333D01*
X112333966Y-58033333D02*
X112267300Y-58000000D01*
X112267300Y-58000000D02*
X112067300Y-58000000D01*
X112067300Y-58000000D02*
X112000633Y-58033333D01*
X112000633Y-58033333D02*
X111967300Y-58066666D01*
X111967300Y-58066666D02*
X111933966Y-58133333D01*
X111933966Y-58133333D02*
X111933966Y-58233333D01*
X111933966Y-56866667D02*
X112300633Y-56866667D01*
X112300633Y-56866667D02*
X112367300Y-56900000D01*
X112367300Y-56900000D02*
X112400633Y-56966667D01*
X112400633Y-56966667D02*
X112400633Y-57100000D01*
X112400633Y-57100000D02*
X112367300Y-57166667D01*
X111967300Y-56866667D02*
X111933966Y-56933334D01*
X111933966Y-56933334D02*
X111933966Y-57100000D01*
X111933966Y-57100000D02*
X111967300Y-57166667D01*
X111967300Y-57166667D02*
X112033966Y-57200000D01*
X112033966Y-57200000D02*
X112100633Y-57200000D01*
X112100633Y-57200000D02*
X112167300Y-57166667D01*
X112167300Y-57166667D02*
X112200633Y-57100000D01*
X112200633Y-57100000D02*
X112200633Y-56933334D01*
X112200633Y-56933334D02*
X112233966Y-56866667D01*
X112400633Y-56533334D02*
X111933966Y-56533334D01*
X112333966Y-56533334D02*
X112367300Y-56500001D01*
X112367300Y-56500001D02*
X112400633Y-56433334D01*
X112400633Y-56433334D02*
X112400633Y-56333334D01*
X112400633Y-56333334D02*
X112367300Y-56266667D01*
X112367300Y-56266667D02*
X112300633Y-56233334D01*
X112300633Y-56233334D02*
X111933966Y-56233334D01*
X111933966Y-55800001D02*
X111967300Y-55866668D01*
X111967300Y-55866668D02*
X112000633Y-55900001D01*
X112000633Y-55900001D02*
X112067300Y-55933334D01*
X112067300Y-55933334D02*
X112267300Y-55933334D01*
X112267300Y-55933334D02*
X112333966Y-55900001D01*
X112333966Y-55900001D02*
X112367300Y-55866668D01*
X112367300Y-55866668D02*
X112400633Y-55800001D01*
X112400633Y-55800001D02*
X112400633Y-55700001D01*
X112400633Y-55700001D02*
X112367300Y-55633334D01*
X112367300Y-55633334D02*
X112333966Y-55600001D01*
X112333966Y-55600001D02*
X112267300Y-55566668D01*
X112267300Y-55566668D02*
X112067300Y-55566668D01*
X112067300Y-55566668D02*
X112000633Y-55600001D01*
X112000633Y-55600001D02*
X111967300Y-55633334D01*
X111967300Y-55633334D02*
X111933966Y-55700001D01*
X111933966Y-55700001D02*
X111933966Y-55800001D01*
X112400633Y-55366668D02*
X112400633Y-55100001D01*
X112633966Y-55266668D02*
X112033966Y-55266668D01*
X112033966Y-55266668D02*
X111967300Y-55233335D01*
X111967300Y-55233335D02*
X111933966Y-55166668D01*
X111933966Y-55166668D02*
X111933966Y-55100001D01*
X111933966Y-54866668D02*
X112633966Y-54866668D01*
X111933966Y-54566668D02*
X112300633Y-54566668D01*
X112300633Y-54566668D02*
X112367300Y-54600001D01*
X112367300Y-54600001D02*
X112400633Y-54666668D01*
X112400633Y-54666668D02*
X112400633Y-54766668D01*
X112400633Y-54766668D02*
X112367300Y-54833335D01*
X112367300Y-54833335D02*
X112333966Y-54866668D01*
X111967300Y-53966668D02*
X111933966Y-54033335D01*
X111933966Y-54033335D02*
X111933966Y-54166668D01*
X111933966Y-54166668D02*
X111967300Y-54233335D01*
X111967300Y-54233335D02*
X112033966Y-54266668D01*
X112033966Y-54266668D02*
X112300633Y-54266668D01*
X112300633Y-54266668D02*
X112367300Y-54233335D01*
X112367300Y-54233335D02*
X112400633Y-54166668D01*
X112400633Y-54166668D02*
X112400633Y-54033335D01*
X112400633Y-54033335D02*
X112367300Y-53966668D01*
X112367300Y-53966668D02*
X112300633Y-53933335D01*
X112300633Y-53933335D02*
X112233966Y-53933335D01*
X112233966Y-53933335D02*
X112167300Y-54266668D01*
X111933966Y-53633335D02*
X112400633Y-53633335D01*
X112267300Y-53633335D02*
X112333966Y-53600002D01*
X112333966Y-53600002D02*
X112367300Y-53566668D01*
X112367300Y-53566668D02*
X112400633Y-53500002D01*
X112400633Y-53500002D02*
X112400633Y-53433335D01*
X112400633Y-52666669D02*
X111700633Y-52666669D01*
X112367300Y-52666669D02*
X112400633Y-52600002D01*
X112400633Y-52600002D02*
X112400633Y-52466669D01*
X112400633Y-52466669D02*
X112367300Y-52400002D01*
X112367300Y-52400002D02*
X112333966Y-52366669D01*
X112333966Y-52366669D02*
X112267300Y-52333336D01*
X112267300Y-52333336D02*
X112067300Y-52333336D01*
X112067300Y-52333336D02*
X112000633Y-52366669D01*
X112000633Y-52366669D02*
X111967300Y-52400002D01*
X111967300Y-52400002D02*
X111933966Y-52466669D01*
X111933966Y-52466669D02*
X111933966Y-52600002D01*
X111933966Y-52600002D02*
X111967300Y-52666669D01*
X111933966Y-52033336D02*
X112400633Y-52033336D01*
X112633966Y-52033336D02*
X112600633Y-52066669D01*
X112600633Y-52066669D02*
X112567300Y-52033336D01*
X112567300Y-52033336D02*
X112600633Y-52000003D01*
X112600633Y-52000003D02*
X112633966Y-52033336D01*
X112633966Y-52033336D02*
X112567300Y-52033336D01*
X112400633Y-51700003D02*
X111933966Y-51700003D01*
X112333966Y-51700003D02*
X112367300Y-51666670D01*
X112367300Y-51666670D02*
X112400633Y-51600003D01*
X112400633Y-51600003D02*
X112400633Y-51500003D01*
X112400633Y-51500003D02*
X112367300Y-51433336D01*
X112367300Y-51433336D02*
X112300633Y-51400003D01*
X112300633Y-51400003D02*
X111933966Y-51400003D01*
X110806966Y-74333329D02*
X111173633Y-74333329D01*
X111173633Y-74333329D02*
X111240300Y-74366662D01*
X111240300Y-74366662D02*
X111273633Y-74433329D01*
X111273633Y-74433329D02*
X111273633Y-74566662D01*
X111273633Y-74566662D02*
X111240300Y-74633329D01*
X110840300Y-74333329D02*
X110806966Y-74399996D01*
X110806966Y-74399996D02*
X110806966Y-74566662D01*
X110806966Y-74566662D02*
X110840300Y-74633329D01*
X110840300Y-74633329D02*
X110906966Y-74666662D01*
X110906966Y-74666662D02*
X110973633Y-74666662D01*
X110973633Y-74666662D02*
X111040300Y-74633329D01*
X111040300Y-74633329D02*
X111073633Y-74566662D01*
X111073633Y-74566662D02*
X111073633Y-74399996D01*
X111073633Y-74399996D02*
X111106966Y-74333329D01*
X111273633Y-73999996D02*
X110806966Y-73999996D01*
X111206966Y-73999996D02*
X111240300Y-73966663D01*
X111240300Y-73966663D02*
X111273633Y-73899996D01*
X111273633Y-73899996D02*
X111273633Y-73799996D01*
X111273633Y-73799996D02*
X111240300Y-73733329D01*
X111240300Y-73733329D02*
X111173633Y-73699996D01*
X111173633Y-73699996D02*
X110806966Y-73699996D01*
X110806966Y-73066663D02*
X111506966Y-73066663D01*
X110840300Y-73066663D02*
X110806966Y-73133330D01*
X110806966Y-73133330D02*
X110806966Y-73266663D01*
X110806966Y-73266663D02*
X110840300Y-73333330D01*
X110840300Y-73333330D02*
X110873633Y-73366663D01*
X110873633Y-73366663D02*
X110940300Y-73399996D01*
X110940300Y-73399996D02*
X111140300Y-73399996D01*
X111140300Y-73399996D02*
X111206966Y-73366663D01*
X111206966Y-73366663D02*
X111240300Y-73333330D01*
X111240300Y-73333330D02*
X111273633Y-73266663D01*
X111273633Y-73266663D02*
X111273633Y-73133330D01*
X111273633Y-73133330D02*
X111240300Y-73066663D01*
X110806966Y-72199997D02*
X111273633Y-72199997D01*
X111506966Y-72199997D02*
X111473633Y-72233330D01*
X111473633Y-72233330D02*
X111440300Y-72199997D01*
X111440300Y-72199997D02*
X111473633Y-72166664D01*
X111473633Y-72166664D02*
X111506966Y-72199997D01*
X111506966Y-72199997D02*
X111440300Y-72199997D01*
X111273633Y-71966664D02*
X111273633Y-71699997D01*
X111506966Y-71866664D02*
X110906966Y-71866664D01*
X110906966Y-71866664D02*
X110840300Y-71833331D01*
X110840300Y-71833331D02*
X110806966Y-71766664D01*
X110806966Y-71766664D02*
X110806966Y-71699997D01*
X111273633Y-70999998D02*
X110806966Y-70866664D01*
X110806966Y-70866664D02*
X111140300Y-70733331D01*
X111140300Y-70733331D02*
X110806966Y-70599998D01*
X110806966Y-70599998D02*
X111273633Y-70466664D01*
X110806966Y-70199998D02*
X111273633Y-70199998D01*
X111506966Y-70199998D02*
X111473633Y-70233331D01*
X111473633Y-70233331D02*
X111440300Y-70199998D01*
X111440300Y-70199998D02*
X111473633Y-70166665D01*
X111473633Y-70166665D02*
X111506966Y-70199998D01*
X111506966Y-70199998D02*
X111440300Y-70199998D01*
X110806966Y-69766665D02*
X110840300Y-69833332D01*
X110840300Y-69833332D02*
X110906966Y-69866665D01*
X110906966Y-69866665D02*
X111506966Y-69866665D01*
X110806966Y-69399998D02*
X110840300Y-69466665D01*
X110840300Y-69466665D02*
X110906966Y-69499998D01*
X110906966Y-69499998D02*
X111506966Y-69499998D01*
X110806966Y-68599998D02*
X111506966Y-68599998D01*
X111240300Y-68599998D02*
X111273633Y-68533331D01*
X111273633Y-68533331D02*
X111273633Y-68399998D01*
X111273633Y-68399998D02*
X111240300Y-68333331D01*
X111240300Y-68333331D02*
X111206966Y-68299998D01*
X111206966Y-68299998D02*
X111140300Y-68266665D01*
X111140300Y-68266665D02*
X110940300Y-68266665D01*
X110940300Y-68266665D02*
X110873633Y-68299998D01*
X110873633Y-68299998D02*
X110840300Y-68333331D01*
X110840300Y-68333331D02*
X110806966Y-68399998D01*
X110806966Y-68399998D02*
X110806966Y-68533331D01*
X110806966Y-68533331D02*
X110840300Y-68599998D01*
X110840300Y-67699998D02*
X110806966Y-67766665D01*
X110806966Y-67766665D02*
X110806966Y-67899998D01*
X110806966Y-67899998D02*
X110840300Y-67966665D01*
X110840300Y-67966665D02*
X110906966Y-67999998D01*
X110906966Y-67999998D02*
X111173633Y-67999998D01*
X111173633Y-67999998D02*
X111240300Y-67966665D01*
X111240300Y-67966665D02*
X111273633Y-67899998D01*
X111273633Y-67899998D02*
X111273633Y-67766665D01*
X111273633Y-67766665D02*
X111240300Y-67699998D01*
X111240300Y-67699998D02*
X111173633Y-67666665D01*
X111173633Y-67666665D02*
X111106966Y-67666665D01*
X111106966Y-67666665D02*
X111040300Y-67999998D01*
X110840300Y-67066665D02*
X110806966Y-67133332D01*
X110806966Y-67133332D02*
X110806966Y-67266665D01*
X110806966Y-67266665D02*
X110840300Y-67333332D01*
X110840300Y-67333332D02*
X110873633Y-67366665D01*
X110873633Y-67366665D02*
X110940300Y-67399998D01*
X110940300Y-67399998D02*
X111140300Y-67399998D01*
X111140300Y-67399998D02*
X111206966Y-67366665D01*
X111206966Y-67366665D02*
X111240300Y-67333332D01*
X111240300Y-67333332D02*
X111273633Y-67266665D01*
X111273633Y-67266665D02*
X111273633Y-67133332D01*
X111273633Y-67133332D02*
X111240300Y-67066665D01*
X110806966Y-66666665D02*
X110840300Y-66733332D01*
X110840300Y-66733332D02*
X110873633Y-66766665D01*
X110873633Y-66766665D02*
X110940300Y-66799998D01*
X110940300Y-66799998D02*
X111140300Y-66799998D01*
X111140300Y-66799998D02*
X111206966Y-66766665D01*
X111206966Y-66766665D02*
X111240300Y-66733332D01*
X111240300Y-66733332D02*
X111273633Y-66666665D01*
X111273633Y-66666665D02*
X111273633Y-66566665D01*
X111273633Y-66566665D02*
X111240300Y-66499998D01*
X111240300Y-66499998D02*
X111206966Y-66466665D01*
X111206966Y-66466665D02*
X111140300Y-66433332D01*
X111140300Y-66433332D02*
X110940300Y-66433332D01*
X110940300Y-66433332D02*
X110873633Y-66466665D01*
X110873633Y-66466665D02*
X110840300Y-66499998D01*
X110840300Y-66499998D02*
X110806966Y-66566665D01*
X110806966Y-66566665D02*
X110806966Y-66666665D01*
X110806966Y-66133332D02*
X111273633Y-66133332D01*
X111206966Y-66133332D02*
X111240300Y-66099999D01*
X111240300Y-66099999D02*
X111273633Y-66033332D01*
X111273633Y-66033332D02*
X111273633Y-65933332D01*
X111273633Y-65933332D02*
X111240300Y-65866665D01*
X111240300Y-65866665D02*
X111173633Y-65833332D01*
X111173633Y-65833332D02*
X110806966Y-65833332D01*
X111173633Y-65833332D02*
X111240300Y-65799999D01*
X111240300Y-65799999D02*
X111273633Y-65733332D01*
X111273633Y-65733332D02*
X111273633Y-65633332D01*
X111273633Y-65633332D02*
X111240300Y-65566665D01*
X111240300Y-65566665D02*
X111173633Y-65533332D01*
X111173633Y-65533332D02*
X110806966Y-65533332D01*
X110840300Y-64933332D02*
X110806966Y-64999999D01*
X110806966Y-64999999D02*
X110806966Y-65133332D01*
X110806966Y-65133332D02*
X110840300Y-65199999D01*
X110840300Y-65199999D02*
X110906966Y-65233332D01*
X110906966Y-65233332D02*
X111173633Y-65233332D01*
X111173633Y-65233332D02*
X111240300Y-65199999D01*
X111240300Y-65199999D02*
X111273633Y-65133332D01*
X111273633Y-65133332D02*
X111273633Y-64999999D01*
X111273633Y-64999999D02*
X111240300Y-64933332D01*
X111240300Y-64933332D02*
X111173633Y-64899999D01*
X111173633Y-64899999D02*
X111106966Y-64899999D01*
X111106966Y-64899999D02*
X111040300Y-65233332D01*
X110840300Y-63766666D02*
X110806966Y-63833333D01*
X110806966Y-63833333D02*
X110806966Y-63966666D01*
X110806966Y-63966666D02*
X110840300Y-64033333D01*
X110840300Y-64033333D02*
X110873633Y-64066666D01*
X110873633Y-64066666D02*
X110940300Y-64099999D01*
X110940300Y-64099999D02*
X111140300Y-64099999D01*
X111140300Y-64099999D02*
X111206966Y-64066666D01*
X111206966Y-64066666D02*
X111240300Y-64033333D01*
X111240300Y-64033333D02*
X111273633Y-63966666D01*
X111273633Y-63966666D02*
X111273633Y-63833333D01*
X111273633Y-63833333D02*
X111240300Y-63766666D01*
X110806966Y-63366666D02*
X110840300Y-63433333D01*
X110840300Y-63433333D02*
X110873633Y-63466666D01*
X110873633Y-63466666D02*
X110940300Y-63499999D01*
X110940300Y-63499999D02*
X111140300Y-63499999D01*
X111140300Y-63499999D02*
X111206966Y-63466666D01*
X111206966Y-63466666D02*
X111240300Y-63433333D01*
X111240300Y-63433333D02*
X111273633Y-63366666D01*
X111273633Y-63366666D02*
X111273633Y-63266666D01*
X111273633Y-63266666D02*
X111240300Y-63199999D01*
X111240300Y-63199999D02*
X111206966Y-63166666D01*
X111206966Y-63166666D02*
X111140300Y-63133333D01*
X111140300Y-63133333D02*
X110940300Y-63133333D01*
X110940300Y-63133333D02*
X110873633Y-63166666D01*
X110873633Y-63166666D02*
X110840300Y-63199999D01*
X110840300Y-63199999D02*
X110806966Y-63266666D01*
X110806966Y-63266666D02*
X110806966Y-63366666D01*
X110806966Y-62833333D02*
X111273633Y-62833333D01*
X111206966Y-62833333D02*
X111240300Y-62800000D01*
X111240300Y-62800000D02*
X111273633Y-62733333D01*
X111273633Y-62733333D02*
X111273633Y-62633333D01*
X111273633Y-62633333D02*
X111240300Y-62566666D01*
X111240300Y-62566666D02*
X111173633Y-62533333D01*
X111173633Y-62533333D02*
X110806966Y-62533333D01*
X111173633Y-62533333D02*
X111240300Y-62500000D01*
X111240300Y-62500000D02*
X111273633Y-62433333D01*
X111273633Y-62433333D02*
X111273633Y-62333333D01*
X111273633Y-62333333D02*
X111240300Y-62266666D01*
X111240300Y-62266666D02*
X111173633Y-62233333D01*
X111173633Y-62233333D02*
X110806966Y-62233333D01*
X110806966Y-61900000D02*
X111273633Y-61900000D01*
X111206966Y-61900000D02*
X111240300Y-61866667D01*
X111240300Y-61866667D02*
X111273633Y-61800000D01*
X111273633Y-61800000D02*
X111273633Y-61700000D01*
X111273633Y-61700000D02*
X111240300Y-61633333D01*
X111240300Y-61633333D02*
X111173633Y-61600000D01*
X111173633Y-61600000D02*
X110806966Y-61600000D01*
X111173633Y-61600000D02*
X111240300Y-61566667D01*
X111240300Y-61566667D02*
X111273633Y-61500000D01*
X111273633Y-61500000D02*
X111273633Y-61400000D01*
X111273633Y-61400000D02*
X111240300Y-61333333D01*
X111240300Y-61333333D02*
X111173633Y-61300000D01*
X111173633Y-61300000D02*
X110806966Y-61300000D01*
X110806966Y-60866667D02*
X110840300Y-60933334D01*
X110840300Y-60933334D02*
X110873633Y-60966667D01*
X110873633Y-60966667D02*
X110940300Y-61000000D01*
X110940300Y-61000000D02*
X111140300Y-61000000D01*
X111140300Y-61000000D02*
X111206966Y-60966667D01*
X111206966Y-60966667D02*
X111240300Y-60933334D01*
X111240300Y-60933334D02*
X111273633Y-60866667D01*
X111273633Y-60866667D02*
X111273633Y-60766667D01*
X111273633Y-60766667D02*
X111240300Y-60700000D01*
X111240300Y-60700000D02*
X111206966Y-60666667D01*
X111206966Y-60666667D02*
X111140300Y-60633334D01*
X111140300Y-60633334D02*
X110940300Y-60633334D01*
X110940300Y-60633334D02*
X110873633Y-60666667D01*
X110873633Y-60666667D02*
X110840300Y-60700000D01*
X110840300Y-60700000D02*
X110806966Y-60766667D01*
X110806966Y-60766667D02*
X110806966Y-60866667D01*
X111273633Y-60333334D02*
X110806966Y-60333334D01*
X111206966Y-60333334D02*
X111240300Y-60300001D01*
X111240300Y-60300001D02*
X111273633Y-60233334D01*
X111273633Y-60233334D02*
X111273633Y-60133334D01*
X111273633Y-60133334D02*
X111240300Y-60066667D01*
X111240300Y-60066667D02*
X111173633Y-60033334D01*
X111173633Y-60033334D02*
X110806966Y-60033334D01*
X111273633Y-59266668D02*
X111273633Y-59000001D01*
X110806966Y-59166668D02*
X111406966Y-59166668D01*
X111406966Y-59166668D02*
X111473633Y-59133335D01*
X111473633Y-59133335D02*
X111506966Y-59066668D01*
X111506966Y-59066668D02*
X111506966Y-59000001D01*
X110806966Y-58666668D02*
X110840300Y-58733335D01*
X110840300Y-58733335D02*
X110873633Y-58766668D01*
X110873633Y-58766668D02*
X110940300Y-58800001D01*
X110940300Y-58800001D02*
X111140300Y-58800001D01*
X111140300Y-58800001D02*
X111206966Y-58766668D01*
X111206966Y-58766668D02*
X111240300Y-58733335D01*
X111240300Y-58733335D02*
X111273633Y-58666668D01*
X111273633Y-58666668D02*
X111273633Y-58566668D01*
X111273633Y-58566668D02*
X111240300Y-58500001D01*
X111240300Y-58500001D02*
X111206966Y-58466668D01*
X111206966Y-58466668D02*
X111140300Y-58433335D01*
X111140300Y-58433335D02*
X110940300Y-58433335D01*
X110940300Y-58433335D02*
X110873633Y-58466668D01*
X110873633Y-58466668D02*
X110840300Y-58500001D01*
X110840300Y-58500001D02*
X110806966Y-58566668D01*
X110806966Y-58566668D02*
X110806966Y-58666668D01*
X110806966Y-58133335D02*
X111273633Y-58133335D01*
X111140300Y-58133335D02*
X111206966Y-58100002D01*
X111206966Y-58100002D02*
X111240300Y-58066668D01*
X111240300Y-58066668D02*
X111273633Y-58000002D01*
X111273633Y-58000002D02*
X111273633Y-57933335D01*
X110806966Y-56866669D02*
X111173633Y-56866669D01*
X111173633Y-56866669D02*
X111240300Y-56900002D01*
X111240300Y-56900002D02*
X111273633Y-56966669D01*
X111273633Y-56966669D02*
X111273633Y-57100002D01*
X111273633Y-57100002D02*
X111240300Y-57166669D01*
X110840300Y-56866669D02*
X110806966Y-56933336D01*
X110806966Y-56933336D02*
X110806966Y-57100002D01*
X110806966Y-57100002D02*
X110840300Y-57166669D01*
X110840300Y-57166669D02*
X110906966Y-57200002D01*
X110906966Y-57200002D02*
X110973633Y-57200002D01*
X110973633Y-57200002D02*
X111040300Y-57166669D01*
X111040300Y-57166669D02*
X111073633Y-57100002D01*
X111073633Y-57100002D02*
X111073633Y-56933336D01*
X111073633Y-56933336D02*
X111106966Y-56866669D01*
X110806966Y-56433336D02*
X110840300Y-56500003D01*
X110840300Y-56500003D02*
X110906966Y-56533336D01*
X110906966Y-56533336D02*
X111506966Y-56533336D01*
X110806966Y-56066669D02*
X110840300Y-56133336D01*
X110840300Y-56133336D02*
X110906966Y-56166669D01*
X110906966Y-56166669D02*
X111506966Y-56166669D01*
X110806966Y-55266669D02*
X111506966Y-55266669D01*
X111240300Y-55266669D02*
X111273633Y-55200002D01*
X111273633Y-55200002D02*
X111273633Y-55066669D01*
X111273633Y-55066669D02*
X111240300Y-55000002D01*
X111240300Y-55000002D02*
X111206966Y-54966669D01*
X111206966Y-54966669D02*
X111140300Y-54933336D01*
X111140300Y-54933336D02*
X110940300Y-54933336D01*
X110940300Y-54933336D02*
X110873633Y-54966669D01*
X110873633Y-54966669D02*
X110840300Y-55000002D01*
X110840300Y-55000002D02*
X110806966Y-55066669D01*
X110806966Y-55066669D02*
X110806966Y-55200002D01*
X110806966Y-55200002D02*
X110840300Y-55266669D01*
X111273633Y-54333336D02*
X110806966Y-54333336D01*
X111273633Y-54633336D02*
X110906966Y-54633336D01*
X110906966Y-54633336D02*
X110840300Y-54600003D01*
X110840300Y-54600003D02*
X110806966Y-54533336D01*
X110806966Y-54533336D02*
X110806966Y-54433336D01*
X110806966Y-54433336D02*
X110840300Y-54366669D01*
X110840300Y-54366669D02*
X110873633Y-54333336D01*
X111273633Y-54100003D02*
X111273633Y-53833336D01*
X111506966Y-54000003D02*
X110906966Y-54000003D01*
X110906966Y-54000003D02*
X110840300Y-53966670D01*
X110840300Y-53966670D02*
X110806966Y-53900003D01*
X110806966Y-53900003D02*
X110806966Y-53833336D01*
X111273633Y-53700003D02*
X111273633Y-53433336D01*
X111506966Y-53600003D02*
X110906966Y-53600003D01*
X110906966Y-53600003D02*
X110840300Y-53566670D01*
X110840300Y-53566670D02*
X110806966Y-53500003D01*
X110806966Y-53500003D02*
X110806966Y-53433336D01*
X110806966Y-53100003D02*
X110840300Y-53166670D01*
X110840300Y-53166670D02*
X110873633Y-53200003D01*
X110873633Y-53200003D02*
X110940300Y-53233336D01*
X110940300Y-53233336D02*
X111140300Y-53233336D01*
X111140300Y-53233336D02*
X111206966Y-53200003D01*
X111206966Y-53200003D02*
X111240300Y-53166670D01*
X111240300Y-53166670D02*
X111273633Y-53100003D01*
X111273633Y-53100003D02*
X111273633Y-53000003D01*
X111273633Y-53000003D02*
X111240300Y-52933336D01*
X111240300Y-52933336D02*
X111206966Y-52900003D01*
X111206966Y-52900003D02*
X111140300Y-52866670D01*
X111140300Y-52866670D02*
X110940300Y-52866670D01*
X110940300Y-52866670D02*
X110873633Y-52900003D01*
X110873633Y-52900003D02*
X110840300Y-52933336D01*
X110840300Y-52933336D02*
X110806966Y-53000003D01*
X110806966Y-53000003D02*
X110806966Y-53100003D01*
X111273633Y-52566670D02*
X110806966Y-52566670D01*
X111206966Y-52566670D02*
X111240300Y-52533337D01*
X111240300Y-52533337D02*
X111273633Y-52466670D01*
X111273633Y-52466670D02*
X111273633Y-52366670D01*
X111273633Y-52366670D02*
X111240300Y-52300003D01*
X111240300Y-52300003D02*
X111173633Y-52266670D01*
X111173633Y-52266670D02*
X110806966Y-52266670D01*
X110840300Y-51966670D02*
X110806966Y-51900004D01*
X110806966Y-51900004D02*
X110806966Y-51766670D01*
X110806966Y-51766670D02*
X110840300Y-51700004D01*
X110840300Y-51700004D02*
X110906966Y-51666670D01*
X110906966Y-51666670D02*
X110940300Y-51666670D01*
X110940300Y-51666670D02*
X111006966Y-51700004D01*
X111006966Y-51700004D02*
X111040300Y-51766670D01*
X111040300Y-51766670D02*
X111040300Y-51866670D01*
X111040300Y-51866670D02*
X111073633Y-51933337D01*
X111073633Y-51933337D02*
X111140300Y-51966670D01*
X111140300Y-51966670D02*
X111173633Y-51966670D01*
X111173633Y-51966670D02*
X111240300Y-51933337D01*
X111240300Y-51933337D02*
X111273633Y-51866670D01*
X111273633Y-51866670D02*
X111273633Y-51766670D01*
X111273633Y-51766670D02*
X111240300Y-51700004D01*
X110873633Y-51366670D02*
X110840300Y-51333337D01*
X110840300Y-51333337D02*
X110806966Y-51366670D01*
X110806966Y-51366670D02*
X110840300Y-51400003D01*
X110840300Y-51400003D02*
X110873633Y-51366670D01*
X110873633Y-51366670D02*
X110806966Y-51366670D01*
D12*
X179619047Y-50909638D02*
X180000000Y-50909638D01*
X180000000Y-50909638D02*
X180190476Y-51004876D01*
X180190476Y-51004876D02*
X180285714Y-51100114D01*
X180285714Y-51100114D02*
X180476190Y-51385828D01*
X180476190Y-51385828D02*
X180571428Y-51766780D01*
X180571428Y-51766780D02*
X180571428Y-52528685D01*
X180571428Y-52528685D02*
X180476190Y-52719161D01*
X180476190Y-52719161D02*
X180380952Y-52814400D01*
X180380952Y-52814400D02*
X180190476Y-52909638D01*
X180190476Y-52909638D02*
X179809523Y-52909638D01*
X179809523Y-52909638D02*
X179619047Y-52814400D01*
X179619047Y-52814400D02*
X179523809Y-52719161D01*
X179523809Y-52719161D02*
X179428571Y-52528685D01*
X179428571Y-52528685D02*
X179428571Y-52052495D01*
X179428571Y-52052495D02*
X179523809Y-51862019D01*
X179523809Y-51862019D02*
X179619047Y-51766780D01*
X179619047Y-51766780D02*
X179809523Y-51671542D01*
X179809523Y-51671542D02*
X180190476Y-51671542D01*
X180190476Y-51671542D02*
X180380952Y-51766780D01*
X180380952Y-51766780D02*
X180476190Y-51862019D01*
X180476190Y-51862019D02*
X180571428Y-52052495D01*
D11*
X157857121Y-65762904D02*
X157785693Y-65786714D01*
X157785693Y-65786714D02*
X157761883Y-65810523D01*
X157761883Y-65810523D02*
X157738074Y-65858142D01*
X157738074Y-65858142D02*
X157738074Y-65929571D01*
X157738074Y-65929571D02*
X157761883Y-65977190D01*
X157761883Y-65977190D02*
X157785693Y-66001000D01*
X157785693Y-66001000D02*
X157833312Y-66024809D01*
X157833312Y-66024809D02*
X158023788Y-66024809D01*
X158023788Y-66024809D02*
X158023788Y-65524809D01*
X158023788Y-65524809D02*
X157857121Y-65524809D01*
X157857121Y-65524809D02*
X157809502Y-65548619D01*
X157809502Y-65548619D02*
X157785693Y-65572428D01*
X157785693Y-65572428D02*
X157761883Y-65620047D01*
X157761883Y-65620047D02*
X157761883Y-65667666D01*
X157761883Y-65667666D02*
X157785693Y-65715285D01*
X157785693Y-65715285D02*
X157809502Y-65739095D01*
X157809502Y-65739095D02*
X157857121Y-65762904D01*
X157857121Y-65762904D02*
X158023788Y-65762904D01*
X157595216Y-65524809D02*
X157309502Y-65524809D01*
X157452359Y-66024809D02*
X157452359Y-65524809D01*
X157142836Y-66024809D02*
X157142836Y-65524809D01*
X157142836Y-65524809D02*
X156857122Y-66024809D01*
X156857122Y-66024809D02*
X156857122Y-65524809D01*
X183381407Y-59948619D02*
X183429026Y-59924809D01*
X183429026Y-59924809D02*
X183500455Y-59924809D01*
X183500455Y-59924809D02*
X183571883Y-59948619D01*
X183571883Y-59948619D02*
X183619502Y-59996238D01*
X183619502Y-59996238D02*
X183643312Y-60043857D01*
X183643312Y-60043857D02*
X183667121Y-60139095D01*
X183667121Y-60139095D02*
X183667121Y-60210523D01*
X183667121Y-60210523D02*
X183643312Y-60305761D01*
X183643312Y-60305761D02*
X183619502Y-60353380D01*
X183619502Y-60353380D02*
X183571883Y-60401000D01*
X183571883Y-60401000D02*
X183500455Y-60424809D01*
X183500455Y-60424809D02*
X183452836Y-60424809D01*
X183452836Y-60424809D02*
X183381407Y-60401000D01*
X183381407Y-60401000D02*
X183357598Y-60377190D01*
X183357598Y-60377190D02*
X183357598Y-60210523D01*
X183357598Y-60210523D02*
X183452836Y-60210523D01*
X183143312Y-60424809D02*
X183143312Y-59924809D01*
X183143312Y-59924809D02*
X182857598Y-60424809D01*
X182857598Y-60424809D02*
X182857598Y-59924809D01*
X182619502Y-60424809D02*
X182619502Y-59924809D01*
X182619502Y-59924809D02*
X182500454Y-59924809D01*
X182500454Y-59924809D02*
X182429026Y-59948619D01*
X182429026Y-59948619D02*
X182381407Y-59996238D01*
X182381407Y-59996238D02*
X182357597Y-60043857D01*
X182357597Y-60043857D02*
X182333788Y-60139095D01*
X182333788Y-60139095D02*
X182333788Y-60210523D01*
X182333788Y-60210523D02*
X182357597Y-60305761D01*
X182357597Y-60305761D02*
X182381407Y-60353380D01*
X182381407Y-60353380D02*
X182429026Y-60401000D01*
X182429026Y-60401000D02*
X182500454Y-60424809D01*
X182500454Y-60424809D02*
X182619502Y-60424809D01*
X163227120Y-65524809D02*
X163060454Y-66024809D01*
X163060454Y-66024809D02*
X162893787Y-65524809D01*
X162727121Y-66024809D02*
X162727121Y-65524809D01*
X162727121Y-65524809D02*
X162608073Y-65524809D01*
X162608073Y-65524809D02*
X162536645Y-65548619D01*
X162536645Y-65548619D02*
X162489026Y-65596238D01*
X162489026Y-65596238D02*
X162465216Y-65643857D01*
X162465216Y-65643857D02*
X162441407Y-65739095D01*
X162441407Y-65739095D02*
X162441407Y-65810523D01*
X162441407Y-65810523D02*
X162465216Y-65905761D01*
X162465216Y-65905761D02*
X162489026Y-65953380D01*
X162489026Y-65953380D02*
X162536645Y-66001000D01*
X162536645Y-66001000D02*
X162608073Y-66024809D01*
X162608073Y-66024809D02*
X162727121Y-66024809D01*
X162227121Y-66024809D02*
X162227121Y-65524809D01*
X162227121Y-65524809D02*
X162108073Y-65524809D01*
X162108073Y-65524809D02*
X162036645Y-65548619D01*
X162036645Y-65548619D02*
X161989026Y-65596238D01*
X161989026Y-65596238D02*
X161965216Y-65643857D01*
X161965216Y-65643857D02*
X161941407Y-65739095D01*
X161941407Y-65739095D02*
X161941407Y-65810523D01*
X161941407Y-65810523D02*
X161965216Y-65905761D01*
X161965216Y-65905761D02*
X161989026Y-65953380D01*
X161989026Y-65953380D02*
X162036645Y-66001000D01*
X162036645Y-66001000D02*
X162108073Y-66024809D01*
X162108073Y-66024809D02*
X162227121Y-66024809D01*
X155507120Y-59924809D02*
X155340454Y-60424809D01*
X155340454Y-60424809D02*
X155173787Y-59924809D01*
X155007121Y-60424809D02*
X155007121Y-59924809D01*
X155007121Y-59924809D02*
X154888073Y-59924809D01*
X154888073Y-59924809D02*
X154816645Y-59948619D01*
X154816645Y-59948619D02*
X154769026Y-59996238D01*
X154769026Y-59996238D02*
X154745216Y-60043857D01*
X154745216Y-60043857D02*
X154721407Y-60139095D01*
X154721407Y-60139095D02*
X154721407Y-60210523D01*
X154721407Y-60210523D02*
X154745216Y-60305761D01*
X154745216Y-60305761D02*
X154769026Y-60353380D01*
X154769026Y-60353380D02*
X154816645Y-60401000D01*
X154816645Y-60401000D02*
X154888073Y-60424809D01*
X154888073Y-60424809D02*
X155007121Y-60424809D01*
X154507121Y-60424809D02*
X154507121Y-59924809D01*
X154507121Y-59924809D02*
X154388073Y-59924809D01*
X154388073Y-59924809D02*
X154316645Y-59948619D01*
X154316645Y-59948619D02*
X154269026Y-59996238D01*
X154269026Y-59996238D02*
X154245216Y-60043857D01*
X154245216Y-60043857D02*
X154221407Y-60139095D01*
X154221407Y-60139095D02*
X154221407Y-60210523D01*
X154221407Y-60210523D02*
X154245216Y-60305761D01*
X154245216Y-60305761D02*
X154269026Y-60353380D01*
X154269026Y-60353380D02*
X154316645Y-60401000D01*
X154316645Y-60401000D02*
X154388073Y-60424809D01*
X154388073Y-60424809D02*
X154507121Y-60424809D01*
D12*
X150190476Y-73766780D02*
X150380952Y-73671542D01*
X150380952Y-73671542D02*
X150476190Y-73576304D01*
X150476190Y-73576304D02*
X150571428Y-73385828D01*
X150571428Y-73385828D02*
X150571428Y-73290590D01*
X150571428Y-73290590D02*
X150476190Y-73100114D01*
X150476190Y-73100114D02*
X150380952Y-73004876D01*
X150380952Y-73004876D02*
X150190476Y-72909638D01*
X150190476Y-72909638D02*
X149809523Y-72909638D01*
X149809523Y-72909638D02*
X149619047Y-73004876D01*
X149619047Y-73004876D02*
X149523809Y-73100114D01*
X149523809Y-73100114D02*
X149428571Y-73290590D01*
X149428571Y-73290590D02*
X149428571Y-73385828D01*
X149428571Y-73385828D02*
X149523809Y-73576304D01*
X149523809Y-73576304D02*
X149619047Y-73671542D01*
X149619047Y-73671542D02*
X149809523Y-73766780D01*
X149809523Y-73766780D02*
X150190476Y-73766780D01*
X150190476Y-73766780D02*
X150380952Y-73862019D01*
X150380952Y-73862019D02*
X150476190Y-73957257D01*
X150476190Y-73957257D02*
X150571428Y-74147733D01*
X150571428Y-74147733D02*
X150571428Y-74528685D01*
X150571428Y-74528685D02*
X150476190Y-74719161D01*
X150476190Y-74719161D02*
X150380952Y-74814400D01*
X150380952Y-74814400D02*
X150190476Y-74909638D01*
X150190476Y-74909638D02*
X149809523Y-74909638D01*
X149809523Y-74909638D02*
X149619047Y-74814400D01*
X149619047Y-74814400D02*
X149523809Y-74719161D01*
X149523809Y-74719161D02*
X149428571Y-74528685D01*
X149428571Y-74528685D02*
X149428571Y-74147733D01*
X149428571Y-74147733D02*
X149523809Y-73957257D01*
X149523809Y-73957257D02*
X149619047Y-73862019D01*
X149619047Y-73862019D02*
X149809523Y-73766780D01*
D11*
X183381407Y-65548619D02*
X183429026Y-65524809D01*
X183429026Y-65524809D02*
X183500455Y-65524809D01*
X183500455Y-65524809D02*
X183571883Y-65548619D01*
X183571883Y-65548619D02*
X183619502Y-65596238D01*
X183619502Y-65596238D02*
X183643312Y-65643857D01*
X183643312Y-65643857D02*
X183667121Y-65739095D01*
X183667121Y-65739095D02*
X183667121Y-65810523D01*
X183667121Y-65810523D02*
X183643312Y-65905761D01*
X183643312Y-65905761D02*
X183619502Y-65953380D01*
X183619502Y-65953380D02*
X183571883Y-66001000D01*
X183571883Y-66001000D02*
X183500455Y-66024809D01*
X183500455Y-66024809D02*
X183452836Y-66024809D01*
X183452836Y-66024809D02*
X183381407Y-66001000D01*
X183381407Y-66001000D02*
X183357598Y-65977190D01*
X183357598Y-65977190D02*
X183357598Y-65810523D01*
X183357598Y-65810523D02*
X183452836Y-65810523D01*
X183143312Y-66024809D02*
X183143312Y-65524809D01*
X183143312Y-65524809D02*
X182857598Y-66024809D01*
X182857598Y-66024809D02*
X182857598Y-65524809D01*
X182619502Y-66024809D02*
X182619502Y-65524809D01*
X182619502Y-65524809D02*
X182500454Y-65524809D01*
X182500454Y-65524809D02*
X182429026Y-65548619D01*
X182429026Y-65548619D02*
X182381407Y-65596238D01*
X182381407Y-65596238D02*
X182357597Y-65643857D01*
X182357597Y-65643857D02*
X182333788Y-65739095D01*
X182333788Y-65739095D02*
X182333788Y-65810523D01*
X182333788Y-65810523D02*
X182357597Y-65905761D01*
X182357597Y-65905761D02*
X182381407Y-65953380D01*
X182381407Y-65953380D02*
X182429026Y-66001000D01*
X182429026Y-66001000D02*
X182500454Y-66024809D01*
X182500454Y-66024809D02*
X182619502Y-66024809D01*
X178667120Y-59924809D02*
X178500454Y-60424809D01*
X178500454Y-60424809D02*
X178333787Y-59924809D01*
X178167121Y-60424809D02*
X178167121Y-59924809D01*
X178167121Y-59924809D02*
X178048073Y-59924809D01*
X178048073Y-59924809D02*
X177976645Y-59948619D01*
X177976645Y-59948619D02*
X177929026Y-59996238D01*
X177929026Y-59996238D02*
X177905216Y-60043857D01*
X177905216Y-60043857D02*
X177881407Y-60139095D01*
X177881407Y-60139095D02*
X177881407Y-60210523D01*
X177881407Y-60210523D02*
X177905216Y-60305761D01*
X177905216Y-60305761D02*
X177929026Y-60353380D01*
X177929026Y-60353380D02*
X177976645Y-60401000D01*
X177976645Y-60401000D02*
X178048073Y-60424809D01*
X178048073Y-60424809D02*
X178167121Y-60424809D01*
X177667121Y-60424809D02*
X177667121Y-59924809D01*
X177667121Y-59924809D02*
X177548073Y-59924809D01*
X177548073Y-59924809D02*
X177476645Y-59948619D01*
X177476645Y-59948619D02*
X177429026Y-59996238D01*
X177429026Y-59996238D02*
X177405216Y-60043857D01*
X177405216Y-60043857D02*
X177381407Y-60139095D01*
X177381407Y-60139095D02*
X177381407Y-60210523D01*
X177381407Y-60210523D02*
X177405216Y-60305761D01*
X177405216Y-60305761D02*
X177429026Y-60353380D01*
X177429026Y-60353380D02*
X177476645Y-60401000D01*
X177476645Y-60401000D02*
X177548073Y-60424809D01*
X177548073Y-60424809D02*
X177667121Y-60424809D01*
X144981407Y-65548619D02*
X145029026Y-65524809D01*
X145029026Y-65524809D02*
X145100455Y-65524809D01*
X145100455Y-65524809D02*
X145171883Y-65548619D01*
X145171883Y-65548619D02*
X145219502Y-65596238D01*
X145219502Y-65596238D02*
X145243312Y-65643857D01*
X145243312Y-65643857D02*
X145267121Y-65739095D01*
X145267121Y-65739095D02*
X145267121Y-65810523D01*
X145267121Y-65810523D02*
X145243312Y-65905761D01*
X145243312Y-65905761D02*
X145219502Y-65953380D01*
X145219502Y-65953380D02*
X145171883Y-66001000D01*
X145171883Y-66001000D02*
X145100455Y-66024809D01*
X145100455Y-66024809D02*
X145052836Y-66024809D01*
X145052836Y-66024809D02*
X144981407Y-66001000D01*
X144981407Y-66001000D02*
X144957598Y-65977190D01*
X144957598Y-65977190D02*
X144957598Y-65810523D01*
X144957598Y-65810523D02*
X145052836Y-65810523D01*
X144743312Y-66024809D02*
X144743312Y-65524809D01*
X144743312Y-65524809D02*
X144457598Y-66024809D01*
X144457598Y-66024809D02*
X144457598Y-65524809D01*
X144219502Y-66024809D02*
X144219502Y-65524809D01*
X144219502Y-65524809D02*
X144100454Y-65524809D01*
X144100454Y-65524809D02*
X144029026Y-65548619D01*
X144029026Y-65548619D02*
X143981407Y-65596238D01*
X143981407Y-65596238D02*
X143957597Y-65643857D01*
X143957597Y-65643857D02*
X143933788Y-65739095D01*
X143933788Y-65739095D02*
X143933788Y-65810523D01*
X143933788Y-65810523D02*
X143957597Y-65905761D01*
X143957597Y-65905761D02*
X143981407Y-65953380D01*
X143981407Y-65953380D02*
X144029026Y-66001000D01*
X144029026Y-66001000D02*
X144100454Y-66024809D01*
X144100454Y-66024809D02*
X144219502Y-66024809D01*
D12*
X172023809Y-50909638D02*
X172976190Y-50909638D01*
X172976190Y-50909638D02*
X173071428Y-51862019D01*
X173071428Y-51862019D02*
X172976190Y-51766780D01*
X172976190Y-51766780D02*
X172785714Y-51671542D01*
X172785714Y-51671542D02*
X172309523Y-51671542D01*
X172309523Y-51671542D02*
X172119047Y-51766780D01*
X172119047Y-51766780D02*
X172023809Y-51862019D01*
X172023809Y-51862019D02*
X171928571Y-52052495D01*
X171928571Y-52052495D02*
X171928571Y-52528685D01*
X171928571Y-52528685D02*
X172023809Y-52719161D01*
X172023809Y-52719161D02*
X172119047Y-52814400D01*
X172119047Y-52814400D02*
X172309523Y-52909638D01*
X172309523Y-52909638D02*
X172785714Y-52909638D01*
X172785714Y-52909638D02*
X172976190Y-52814400D01*
X172976190Y-52814400D02*
X173071428Y-52719161D01*
D11*
X181017121Y-60162904D02*
X180945693Y-60186714D01*
X180945693Y-60186714D02*
X180921883Y-60210523D01*
X180921883Y-60210523D02*
X180898074Y-60258142D01*
X180898074Y-60258142D02*
X180898074Y-60329571D01*
X180898074Y-60329571D02*
X180921883Y-60377190D01*
X180921883Y-60377190D02*
X180945693Y-60401000D01*
X180945693Y-60401000D02*
X180993312Y-60424809D01*
X180993312Y-60424809D02*
X181183788Y-60424809D01*
X181183788Y-60424809D02*
X181183788Y-59924809D01*
X181183788Y-59924809D02*
X181017121Y-59924809D01*
X181017121Y-59924809D02*
X180969502Y-59948619D01*
X180969502Y-59948619D02*
X180945693Y-59972428D01*
X180945693Y-59972428D02*
X180921883Y-60020047D01*
X180921883Y-60020047D02*
X180921883Y-60067666D01*
X180921883Y-60067666D02*
X180945693Y-60115285D01*
X180945693Y-60115285D02*
X180969502Y-60139095D01*
X180969502Y-60139095D02*
X181017121Y-60162904D01*
X181017121Y-60162904D02*
X181183788Y-60162904D01*
X180755216Y-59924809D02*
X180469502Y-59924809D01*
X180612359Y-60424809D02*
X180612359Y-59924809D01*
X180302836Y-60424809D02*
X180302836Y-59924809D01*
X180302836Y-59924809D02*
X180017122Y-60424809D01*
X180017122Y-60424809D02*
X180017122Y-59924809D01*
X170947120Y-65524809D02*
X170780454Y-66024809D01*
X170780454Y-66024809D02*
X170613787Y-65524809D01*
X170447121Y-66024809D02*
X170447121Y-65524809D01*
X170447121Y-65524809D02*
X170328073Y-65524809D01*
X170328073Y-65524809D02*
X170256645Y-65548619D01*
X170256645Y-65548619D02*
X170209026Y-65596238D01*
X170209026Y-65596238D02*
X170185216Y-65643857D01*
X170185216Y-65643857D02*
X170161407Y-65739095D01*
X170161407Y-65739095D02*
X170161407Y-65810523D01*
X170161407Y-65810523D02*
X170185216Y-65905761D01*
X170185216Y-65905761D02*
X170209026Y-65953380D01*
X170209026Y-65953380D02*
X170256645Y-66001000D01*
X170256645Y-66001000D02*
X170328073Y-66024809D01*
X170328073Y-66024809D02*
X170447121Y-66024809D01*
X169947121Y-66024809D02*
X169947121Y-65524809D01*
X169947121Y-65524809D02*
X169828073Y-65524809D01*
X169828073Y-65524809D02*
X169756645Y-65548619D01*
X169756645Y-65548619D02*
X169709026Y-65596238D01*
X169709026Y-65596238D02*
X169685216Y-65643857D01*
X169685216Y-65643857D02*
X169661407Y-65739095D01*
X169661407Y-65739095D02*
X169661407Y-65810523D01*
X169661407Y-65810523D02*
X169685216Y-65905761D01*
X169685216Y-65905761D02*
X169709026Y-65953380D01*
X169709026Y-65953380D02*
X169756645Y-66001000D01*
X169756645Y-66001000D02*
X169828073Y-66024809D01*
X169828073Y-66024809D02*
X169947121Y-66024809D01*
X144981407Y-59948619D02*
X145029026Y-59924809D01*
X145029026Y-59924809D02*
X145100455Y-59924809D01*
X145100455Y-59924809D02*
X145171883Y-59948619D01*
X145171883Y-59948619D02*
X145219502Y-59996238D01*
X145219502Y-59996238D02*
X145243312Y-60043857D01*
X145243312Y-60043857D02*
X145267121Y-60139095D01*
X145267121Y-60139095D02*
X145267121Y-60210523D01*
X145267121Y-60210523D02*
X145243312Y-60305761D01*
X145243312Y-60305761D02*
X145219502Y-60353380D01*
X145219502Y-60353380D02*
X145171883Y-60401000D01*
X145171883Y-60401000D02*
X145100455Y-60424809D01*
X145100455Y-60424809D02*
X145052836Y-60424809D01*
X145052836Y-60424809D02*
X144981407Y-60401000D01*
X144981407Y-60401000D02*
X144957598Y-60377190D01*
X144957598Y-60377190D02*
X144957598Y-60210523D01*
X144957598Y-60210523D02*
X145052836Y-60210523D01*
X144743312Y-60424809D02*
X144743312Y-59924809D01*
X144743312Y-59924809D02*
X144457598Y-60424809D01*
X144457598Y-60424809D02*
X144457598Y-59924809D01*
X144219502Y-60424809D02*
X144219502Y-59924809D01*
X144219502Y-59924809D02*
X144100454Y-59924809D01*
X144100454Y-59924809D02*
X144029026Y-59948619D01*
X144029026Y-59948619D02*
X143981407Y-59996238D01*
X143981407Y-59996238D02*
X143957597Y-60043857D01*
X143957597Y-60043857D02*
X143933788Y-60139095D01*
X143933788Y-60139095D02*
X143933788Y-60210523D01*
X143933788Y-60210523D02*
X143957597Y-60305761D01*
X143957597Y-60305761D02*
X143981407Y-60353380D01*
X143981407Y-60353380D02*
X144029026Y-60401000D01*
X144029026Y-60401000D02*
X144100454Y-60424809D01*
X144100454Y-60424809D02*
X144219502Y-60424809D01*
X140067120Y-65524809D02*
X139900454Y-66024809D01*
X139900454Y-66024809D02*
X139733787Y-65524809D01*
X139567121Y-66024809D02*
X139567121Y-65524809D01*
X139567121Y-65524809D02*
X139448073Y-65524809D01*
X139448073Y-65524809D02*
X139376645Y-65548619D01*
X139376645Y-65548619D02*
X139329026Y-65596238D01*
X139329026Y-65596238D02*
X139305216Y-65643857D01*
X139305216Y-65643857D02*
X139281407Y-65739095D01*
X139281407Y-65739095D02*
X139281407Y-65810523D01*
X139281407Y-65810523D02*
X139305216Y-65905761D01*
X139305216Y-65905761D02*
X139329026Y-65953380D01*
X139329026Y-65953380D02*
X139376645Y-66001000D01*
X139376645Y-66001000D02*
X139448073Y-66024809D01*
X139448073Y-66024809D02*
X139567121Y-66024809D01*
X139067121Y-66024809D02*
X139067121Y-65524809D01*
X139067121Y-65524809D02*
X138948073Y-65524809D01*
X138948073Y-65524809D02*
X138876645Y-65548619D01*
X138876645Y-65548619D02*
X138829026Y-65596238D01*
X138829026Y-65596238D02*
X138805216Y-65643857D01*
X138805216Y-65643857D02*
X138781407Y-65739095D01*
X138781407Y-65739095D02*
X138781407Y-65810523D01*
X138781407Y-65810523D02*
X138805216Y-65905761D01*
X138805216Y-65905761D02*
X138829026Y-65953380D01*
X138829026Y-65953380D02*
X138876645Y-66001000D01*
X138876645Y-66001000D02*
X138948073Y-66024809D01*
X138948073Y-66024809D02*
X139067121Y-66024809D01*
D10*
G36*
X193929325Y-67133067D02*
G01*
X193955818Y-67159560D01*
X193993990Y-67274074D01*
X193993990Y-67520237D01*
X193620180Y-67520237D01*
X193620180Y-67231991D01*
X193654438Y-67163474D01*
X193684846Y-67133066D01*
X193753362Y-67098809D01*
X193860809Y-67098809D01*
X193929325Y-67133067D01*
G37*
G36*
X194405515Y-67180686D02*
G01*
X194435922Y-67211093D01*
X194470180Y-67279609D01*
X194470180Y-67520237D01*
X194143990Y-67520237D01*
X194143990Y-67279609D01*
X194178248Y-67211093D01*
X194208655Y-67180686D01*
X194277171Y-67146428D01*
X194336999Y-67146428D01*
X194405515Y-67180686D01*
G37*
G36*
X194405515Y-66133067D02*
G01*
X194435921Y-66163473D01*
X194470180Y-66231990D01*
X194470180Y-66520237D01*
X194096371Y-66520237D01*
X194096371Y-66231990D01*
X194130629Y-66163473D01*
X194161036Y-66133066D01*
X194229552Y-66098809D01*
X194336999Y-66098809D01*
X194405515Y-66133067D01*
G37*
G36*
X195890909Y-64785049D02*
G01*
X195967896Y-64823543D01*
X196042008Y-64897655D01*
X196080180Y-65012168D01*
X196080180Y-65163094D01*
X195230180Y-65163094D01*
X195230180Y-65012170D01*
X195268351Y-64897656D01*
X195342464Y-64823543D01*
X195419452Y-64785049D01*
X195592986Y-64741666D01*
X195717375Y-64741666D01*
X195890909Y-64785049D01*
G37*
G36*
X192498326Y-64508281D02*
G01*
X192526847Y-64565322D01*
X192526847Y-64720388D01*
X192498326Y-64777430D01*
X192441285Y-64805951D01*
X192360000Y-64805951D01*
X192425237Y-64479761D01*
X192441285Y-64479761D01*
X192498326Y-64508281D01*
G37*
G36*
X194308009Y-64499998D02*
G01*
X193905895Y-64634037D01*
X193905895Y-64365960D01*
X194308009Y-64499998D01*
G37*
G36*
X195539324Y-62871161D02*
G01*
X195565819Y-62897656D01*
X195603990Y-63012169D01*
X195603990Y-63258332D01*
X195230180Y-63258332D01*
X195230180Y-62970086D01*
X195264438Y-62901569D01*
X195294845Y-62871162D01*
X195363362Y-62836904D01*
X195470809Y-62836904D01*
X195539324Y-62871161D01*
G37*
G36*
X196015515Y-62918781D02*
G01*
X196045922Y-62949188D01*
X196080180Y-63017703D01*
X196080180Y-63258332D01*
X195753990Y-63258332D01*
X195753990Y-63017704D01*
X195788248Y-62949188D01*
X195818655Y-62918781D01*
X195887171Y-62884523D01*
X195946999Y-62884523D01*
X196015515Y-62918781D01*
G37*
G36*
X193929325Y-62371162D02*
G01*
X193955818Y-62397655D01*
X193993990Y-62512169D01*
X193993990Y-62758332D01*
X193620180Y-62758332D01*
X193620180Y-62470086D01*
X193654438Y-62401569D01*
X193684846Y-62371161D01*
X193753362Y-62336904D01*
X193860809Y-62336904D01*
X193929325Y-62371162D01*
G37*
G36*
X194405514Y-62418780D02*
G01*
X194435922Y-62449188D01*
X194470180Y-62517704D01*
X194470180Y-62758332D01*
X194143990Y-62758332D01*
X194143990Y-62517704D01*
X194178248Y-62449188D01*
X194208655Y-62418780D01*
X194277171Y-62384523D01*
X194336999Y-62384523D01*
X194405514Y-62418780D01*
G37*
G36*
X194363979Y-61329626D02*
G01*
X194435922Y-61401569D01*
X194470180Y-61470084D01*
X194470180Y-61625150D01*
X194435921Y-61693667D01*
X194363979Y-61765609D01*
X194202613Y-61805951D01*
X193887748Y-61805951D01*
X193726381Y-61765609D01*
X193654438Y-61693666D01*
X193620180Y-61625149D01*
X193620180Y-61470086D01*
X193654438Y-61401569D01*
X193726381Y-61329626D01*
X193887748Y-61289285D01*
X194202613Y-61289285D01*
X194363979Y-61329626D01*
G37*
G36*
X192718528Y-60618382D02*
G01*
X192795515Y-60656875D01*
X192825922Y-60687283D01*
X192860180Y-60755798D01*
X192860180Y-60815627D01*
X192825922Y-60884142D01*
X192795515Y-60914549D01*
X192718527Y-60953043D01*
X192544994Y-60996427D01*
X192325367Y-60996427D01*
X192151833Y-60953043D01*
X192074846Y-60914550D01*
X192044438Y-60884142D01*
X192010180Y-60815625D01*
X192010180Y-60755800D01*
X192044438Y-60687283D01*
X192074845Y-60656876D01*
X192151833Y-60618382D01*
X192325367Y-60574999D01*
X192544994Y-60574999D01*
X192718528Y-60618382D01*
G37*
G36*
X194308009Y-60595237D02*
G01*
X193905895Y-60729275D01*
X193905895Y-60461198D01*
X194308009Y-60595237D01*
G37*
G36*
X194405515Y-59466400D02*
G01*
X194435921Y-59496806D01*
X194470180Y-59565323D01*
X194470180Y-59853570D01*
X194096371Y-59853570D01*
X194096371Y-59565323D01*
X194130629Y-59496806D01*
X194161036Y-59466399D01*
X194229552Y-59432142D01*
X194336999Y-59432142D01*
X194405515Y-59466400D01*
G37*
G36*
X194280909Y-58475525D02*
G01*
X194357895Y-58514018D01*
X194432009Y-58588132D01*
X194470180Y-58702644D01*
X194470180Y-58853570D01*
X193620180Y-58853570D01*
X193620180Y-58702646D01*
X193658351Y-58588132D01*
X193732465Y-58514019D01*
X193809452Y-58475525D01*
X193982986Y-58432142D01*
X194107375Y-58432142D01*
X194280909Y-58475525D01*
G37*
G36*
X196373037Y-67813094D02*
G01*
X191717323Y-67813094D01*
X191717323Y-67595237D01*
X193470180Y-67595237D01*
X193476843Y-67613545D01*
X193480228Y-67632737D01*
X193485412Y-67637087D01*
X193487727Y-67643446D01*
X193504600Y-67653188D01*
X193519528Y-67665714D01*
X193529270Y-67667431D01*
X193532156Y-67669098D01*
X193535438Y-67668519D01*
X193545180Y-67670237D01*
X194545180Y-67670237D01*
X194563488Y-67663573D01*
X194582680Y-67660189D01*
X194587030Y-67655004D01*
X194593389Y-67652690D01*
X194603131Y-67635816D01*
X194615657Y-67620889D01*
X194617374Y-67611146D01*
X194619041Y-67608261D01*
X194618462Y-67604978D01*
X194620180Y-67595237D01*
X194620180Y-67261904D01*
X194618646Y-67257690D01*
X194619688Y-67253329D01*
X194612262Y-67228363D01*
X194564643Y-67133125D01*
X194563453Y-67131999D01*
X194550594Y-67113633D01*
X194502975Y-67066014D01*
X194501493Y-67065323D01*
X194483483Y-67051965D01*
X194388245Y-67004346D01*
X194383791Y-67003833D01*
X194380356Y-67000951D01*
X194354704Y-66996428D01*
X194259466Y-66996428D01*
X194255252Y-66997961D01*
X194250891Y-66996920D01*
X194225925Y-67004346D01*
X194130687Y-67051965D01*
X194129561Y-67053154D01*
X194111195Y-67066014D01*
X194089385Y-67087823D01*
X194089344Y-67087351D01*
X194074404Y-67066014D01*
X194026785Y-67018395D01*
X194025303Y-67017704D01*
X194007293Y-67004346D01*
X193912055Y-66956727D01*
X193907601Y-66956214D01*
X193904166Y-66953332D01*
X193878514Y-66948809D01*
X193735657Y-66948809D01*
X193731443Y-66950342D01*
X193727082Y-66949301D01*
X193702116Y-66956727D01*
X193606878Y-67004346D01*
X193605752Y-67005535D01*
X193587386Y-67018395D01*
X193539767Y-67066014D01*
X193539075Y-67067496D01*
X193525718Y-67085505D01*
X193478098Y-67180743D01*
X193477585Y-67185197D01*
X193474703Y-67188633D01*
X193470180Y-67214285D01*
X193470180Y-67595237D01*
X191717323Y-67595237D01*
X191717323Y-66017283D01*
X193470464Y-66017283D01*
X193483749Y-66066836D01*
X193502170Y-66085251D01*
X193946371Y-66396191D01*
X193946371Y-66520237D01*
X193545180Y-66520237D01*
X193496971Y-66537784D01*
X193471319Y-66582213D01*
X193480228Y-66632737D01*
X193519528Y-66665714D01*
X193545180Y-66670237D01*
X194545180Y-66670237D01*
X194563488Y-66663573D01*
X194582680Y-66660189D01*
X194587030Y-66655004D01*
X194593389Y-66652690D01*
X194603131Y-66635816D01*
X194615657Y-66620889D01*
X194617374Y-66611146D01*
X194619041Y-66608261D01*
X194618462Y-66604978D01*
X194620180Y-66595237D01*
X194620180Y-66214285D01*
X194618646Y-66210071D01*
X194619688Y-66205710D01*
X194612262Y-66180744D01*
X194564643Y-66085506D01*
X194563453Y-66084380D01*
X194550594Y-66066014D01*
X194502975Y-66018395D01*
X194501493Y-66017704D01*
X194483483Y-66004346D01*
X194388245Y-65956727D01*
X194383791Y-65956214D01*
X194380356Y-65953332D01*
X194354704Y-65948809D01*
X194211847Y-65948809D01*
X194207633Y-65950342D01*
X194203272Y-65949301D01*
X194178306Y-65956727D01*
X194083068Y-66004346D01*
X194081942Y-66005535D01*
X194063576Y-66018395D01*
X194015957Y-66066014D01*
X194015266Y-66067495D01*
X194001908Y-66085506D01*
X193954289Y-66180744D01*
X193953776Y-66185197D01*
X193950894Y-66188633D01*
X193946558Y-66213224D01*
X193588190Y-65962367D01*
X193538633Y-65949096D01*
X193492139Y-65970783D01*
X193470464Y-66017283D01*
X191717323Y-66017283D01*
X191717323Y-65595237D01*
X193470180Y-65595237D01*
X193476843Y-65613545D01*
X193480228Y-65632737D01*
X193485412Y-65637087D01*
X193487727Y-65643446D01*
X193504600Y-65653188D01*
X193519528Y-65665714D01*
X193529270Y-65667431D01*
X193532156Y-65669098D01*
X193535438Y-65668519D01*
X193545180Y-65670237D01*
X194545180Y-65670237D01*
X194563488Y-65663573D01*
X194582680Y-65660189D01*
X194587030Y-65655004D01*
X194593389Y-65652690D01*
X194603131Y-65635816D01*
X194615657Y-65620889D01*
X194617374Y-65611146D01*
X194619041Y-65608261D01*
X194618462Y-65604978D01*
X194620180Y-65595237D01*
X194620180Y-65238094D01*
X195080180Y-65238094D01*
X195086843Y-65256402D01*
X195090228Y-65275594D01*
X195095412Y-65279944D01*
X195097727Y-65286303D01*
X195114600Y-65296045D01*
X195129528Y-65308571D01*
X195139270Y-65310288D01*
X195142156Y-65311955D01*
X195145438Y-65311376D01*
X195155180Y-65313094D01*
X196155180Y-65313094D01*
X196173488Y-65306430D01*
X196192680Y-65303046D01*
X196197030Y-65297861D01*
X196203389Y-65295547D01*
X196213131Y-65278673D01*
X196225657Y-65263746D01*
X196227374Y-65254003D01*
X196229041Y-65251118D01*
X196228462Y-65247835D01*
X196230180Y-65238094D01*
X196230180Y-64999999D01*
X196229620Y-64998461D01*
X196226331Y-64976281D01*
X196178712Y-64833425D01*
X196175925Y-64829914D01*
X196175535Y-64825446D01*
X196160594Y-64804109D01*
X196065356Y-64708871D01*
X196063874Y-64708180D01*
X196045864Y-64694822D01*
X195950626Y-64647203D01*
X195947097Y-64646796D01*
X195935275Y-64641524D01*
X195744799Y-64593905D01*
X195741350Y-64594265D01*
X195726609Y-64591666D01*
X195583752Y-64591666D01*
X195580494Y-64592851D01*
X195565562Y-64593905D01*
X195375086Y-64641524D01*
X195372141Y-64643512D01*
X195359735Y-64647203D01*
X195264497Y-64694822D01*
X195263373Y-64696008D01*
X195245005Y-64708871D01*
X195149767Y-64804109D01*
X195147872Y-64808171D01*
X195144052Y-64810519D01*
X195131649Y-64833424D01*
X195084029Y-64976281D01*
X195084073Y-64977916D01*
X195080180Y-64999999D01*
X195080180Y-65238094D01*
X194620180Y-65238094D01*
X194620180Y-65119047D01*
X194602633Y-65070838D01*
X194558204Y-65045186D01*
X194507680Y-65054095D01*
X194474703Y-65093395D01*
X194470180Y-65119047D01*
X194470180Y-65520237D01*
X194143990Y-65520237D01*
X194143990Y-65261904D01*
X194126443Y-65213695D01*
X194082014Y-65188043D01*
X194031490Y-65196952D01*
X193998513Y-65236252D01*
X193993990Y-65261904D01*
X193993990Y-65520237D01*
X193620180Y-65520237D01*
X193620180Y-65119047D01*
X193602633Y-65070838D01*
X193558204Y-65045186D01*
X193507680Y-65054095D01*
X193474703Y-65093395D01*
X193470180Y-65119047D01*
X193470180Y-65595237D01*
X191717323Y-65595237D01*
X191717323Y-65439356D01*
X191861319Y-65439356D01*
X191870228Y-65489880D01*
X191909528Y-65522857D01*
X191935180Y-65527380D01*
X192601847Y-65527380D01*
X192650056Y-65509833D01*
X192675708Y-65465404D01*
X192666799Y-65414880D01*
X192627499Y-65381903D01*
X192625845Y-65381611D01*
X192668929Y-65295445D01*
X192669441Y-65290991D01*
X192672324Y-65287556D01*
X192676847Y-65261904D01*
X192676847Y-65166666D01*
X192659300Y-65118457D01*
X192614871Y-65092805D01*
X192564347Y-65101714D01*
X192531370Y-65141014D01*
X192526847Y-65166666D01*
X192526847Y-65244199D01*
X192492589Y-65312714D01*
X192462181Y-65343122D01*
X192393666Y-65377380D01*
X191935180Y-65377380D01*
X191886971Y-65394927D01*
X191861319Y-65439356D01*
X191717323Y-65439356D01*
X191717323Y-64738094D01*
X191860180Y-64738094D01*
X191861713Y-64742307D01*
X191860672Y-64746669D01*
X191868098Y-64771636D01*
X191915718Y-64866874D01*
X191923872Y-64874594D01*
X191928338Y-64884897D01*
X191949259Y-64900414D01*
X192044497Y-64948033D01*
X192048950Y-64948545D01*
X192052386Y-64951428D01*
X192078038Y-64955951D01*
X192458990Y-64955951D01*
X192463203Y-64954417D01*
X192467564Y-64955459D01*
X192492531Y-64948033D01*
X192587769Y-64900414D01*
X192595488Y-64892260D01*
X192605793Y-64887794D01*
X192621310Y-64866873D01*
X192632580Y-64844333D01*
X193470991Y-64844333D01*
X193495420Y-64889447D01*
X193543131Y-64908304D01*
X193568897Y-64904483D01*
X194568897Y-64571150D01*
X194570588Y-64569807D01*
X194572746Y-64569749D01*
X194590498Y-64554007D01*
X194609083Y-64539259D01*
X194609515Y-64537144D01*
X194611132Y-64535711D01*
X194614611Y-64512242D01*
X194619369Y-64488998D01*
X194618340Y-64487098D01*
X194618657Y-64484963D01*
X194606236Y-64464745D01*
X194594940Y-64443884D01*
X194592932Y-64443090D01*
X194591802Y-64441250D01*
X194568897Y-64428848D01*
X193996634Y-64238094D01*
X195080180Y-64238094D01*
X195086843Y-64256402D01*
X195090228Y-64275594D01*
X195095412Y-64279944D01*
X195097727Y-64286303D01*
X195114600Y-64296045D01*
X195129528Y-64308571D01*
X195139270Y-64310288D01*
X195142156Y-64311955D01*
X195145438Y-64311376D01*
X195155180Y-64313094D01*
X196155180Y-64313094D01*
X196173488Y-64306430D01*
X196192680Y-64303046D01*
X196197030Y-64297861D01*
X196203389Y-64295547D01*
X196213131Y-64278673D01*
X196225657Y-64263746D01*
X196227374Y-64254003D01*
X196229041Y-64251118D01*
X196228462Y-64247835D01*
X196230180Y-64238094D01*
X196230180Y-63761904D01*
X196212633Y-63713695D01*
X196168204Y-63688043D01*
X196117680Y-63696952D01*
X196084703Y-63736252D01*
X196080180Y-63761904D01*
X196080180Y-64163094D01*
X195753990Y-64163094D01*
X195753990Y-63904761D01*
X195736443Y-63856552D01*
X195692014Y-63830900D01*
X195641490Y-63839809D01*
X195608513Y-63879109D01*
X195603990Y-63904761D01*
X195603990Y-64163094D01*
X195230180Y-64163094D01*
X195230180Y-63761904D01*
X195212633Y-63713695D01*
X195168204Y-63688043D01*
X195117680Y-63696952D01*
X195084703Y-63736252D01*
X195080180Y-63761904D01*
X195080180Y-64238094D01*
X193996634Y-64238094D01*
X193568897Y-64095515D01*
X193517613Y-64096916D01*
X193479228Y-64130953D01*
X193471703Y-64181702D01*
X193498558Y-64225414D01*
X193521463Y-64237817D01*
X193755895Y-64315960D01*
X193755895Y-64684037D01*
X193521463Y-64762181D01*
X193481277Y-64794072D01*
X193470991Y-64844333D01*
X192632580Y-64844333D01*
X192668929Y-64771635D01*
X192669441Y-64767181D01*
X192672324Y-64763746D01*
X192676847Y-64738094D01*
X192676847Y-64547618D01*
X192675313Y-64543404D01*
X192676355Y-64539043D01*
X192668929Y-64514077D01*
X192621310Y-64418839D01*
X192613156Y-64411119D01*
X192608690Y-64400815D01*
X192587769Y-64385298D01*
X192492531Y-64337679D01*
X192488077Y-64337166D01*
X192484642Y-64334284D01*
X192458990Y-64329761D01*
X192363752Y-64329761D01*
X192352107Y-64333999D01*
X192339718Y-64333716D01*
X192328747Y-64342501D01*
X192315543Y-64347308D01*
X192309347Y-64358039D01*
X192299674Y-64365786D01*
X192290208Y-64390053D01*
X192207028Y-64805951D01*
X192095743Y-64805951D01*
X192038701Y-64777430D01*
X192010180Y-64720387D01*
X192010180Y-64565324D01*
X192049882Y-64485921D01*
X192055747Y-64434955D01*
X192027481Y-64392141D01*
X191978307Y-64377514D01*
X191931236Y-64397917D01*
X191915718Y-64418838D01*
X191868098Y-64514076D01*
X191867585Y-64518530D01*
X191864703Y-64521966D01*
X191860180Y-64547618D01*
X191860180Y-64738094D01*
X191717323Y-64738094D01*
X191717323Y-63845909D01*
X191861242Y-63845909D01*
X191861479Y-63846326D01*
X191861399Y-63846802D01*
X191874172Y-63868620D01*
X191886625Y-63890493D01*
X191887074Y-63890659D01*
X191887318Y-63891075D01*
X191909955Y-63903963D01*
X192576622Y-64142058D01*
X192627924Y-64141747D01*
X192667024Y-64108534D01*
X192675627Y-64057957D01*
X192649708Y-64013683D01*
X192627072Y-64000796D01*
X192158172Y-63833332D01*
X192627072Y-63665868D01*
X192666571Y-63633129D01*
X192675785Y-63582660D01*
X192650402Y-63538076D01*
X192602300Y-63520238D01*
X192576622Y-63524606D01*
X191909955Y-63762701D01*
X191909583Y-63763009D01*
X191909103Y-63763012D01*
X191889856Y-63779360D01*
X191870456Y-63795441D01*
X191870369Y-63795912D01*
X191870002Y-63796225D01*
X191865763Y-63821145D01*
X191861242Y-63845909D01*
X191717323Y-63845909D01*
X191717323Y-63252933D01*
X193470718Y-63252933D01*
X193482372Y-63302894D01*
X193500180Y-63321904D01*
X194002428Y-63698589D01*
X193942686Y-63758332D01*
X193545180Y-63758332D01*
X193496971Y-63775879D01*
X193471319Y-63820308D01*
X193480228Y-63870832D01*
X193519528Y-63903809D01*
X193545180Y-63908332D01*
X194545180Y-63908332D01*
X194593389Y-63890785D01*
X194619041Y-63846356D01*
X194610132Y-63795832D01*
X194570832Y-63762855D01*
X194545180Y-63758332D01*
X194154818Y-63758332D01*
X194579818Y-63333332D01*
X195080180Y-63333332D01*
X195086843Y-63351640D01*
X195090228Y-63370832D01*
X195095412Y-63375182D01*
X195097727Y-63381541D01*
X195114600Y-63391283D01*
X195129528Y-63403809D01*
X195139270Y-63405526D01*
X195142156Y-63407193D01*
X195145438Y-63406614D01*
X195155180Y-63408332D01*
X196155180Y-63408332D01*
X196173488Y-63401668D01*
X196192680Y-63398284D01*
X196197030Y-63393099D01*
X196203389Y-63390785D01*
X196213131Y-63373911D01*
X196225657Y-63358984D01*
X196227374Y-63349241D01*
X196229041Y-63346356D01*
X196228462Y-63343073D01*
X196230180Y-63333332D01*
X196230180Y-62999999D01*
X196228646Y-62995785D01*
X196229688Y-62991424D01*
X196222262Y-62966458D01*
X196174643Y-62871220D01*
X196173453Y-62870094D01*
X196160594Y-62851728D01*
X196112975Y-62804109D01*
X196111493Y-62803418D01*
X196093483Y-62790060D01*
X195998245Y-62742441D01*
X195993791Y-62741928D01*
X195990356Y-62739046D01*
X195964704Y-62734523D01*
X195869466Y-62734523D01*
X195865252Y-62736056D01*
X195860891Y-62735015D01*
X195835925Y-62742441D01*
X195740687Y-62790060D01*
X195739561Y-62791249D01*
X195721195Y-62804109D01*
X195699385Y-62825918D01*
X195699344Y-62825446D01*
X195684404Y-62804109D01*
X195636785Y-62756490D01*
X195635303Y-62755799D01*
X195617293Y-62742441D01*
X195522055Y-62694822D01*
X195517601Y-62694309D01*
X195514166Y-62691427D01*
X195488514Y-62686904D01*
X195345657Y-62686904D01*
X195341443Y-62688437D01*
X195337082Y-62687396D01*
X195312116Y-62694822D01*
X195216878Y-62742441D01*
X195215752Y-62743630D01*
X195197386Y-62756490D01*
X195149767Y-62804109D01*
X195149075Y-62805591D01*
X195135718Y-62823600D01*
X195088098Y-62918838D01*
X195087585Y-62923292D01*
X195084703Y-62926728D01*
X195080180Y-62952380D01*
X195080180Y-63333332D01*
X194579818Y-63333332D01*
X194598213Y-63314937D01*
X194619894Y-63268441D01*
X194606617Y-63218886D01*
X194564591Y-63189460D01*
X194513484Y-63193931D01*
X194492147Y-63208871D01*
X194109571Y-63591446D01*
X193590180Y-63201904D01*
X193541085Y-63187016D01*
X193493906Y-63207168D01*
X193470718Y-63252933D01*
X191717323Y-63252933D01*
X191717323Y-62833332D01*
X193470180Y-62833332D01*
X193476843Y-62851640D01*
X193480228Y-62870832D01*
X193485412Y-62875182D01*
X193487727Y-62881541D01*
X193504600Y-62891283D01*
X193519528Y-62903809D01*
X193529270Y-62905526D01*
X193532156Y-62907193D01*
X193535438Y-62906614D01*
X193545180Y-62908332D01*
X194545180Y-62908332D01*
X194563488Y-62901668D01*
X194582680Y-62898284D01*
X194587030Y-62893099D01*
X194593389Y-62890785D01*
X194603131Y-62873911D01*
X194615657Y-62858984D01*
X194617374Y-62849241D01*
X194619041Y-62846356D01*
X194618462Y-62843073D01*
X194620180Y-62833332D01*
X194620180Y-62499999D01*
X194618646Y-62495785D01*
X194619688Y-62491424D01*
X194612262Y-62466458D01*
X194564643Y-62371220D01*
X194563453Y-62370094D01*
X194550594Y-62351728D01*
X194502975Y-62304109D01*
X194501493Y-62303418D01*
X194483483Y-62290060D01*
X194388245Y-62242441D01*
X194383791Y-62241928D01*
X194380356Y-62239046D01*
X194354704Y-62234523D01*
X194259466Y-62234523D01*
X194255252Y-62236056D01*
X194250891Y-62235015D01*
X194225925Y-62242441D01*
X194130687Y-62290060D01*
X194129561Y-62291249D01*
X194111195Y-62304109D01*
X194089385Y-62325918D01*
X194089344Y-62325446D01*
X194074404Y-62304109D01*
X194026785Y-62256490D01*
X194025303Y-62255799D01*
X194007293Y-62242441D01*
X193912055Y-62194822D01*
X193907601Y-62194309D01*
X193904166Y-62191427D01*
X193878514Y-62186904D01*
X193735657Y-62186904D01*
X193731443Y-62188437D01*
X193727082Y-62187396D01*
X193702116Y-62194822D01*
X193606878Y-62242441D01*
X193605752Y-62243630D01*
X193587386Y-62256490D01*
X193539767Y-62304109D01*
X193539075Y-62305591D01*
X193525718Y-62323600D01*
X193478098Y-62418838D01*
X193477585Y-62423292D01*
X193474703Y-62426728D01*
X193470180Y-62452380D01*
X193470180Y-62833332D01*
X191717323Y-62833332D01*
X191717323Y-62499998D01*
X191860180Y-62499998D01*
X191877727Y-62548207D01*
X191922156Y-62573859D01*
X191972680Y-62564950D01*
X192005657Y-62525650D01*
X192010180Y-62499998D01*
X192010180Y-62289284D01*
X192706495Y-62289284D01*
X192644052Y-62351727D01*
X192643361Y-62353208D01*
X192630003Y-62371219D01*
X192582384Y-62466457D01*
X192576519Y-62517424D01*
X192604785Y-62560237D01*
X192653960Y-62574863D01*
X192701031Y-62554460D01*
X192716548Y-62533539D01*
X192758724Y-62449186D01*
X192840103Y-62367807D01*
X192976783Y-62276688D01*
X192979337Y-62273211D01*
X192983389Y-62271737D01*
X192994272Y-62252887D01*
X193007162Y-62235346D01*
X193006884Y-62231042D01*
X193009041Y-62227308D01*
X193005261Y-62205875D01*
X193003861Y-62184150D01*
X193000880Y-62181030D01*
X193000132Y-62176784D01*
X192983459Y-62162793D01*
X192968422Y-62147053D01*
X192964135Y-62146578D01*
X192960832Y-62143807D01*
X192955438Y-62142856D01*
X195080180Y-62142856D01*
X195081713Y-62147069D01*
X195080672Y-62151431D01*
X195088098Y-62176398D01*
X195135718Y-62271636D01*
X195136909Y-62272763D01*
X195149767Y-62291127D01*
X195197386Y-62338746D01*
X195198867Y-62339437D01*
X195216878Y-62352795D01*
X195312116Y-62400414D01*
X195316569Y-62400926D01*
X195320005Y-62403809D01*
X195345657Y-62408332D01*
X196155180Y-62408332D01*
X196203389Y-62390785D01*
X196229041Y-62346356D01*
X196220132Y-62295832D01*
X196180832Y-62262855D01*
X196155180Y-62258332D01*
X195363362Y-62258332D01*
X195294845Y-62224073D01*
X195264438Y-62193666D01*
X195230180Y-62125149D01*
X195230180Y-61970086D01*
X195264438Y-61901569D01*
X195294846Y-61871161D01*
X195363362Y-61836904D01*
X196155180Y-61836904D01*
X196203389Y-61819357D01*
X196229041Y-61774928D01*
X196220132Y-61724404D01*
X196180832Y-61691427D01*
X196155180Y-61686904D01*
X195345657Y-61686904D01*
X195341443Y-61688437D01*
X195337082Y-61687396D01*
X195312116Y-61694822D01*
X195216878Y-61742441D01*
X195215752Y-61743630D01*
X195197386Y-61756490D01*
X195149767Y-61804109D01*
X195149075Y-61805591D01*
X195135718Y-61823600D01*
X195088098Y-61918838D01*
X195087585Y-61923292D01*
X195084703Y-61926728D01*
X195080180Y-61952380D01*
X195080180Y-62142856D01*
X192955438Y-62142856D01*
X192935180Y-62139284D01*
X192010180Y-62139284D01*
X192010180Y-61928570D01*
X191992633Y-61880361D01*
X191948204Y-61854709D01*
X191897680Y-61863618D01*
X191864703Y-61902918D01*
X191860180Y-61928570D01*
X191860180Y-62499998D01*
X191717323Y-62499998D01*
X191717323Y-61642856D01*
X193470180Y-61642856D01*
X193471713Y-61647069D01*
X193470672Y-61651431D01*
X193478098Y-61676398D01*
X193525718Y-61771636D01*
X193526909Y-61772763D01*
X193539767Y-61791127D01*
X193635005Y-61886365D01*
X193641712Y-61889492D01*
X193646059Y-61895483D01*
X193669848Y-61906093D01*
X193860324Y-61953712D01*
X193863772Y-61953351D01*
X193878514Y-61955951D01*
X194211847Y-61955951D01*
X194215104Y-61954765D01*
X194230037Y-61953712D01*
X194420513Y-61906093D01*
X194426646Y-61901950D01*
X194434019Y-61901305D01*
X194455356Y-61886365D01*
X194550594Y-61791127D01*
X194551284Y-61789645D01*
X194564643Y-61771635D01*
X194612262Y-61676397D01*
X194612774Y-61671943D01*
X194615657Y-61668508D01*
X194620180Y-61642856D01*
X194620180Y-61452380D01*
X194618646Y-61448166D01*
X194619688Y-61443805D01*
X194612262Y-61418839D01*
X194564643Y-61323601D01*
X194563456Y-61322477D01*
X194550594Y-61304109D01*
X194455356Y-61208871D01*
X194448648Y-61205743D01*
X194444302Y-61199753D01*
X194420513Y-61189143D01*
X194230037Y-61141524D01*
X194226588Y-61141884D01*
X194211847Y-61139285D01*
X193878514Y-61139285D01*
X193875256Y-61140470D01*
X193860324Y-61141524D01*
X193669848Y-61189143D01*
X193663715Y-61193284D01*
X193656342Y-61193930D01*
X193635005Y-61208871D01*
X193539767Y-61304109D01*
X193539075Y-61305591D01*
X193525718Y-61323600D01*
X193478098Y-61418838D01*
X193477585Y-61423292D01*
X193474703Y-61426728D01*
X193470180Y-61452380D01*
X193470180Y-61642856D01*
X191717323Y-61642856D01*
X191717323Y-61493461D01*
X191860466Y-61493461D01*
X191865508Y-61512280D01*
X191867207Y-61531695D01*
X191869877Y-61535508D01*
X191870228Y-61537498D01*
X191872755Y-61539619D01*
X191872880Y-61539797D01*
X191873743Y-61543016D01*
X191876472Y-61544927D01*
X191882148Y-61553032D01*
X191929767Y-61600650D01*
X191947424Y-61608883D01*
X191963389Y-61620062D01*
X191970132Y-61619471D01*
X191976264Y-61622331D01*
X191995082Y-61617288D01*
X192014496Y-61615590D01*
X192022600Y-61609915D01*
X192025819Y-61609053D01*
X192027730Y-61606323D01*
X192035833Y-61600650D01*
X192083452Y-61553031D01*
X192091687Y-61535370D01*
X192102863Y-61519409D01*
X192102564Y-61515993D01*
X192104280Y-61513022D01*
X192103684Y-61509642D01*
X192105133Y-61506535D01*
X192100090Y-61487713D01*
X192098392Y-61468302D01*
X192095722Y-61464488D01*
X192095371Y-61462498D01*
X192092842Y-61460376D01*
X192092718Y-61460199D01*
X192091856Y-61456980D01*
X192089126Y-61455068D01*
X192083452Y-61446965D01*
X192035833Y-61399346D01*
X192018174Y-61391112D01*
X192002212Y-61379935D01*
X191995469Y-61380524D01*
X191989336Y-61377665D01*
X191970517Y-61382707D01*
X191951105Y-61384405D01*
X191943000Y-61390079D01*
X191939782Y-61390942D01*
X191937870Y-61393671D01*
X191929767Y-61399346D01*
X191882148Y-61446964D01*
X191873914Y-61464620D01*
X191862735Y-61480587D01*
X191863033Y-61484003D01*
X191861319Y-61486974D01*
X191861914Y-61490353D01*
X191860466Y-61493461D01*
X191717323Y-61493461D01*
X191717323Y-60833332D01*
X191860180Y-60833332D01*
X191861713Y-60837545D01*
X191860672Y-60841907D01*
X191868098Y-60866874D01*
X191915718Y-60962112D01*
X191916909Y-60963239D01*
X191929767Y-60981603D01*
X191977386Y-61029222D01*
X191978867Y-61029913D01*
X191996878Y-61043271D01*
X192092116Y-61090890D01*
X192095644Y-61091296D01*
X192107467Y-61096569D01*
X192297943Y-61144188D01*
X192301391Y-61143827D01*
X192316133Y-61146427D01*
X192554228Y-61146427D01*
X192557485Y-61145241D01*
X192572418Y-61144188D01*
X192762894Y-61096569D01*
X192765838Y-61094580D01*
X192778245Y-61090890D01*
X192873483Y-61043271D01*
X192874608Y-61042081D01*
X192892975Y-61029222D01*
X192940594Y-60981603D01*
X192941285Y-60980121D01*
X192954643Y-60962111D01*
X192965913Y-60939571D01*
X193470991Y-60939571D01*
X193495420Y-60984685D01*
X193543131Y-61003542D01*
X193567022Y-60999999D01*
X195080180Y-60999999D01*
X195080739Y-61001536D01*
X195084029Y-61023717D01*
X195131649Y-61166574D01*
X195134436Y-61170086D01*
X195134827Y-61174552D01*
X195149767Y-61195889D01*
X195245005Y-61291127D01*
X195246486Y-61291817D01*
X195264497Y-61305176D01*
X195359735Y-61352795D01*
X195363263Y-61353201D01*
X195375086Y-61358474D01*
X195565562Y-61406093D01*
X195569010Y-61405732D01*
X195583752Y-61408332D01*
X195726609Y-61408332D01*
X195729866Y-61407146D01*
X195744799Y-61406093D01*
X195935275Y-61358474D01*
X195938219Y-61356485D01*
X195950626Y-61352795D01*
X196045864Y-61305176D01*
X196046989Y-61303986D01*
X196065356Y-61291127D01*
X196160594Y-61195889D01*
X196162489Y-61191824D01*
X196166309Y-61189478D01*
X196178712Y-61166573D01*
X196226331Y-61023717D01*
X196226286Y-61022081D01*
X196230180Y-60999999D01*
X196230180Y-60857142D01*
X196228646Y-60852928D01*
X196229688Y-60848567D01*
X196222262Y-60823601D01*
X196174643Y-60728363D01*
X196137389Y-60693091D01*
X196086178Y-60690016D01*
X196044973Y-60720580D01*
X196033053Y-60770478D01*
X196040479Y-60795445D01*
X196080179Y-60874846D01*
X196080179Y-60987829D01*
X196042009Y-61102341D01*
X195967895Y-61176455D01*
X195890909Y-61214948D01*
X195717375Y-61258332D01*
X195592986Y-61258332D01*
X195419452Y-61214948D01*
X195342465Y-61176455D01*
X195268351Y-61102341D01*
X195230180Y-60987827D01*
X195230180Y-60916932D01*
X195268351Y-60802418D01*
X195281485Y-60789285D01*
X195508752Y-60789285D01*
X195508752Y-60904761D01*
X195526299Y-60952970D01*
X195570728Y-60978622D01*
X195621252Y-60969713D01*
X195654229Y-60930413D01*
X195658752Y-60904761D01*
X195658752Y-60714285D01*
X195652088Y-60695976D01*
X195648704Y-60676785D01*
X195643519Y-60672434D01*
X195641205Y-60666076D01*
X195624331Y-60656333D01*
X195609404Y-60643808D01*
X195599661Y-60642090D01*
X195596776Y-60640424D01*
X195593493Y-60641002D01*
X195583752Y-60639285D01*
X195250419Y-60639285D01*
X195235033Y-60644885D01*
X195218723Y-60646312D01*
X195205310Y-60655703D01*
X195202210Y-60656832D01*
X195201199Y-60658581D01*
X195197386Y-60661252D01*
X195149767Y-60708871D01*
X195147872Y-60712933D01*
X195144052Y-60715281D01*
X195131649Y-60738186D01*
X195084029Y-60881043D01*
X195084073Y-60882678D01*
X195080180Y-60904761D01*
X195080180Y-60999999D01*
X193567022Y-60999999D01*
X193568897Y-60999721D01*
X194568897Y-60666388D01*
X194570588Y-60665045D01*
X194572746Y-60664987D01*
X194590498Y-60649245D01*
X194609083Y-60634497D01*
X194609515Y-60632382D01*
X194611132Y-60630949D01*
X194614611Y-60607480D01*
X194619369Y-60584236D01*
X194618340Y-60582336D01*
X194618657Y-60580201D01*
X194606236Y-60559983D01*
X194594940Y-60539122D01*
X194592932Y-60538328D01*
X194591802Y-60536488D01*
X194568897Y-60524086D01*
X193568897Y-60190753D01*
X193517613Y-60192154D01*
X193479228Y-60226191D01*
X193471703Y-60276940D01*
X193498558Y-60320652D01*
X193521463Y-60333055D01*
X193755895Y-60411198D01*
X193755895Y-60779275D01*
X193521463Y-60857419D01*
X193481277Y-60889310D01*
X193470991Y-60939571D01*
X192965913Y-60939571D01*
X193002262Y-60866873D01*
X193002774Y-60862419D01*
X193005657Y-60858984D01*
X193010180Y-60833332D01*
X193010180Y-60738094D01*
X193008646Y-60733880D01*
X193009688Y-60729519D01*
X193002262Y-60704553D01*
X192954643Y-60609315D01*
X192953453Y-60608189D01*
X192940594Y-60589823D01*
X192892975Y-60542204D01*
X192891493Y-60541513D01*
X192873483Y-60528155D01*
X192778245Y-60480536D01*
X192774716Y-60480129D01*
X192762894Y-60474857D01*
X192572418Y-60427238D01*
X192568969Y-60427598D01*
X192554228Y-60424999D01*
X192316133Y-60424999D01*
X192312875Y-60426184D01*
X192297943Y-60427238D01*
X192107467Y-60474857D01*
X192104522Y-60476845D01*
X192092116Y-60480536D01*
X191996878Y-60528155D01*
X191995752Y-60529344D01*
X191977386Y-60542204D01*
X191929767Y-60589823D01*
X191929075Y-60591305D01*
X191915718Y-60609314D01*
X191868098Y-60704552D01*
X191867585Y-60709006D01*
X191864703Y-60712442D01*
X191860180Y-60738094D01*
X191860180Y-60833332D01*
X191717323Y-60833332D01*
X191717323Y-59350616D01*
X193470464Y-59350616D01*
X193483749Y-59400169D01*
X193502170Y-59418584D01*
X193946371Y-59729524D01*
X193946371Y-59853570D01*
X193545180Y-59853570D01*
X193496971Y-59871117D01*
X193471319Y-59915546D01*
X193480228Y-59966070D01*
X193519528Y-59999047D01*
X193545180Y-60003570D01*
X194545180Y-60003570D01*
X194563488Y-59996906D01*
X194582680Y-59993522D01*
X194587030Y-59988337D01*
X194593389Y-59986023D01*
X194603131Y-59969149D01*
X194615657Y-59954222D01*
X194617374Y-59944479D01*
X194619041Y-59941594D01*
X194618462Y-59938311D01*
X194620180Y-59928570D01*
X194620180Y-59547618D01*
X194618646Y-59543404D01*
X194619688Y-59539043D01*
X194612262Y-59514077D01*
X194564643Y-59418839D01*
X194563453Y-59417713D01*
X194550594Y-59399347D01*
X194502975Y-59351728D01*
X194501493Y-59351037D01*
X194483483Y-59337679D01*
X194388245Y-59290060D01*
X194383791Y-59289547D01*
X194380356Y-59286665D01*
X194354704Y-59282142D01*
X194211847Y-59282142D01*
X194207633Y-59283675D01*
X194203272Y-59282634D01*
X194178306Y-59290060D01*
X194083068Y-59337679D01*
X194081942Y-59338868D01*
X194063576Y-59351728D01*
X194015957Y-59399347D01*
X194015266Y-59400828D01*
X194001908Y-59418839D01*
X193954289Y-59514077D01*
X193953776Y-59518530D01*
X193950894Y-59521966D01*
X193946558Y-59546557D01*
X193588190Y-59295700D01*
X193538633Y-59282429D01*
X193492139Y-59304116D01*
X193470464Y-59350616D01*
X191717323Y-59350616D01*
X191717323Y-58928570D01*
X193470180Y-58928570D01*
X193476843Y-58946878D01*
X193480228Y-58966070D01*
X193485412Y-58970420D01*
X193487727Y-58976779D01*
X193504600Y-58986521D01*
X193519528Y-58999047D01*
X193529270Y-59000764D01*
X193532156Y-59002431D01*
X193535438Y-59001852D01*
X193545180Y-59003570D01*
X194545180Y-59003570D01*
X194563488Y-58996906D01*
X194582680Y-58993522D01*
X194587030Y-58988337D01*
X194593389Y-58986023D01*
X194603131Y-58969149D01*
X194615657Y-58954222D01*
X194617374Y-58944479D01*
X194619041Y-58941594D01*
X194618462Y-58938311D01*
X194620180Y-58928570D01*
X194620180Y-58690475D01*
X194619620Y-58688937D01*
X194616331Y-58666757D01*
X194568712Y-58523901D01*
X194565925Y-58520390D01*
X194565535Y-58515922D01*
X194550594Y-58494585D01*
X194455356Y-58399347D01*
X194453874Y-58398656D01*
X194435864Y-58385298D01*
X194340626Y-58337679D01*
X194337097Y-58337272D01*
X194325275Y-58332000D01*
X194134799Y-58284381D01*
X194131350Y-58284741D01*
X194116609Y-58282142D01*
X193973752Y-58282142D01*
X193970494Y-58283327D01*
X193955562Y-58284381D01*
X193765086Y-58332000D01*
X193762141Y-58333988D01*
X193749735Y-58337679D01*
X193654497Y-58385298D01*
X193653373Y-58386484D01*
X193635005Y-58399347D01*
X193539767Y-58494585D01*
X193537872Y-58498647D01*
X193534052Y-58500995D01*
X193521649Y-58523900D01*
X193474029Y-58666757D01*
X193474073Y-58668392D01*
X193470180Y-58690475D01*
X193470180Y-58928570D01*
X191717323Y-58928570D01*
X191717323Y-58139285D01*
X196373037Y-58139285D01*
X196373037Y-67813094D01*
G37*
D12*
X180380952Y-74909638D02*
X181523809Y-74909638D01*
X180952381Y-74909638D02*
X180952381Y-72909638D01*
X180952381Y-72909638D02*
X181142857Y-73195352D01*
X181142857Y-73195352D02*
X181333333Y-73385828D01*
X181333333Y-73385828D02*
X181523809Y-73481066D01*
X179619047Y-73100114D02*
X179523809Y-73004876D01*
X179523809Y-73004876D02*
X179333333Y-72909638D01*
X179333333Y-72909638D02*
X178857142Y-72909638D01*
X178857142Y-72909638D02*
X178666666Y-73004876D01*
X178666666Y-73004876D02*
X178571428Y-73100114D01*
X178571428Y-73100114D02*
X178476190Y-73290590D01*
X178476190Y-73290590D02*
X178476190Y-73481066D01*
X178476190Y-73481066D02*
X178571428Y-73766780D01*
X178571428Y-73766780D02*
X179714285Y-74909638D01*
X179714285Y-74909638D02*
X178476190Y-74909638D01*
X172880952Y-74909638D02*
X174023809Y-74909638D01*
X173452381Y-74909638D02*
X173452381Y-72909638D01*
X173452381Y-72909638D02*
X173642857Y-73195352D01*
X173642857Y-73195352D02*
X173833333Y-73385828D01*
X173833333Y-73385828D02*
X174023809Y-73481066D01*
X170976190Y-74909638D02*
X172119047Y-74909638D01*
X171547619Y-74909638D02*
X171547619Y-72909638D01*
X171547619Y-72909638D02*
X171738095Y-73195352D01*
X171738095Y-73195352D02*
X171928571Y-73385828D01*
X171928571Y-73385828D02*
X172119047Y-73481066D01*
D10*
X131390419Y-68547619D02*
X131342800Y-68595238D01*
X131342800Y-68595238D02*
X131295180Y-68738095D01*
X131295180Y-68738095D02*
X131295180Y-68833333D01*
X131295180Y-68833333D02*
X131342800Y-68976190D01*
X131342800Y-68976190D02*
X131438038Y-69071428D01*
X131438038Y-69071428D02*
X131533276Y-69119047D01*
X131533276Y-69119047D02*
X131723752Y-69166666D01*
X131723752Y-69166666D02*
X131866609Y-69166666D01*
X131866609Y-69166666D02*
X132057085Y-69119047D01*
X132057085Y-69119047D02*
X132152323Y-69071428D01*
X132152323Y-69071428D02*
X132247561Y-68976190D01*
X132247561Y-68976190D02*
X132295180Y-68833333D01*
X132295180Y-68833333D02*
X132295180Y-68738095D01*
X132295180Y-68738095D02*
X132247561Y-68595238D01*
X132247561Y-68595238D02*
X132199942Y-68547619D01*
X131295180Y-68119047D02*
X132295180Y-68119047D01*
X131818990Y-68119047D02*
X131818990Y-67547619D01*
X131295180Y-67547619D02*
X132295180Y-67547619D01*
X132295180Y-66880952D02*
X132295180Y-66690476D01*
X132295180Y-66690476D02*
X132247561Y-66595238D01*
X132247561Y-66595238D02*
X132152323Y-66500000D01*
X132152323Y-66500000D02*
X131961847Y-66452381D01*
X131961847Y-66452381D02*
X131628514Y-66452381D01*
X131628514Y-66452381D02*
X131438038Y-66500000D01*
X131438038Y-66500000D02*
X131342800Y-66595238D01*
X131342800Y-66595238D02*
X131295180Y-66690476D01*
X131295180Y-66690476D02*
X131295180Y-66880952D01*
X131295180Y-66880952D02*
X131342800Y-66976190D01*
X131342800Y-66976190D02*
X131438038Y-67071428D01*
X131438038Y-67071428D02*
X131628514Y-67119047D01*
X131628514Y-67119047D02*
X131961847Y-67119047D01*
X131961847Y-67119047D02*
X132152323Y-67071428D01*
X132152323Y-67071428D02*
X132247561Y-66976190D01*
X132247561Y-66976190D02*
X132295180Y-66880952D01*
X132295180Y-65833333D02*
X132295180Y-65642857D01*
X132295180Y-65642857D02*
X132247561Y-65547619D01*
X132247561Y-65547619D02*
X132152323Y-65452381D01*
X132152323Y-65452381D02*
X131961847Y-65404762D01*
X131961847Y-65404762D02*
X131628514Y-65404762D01*
X131628514Y-65404762D02*
X131438038Y-65452381D01*
X131438038Y-65452381D02*
X131342800Y-65547619D01*
X131342800Y-65547619D02*
X131295180Y-65642857D01*
X131295180Y-65642857D02*
X131295180Y-65833333D01*
X131295180Y-65833333D02*
X131342800Y-65928571D01*
X131342800Y-65928571D02*
X131438038Y-66023809D01*
X131438038Y-66023809D02*
X131628514Y-66071428D01*
X131628514Y-66071428D02*
X131961847Y-66071428D01*
X131961847Y-66071428D02*
X132152323Y-66023809D01*
X132152323Y-66023809D02*
X132247561Y-65928571D01*
X132247561Y-65928571D02*
X132295180Y-65833333D01*
X131342800Y-65023809D02*
X131295180Y-64880952D01*
X131295180Y-64880952D02*
X131295180Y-64642857D01*
X131295180Y-64642857D02*
X131342800Y-64547619D01*
X131342800Y-64547619D02*
X131390419Y-64500000D01*
X131390419Y-64500000D02*
X131485657Y-64452381D01*
X131485657Y-64452381D02*
X131580895Y-64452381D01*
X131580895Y-64452381D02*
X131676133Y-64500000D01*
X131676133Y-64500000D02*
X131723752Y-64547619D01*
X131723752Y-64547619D02*
X131771371Y-64642857D01*
X131771371Y-64642857D02*
X131818990Y-64833333D01*
X131818990Y-64833333D02*
X131866609Y-64928571D01*
X131866609Y-64928571D02*
X131914228Y-64976190D01*
X131914228Y-64976190D02*
X132009466Y-65023809D01*
X132009466Y-65023809D02*
X132104704Y-65023809D01*
X132104704Y-65023809D02*
X132199942Y-64976190D01*
X132199942Y-64976190D02*
X132247561Y-64928571D01*
X132247561Y-64928571D02*
X132295180Y-64833333D01*
X132295180Y-64833333D02*
X132295180Y-64595238D01*
X132295180Y-64595238D02*
X132247561Y-64452381D01*
X131818990Y-64023809D02*
X131818990Y-63690476D01*
X131295180Y-63547619D02*
X131295180Y-64023809D01*
X131295180Y-64023809D02*
X132295180Y-64023809D01*
X132295180Y-64023809D02*
X132295180Y-63547619D01*
X132247561Y-61833333D02*
X132295180Y-61928571D01*
X132295180Y-61928571D02*
X132295180Y-62071428D01*
X132295180Y-62071428D02*
X132247561Y-62214285D01*
X132247561Y-62214285D02*
X132152323Y-62309523D01*
X132152323Y-62309523D02*
X132057085Y-62357142D01*
X132057085Y-62357142D02*
X131866609Y-62404761D01*
X131866609Y-62404761D02*
X131723752Y-62404761D01*
X131723752Y-62404761D02*
X131533276Y-62357142D01*
X131533276Y-62357142D02*
X131438038Y-62309523D01*
X131438038Y-62309523D02*
X131342800Y-62214285D01*
X131342800Y-62214285D02*
X131295180Y-62071428D01*
X131295180Y-62071428D02*
X131295180Y-61976190D01*
X131295180Y-61976190D02*
X131342800Y-61833333D01*
X131342800Y-61833333D02*
X131390419Y-61785714D01*
X131390419Y-61785714D02*
X131723752Y-61785714D01*
X131723752Y-61785714D02*
X131723752Y-61976190D01*
X131295180Y-61357142D02*
X132295180Y-61357142D01*
X132295180Y-61357142D02*
X131295180Y-60785714D01*
X131295180Y-60785714D02*
X132295180Y-60785714D01*
X131295180Y-60309523D02*
X132295180Y-60309523D01*
X132295180Y-60309523D02*
X132295180Y-60071428D01*
X132295180Y-60071428D02*
X132247561Y-59928571D01*
X132247561Y-59928571D02*
X132152323Y-59833333D01*
X132152323Y-59833333D02*
X132057085Y-59785714D01*
X132057085Y-59785714D02*
X131866609Y-59738095D01*
X131866609Y-59738095D02*
X131723752Y-59738095D01*
X131723752Y-59738095D02*
X131533276Y-59785714D01*
X131533276Y-59785714D02*
X131438038Y-59833333D01*
X131438038Y-59833333D02*
X131342800Y-59928571D01*
X131342800Y-59928571D02*
X131295180Y-60071428D01*
X131295180Y-60071428D02*
X131295180Y-60309523D01*
X131295180Y-58547618D02*
X132295180Y-58547618D01*
X132295180Y-58547618D02*
X132295180Y-58166666D01*
X132295180Y-58166666D02*
X132247561Y-58071428D01*
X132247561Y-58071428D02*
X132199942Y-58023809D01*
X132199942Y-58023809D02*
X132104704Y-57976190D01*
X132104704Y-57976190D02*
X131961847Y-57976190D01*
X131961847Y-57976190D02*
X131866609Y-58023809D01*
X131866609Y-58023809D02*
X131818990Y-58071428D01*
X131818990Y-58071428D02*
X131771371Y-58166666D01*
X131771371Y-58166666D02*
X131771371Y-58547618D01*
X131295180Y-57547618D02*
X132295180Y-57547618D01*
X131295180Y-57071428D02*
X132295180Y-57071428D01*
X132295180Y-57071428D02*
X131295180Y-56500000D01*
X131295180Y-56500000D02*
X132295180Y-56500000D01*
X131295180Y-55261904D02*
X132295180Y-55261904D01*
X131818990Y-55261904D02*
X131818990Y-54690476D01*
X131295180Y-54690476D02*
X132295180Y-54690476D01*
X131818990Y-54214285D02*
X131818990Y-53880952D01*
X131295180Y-53738095D02*
X131295180Y-54214285D01*
X131295180Y-54214285D02*
X132295180Y-54214285D01*
X132295180Y-54214285D02*
X132295180Y-53738095D01*
X131295180Y-52738095D02*
X131771371Y-53071428D01*
X131295180Y-53309523D02*
X132295180Y-53309523D01*
X132295180Y-53309523D02*
X132295180Y-52928571D01*
X132295180Y-52928571D02*
X132247561Y-52833333D01*
X132247561Y-52833333D02*
X132199942Y-52785714D01*
X132199942Y-52785714D02*
X132104704Y-52738095D01*
X132104704Y-52738095D02*
X131961847Y-52738095D01*
X131961847Y-52738095D02*
X131866609Y-52785714D01*
X131866609Y-52785714D02*
X131818990Y-52833333D01*
X131818990Y-52833333D02*
X131771371Y-52928571D01*
X131771371Y-52928571D02*
X131771371Y-53309523D01*
X131818990Y-52309523D02*
X131818990Y-51976190D01*
X131295180Y-51833333D02*
X131295180Y-52309523D01*
X131295180Y-52309523D02*
X132295180Y-52309523D01*
X132295180Y-52309523D02*
X132295180Y-51833333D01*
D11*
X165577121Y-65762904D02*
X165505693Y-65786714D01*
X165505693Y-65786714D02*
X165481883Y-65810523D01*
X165481883Y-65810523D02*
X165458074Y-65858142D01*
X165458074Y-65858142D02*
X165458074Y-65929571D01*
X165458074Y-65929571D02*
X165481883Y-65977190D01*
X165481883Y-65977190D02*
X165505693Y-66001000D01*
X165505693Y-66001000D02*
X165553312Y-66024809D01*
X165553312Y-66024809D02*
X165743788Y-66024809D01*
X165743788Y-66024809D02*
X165743788Y-65524809D01*
X165743788Y-65524809D02*
X165577121Y-65524809D01*
X165577121Y-65524809D02*
X165529502Y-65548619D01*
X165529502Y-65548619D02*
X165505693Y-65572428D01*
X165505693Y-65572428D02*
X165481883Y-65620047D01*
X165481883Y-65620047D02*
X165481883Y-65667666D01*
X165481883Y-65667666D02*
X165505693Y-65715285D01*
X165505693Y-65715285D02*
X165529502Y-65739095D01*
X165529502Y-65739095D02*
X165577121Y-65762904D01*
X165577121Y-65762904D02*
X165743788Y-65762904D01*
X165315216Y-65524809D02*
X165029502Y-65524809D01*
X165172359Y-66024809D02*
X165172359Y-65524809D01*
X164862836Y-66024809D02*
X164862836Y-65524809D01*
X164862836Y-65524809D02*
X164577122Y-66024809D01*
X164577122Y-66024809D02*
X164577122Y-65524809D01*
X147787120Y-59924809D02*
X147620454Y-60424809D01*
X147620454Y-60424809D02*
X147453787Y-59924809D01*
X147287121Y-60424809D02*
X147287121Y-59924809D01*
X147287121Y-59924809D02*
X147168073Y-59924809D01*
X147168073Y-59924809D02*
X147096645Y-59948619D01*
X147096645Y-59948619D02*
X147049026Y-59996238D01*
X147049026Y-59996238D02*
X147025216Y-60043857D01*
X147025216Y-60043857D02*
X147001407Y-60139095D01*
X147001407Y-60139095D02*
X147001407Y-60210523D01*
X147001407Y-60210523D02*
X147025216Y-60305761D01*
X147025216Y-60305761D02*
X147049026Y-60353380D01*
X147049026Y-60353380D02*
X147096645Y-60401000D01*
X147096645Y-60401000D02*
X147168073Y-60424809D01*
X147168073Y-60424809D02*
X147287121Y-60424809D01*
X146787121Y-60424809D02*
X146787121Y-59924809D01*
X146787121Y-59924809D02*
X146668073Y-59924809D01*
X146668073Y-59924809D02*
X146596645Y-59948619D01*
X146596645Y-59948619D02*
X146549026Y-59996238D01*
X146549026Y-59996238D02*
X146525216Y-60043857D01*
X146525216Y-60043857D02*
X146501407Y-60139095D01*
X146501407Y-60139095D02*
X146501407Y-60210523D01*
X146501407Y-60210523D02*
X146525216Y-60305761D01*
X146525216Y-60305761D02*
X146549026Y-60353380D01*
X146549026Y-60353380D02*
X146596645Y-60401000D01*
X146596645Y-60401000D02*
X146668073Y-60424809D01*
X146668073Y-60424809D02*
X146787121Y-60424809D01*
X178667120Y-65524809D02*
X178500454Y-66024809D01*
X178500454Y-66024809D02*
X178333787Y-65524809D01*
X178167121Y-66024809D02*
X178167121Y-65524809D01*
X178167121Y-65524809D02*
X178048073Y-65524809D01*
X178048073Y-65524809D02*
X177976645Y-65548619D01*
X177976645Y-65548619D02*
X177929026Y-65596238D01*
X177929026Y-65596238D02*
X177905216Y-65643857D01*
X177905216Y-65643857D02*
X177881407Y-65739095D01*
X177881407Y-65739095D02*
X177881407Y-65810523D01*
X177881407Y-65810523D02*
X177905216Y-65905761D01*
X177905216Y-65905761D02*
X177929026Y-65953380D01*
X177929026Y-65953380D02*
X177976645Y-66001000D01*
X177976645Y-66001000D02*
X178048073Y-66024809D01*
X178048073Y-66024809D02*
X178167121Y-66024809D01*
X177667121Y-66024809D02*
X177667121Y-65524809D01*
X177667121Y-65524809D02*
X177548073Y-65524809D01*
X177548073Y-65524809D02*
X177476645Y-65548619D01*
X177476645Y-65548619D02*
X177429026Y-65596238D01*
X177429026Y-65596238D02*
X177405216Y-65643857D01*
X177405216Y-65643857D02*
X177381407Y-65739095D01*
X177381407Y-65739095D02*
X177381407Y-65810523D01*
X177381407Y-65810523D02*
X177405216Y-65905761D01*
X177405216Y-65905761D02*
X177429026Y-65953380D01*
X177429026Y-65953380D02*
X177476645Y-66001000D01*
X177476645Y-66001000D02*
X177548073Y-66024809D01*
X177548073Y-66024809D02*
X177667121Y-66024809D01*
X147787120Y-65524809D02*
X147620454Y-66024809D01*
X147620454Y-66024809D02*
X147453787Y-65524809D01*
X147287121Y-66024809D02*
X147287121Y-65524809D01*
X147287121Y-65524809D02*
X147168073Y-65524809D01*
X147168073Y-65524809D02*
X147096645Y-65548619D01*
X147096645Y-65548619D02*
X147049026Y-65596238D01*
X147049026Y-65596238D02*
X147025216Y-65643857D01*
X147025216Y-65643857D02*
X147001407Y-65739095D01*
X147001407Y-65739095D02*
X147001407Y-65810523D01*
X147001407Y-65810523D02*
X147025216Y-65905761D01*
X147025216Y-65905761D02*
X147049026Y-65953380D01*
X147049026Y-65953380D02*
X147096645Y-66001000D01*
X147096645Y-66001000D02*
X147168073Y-66024809D01*
X147168073Y-66024809D02*
X147287121Y-66024809D01*
X146787121Y-66024809D02*
X146787121Y-65524809D01*
X146787121Y-65524809D02*
X146668073Y-65524809D01*
X146668073Y-65524809D02*
X146596645Y-65548619D01*
X146596645Y-65548619D02*
X146549026Y-65596238D01*
X146549026Y-65596238D02*
X146525216Y-65643857D01*
X146525216Y-65643857D02*
X146501407Y-65739095D01*
X146501407Y-65739095D02*
X146501407Y-65810523D01*
X146501407Y-65810523D02*
X146525216Y-65905761D01*
X146525216Y-65905761D02*
X146549026Y-65953380D01*
X146549026Y-65953380D02*
X146596645Y-66001000D01*
X146596645Y-66001000D02*
X146668073Y-66024809D01*
X146668073Y-66024809D02*
X146787121Y-66024809D01*
X150137121Y-65762904D02*
X150065693Y-65786714D01*
X150065693Y-65786714D02*
X150041883Y-65810523D01*
X150041883Y-65810523D02*
X150018074Y-65858142D01*
X150018074Y-65858142D02*
X150018074Y-65929571D01*
X150018074Y-65929571D02*
X150041883Y-65977190D01*
X150041883Y-65977190D02*
X150065693Y-66001000D01*
X150065693Y-66001000D02*
X150113312Y-66024809D01*
X150113312Y-66024809D02*
X150303788Y-66024809D01*
X150303788Y-66024809D02*
X150303788Y-65524809D01*
X150303788Y-65524809D02*
X150137121Y-65524809D01*
X150137121Y-65524809D02*
X150089502Y-65548619D01*
X150089502Y-65548619D02*
X150065693Y-65572428D01*
X150065693Y-65572428D02*
X150041883Y-65620047D01*
X150041883Y-65620047D02*
X150041883Y-65667666D01*
X150041883Y-65667666D02*
X150065693Y-65715285D01*
X150065693Y-65715285D02*
X150089502Y-65739095D01*
X150089502Y-65739095D02*
X150137121Y-65762904D01*
X150137121Y-65762904D02*
X150303788Y-65762904D01*
X149875216Y-65524809D02*
X149589502Y-65524809D01*
X149732359Y-66024809D02*
X149732359Y-65524809D01*
X149422836Y-66024809D02*
X149422836Y-65524809D01*
X149422836Y-65524809D02*
X149137122Y-66024809D01*
X149137122Y-66024809D02*
X149137122Y-65524809D01*
D12*
X164619047Y-51576304D02*
X164619047Y-52909638D01*
X165095238Y-50814400D02*
X165571428Y-52242971D01*
X165571428Y-52242971D02*
X164333333Y-52242971D01*
D11*
X173297121Y-60162904D02*
X173225693Y-60186714D01*
X173225693Y-60186714D02*
X173201883Y-60210523D01*
X173201883Y-60210523D02*
X173178074Y-60258142D01*
X173178074Y-60258142D02*
X173178074Y-60329571D01*
X173178074Y-60329571D02*
X173201883Y-60377190D01*
X173201883Y-60377190D02*
X173225693Y-60401000D01*
X173225693Y-60401000D02*
X173273312Y-60424809D01*
X173273312Y-60424809D02*
X173463788Y-60424809D01*
X173463788Y-60424809D02*
X173463788Y-59924809D01*
X173463788Y-59924809D02*
X173297121Y-59924809D01*
X173297121Y-59924809D02*
X173249502Y-59948619D01*
X173249502Y-59948619D02*
X173225693Y-59972428D01*
X173225693Y-59972428D02*
X173201883Y-60020047D01*
X173201883Y-60020047D02*
X173201883Y-60067666D01*
X173201883Y-60067666D02*
X173225693Y-60115285D01*
X173225693Y-60115285D02*
X173249502Y-60139095D01*
X173249502Y-60139095D02*
X173297121Y-60162904D01*
X173297121Y-60162904D02*
X173463788Y-60162904D01*
X173035216Y-59924809D02*
X172749502Y-59924809D01*
X172892359Y-60424809D02*
X172892359Y-59924809D01*
X172582836Y-60424809D02*
X172582836Y-59924809D01*
X172582836Y-59924809D02*
X172297122Y-60424809D01*
X172297122Y-60424809D02*
X172297122Y-59924809D01*
X140067120Y-59925633D02*
X139900454Y-60425633D01*
X139900454Y-60425633D02*
X139733787Y-59925633D01*
X139567121Y-60425633D02*
X139567121Y-59925633D01*
X139567121Y-59925633D02*
X139448073Y-59925633D01*
X139448073Y-59925633D02*
X139376645Y-59949443D01*
X139376645Y-59949443D02*
X139329026Y-59997062D01*
X139329026Y-59997062D02*
X139305216Y-60044681D01*
X139305216Y-60044681D02*
X139281407Y-60139919D01*
X139281407Y-60139919D02*
X139281407Y-60211347D01*
X139281407Y-60211347D02*
X139305216Y-60306585D01*
X139305216Y-60306585D02*
X139329026Y-60354204D01*
X139329026Y-60354204D02*
X139376645Y-60401824D01*
X139376645Y-60401824D02*
X139448073Y-60425633D01*
X139448073Y-60425633D02*
X139567121Y-60425633D01*
X139067121Y-60425633D02*
X139067121Y-59925633D01*
X139067121Y-59925633D02*
X138948073Y-59925633D01*
X138948073Y-59925633D02*
X138876645Y-59949443D01*
X138876645Y-59949443D02*
X138829026Y-59997062D01*
X138829026Y-59997062D02*
X138805216Y-60044681D01*
X138805216Y-60044681D02*
X138781407Y-60139919D01*
X138781407Y-60139919D02*
X138781407Y-60211347D01*
X138781407Y-60211347D02*
X138805216Y-60306585D01*
X138805216Y-60306585D02*
X138829026Y-60354204D01*
X138829026Y-60354204D02*
X138876645Y-60401824D01*
X138876645Y-60401824D02*
X138948073Y-60425633D01*
X138948073Y-60425633D02*
X139067121Y-60425633D01*
X175701407Y-65548619D02*
X175749026Y-65524809D01*
X175749026Y-65524809D02*
X175820455Y-65524809D01*
X175820455Y-65524809D02*
X175891883Y-65548619D01*
X175891883Y-65548619D02*
X175939502Y-65596238D01*
X175939502Y-65596238D02*
X175963312Y-65643857D01*
X175963312Y-65643857D02*
X175987121Y-65739095D01*
X175987121Y-65739095D02*
X175987121Y-65810523D01*
X175987121Y-65810523D02*
X175963312Y-65905761D01*
X175963312Y-65905761D02*
X175939502Y-65953380D01*
X175939502Y-65953380D02*
X175891883Y-66001000D01*
X175891883Y-66001000D02*
X175820455Y-66024809D01*
X175820455Y-66024809D02*
X175772836Y-66024809D01*
X175772836Y-66024809D02*
X175701407Y-66001000D01*
X175701407Y-66001000D02*
X175677598Y-65977190D01*
X175677598Y-65977190D02*
X175677598Y-65810523D01*
X175677598Y-65810523D02*
X175772836Y-65810523D01*
X175463312Y-66024809D02*
X175463312Y-65524809D01*
X175463312Y-65524809D02*
X175177598Y-66024809D01*
X175177598Y-66024809D02*
X175177598Y-65524809D01*
X174939502Y-66024809D02*
X174939502Y-65524809D01*
X174939502Y-65524809D02*
X174820454Y-65524809D01*
X174820454Y-65524809D02*
X174749026Y-65548619D01*
X174749026Y-65548619D02*
X174701407Y-65596238D01*
X174701407Y-65596238D02*
X174677597Y-65643857D01*
X174677597Y-65643857D02*
X174653788Y-65739095D01*
X174653788Y-65739095D02*
X174653788Y-65810523D01*
X174653788Y-65810523D02*
X174677597Y-65905761D01*
X174677597Y-65905761D02*
X174701407Y-65953380D01*
X174701407Y-65953380D02*
X174749026Y-66001000D01*
X174749026Y-66001000D02*
X174820454Y-66024809D01*
X174820454Y-66024809D02*
X174939502Y-66024809D01*
X181017121Y-65762904D02*
X180945693Y-65786714D01*
X180945693Y-65786714D02*
X180921883Y-65810523D01*
X180921883Y-65810523D02*
X180898074Y-65858142D01*
X180898074Y-65858142D02*
X180898074Y-65929571D01*
X180898074Y-65929571D02*
X180921883Y-65977190D01*
X180921883Y-65977190D02*
X180945693Y-66001000D01*
X180945693Y-66001000D02*
X180993312Y-66024809D01*
X180993312Y-66024809D02*
X181183788Y-66024809D01*
X181183788Y-66024809D02*
X181183788Y-65524809D01*
X181183788Y-65524809D02*
X181017121Y-65524809D01*
X181017121Y-65524809D02*
X180969502Y-65548619D01*
X180969502Y-65548619D02*
X180945693Y-65572428D01*
X180945693Y-65572428D02*
X180921883Y-65620047D01*
X180921883Y-65620047D02*
X180921883Y-65667666D01*
X180921883Y-65667666D02*
X180945693Y-65715285D01*
X180945693Y-65715285D02*
X180969502Y-65739095D01*
X180969502Y-65739095D02*
X181017121Y-65762904D01*
X181017121Y-65762904D02*
X181183788Y-65762904D01*
X180755216Y-65524809D02*
X180469502Y-65524809D01*
X180612359Y-66024809D02*
X180612359Y-65524809D01*
X180302836Y-66024809D02*
X180302836Y-65524809D01*
X180302836Y-65524809D02*
X180017122Y-66024809D01*
X180017122Y-66024809D02*
X180017122Y-65524809D01*
D12*
X157880952Y-74909638D02*
X157500000Y-74909638D01*
X157500000Y-74909638D02*
X157309523Y-74814400D01*
X157309523Y-74814400D02*
X157214285Y-74719161D01*
X157214285Y-74719161D02*
X157023809Y-74433447D01*
X157023809Y-74433447D02*
X156928571Y-74052495D01*
X156928571Y-74052495D02*
X156928571Y-73290590D01*
X156928571Y-73290590D02*
X157023809Y-73100114D01*
X157023809Y-73100114D02*
X157119047Y-73004876D01*
X157119047Y-73004876D02*
X157309523Y-72909638D01*
X157309523Y-72909638D02*
X157690476Y-72909638D01*
X157690476Y-72909638D02*
X157880952Y-73004876D01*
X157880952Y-73004876D02*
X157976190Y-73100114D01*
X157976190Y-73100114D02*
X158071428Y-73290590D01*
X158071428Y-73290590D02*
X158071428Y-73766780D01*
X158071428Y-73766780D02*
X157976190Y-73957257D01*
X157976190Y-73957257D02*
X157880952Y-74052495D01*
X157880952Y-74052495D02*
X157690476Y-74147733D01*
X157690476Y-74147733D02*
X157309523Y-74147733D01*
X157309523Y-74147733D02*
X157119047Y-74052495D01*
X157119047Y-74052495D02*
X157023809Y-73957257D01*
X157023809Y-73957257D02*
X156928571Y-73766780D01*
D11*
X160341407Y-65548619D02*
X160389026Y-65524809D01*
X160389026Y-65524809D02*
X160460455Y-65524809D01*
X160460455Y-65524809D02*
X160531883Y-65548619D01*
X160531883Y-65548619D02*
X160579502Y-65596238D01*
X160579502Y-65596238D02*
X160603312Y-65643857D01*
X160603312Y-65643857D02*
X160627121Y-65739095D01*
X160627121Y-65739095D02*
X160627121Y-65810523D01*
X160627121Y-65810523D02*
X160603312Y-65905761D01*
X160603312Y-65905761D02*
X160579502Y-65953380D01*
X160579502Y-65953380D02*
X160531883Y-66001000D01*
X160531883Y-66001000D02*
X160460455Y-66024809D01*
X160460455Y-66024809D02*
X160412836Y-66024809D01*
X160412836Y-66024809D02*
X160341407Y-66001000D01*
X160341407Y-66001000D02*
X160317598Y-65977190D01*
X160317598Y-65977190D02*
X160317598Y-65810523D01*
X160317598Y-65810523D02*
X160412836Y-65810523D01*
X160103312Y-66024809D02*
X160103312Y-65524809D01*
X160103312Y-65524809D02*
X159817598Y-66024809D01*
X159817598Y-66024809D02*
X159817598Y-65524809D01*
X159579502Y-66024809D02*
X159579502Y-65524809D01*
X159579502Y-65524809D02*
X159460454Y-65524809D01*
X159460454Y-65524809D02*
X159389026Y-65548619D01*
X159389026Y-65548619D02*
X159341407Y-65596238D01*
X159341407Y-65596238D02*
X159317597Y-65643857D01*
X159317597Y-65643857D02*
X159293788Y-65739095D01*
X159293788Y-65739095D02*
X159293788Y-65810523D01*
X159293788Y-65810523D02*
X159317597Y-65905761D01*
X159317597Y-65905761D02*
X159341407Y-65953380D01*
X159341407Y-65953380D02*
X159389026Y-66001000D01*
X159389026Y-66001000D02*
X159460454Y-66024809D01*
X159460454Y-66024809D02*
X159579502Y-66024809D01*
X152661407Y-59948619D02*
X152709026Y-59924809D01*
X152709026Y-59924809D02*
X152780455Y-59924809D01*
X152780455Y-59924809D02*
X152851883Y-59948619D01*
X152851883Y-59948619D02*
X152899502Y-59996238D01*
X152899502Y-59996238D02*
X152923312Y-60043857D01*
X152923312Y-60043857D02*
X152947121Y-60139095D01*
X152947121Y-60139095D02*
X152947121Y-60210523D01*
X152947121Y-60210523D02*
X152923312Y-60305761D01*
X152923312Y-60305761D02*
X152899502Y-60353380D01*
X152899502Y-60353380D02*
X152851883Y-60401000D01*
X152851883Y-60401000D02*
X152780455Y-60424809D01*
X152780455Y-60424809D02*
X152732836Y-60424809D01*
X152732836Y-60424809D02*
X152661407Y-60401000D01*
X152661407Y-60401000D02*
X152637598Y-60377190D01*
X152637598Y-60377190D02*
X152637598Y-60210523D01*
X152637598Y-60210523D02*
X152732836Y-60210523D01*
X152423312Y-60424809D02*
X152423312Y-59924809D01*
X152423312Y-59924809D02*
X152137598Y-60424809D01*
X152137598Y-60424809D02*
X152137598Y-59924809D01*
X151899502Y-60424809D02*
X151899502Y-59924809D01*
X151899502Y-59924809D02*
X151780454Y-59924809D01*
X151780454Y-59924809D02*
X151709026Y-59948619D01*
X151709026Y-59948619D02*
X151661407Y-59996238D01*
X151661407Y-59996238D02*
X151637597Y-60043857D01*
X151637597Y-60043857D02*
X151613788Y-60139095D01*
X151613788Y-60139095D02*
X151613788Y-60210523D01*
X151613788Y-60210523D02*
X151637597Y-60305761D01*
X151637597Y-60305761D02*
X151661407Y-60353380D01*
X151661407Y-60353380D02*
X151709026Y-60401000D01*
X151709026Y-60401000D02*
X151780454Y-60424809D01*
X151780454Y-60424809D02*
X151899502Y-60424809D01*
X160341407Y-59948619D02*
X160389026Y-59924809D01*
X160389026Y-59924809D02*
X160460455Y-59924809D01*
X160460455Y-59924809D02*
X160531883Y-59948619D01*
X160531883Y-59948619D02*
X160579502Y-59996238D01*
X160579502Y-59996238D02*
X160603312Y-60043857D01*
X160603312Y-60043857D02*
X160627121Y-60139095D01*
X160627121Y-60139095D02*
X160627121Y-60210523D01*
X160627121Y-60210523D02*
X160603312Y-60305761D01*
X160603312Y-60305761D02*
X160579502Y-60353380D01*
X160579502Y-60353380D02*
X160531883Y-60401000D01*
X160531883Y-60401000D02*
X160460455Y-60424809D01*
X160460455Y-60424809D02*
X160412836Y-60424809D01*
X160412836Y-60424809D02*
X160341407Y-60401000D01*
X160341407Y-60401000D02*
X160317598Y-60377190D01*
X160317598Y-60377190D02*
X160317598Y-60210523D01*
X160317598Y-60210523D02*
X160412836Y-60210523D01*
X160103312Y-60424809D02*
X160103312Y-59924809D01*
X160103312Y-59924809D02*
X159817598Y-60424809D01*
X159817598Y-60424809D02*
X159817598Y-59924809D01*
X159579502Y-60424809D02*
X159579502Y-59924809D01*
X159579502Y-59924809D02*
X159460454Y-59924809D01*
X159460454Y-59924809D02*
X159389026Y-59948619D01*
X159389026Y-59948619D02*
X159341407Y-59996238D01*
X159341407Y-59996238D02*
X159317597Y-60043857D01*
X159317597Y-60043857D02*
X159293788Y-60139095D01*
X159293788Y-60139095D02*
X159293788Y-60210523D01*
X159293788Y-60210523D02*
X159317597Y-60305761D01*
X159317597Y-60305761D02*
X159341407Y-60353380D01*
X159341407Y-60353380D02*
X159389026Y-60401000D01*
X159389026Y-60401000D02*
X159460454Y-60424809D01*
X159460454Y-60424809D02*
X159579502Y-60424809D01*
X168021407Y-59948619D02*
X168069026Y-59924809D01*
X168069026Y-59924809D02*
X168140455Y-59924809D01*
X168140455Y-59924809D02*
X168211883Y-59948619D01*
X168211883Y-59948619D02*
X168259502Y-59996238D01*
X168259502Y-59996238D02*
X168283312Y-60043857D01*
X168283312Y-60043857D02*
X168307121Y-60139095D01*
X168307121Y-60139095D02*
X168307121Y-60210523D01*
X168307121Y-60210523D02*
X168283312Y-60305761D01*
X168283312Y-60305761D02*
X168259502Y-60353380D01*
X168259502Y-60353380D02*
X168211883Y-60401000D01*
X168211883Y-60401000D02*
X168140455Y-60424809D01*
X168140455Y-60424809D02*
X168092836Y-60424809D01*
X168092836Y-60424809D02*
X168021407Y-60401000D01*
X168021407Y-60401000D02*
X167997598Y-60377190D01*
X167997598Y-60377190D02*
X167997598Y-60210523D01*
X167997598Y-60210523D02*
X168092836Y-60210523D01*
X167783312Y-60424809D02*
X167783312Y-59924809D01*
X167783312Y-59924809D02*
X167497598Y-60424809D01*
X167497598Y-60424809D02*
X167497598Y-59924809D01*
X167259502Y-60424809D02*
X167259502Y-59924809D01*
X167259502Y-59924809D02*
X167140454Y-59924809D01*
X167140454Y-59924809D02*
X167069026Y-59948619D01*
X167069026Y-59948619D02*
X167021407Y-59996238D01*
X167021407Y-59996238D02*
X166997597Y-60043857D01*
X166997597Y-60043857D02*
X166973788Y-60139095D01*
X166973788Y-60139095D02*
X166973788Y-60210523D01*
X166973788Y-60210523D02*
X166997597Y-60305761D01*
X166997597Y-60305761D02*
X167021407Y-60353380D01*
X167021407Y-60353380D02*
X167069026Y-60401000D01*
X167069026Y-60401000D02*
X167140454Y-60424809D01*
X167140454Y-60424809D02*
X167259502Y-60424809D01*
X170947120Y-59924809D02*
X170780454Y-60424809D01*
X170780454Y-60424809D02*
X170613787Y-59924809D01*
X170447121Y-60424809D02*
X170447121Y-59924809D01*
X170447121Y-59924809D02*
X170328073Y-59924809D01*
X170328073Y-59924809D02*
X170256645Y-59948619D01*
X170256645Y-59948619D02*
X170209026Y-59996238D01*
X170209026Y-59996238D02*
X170185216Y-60043857D01*
X170185216Y-60043857D02*
X170161407Y-60139095D01*
X170161407Y-60139095D02*
X170161407Y-60210523D01*
X170161407Y-60210523D02*
X170185216Y-60305761D01*
X170185216Y-60305761D02*
X170209026Y-60353380D01*
X170209026Y-60353380D02*
X170256645Y-60401000D01*
X170256645Y-60401000D02*
X170328073Y-60424809D01*
X170328073Y-60424809D02*
X170447121Y-60424809D01*
X169947121Y-60424809D02*
X169947121Y-59924809D01*
X169947121Y-59924809D02*
X169828073Y-59924809D01*
X169828073Y-59924809D02*
X169756645Y-59948619D01*
X169756645Y-59948619D02*
X169709026Y-59996238D01*
X169709026Y-59996238D02*
X169685216Y-60043857D01*
X169685216Y-60043857D02*
X169661407Y-60139095D01*
X169661407Y-60139095D02*
X169661407Y-60210523D01*
X169661407Y-60210523D02*
X169685216Y-60305761D01*
X169685216Y-60305761D02*
X169709026Y-60353380D01*
X169709026Y-60353380D02*
X169756645Y-60401000D01*
X169756645Y-60401000D02*
X169828073Y-60424809D01*
X169828073Y-60424809D02*
X169947121Y-60424809D01*
X175701407Y-59948619D02*
X175749026Y-59924809D01*
X175749026Y-59924809D02*
X175820455Y-59924809D01*
X175820455Y-59924809D02*
X175891883Y-59948619D01*
X175891883Y-59948619D02*
X175939502Y-59996238D01*
X175939502Y-59996238D02*
X175963312Y-60043857D01*
X175963312Y-60043857D02*
X175987121Y-60139095D01*
X175987121Y-60139095D02*
X175987121Y-60210523D01*
X175987121Y-60210523D02*
X175963312Y-60305761D01*
X175963312Y-60305761D02*
X175939502Y-60353380D01*
X175939502Y-60353380D02*
X175891883Y-60401000D01*
X175891883Y-60401000D02*
X175820455Y-60424809D01*
X175820455Y-60424809D02*
X175772836Y-60424809D01*
X175772836Y-60424809D02*
X175701407Y-60401000D01*
X175701407Y-60401000D02*
X175677598Y-60377190D01*
X175677598Y-60377190D02*
X175677598Y-60210523D01*
X175677598Y-60210523D02*
X175772836Y-60210523D01*
X175463312Y-60424809D02*
X175463312Y-59924809D01*
X175463312Y-59924809D02*
X175177598Y-60424809D01*
X175177598Y-60424809D02*
X175177598Y-59924809D01*
X174939502Y-60424809D02*
X174939502Y-59924809D01*
X174939502Y-59924809D02*
X174820454Y-59924809D01*
X174820454Y-59924809D02*
X174749026Y-59948619D01*
X174749026Y-59948619D02*
X174701407Y-59996238D01*
X174701407Y-59996238D02*
X174677597Y-60043857D01*
X174677597Y-60043857D02*
X174653788Y-60139095D01*
X174653788Y-60139095D02*
X174653788Y-60210523D01*
X174653788Y-60210523D02*
X174677597Y-60305761D01*
X174677597Y-60305761D02*
X174701407Y-60353380D01*
X174701407Y-60353380D02*
X174749026Y-60401000D01*
X174749026Y-60401000D02*
X174820454Y-60424809D01*
X174820454Y-60424809D02*
X174939502Y-60424809D01*
X152661407Y-65548619D02*
X152709026Y-65524809D01*
X152709026Y-65524809D02*
X152780455Y-65524809D01*
X152780455Y-65524809D02*
X152851883Y-65548619D01*
X152851883Y-65548619D02*
X152899502Y-65596238D01*
X152899502Y-65596238D02*
X152923312Y-65643857D01*
X152923312Y-65643857D02*
X152947121Y-65739095D01*
X152947121Y-65739095D02*
X152947121Y-65810523D01*
X152947121Y-65810523D02*
X152923312Y-65905761D01*
X152923312Y-65905761D02*
X152899502Y-65953380D01*
X152899502Y-65953380D02*
X152851883Y-66001000D01*
X152851883Y-66001000D02*
X152780455Y-66024809D01*
X152780455Y-66024809D02*
X152732836Y-66024809D01*
X152732836Y-66024809D02*
X152661407Y-66001000D01*
X152661407Y-66001000D02*
X152637598Y-65977190D01*
X152637598Y-65977190D02*
X152637598Y-65810523D01*
X152637598Y-65810523D02*
X152732836Y-65810523D01*
X152423312Y-66024809D02*
X152423312Y-65524809D01*
X152423312Y-65524809D02*
X152137598Y-66024809D01*
X152137598Y-66024809D02*
X152137598Y-65524809D01*
X151899502Y-66024809D02*
X151899502Y-65524809D01*
X151899502Y-65524809D02*
X151780454Y-65524809D01*
X151780454Y-65524809D02*
X151709026Y-65548619D01*
X151709026Y-65548619D02*
X151661407Y-65596238D01*
X151661407Y-65596238D02*
X151637597Y-65643857D01*
X151637597Y-65643857D02*
X151613788Y-65739095D01*
X151613788Y-65739095D02*
X151613788Y-65810523D01*
X151613788Y-65810523D02*
X151637597Y-65905761D01*
X151637597Y-65905761D02*
X151661407Y-65953380D01*
X151661407Y-65953380D02*
X151709026Y-66001000D01*
X151709026Y-66001000D02*
X151780454Y-66024809D01*
X151780454Y-66024809D02*
X151899502Y-66024809D01*
D10*
X124890419Y-68452381D02*
X124842800Y-68500000D01*
X124842800Y-68500000D02*
X124795180Y-68642857D01*
X124795180Y-68642857D02*
X124795180Y-68738095D01*
X124795180Y-68738095D02*
X124842800Y-68880952D01*
X124842800Y-68880952D02*
X124938038Y-68976190D01*
X124938038Y-68976190D02*
X125033276Y-69023809D01*
X125033276Y-69023809D02*
X125223752Y-69071428D01*
X125223752Y-69071428D02*
X125366609Y-69071428D01*
X125366609Y-69071428D02*
X125557085Y-69023809D01*
X125557085Y-69023809D02*
X125652323Y-68976190D01*
X125652323Y-68976190D02*
X125747561Y-68880952D01*
X125747561Y-68880952D02*
X125795180Y-68738095D01*
X125795180Y-68738095D02*
X125795180Y-68642857D01*
X125795180Y-68642857D02*
X125747561Y-68500000D01*
X125747561Y-68500000D02*
X125699942Y-68452381D01*
X124795180Y-68023809D02*
X125795180Y-68023809D01*
X125318990Y-68023809D02*
X125318990Y-67452381D01*
X124795180Y-67452381D02*
X125795180Y-67452381D01*
X125795180Y-66785714D02*
X125795180Y-66595238D01*
X125795180Y-66595238D02*
X125747561Y-66500000D01*
X125747561Y-66500000D02*
X125652323Y-66404762D01*
X125652323Y-66404762D02*
X125461847Y-66357143D01*
X125461847Y-66357143D02*
X125128514Y-66357143D01*
X125128514Y-66357143D02*
X124938038Y-66404762D01*
X124938038Y-66404762D02*
X124842800Y-66500000D01*
X124842800Y-66500000D02*
X124795180Y-66595238D01*
X124795180Y-66595238D02*
X124795180Y-66785714D01*
X124795180Y-66785714D02*
X124842800Y-66880952D01*
X124842800Y-66880952D02*
X124938038Y-66976190D01*
X124938038Y-66976190D02*
X125128514Y-67023809D01*
X125128514Y-67023809D02*
X125461847Y-67023809D01*
X125461847Y-67023809D02*
X125652323Y-66976190D01*
X125652323Y-66976190D02*
X125747561Y-66880952D01*
X125747561Y-66880952D02*
X125795180Y-66785714D01*
X125795180Y-65738095D02*
X125795180Y-65547619D01*
X125795180Y-65547619D02*
X125747561Y-65452381D01*
X125747561Y-65452381D02*
X125652323Y-65357143D01*
X125652323Y-65357143D02*
X125461847Y-65309524D01*
X125461847Y-65309524D02*
X125128514Y-65309524D01*
X125128514Y-65309524D02*
X124938038Y-65357143D01*
X124938038Y-65357143D02*
X124842800Y-65452381D01*
X124842800Y-65452381D02*
X124795180Y-65547619D01*
X124795180Y-65547619D02*
X124795180Y-65738095D01*
X124795180Y-65738095D02*
X124842800Y-65833333D01*
X124842800Y-65833333D02*
X124938038Y-65928571D01*
X124938038Y-65928571D02*
X125128514Y-65976190D01*
X125128514Y-65976190D02*
X125461847Y-65976190D01*
X125461847Y-65976190D02*
X125652323Y-65928571D01*
X125652323Y-65928571D02*
X125747561Y-65833333D01*
X125747561Y-65833333D02*
X125795180Y-65738095D01*
X124842800Y-64928571D02*
X124795180Y-64785714D01*
X124795180Y-64785714D02*
X124795180Y-64547619D01*
X124795180Y-64547619D02*
X124842800Y-64452381D01*
X124842800Y-64452381D02*
X124890419Y-64404762D01*
X124890419Y-64404762D02*
X124985657Y-64357143D01*
X124985657Y-64357143D02*
X125080895Y-64357143D01*
X125080895Y-64357143D02*
X125176133Y-64404762D01*
X125176133Y-64404762D02*
X125223752Y-64452381D01*
X125223752Y-64452381D02*
X125271371Y-64547619D01*
X125271371Y-64547619D02*
X125318990Y-64738095D01*
X125318990Y-64738095D02*
X125366609Y-64833333D01*
X125366609Y-64833333D02*
X125414228Y-64880952D01*
X125414228Y-64880952D02*
X125509466Y-64928571D01*
X125509466Y-64928571D02*
X125604704Y-64928571D01*
X125604704Y-64928571D02*
X125699942Y-64880952D01*
X125699942Y-64880952D02*
X125747561Y-64833333D01*
X125747561Y-64833333D02*
X125795180Y-64738095D01*
X125795180Y-64738095D02*
X125795180Y-64500000D01*
X125795180Y-64500000D02*
X125747561Y-64357143D01*
X125318990Y-63928571D02*
X125318990Y-63595238D01*
X124795180Y-63452381D02*
X124795180Y-63928571D01*
X124795180Y-63928571D02*
X125795180Y-63928571D01*
X125795180Y-63928571D02*
X125795180Y-63452381D01*
X125795180Y-62404761D02*
X124795180Y-62071428D01*
X124795180Y-62071428D02*
X125795180Y-61738095D01*
X124890419Y-60833333D02*
X124842800Y-60880952D01*
X124842800Y-60880952D02*
X124795180Y-61023809D01*
X124795180Y-61023809D02*
X124795180Y-61119047D01*
X124795180Y-61119047D02*
X124842800Y-61261904D01*
X124842800Y-61261904D02*
X124938038Y-61357142D01*
X124938038Y-61357142D02*
X125033276Y-61404761D01*
X125033276Y-61404761D02*
X125223752Y-61452380D01*
X125223752Y-61452380D02*
X125366609Y-61452380D01*
X125366609Y-61452380D02*
X125557085Y-61404761D01*
X125557085Y-61404761D02*
X125652323Y-61357142D01*
X125652323Y-61357142D02*
X125747561Y-61261904D01*
X125747561Y-61261904D02*
X125795180Y-61119047D01*
X125795180Y-61119047D02*
X125795180Y-61023809D01*
X125795180Y-61023809D02*
X125747561Y-60880952D01*
X125747561Y-60880952D02*
X125699942Y-60833333D01*
X124890419Y-59833333D02*
X124842800Y-59880952D01*
X124842800Y-59880952D02*
X124795180Y-60023809D01*
X124795180Y-60023809D02*
X124795180Y-60119047D01*
X124795180Y-60119047D02*
X124842800Y-60261904D01*
X124842800Y-60261904D02*
X124938038Y-60357142D01*
X124938038Y-60357142D02*
X125033276Y-60404761D01*
X125033276Y-60404761D02*
X125223752Y-60452380D01*
X125223752Y-60452380D02*
X125366609Y-60452380D01*
X125366609Y-60452380D02*
X125557085Y-60404761D01*
X125557085Y-60404761D02*
X125652323Y-60357142D01*
X125652323Y-60357142D02*
X125747561Y-60261904D01*
X125747561Y-60261904D02*
X125795180Y-60119047D01*
X125795180Y-60119047D02*
X125795180Y-60023809D01*
X125795180Y-60023809D02*
X125747561Y-59880952D01*
X125747561Y-59880952D02*
X125699942Y-59833333D01*
X124795180Y-58642856D02*
X125795180Y-58642856D01*
X125795180Y-58642856D02*
X125795180Y-58261904D01*
X125795180Y-58261904D02*
X125747561Y-58166666D01*
X125747561Y-58166666D02*
X125699942Y-58119047D01*
X125699942Y-58119047D02*
X125604704Y-58071428D01*
X125604704Y-58071428D02*
X125461847Y-58071428D01*
X125461847Y-58071428D02*
X125366609Y-58119047D01*
X125366609Y-58119047D02*
X125318990Y-58166666D01*
X125318990Y-58166666D02*
X125271371Y-58261904D01*
X125271371Y-58261904D02*
X125271371Y-58642856D01*
X124795180Y-57642856D02*
X125795180Y-57642856D01*
X124795180Y-57166666D02*
X125795180Y-57166666D01*
X125795180Y-57166666D02*
X124795180Y-56595238D01*
X124795180Y-56595238D02*
X125795180Y-56595238D01*
X124795180Y-55357142D02*
X125795180Y-55357142D01*
X125318990Y-55357142D02*
X125318990Y-54785714D01*
X124795180Y-54785714D02*
X125795180Y-54785714D01*
X125318990Y-54309523D02*
X125318990Y-53976190D01*
X124795180Y-53833333D02*
X124795180Y-54309523D01*
X124795180Y-54309523D02*
X125795180Y-54309523D01*
X125795180Y-54309523D02*
X125795180Y-53833333D01*
X124795180Y-52833333D02*
X125271371Y-53166666D01*
X124795180Y-53404761D02*
X125795180Y-53404761D01*
X125795180Y-53404761D02*
X125795180Y-53023809D01*
X125795180Y-53023809D02*
X125747561Y-52928571D01*
X125747561Y-52928571D02*
X125699942Y-52880952D01*
X125699942Y-52880952D02*
X125604704Y-52833333D01*
X125604704Y-52833333D02*
X125461847Y-52833333D01*
X125461847Y-52833333D02*
X125366609Y-52880952D01*
X125366609Y-52880952D02*
X125318990Y-52928571D01*
X125318990Y-52928571D02*
X125271371Y-53023809D01*
X125271371Y-53023809D02*
X125271371Y-53404761D01*
X125318990Y-52404761D02*
X125318990Y-52071428D01*
X124795180Y-51928571D02*
X124795180Y-52404761D01*
X124795180Y-52404761D02*
X125795180Y-52404761D01*
X125795180Y-52404761D02*
X125795180Y-51928571D01*
D11*
X157857121Y-60162904D02*
X157785693Y-60186714D01*
X157785693Y-60186714D02*
X157761883Y-60210523D01*
X157761883Y-60210523D02*
X157738074Y-60258142D01*
X157738074Y-60258142D02*
X157738074Y-60329571D01*
X157738074Y-60329571D02*
X157761883Y-60377190D01*
X157761883Y-60377190D02*
X157785693Y-60401000D01*
X157785693Y-60401000D02*
X157833312Y-60424809D01*
X157833312Y-60424809D02*
X158023788Y-60424809D01*
X158023788Y-60424809D02*
X158023788Y-59924809D01*
X158023788Y-59924809D02*
X157857121Y-59924809D01*
X157857121Y-59924809D02*
X157809502Y-59948619D01*
X157809502Y-59948619D02*
X157785693Y-59972428D01*
X157785693Y-59972428D02*
X157761883Y-60020047D01*
X157761883Y-60020047D02*
X157761883Y-60067666D01*
X157761883Y-60067666D02*
X157785693Y-60115285D01*
X157785693Y-60115285D02*
X157809502Y-60139095D01*
X157809502Y-60139095D02*
X157857121Y-60162904D01*
X157857121Y-60162904D02*
X158023788Y-60162904D01*
X157595216Y-59924809D02*
X157309502Y-59924809D01*
X157452359Y-60424809D02*
X157452359Y-59924809D01*
X157142836Y-60424809D02*
X157142836Y-59924809D01*
X157142836Y-59924809D02*
X156857122Y-60424809D01*
X156857122Y-60424809D02*
X156857122Y-59924809D01*
X173297121Y-65762904D02*
X173225693Y-65786714D01*
X173225693Y-65786714D02*
X173201883Y-65810523D01*
X173201883Y-65810523D02*
X173178074Y-65858142D01*
X173178074Y-65858142D02*
X173178074Y-65929571D01*
X173178074Y-65929571D02*
X173201883Y-65977190D01*
X173201883Y-65977190D02*
X173225693Y-66001000D01*
X173225693Y-66001000D02*
X173273312Y-66024809D01*
X173273312Y-66024809D02*
X173463788Y-66024809D01*
X173463788Y-66024809D02*
X173463788Y-65524809D01*
X173463788Y-65524809D02*
X173297121Y-65524809D01*
X173297121Y-65524809D02*
X173249502Y-65548619D01*
X173249502Y-65548619D02*
X173225693Y-65572428D01*
X173225693Y-65572428D02*
X173201883Y-65620047D01*
X173201883Y-65620047D02*
X173201883Y-65667666D01*
X173201883Y-65667666D02*
X173225693Y-65715285D01*
X173225693Y-65715285D02*
X173249502Y-65739095D01*
X173249502Y-65739095D02*
X173297121Y-65762904D01*
X173297121Y-65762904D02*
X173463788Y-65762904D01*
X173035216Y-65524809D02*
X172749502Y-65524809D01*
X172892359Y-66024809D02*
X172892359Y-65524809D01*
X172582836Y-66024809D02*
X172582836Y-65524809D01*
X172582836Y-65524809D02*
X172297122Y-66024809D01*
X172297122Y-66024809D02*
X172297122Y-65524809D01*
X142417121Y-65762904D02*
X142345693Y-65786714D01*
X142345693Y-65786714D02*
X142321883Y-65810523D01*
X142321883Y-65810523D02*
X142298074Y-65858142D01*
X142298074Y-65858142D02*
X142298074Y-65929571D01*
X142298074Y-65929571D02*
X142321883Y-65977190D01*
X142321883Y-65977190D02*
X142345693Y-66001000D01*
X142345693Y-66001000D02*
X142393312Y-66024809D01*
X142393312Y-66024809D02*
X142583788Y-66024809D01*
X142583788Y-66024809D02*
X142583788Y-65524809D01*
X142583788Y-65524809D02*
X142417121Y-65524809D01*
X142417121Y-65524809D02*
X142369502Y-65548619D01*
X142369502Y-65548619D02*
X142345693Y-65572428D01*
X142345693Y-65572428D02*
X142321883Y-65620047D01*
X142321883Y-65620047D02*
X142321883Y-65667666D01*
X142321883Y-65667666D02*
X142345693Y-65715285D01*
X142345693Y-65715285D02*
X142369502Y-65739095D01*
X142369502Y-65739095D02*
X142417121Y-65762904D01*
X142417121Y-65762904D02*
X142583788Y-65762904D01*
X142155216Y-65524809D02*
X141869502Y-65524809D01*
X142012359Y-66024809D02*
X142012359Y-65524809D01*
X141702836Y-66024809D02*
X141702836Y-65524809D01*
X141702836Y-65524809D02*
X141417122Y-66024809D01*
X141417122Y-66024809D02*
X141417122Y-65524809D01*
X168021407Y-65548619D02*
X168069026Y-65524809D01*
X168069026Y-65524809D02*
X168140455Y-65524809D01*
X168140455Y-65524809D02*
X168211883Y-65548619D01*
X168211883Y-65548619D02*
X168259502Y-65596238D01*
X168259502Y-65596238D02*
X168283312Y-65643857D01*
X168283312Y-65643857D02*
X168307121Y-65739095D01*
X168307121Y-65739095D02*
X168307121Y-65810523D01*
X168307121Y-65810523D02*
X168283312Y-65905761D01*
X168283312Y-65905761D02*
X168259502Y-65953380D01*
X168259502Y-65953380D02*
X168211883Y-66001000D01*
X168211883Y-66001000D02*
X168140455Y-66024809D01*
X168140455Y-66024809D02*
X168092836Y-66024809D01*
X168092836Y-66024809D02*
X168021407Y-66001000D01*
X168021407Y-66001000D02*
X167997598Y-65977190D01*
X167997598Y-65977190D02*
X167997598Y-65810523D01*
X167997598Y-65810523D02*
X168092836Y-65810523D01*
X167783312Y-66024809D02*
X167783312Y-65524809D01*
X167783312Y-65524809D02*
X167497598Y-66024809D01*
X167497598Y-66024809D02*
X167497598Y-65524809D01*
X167259502Y-66024809D02*
X167259502Y-65524809D01*
X167259502Y-65524809D02*
X167140454Y-65524809D01*
X167140454Y-65524809D02*
X167069026Y-65548619D01*
X167069026Y-65548619D02*
X167021407Y-65596238D01*
X167021407Y-65596238D02*
X166997597Y-65643857D01*
X166997597Y-65643857D02*
X166973788Y-65739095D01*
X166973788Y-65739095D02*
X166973788Y-65810523D01*
X166973788Y-65810523D02*
X166997597Y-65905761D01*
X166997597Y-65905761D02*
X167021407Y-65953380D01*
X167021407Y-65953380D02*
X167069026Y-66001000D01*
X167069026Y-66001000D02*
X167140454Y-66024809D01*
X167140454Y-66024809D02*
X167259502Y-66024809D01*
D12*
X158166666Y-50909638D02*
X156928571Y-50909638D01*
X156928571Y-50909638D02*
X157595238Y-51671542D01*
X157595238Y-51671542D02*
X157309523Y-51671542D01*
X157309523Y-51671542D02*
X157119047Y-51766780D01*
X157119047Y-51766780D02*
X157023809Y-51862019D01*
X157023809Y-51862019D02*
X156928571Y-52052495D01*
X156928571Y-52052495D02*
X156928571Y-52528685D01*
X156928571Y-52528685D02*
X157023809Y-52719161D01*
X157023809Y-52719161D02*
X157119047Y-52814400D01*
X157119047Y-52814400D02*
X157309523Y-52909638D01*
X157309523Y-52909638D02*
X157880952Y-52909638D01*
X157880952Y-52909638D02*
X158071428Y-52814400D01*
X158071428Y-52814400D02*
X158166666Y-52719161D01*
X165380952Y-74909638D02*
X166523809Y-74909638D01*
X165952381Y-74909638D02*
X165952381Y-72909638D01*
X165952381Y-72909638D02*
X166142857Y-73195352D01*
X166142857Y-73195352D02*
X166333333Y-73385828D01*
X166333333Y-73385828D02*
X166523809Y-73481066D01*
X164142857Y-72909638D02*
X163952380Y-72909638D01*
X163952380Y-72909638D02*
X163761904Y-73004876D01*
X163761904Y-73004876D02*
X163666666Y-73100114D01*
X163666666Y-73100114D02*
X163571428Y-73290590D01*
X163571428Y-73290590D02*
X163476190Y-73671542D01*
X163476190Y-73671542D02*
X163476190Y-74147733D01*
X163476190Y-74147733D02*
X163571428Y-74528685D01*
X163571428Y-74528685D02*
X163666666Y-74719161D01*
X163666666Y-74719161D02*
X163761904Y-74814400D01*
X163761904Y-74814400D02*
X163952380Y-74909638D01*
X163952380Y-74909638D02*
X164142857Y-74909638D01*
X164142857Y-74909638D02*
X164333333Y-74814400D01*
X164333333Y-74814400D02*
X164428571Y-74719161D01*
X164428571Y-74719161D02*
X164523809Y-74528685D01*
X164523809Y-74528685D02*
X164619047Y-74147733D01*
X164619047Y-74147733D02*
X164619047Y-73671542D01*
X164619047Y-73671542D02*
X164523809Y-73290590D01*
X164523809Y-73290590D02*
X164428571Y-73100114D01*
X164428571Y-73100114D02*
X164333333Y-73004876D01*
X164333333Y-73004876D02*
X164142857Y-72909638D01*
X141928571Y-52909638D02*
X143071428Y-52909638D01*
X142500000Y-52909638D02*
X142500000Y-50909638D01*
X142500000Y-50909638D02*
X142690476Y-51195352D01*
X142690476Y-51195352D02*
X142880952Y-51385828D01*
X142880952Y-51385828D02*
X143071428Y-51481066D01*
D11*
X163227120Y-59924809D02*
X163060454Y-60424809D01*
X163060454Y-60424809D02*
X162893787Y-59924809D01*
X162727121Y-60424809D02*
X162727121Y-59924809D01*
X162727121Y-59924809D02*
X162608073Y-59924809D01*
X162608073Y-59924809D02*
X162536645Y-59948619D01*
X162536645Y-59948619D02*
X162489026Y-59996238D01*
X162489026Y-59996238D02*
X162465216Y-60043857D01*
X162465216Y-60043857D02*
X162441407Y-60139095D01*
X162441407Y-60139095D02*
X162441407Y-60210523D01*
X162441407Y-60210523D02*
X162465216Y-60305761D01*
X162465216Y-60305761D02*
X162489026Y-60353380D01*
X162489026Y-60353380D02*
X162536645Y-60401000D01*
X162536645Y-60401000D02*
X162608073Y-60424809D01*
X162608073Y-60424809D02*
X162727121Y-60424809D01*
X162227121Y-60424809D02*
X162227121Y-59924809D01*
X162227121Y-59924809D02*
X162108073Y-59924809D01*
X162108073Y-59924809D02*
X162036645Y-59948619D01*
X162036645Y-59948619D02*
X161989026Y-59996238D01*
X161989026Y-59996238D02*
X161965216Y-60043857D01*
X161965216Y-60043857D02*
X161941407Y-60139095D01*
X161941407Y-60139095D02*
X161941407Y-60210523D01*
X161941407Y-60210523D02*
X161965216Y-60305761D01*
X161965216Y-60305761D02*
X161989026Y-60353380D01*
X161989026Y-60353380D02*
X162036645Y-60401000D01*
X162036645Y-60401000D02*
X162108073Y-60424809D01*
X162108073Y-60424809D02*
X162227121Y-60424809D01*
D12*
X143166666Y-72909638D02*
X141833333Y-72909638D01*
X141833333Y-72909638D02*
X142690476Y-74909638D01*
X150571428Y-51100114D02*
X150476190Y-51004876D01*
X150476190Y-51004876D02*
X150285714Y-50909638D01*
X150285714Y-50909638D02*
X149809523Y-50909638D01*
X149809523Y-50909638D02*
X149619047Y-51004876D01*
X149619047Y-51004876D02*
X149523809Y-51100114D01*
X149523809Y-51100114D02*
X149428571Y-51290590D01*
X149428571Y-51290590D02*
X149428571Y-51481066D01*
X149428571Y-51481066D02*
X149523809Y-51766780D01*
X149523809Y-51766780D02*
X150666666Y-52909638D01*
X150666666Y-52909638D02*
X149428571Y-52909638D01*
D11*
X155507120Y-65524809D02*
X155340454Y-66024809D01*
X155340454Y-66024809D02*
X155173787Y-65524809D01*
X155007121Y-66024809D02*
X155007121Y-65524809D01*
X155007121Y-65524809D02*
X154888073Y-65524809D01*
X154888073Y-65524809D02*
X154816645Y-65548619D01*
X154816645Y-65548619D02*
X154769026Y-65596238D01*
X154769026Y-65596238D02*
X154745216Y-65643857D01*
X154745216Y-65643857D02*
X154721407Y-65739095D01*
X154721407Y-65739095D02*
X154721407Y-65810523D01*
X154721407Y-65810523D02*
X154745216Y-65905761D01*
X154745216Y-65905761D02*
X154769026Y-65953380D01*
X154769026Y-65953380D02*
X154816645Y-66001000D01*
X154816645Y-66001000D02*
X154888073Y-66024809D01*
X154888073Y-66024809D02*
X155007121Y-66024809D01*
X154507121Y-66024809D02*
X154507121Y-65524809D01*
X154507121Y-65524809D02*
X154388073Y-65524809D01*
X154388073Y-65524809D02*
X154316645Y-65548619D01*
X154316645Y-65548619D02*
X154269026Y-65596238D01*
X154269026Y-65596238D02*
X154245216Y-65643857D01*
X154245216Y-65643857D02*
X154221407Y-65739095D01*
X154221407Y-65739095D02*
X154221407Y-65810523D01*
X154221407Y-65810523D02*
X154245216Y-65905761D01*
X154245216Y-65905761D02*
X154269026Y-65953380D01*
X154269026Y-65953380D02*
X154316645Y-66001000D01*
X154316645Y-66001000D02*
X154388073Y-66024809D01*
X154388073Y-66024809D02*
X154507121Y-66024809D01*
X150137121Y-60162904D02*
X150065693Y-60186714D01*
X150065693Y-60186714D02*
X150041883Y-60210523D01*
X150041883Y-60210523D02*
X150018074Y-60258142D01*
X150018074Y-60258142D02*
X150018074Y-60329571D01*
X150018074Y-60329571D02*
X150041883Y-60377190D01*
X150041883Y-60377190D02*
X150065693Y-60401000D01*
X150065693Y-60401000D02*
X150113312Y-60424809D01*
X150113312Y-60424809D02*
X150303788Y-60424809D01*
X150303788Y-60424809D02*
X150303788Y-59924809D01*
X150303788Y-59924809D02*
X150137121Y-59924809D01*
X150137121Y-59924809D02*
X150089502Y-59948619D01*
X150089502Y-59948619D02*
X150065693Y-59972428D01*
X150065693Y-59972428D02*
X150041883Y-60020047D01*
X150041883Y-60020047D02*
X150041883Y-60067666D01*
X150041883Y-60067666D02*
X150065693Y-60115285D01*
X150065693Y-60115285D02*
X150089502Y-60139095D01*
X150089502Y-60139095D02*
X150137121Y-60162904D01*
X150137121Y-60162904D02*
X150303788Y-60162904D01*
X149875216Y-59924809D02*
X149589502Y-59924809D01*
X149732359Y-60424809D02*
X149732359Y-59924809D01*
X149422836Y-60424809D02*
X149422836Y-59924809D01*
X149422836Y-59924809D02*
X149137122Y-60424809D01*
X149137122Y-60424809D02*
X149137122Y-59924809D01*
X165577121Y-60162904D02*
X165505693Y-60186714D01*
X165505693Y-60186714D02*
X165481883Y-60210523D01*
X165481883Y-60210523D02*
X165458074Y-60258142D01*
X165458074Y-60258142D02*
X165458074Y-60329571D01*
X165458074Y-60329571D02*
X165481883Y-60377190D01*
X165481883Y-60377190D02*
X165505693Y-60401000D01*
X165505693Y-60401000D02*
X165553312Y-60424809D01*
X165553312Y-60424809D02*
X165743788Y-60424809D01*
X165743788Y-60424809D02*
X165743788Y-59924809D01*
X165743788Y-59924809D02*
X165577121Y-59924809D01*
X165577121Y-59924809D02*
X165529502Y-59948619D01*
X165529502Y-59948619D02*
X165505693Y-59972428D01*
X165505693Y-59972428D02*
X165481883Y-60020047D01*
X165481883Y-60020047D02*
X165481883Y-60067666D01*
X165481883Y-60067666D02*
X165505693Y-60115285D01*
X165505693Y-60115285D02*
X165529502Y-60139095D01*
X165529502Y-60139095D02*
X165577121Y-60162904D01*
X165577121Y-60162904D02*
X165743788Y-60162904D01*
X165315216Y-59924809D02*
X165029502Y-59924809D01*
X165172359Y-60424809D02*
X165172359Y-59924809D01*
X164862836Y-60424809D02*
X164862836Y-59924809D01*
X164862836Y-59924809D02*
X164577122Y-60424809D01*
X164577122Y-60424809D02*
X164577122Y-59924809D01*
G36*
X128443039Y-47769685D02*
G01*
X128488794Y-47822489D01*
X128500000Y-47874000D01*
X128500000Y-77926000D01*
X128480315Y-77993039D01*
X128427511Y-78038794D01*
X128376000Y-78050000D01*
X126624000Y-78050000D01*
X126556961Y-78030315D01*
X126511206Y-77977511D01*
X126500000Y-77926000D01*
X126500000Y-47874000D01*
X126519685Y-47806961D01*
X126572489Y-47761206D01*
X126624000Y-47750000D01*
X128376000Y-47750000D01*
X128443039Y-47769685D01*
G37*
G36*
X134943039Y-47769685D02*
G01*
X134988794Y-47822489D01*
X135000000Y-47874000D01*
X135000000Y-77926000D01*
X134980315Y-77993039D01*
X134927511Y-78038794D01*
X134876000Y-78050000D01*
X133124000Y-78050000D01*
X133056961Y-78030315D01*
X133011206Y-77977511D01*
X133000000Y-77926000D01*
X133000000Y-47874000D01*
X133019685Y-47806961D01*
X133072489Y-47761206D01*
X133124000Y-47750000D01*
X134876000Y-47750000D01*
X134943039Y-47769685D01*
G37*
M02*
